<?xml version="1.0" standalone="no"?>
<!DOCTYPE svg PUBLIC "-//W3C//DTD SVG 1.1//EN" "http://www.w3.org/Graphics/SVG/1.1/DTD/svg11.dtd" >
<svg xmlns="http://www.w3.org/2000/svg" xmlns:xlink="http://www.w3.org/1999/xlink" version="1.1">
<metadata>
Created by FontForge 20200314 at Wed May 27 18:37:12 2015
 By Unknown
Copyright (c) 1995 ParaGraph Intl., (c) 1998 ParaType Inc., ParaType Ltd. All rights reserved.
</metadata>
<defs>
<font id="FuturaPTHeavyItalicW08-Rg" horiz-adv-x="500" >
  <font-face 
    font-family="FuturaPTHeavyItalicW08-Rg"
    font-weight="400"
    font-style="italic"
    font-stretch="normal"
    units-per-em="1000"
    panose-1="2 11 8 2 2 2 4 9 3 3"
    ascent="800"
    descent="-200"
    x-height="446"
    cap-height="667"
    bbox="-330 -260 1235 955"
    underline-thickness="50"
    underline-position="-125"
    slope="-7"
    unicode-range="U+0020-FB02"
  />
<missing-glyph horiz-adv-x="233" 
 />
    <glyph glyph-name="uniF460" unicode="&#x410;`" horiz-adv-x="677" 
d="M483 126h-252l-63 -126h-166l352 667h142l179 -667h-158zM455 244l-54 235l-112 -235h166zM594 853l-180 -129l-59 53l153 148z" />
    <glyph glyph-name="uniF461" unicode="&#x415;`" horiz-adv-x="502" 
d="M504 537h-218l-16 -129h210l-16 -130h-210l-18 -148h222l-16 -130h-372l82 667h368zM506 853l-180 -129l-59 53l153 148z" />
    <glyph glyph-name="uniF462" unicode="&#x418;`" horiz-adv-x="743" 
d="M306 667l-54 -432l361 432h136l-82 -667h-154l54 433l-360 -433h-137l82 667h154zM627 853l-180 -129l-59 53l153 148z" />
    <glyph glyph-name="uniF463" unicode="&#x41e;`" horiz-adv-x="810" 
d="M464 682q48 0 86.5 -7.5t69.5 -20t53.5 -28t39.5 -31.5q43 -42 68.5 -102.5t25.5 -134.5q0 -36 -6.5 -72.5t-19 -71.5t-32 -67t-45.5 -59q-32 -32 -66.5 -52.5t-70.5 -31.5t-71 -15t-68 -4q-31 0 -63.5 3.5t-65 14t-64 29t-61.5 48.5q-17 18 -34 41t-30.5 52t-21.5 64
t-8 76q0 88 31 155.5t79 112.5q32 30 66.5 50t70 31t70.5 15.5t67 4.5zM458 540q-98 0 -159 -64q-29 -31 -45 -71t-16 -82q0 -46 15.5 -81.5t38.5 -58.5q34 -35 72.5 -45.5t73.5 -10.5q17 0 35.5 2t37.5 8t38.5 17t37.5 30q27 28 44.5 70t17.5 94q0 32 -10 70t-43 70t-70 42
t-68 10zM660 853l-180 -129l-59 53l153 148z" />
    <glyph glyph-name="uniF464" unicode="&#x423;`" horiz-adv-x="622" 
d="M250 667l102 -308l172 308h170l-387 -667h-166l117 196l-176 471h168zM566 853l-180 -129l-59 53l153 148z" />
    <glyph glyph-name="uniF465" unicode="&#x42b;`" horiz-adv-x="847" 
d="M153 667h152l-32 -261h91q52 0 94.5 -14.5t68.5 -40.5q16 -15 25.5 -32.5t15 -35t7 -33.5t1.5 -29q0 -64 -20 -103t-41 -59q-41 -39 -97.5 -49t-118.5 -10h-229zM238 123h64q44 0 63.5 6.5t21.5 8.5q13 8 25 25.5t12 46.5q0 25 -10 38.5t-19 19.5q-14 10 -34 12.5
t-43 2.5h-60zM850 667l-82 -667h-154l82 667h154zM679 853l-180 -129l-59 53l153 148z" />
    <glyph glyph-name="uniF466" unicode="&#x42d;`" horiz-adv-x="623" 
d="M64 194q47 -40 97.5 -54.5t90.5 -14.5q6 0 19.5 1t31 4.5t37 11t37.5 20.5q23 17 42 46t26 67h-268l16 124h263q-5 36 -21.5 63t-36.5 44q-28 23 -60 29.5t-58 6.5q-61 0 -109 -23q-15 -8 -37.5 -22.5t-35.5 -23.5l20 165q58 27 104.5 35.5t85.5 8.5q45 0 81 -8
t64.5 -20.5t49.5 -28t36 -30.5q26 -27 42 -57.5t24.5 -61t11.5 -59t3 -52.5q0 -53 -8.5 -96.5t-23 -79t-33 -63t-39.5 -48.5q-32 -32 -64.5 -50.5t-65 -28t-65 -12t-63.5 -2.5q-42 0 -94 7.5t-119 39.5zM517 853l-180 -129l-59 53l153 148z" />
    <glyph glyph-name="uniF467" unicode="&#x42e;`" horiz-adv-x="1058" 
d="M359 417q13 54 37 94.5t51 69.5q49 52 110 76.5t142 24.5q49 0 89.5 -8t73 -21t56.5 -29.5t42 -33.5q29 -28 47.5 -59t29 -61.5t14.5 -60.5t4 -56q0 -78 -24.5 -145t-78.5 -122q-29 -29 -60 -48.5t-64 -31t-69 -16.5t-75 -5q-32 0 -64 3.5t-63.5 13.5t-62.5 29t-59 49
q-12 13 -26.5 32t-27 45t-22 58.5t-12.5 71.5h-88l-35 -287h-154l82 667h154l-31 -250h84zM706 540q-57 0 -92.5 -19.5t-55.5 -38.5q-28 -28 -45.5 -68.5t-17.5 -89.5q0 -45 15.5 -81t38.5 -60q20 -20 54 -38t88 -18q52 0 87 17.5t57 39.5q32 32 47 77t15 87q0 47 -16 82
t-39 58q-19 19 -52 35.5t-84 16.5zM784 853l-180 -129l-59 53l153 148z" />
    <glyph glyph-name="uniF468" unicode="&#x42f;`" horiz-adv-x="602" 
d="M526 0h-154l30 243h-16l-189 -243h-185l227 263q-26 6 -49 19t-40 32q-24 28 -31 59t-7 53q0 54 18.5 100t50.5 76q23 22 48.5 34.5t51.5 19.5t51 9t48 2h228zM395 541q-23 0 -49 -4t-46 -23q-15 -14 -22.5 -33t-7.5 -38q0 -22 8 -38t21 -25q17 -12 40.5 -15.5t40.5 -3.5
h36l24 180h-45zM556 853l-180 -129l-59 53l153 148z" />
    <glyph glyph-name="uniF469" unicode="&#x401;`" horiz-adv-x="502" 
d="M152 667h368l-16 -130h-218l-16 -129h210l-16 -130h-210l-18 -148h222l-16 -130h-372zM449 864l-161 -129l-45 42l134 148zM110 825q0 24 18.5 44.5t45.5 20.5q26 0 45 -20t19 -45q0 -26 -19.5 -45t-44.5 -19q-10 0 -21.5 4.5t-21 12.5t-15.5 20t-6 27zM458 825
q0 31 21 48t42 17q27 0 45.5 -20.5t18.5 -44.5q0 -15 -6 -27t-15.5 -20t-21 -12.5t-21.5 -4.5t-21 4t-20.5 12t-15.5 20t-6 28z" />
    <glyph glyph-name="uniF46A" unicode="&#x430;`" horiz-adv-x="598" 
d="M448 446h144l-55 -446h-144l11 51q-12 -14 -28.5 -28t-34.5 -22q-23 -11 -46.5 -13.5t-36.5 -2.5q-42 0 -75.5 12t-62.5 43q-25 26 -42.5 66t-17.5 98q0 62 20 110.5t52 81.5q35 35 76 50t88 15q20 0 42.5 -3t44.5 -14q13 -6 29.5 -18.5t31.5 -33.5zM327 337
q-52 0 -85 -33q-15 -15 -24.5 -38t-9.5 -51t9 -46.5t20 -29.5q16 -17 35 -23.5t41 -6.5q31 0 51 9.5t31 20.5q20 19 29 45t9 51q0 24 -8.5 44t-22.5 33q-10 9 -28 17t-47 8zM534 650l-169 -135l-59 48l142 152z" />
    <glyph glyph-name="uniF46B" unicode="&#x435;`" horiz-adv-x="542" 
d="M399 283q-2 16 -9.5 32t-19.5 26t-28.5 14t-30.5 4q-26 0 -42.5 -9t-25.5 -18q-8 -9 -15 -21.5t-10 -27.5h181zM204 195q-1 -17 4 -35.5t14 -31.5q14 -20 33 -25.5t36 -5.5q13 0 28 2t29 11q10 7 18 18t13 22l145 -12q-14 -34 -35.5 -63.5t-45.5 -47.5
q-19 -14 -39.5 -22.5t-40.5 -13t-39 -5.5t-34 -1q-21 0 -43 2t-44.5 8t-44.5 18t-42 32q-32 32 -44 71.5t-12 84.5q0 37 7 67.5t18 55t24.5 43.5t27.5 32q41 38 88 50t89 12q57 0 99 -16t68 -41q22 -22 34.5 -50t18 -56.5t5.5 -55.5t-2 -47h-333zM506 650l-169 -135l-59 48
l142 152z" />
    <glyph glyph-name="uniF46C" unicode="&#x438;`" horiz-adv-x="580" 
d="M255 446l-31 -253l219 253h134l-55 -446h-144l32 257l-220 -257h-134l55 446h144zM525 650l-169 -135l-59 48l142 152z" />
    <glyph glyph-name="uniF46D" unicode="&#x43e;`" horiz-adv-x="592" 
d="M337 461q54 0 104 -18t83 -51q26 -26 43 -64t17 -87t-18.5 -98t-53.5 -85q-24 -24 -49.5 -38.5t-52 -22t-53 -10t-50.5 -2.5q-21 0 -45 2t-48 9t-48 20.5t-45 35.5q-26 27 -43.5 67t-17.5 90q0 49 18 95t54 81q37 36 90 56t115 20zM315 107q27 0 48.5 9t35.5 23
q19 18 28 43.5t9 51.5t-8.5 45.5t-21.5 31.5q-14 14 -36 21t-42 7t-41.5 -7.5t-38.5 -23.5q-20 -18 -30 -43.5t-10 -51.5q0 -23 8 -42.5t21 -33.5q11 -11 30 -20.5t48 -9.5zM531 650l-169 -135l-59 48l142 152z" />
    <glyph glyph-name="uniF46E" unicode="&#x443;`" horiz-adv-x="583" 
d="M224 57l-173 389h164l99 -244l150 244h169l-431 -675h-162zM527 650l-169 -135l-59 48l142 152z" />
    <glyph glyph-name="uniF46F" unicode="&#x44b;`" horiz-adv-x="703" 
d="M255 446l-19 -153h74q31 0 65.5 -7t62.5 -35q23 -23 29 -49t6 -46q0 -35 -11 -65t-31 -49q-15 -14 -49.5 -28t-101.5 -14h-224l55 446h144zM266 102q11 0 25 2t22 7q6 4 13 13t7 26q0 7 -2.5 15.5t-11.5 15.5q-8 6 -20.5 8t-29.5 2h-45l-11 -89h53zM700 446l-55 -446
h-144l55 446h144zM587 650l-169 -135l-59 48l142 152z" />
    <glyph glyph-name="uniF470" unicode="&#x44d;`" horiz-adv-x="460" 
d="M56 147q20 -16 53 -31t77 -15q30 0 48.5 7t26.5 12q12 8 24 21.5t18 35.5h-166l13 97h162q-7 20 -18 32t-22 20q-18 12 -37 15.5t-36 3.5q-23 0 -54 -7t-70 -36l16 132q40 16 73 21.5t62 5.5q19 0 41 -2.5t45 -9t45.5 -19t42.5 -32.5q19 -19 30 -39.5t17 -41t7.5 -39.5
t1.5 -35q0 -18 -2.5 -42t-10 -50t-21.5 -52.5t-38 -49.5q-22 -22 -46 -34.5t-48.5 -19t-49 -8.5t-46.5 -2q-38 0 -75 6.5t-79 27.5zM419 650l-169 -135l-59 48l142 152z" />
    <glyph glyph-name="uniF471" unicode="&#x44e;`" horiz-adv-x="789" 
d="M287 292q12 45 34.5 73t41.5 43q24 19 65.5 36t107.5 17q45 0 94 -13.5t91 -55.5q26 -26 43 -63.5t17 -90.5q0 -59 -20 -106t-52 -78q-24 -23 -49 -37t-50.5 -21t-49.5 -9t-45 -2q-40 0 -87.5 9.5t-86.5 44.5q-23 21 -42 56t-24 81h-56l-21 -176h-142l54 446h142
l-19 -154h54zM516 107q17 0 38.5 5t41.5 25q19 18 28 44t9 53q0 26 -8 45.5t-20 31.5q-9 9 -27 18.5t-47 9.5q-32 0 -52 -10t-31 -23q-17 -19 -25.5 -45.5t-8.5 -47.5q0 -24 8 -43.5t21 -33.5q29 -29 73 -29zM630 650l-169 -135l-59 48l142 152z" />
    <glyph glyph-name="uniF472" unicode="&#x44f;`" horiz-adv-x="492" 
d="M160 163q-17 5 -33.5 13.5t-27.5 19.5q-20 20 -25.5 43t-5.5 43q0 33 9 59t26 46q32 37 77 48t99 11h210l-55 -446h-144l18 149h-10l-121 -149h-165zM331 344h-47q-12 0 -28 -1.5t-29 -14.5q-15 -15 -15 -39q0 -17 7.5 -25t12.5 -11q3 -2 14.5 -6t36.5 -4h36zM481 650
l-169 -135l-59 48l142 152z" />
    <glyph glyph-name="uniF473" unicode="&#x451;`" horiz-adv-x="548" 
d="M399 283q-2 16 -9.5 32t-19.5 26t-28.5 14t-30.5 4q-26 0 -42.5 -9t-25.5 -18q-8 -9 -15 -21.5t-10 -27.5h181zM204 195q-1 -17 4 -35.5t14 -31.5q14 -20 33 -25.5t36 -5.5q13 0 28 2t29 11q10 7 18 18t13 22l145 -12q-14 -34 -35.5 -63.5t-45.5 -47.5
q-19 -14 -39.5 -22.5t-40.5 -13t-39 -5.5t-34 -1q-21 0 -43 2t-44.5 8t-44.5 18t-42 32q-32 32 -44 71.5t-12 84.5q0 37 7 67.5t18 55t24.5 43.5t27.5 32q41 38 88 50t89 12q57 0 99 -16t68 -41q22 -22 34.5 -50t18 -56.5t5.5 -55.5t-2 -47h-333zM412 659l-155 -135l-44 39
l128 152zM74 611q0 11 4.5 23t13 21.5t21 16t29.5 6.5t29.5 -7t21 -17t12.5 -21.5t4 -21.5t-4 -21.5t-12.5 -21.5t-21 -17t-29.5 -7t-29.5 6.5t-21 16t-13 21.5t-4.5 23zM410 611q0 11 4.5 23t13 21.5t21 16t29.5 6.5t29.5 -7t21 -17t12.5 -21.5t4 -21.5t-4 -21.5
t-12.5 -21.5t-21 -17t-29.5 -7t-29.5 6.5t-21 16t-13 21.5t-4.5 23z" />
    <glyph glyph-name="uniFB01" unicode="fi" horiz-adv-x="573" 
d="M252 328l-40 -328h-144l40 328h-52l15 118h52l9 70q3 22 7 44t11 43.5t18 41t28 37.5q19 19 40.5 30.5t43 17.5t43 8t39.5 2q50 0 96.5 -13t75.5 -39q28 -24 37.5 -53.5t9.5 -61.5q0 -13 -1 -27.5t-3 -37.5h-144q2 8 2 14.5v13.5q0 38 -18 58q-9 10 -25 16t-33 6
q-22 0 -35.5 -7t-21.5 -16q-15 -17 -20 -38.5t-7 -41.5l-8 -67h96l-15 -118h-96zM569 446l-55 -446h-144l55 446h144z" />
    <glyph glyph-name="uniFB02" unicode="fl" horiz-adv-x="574" 
d="M252 328l-40 -328h-144l40 328h-52l15 118h52l9 70q3 22 7 44t11 43.5t18 41t28 37.5q18 19 39 30.5t43 17.5t43 8t41 2q12 0 33 -1.5t45 -6.5t49 -15.5t45 -28.5q28 -24 37.5 -53.5t9.5 -62.5q0 -19 -3 -38t-3 -38l-61 -496h-144l62 499q3 16 3 37q0 16 -3.5 31.5
t-14.5 26.5q-9 10 -25 16t-33 6q-22 0 -35.5 -7t-21.5 -16q-15 -17 -20 -38.5t-7 -41.5l-8 -67h96l-15 -118h-96z" />
    <glyph glyph-name=".notdef" horiz-adv-x="233" 
 />
    <glyph glyph-name=".null" horiz-adv-x="0" 
 />
    <glyph glyph-name="nonmarkingreturn" horiz-adv-x="333" 
 />
    <glyph glyph-name="space" unicode=" " horiz-adv-x="233" 
 />
    <glyph glyph-name="exclam" unicode="!" horiz-adv-x="298" 
d="M97 223l55 444h152l-55 -444h-152zM64 75q0 38 26.5 64.5t64.5 26.5t64.5 -26.5t26.5 -64.5t-26.5 -64.5t-64.5 -26.5t-64.5 26.5t-26.5 64.5z" />
    <glyph glyph-name="quotedbl" unicode="&#x22;" horiz-adv-x="407" 
d="M204 399h-93l10 268h140zM388 399h-93l9 268h140z" />
    <glyph glyph-name="numbersign" unicode="#" horiz-adv-x="600" 
d="M606 295l-30 -111h-102l-53 -184h-128l53 184h-89l-53 -184h-128l53 184h-101l31 111h100l27 92h-100l30 110h100l49 170h128l-49 -170h89l49 170h128l-49 -170h101l-30 -110h-101l-27 -92h102zM403 387h-89l-27 -92h89z" />
    <glyph glyph-name="dollar" unicode="$" horiz-adv-x="600" 
d="M434 775l-12 -101q9 -1 24.5 -3.5t34.5 -9.5t41.5 -20t46.5 -34l-74 -108q-26 27 -56 39t-54 12q-17 0 -34.5 -4.5t-28.5 -15.5q-9 -8 -14 -20.5t-5 -25.5q0 -26 21 -44q8 -7 22 -14.5t41 -20.5l37 -17q20 -9 43.5 -24.5t41.5 -38.5q33 -42 33 -104q0 -51 -17.5 -91
t-43.5 -67q-18 -19 -53 -40t-89 -25l-15 -110h-90l15 108q-60 8 -104.5 36t-73.5 59l79 102q12 -13 26.5 -25.5t29.5 -21.5q18 -11 38 -17.5t44 -6.5q1 0 9.5 0.5t19.5 2.5t23.5 6t22.5 12q11 9 18.5 24t7.5 35q0 15 -5.5 26t-16.5 21q-12 11 -28 19.5t-33 16.5l-33 17
q-21 11 -45.5 26.5t-43.5 40.5q-17 23 -24 47.5t-7 53.5q0 54 18 89.5t38 55.5q23 23 54 38.5t69 20.5l12 101h90z" />
    <glyph glyph-name="percent" unicode="%" horiz-adv-x="830" 
d="M659 678l68 -15l-475 -677l-67 16zM655 234q-19 0 -34 -5t-29 -18q-14 -14 -21.5 -32t-7.5 -37q0 -12 4.5 -25t12.5 -22t21 -16t33 -7q18 0 34 6t30 21q14 14 20 31t6 34q0 21 -6.5 33.5t-14.5 19.5q-11 11 -24 14t-24 3zM659 315q13 0 28 -1t31.5 -5.5t32.5 -13
t30 -22.5q39 -38 39 -100q0 -33 -11.5 -68.5t-36.5 -61.5q-16 -17 -33.5 -27.5t-35.5 -16t-35.5 -7t-33.5 -1.5q-29 0 -61 6.5t-60 31.5q-15 13 -30 38.5t-15 68.5q0 35 13 69t37 58q31 32 70 42t71 10zM284 676q13 0 28 -1t31.5 -5.5t32.5 -13t30 -22.5q39 -38 39 -100
q0 -33 -11.5 -68.5t-36.5 -61.5q-16 -17 -33.5 -27.5t-35.5 -16t-35.5 -7t-33.5 -1.5q-29 0 -61 6.5t-60 31.5q-15 13 -30 38.5t-15 68.5q0 35 13 69t37 58q31 32 70 42t71 10zM280 595q-19 0 -34 -5t-29 -18q-14 -14 -21.5 -32t-7.5 -37q0 -12 4.5 -25t12.5 -22t21 -16
t33 -7q18 0 34 6t30 21q14 14 20 31t6 34q0 21 -6.5 33.5t-14.5 19.5q-11 11 -24 14t-24 3z" />
    <glyph glyph-name="ampersand" unicode="&#x26;" horiz-adv-x="744" 
d="M714 252q-22 -24 -47 -48t-54 -48l123 -156h-188l-50 62q-20 -17 -45.5 -34.5t-48.5 -25.5q-12 -5 -40 -11t-79 -6q-44 0 -87 9t-78 44q-19 19 -33.5 48t-14.5 70t13.5 75t35.5 59q24 28 61.5 49t75.5 32q-29 32 -39.5 61t-10.5 55q0 34 12 69.5t41 64.5q35 36 77.5 48.5
t84.5 12.5q13 0 30 -1.5t35 -6t36.5 -14t34.5 -25.5q15 -14 28.5 -39.5t13.5 -63.5q0 -29 -11 -60.5t-39 -60.5q-16 -17 -41 -33.5t-51 -28.5l82 -105q27 23 51 46.5t45 46.5zM325 287q-16 -5 -34.5 -16t-30.5 -23q-14 -14 -20 -30t-6 -33t5.5 -27.5t11.5 -17.5
q22 -22 62 -22q19 0 36 5t31.5 12.5t25 14.5t16.5 12zM398 426q12 6 26.5 15.5t25.5 20.5q10 10 18.5 25t8.5 35q0 14 -4.5 24.5t-12.5 16.5q-15 13 -41 13q-29 0 -47 -18q-18 -20 -18 -46q0 -17 9 -37.5t35 -48.5z" />
    <glyph glyph-name="quotesingle" unicode="'" horiz-adv-x="224" 
d="M204 399h-93l10 268h140z" />
    <glyph glyph-name="parenleft" unicode="(" horiz-adv-x="335" 
d="M363 686q-28 -45 -48 -87t-37 -88q-27 -73 -45 -156t-18 -185q0 -112 17 -186t34 -119l-106 -49q-38 90 -52 172t-14 171q0 38 2.5 80.5t10.5 90.5t23 102t40 116q24 59 50.5 106.5t52.5 85.5z" />
    <glyph glyph-name="parenright" unicode=")" horiz-adv-x="335" 
d="M248 740q21 -50 33.5 -95t20 -87t10 -82.5t2.5 -79.5q0 -37 -2 -78.5t-9.5 -88.5t-23 -102t-41.5 -119q-21 -51 -46 -98t-57 -94l-90 54q28 45 49 89t37 86q10 27 21 62.5t20.5 80.5t15.5 100t6 120q0 58 -9.5 126t-42.5 157z" />
    <glyph glyph-name="asterisk" unicode="*" horiz-adv-x="598" 
d="M337 615l6 114h99l-23 -114l110 44l19 -93l-114 -26l63 -87l-86 -58l-49 97l-72 -97l-70 58l83 86l-108 26l43 94z" />
    <glyph glyph-name="plus" unicode="+" 
d="M73 398h154v154h126v-154h154v-116h-154v-155h-126v155h-154v116z" />
    <glyph glyph-name="comma" unicode="," horiz-adv-x="351" 
d="M153 154l136 -7l-185 -279l-96 4z" />
    <glyph glyph-name="hyphen" unicode="-" horiz-adv-x="356" 
d="M89 316h256l-16 -126h-256z" />
    <glyph glyph-name="period" unicode="." horiz-adv-x="278" 
d="M54 75q0 38 26.5 64.5t64.5 26.5t64.5 -26.5t26.5 -64.5t-26.5 -64.5t-64.5 -26.5t-64.5 26.5t-26.5 64.5z" />
    <glyph glyph-name="slash" unicode="/" horiz-adv-x="697" 
d="M594 749l113 -20l-634 -933l-113 20z" />
    <glyph glyph-name="zero" unicode="0" horiz-adv-x="600" 
d="M311 -15q-45 0 -88.5 11.5t-84.5 50.5q-25 24 -41 52.5t-25 58.5t-12.5 61t-3.5 61q0 55 9.5 102.5t25 88t36.5 73t45 56.5q45 45 94.5 63.5t105.5 18.5q18 0 38.5 -2.5t42.5 -9t44 -19t42 -32.5q25 -25 40 -54t23 -59.5t11 -60.5t3 -56q0 -29 -4 -70.5t-16 -86.5
t-35 -91t-62 -84q-22 -22 -43.5 -36t-44.5 -22t-47.5 -11t-52.5 -3zM313 117q43 0 73 31q21 21 35 51t23 63t12.5 66.5t3.5 62.5q0 12 -1 31.5t-5.5 40t-13 39.5t-23.5 31q-10 8 -22 12.5t-28 4.5q-18 0 -37.5 -7t-38.5 -24q-21 -19 -35.5 -46.5t-24.5 -59.5t-14.5 -66
t-4.5 -66q0 -12 0.5 -28.5t4 -35t11 -36.5t20.5 -33q16 -18 33.5 -24.5t31.5 -6.5z" />
    <glyph glyph-name="one" unicode="1" horiz-adv-x="600" 
d="M297 537h-95l16 130h249l-82 -667h-154z" />
    <glyph glyph-name="two" unicode="2" horiz-adv-x="600" 
d="M238 200q45 45 74.5 77t51.5 60q9 11 19.5 26t19.5 32.5t15.5 36.5t6.5 39t-7 36t-18 26q-14 12 -30 15.5t-30 3.5q-17 0 -33 -5t-30 -20q-12 -14 -19.5 -37t-9.5 -44h-154q4 44 21.5 87.5t47.5 75.5q40 43 88 58t99 15q60 0 105 -17t73 -44q20 -20 37.5 -54.5
t17.5 -87.5q0 -77 -44 -144q-8 -12 -21 -28t-28 -32.5t-31 -32.5t-29 -28l-91 -84h211l-17 -130h-495z" />
    <glyph glyph-name="three" unicode="3" horiz-adv-x="600" 
d="M109 467q5 40 22.5 81t46.5 70q20 21 43 33t46.5 19t45.5 9t41 2q38 0 66.5 -6t49 -15t34 -18.5t20.5 -16.5q22 -21 37 -53t15 -78q0 -23 -6 -47.5t-23 -47.5q-5 -7 -20 -21t-42 -25q13 -7 27.5 -19t28.5 -33q24 -37 24 -85q0 -45 -15.5 -89t-47.5 -77q-40 -41 -87 -53.5
t-99 -12.5q-48 0 -99 12.5t-93 54.5q-28 28 -48 71t-24 96h154q2 -17 9 -38t19 -35q17 -19 37.5 -24t37.5 -5t37 5t37 23q12 13 18 31t6 35q0 20 -7.5 36t-18.5 26q-17 15 -38.5 17.5t-38.5 2.5h-9l14 106h10q19 0 39.5 3.5t36.5 14.5q13 10 21.5 26.5t8.5 37.5t-8 33.5
t-16 19.5q-21 18 -56 18q-16 0 -31.5 -5t-28.5 -18q-11 -12 -18.5 -28.5t-9.5 -32.5h-148z" />
    <glyph glyph-name="four" unicode="4" horiz-adv-x="600" 
d="M517 246h80l-15 -122h-80l-15 -124h-148l15 124h-326l11 88l350 455h180zM369 246l31 255l-195 -255h164z" />
    <glyph glyph-name="five" unicode="5" horiz-adv-x="600" 
d="M564 537h-232l-32 -88q11 2 21.5 3t22.5 1q53 0 95 -15t68 -41q21 -20 38.5 -55t17.5 -92q0 -60 -19 -108t-50 -80q-25 -26 -52 -41.5t-55.5 -23.5t-56.5 -10t-54 -2q-25 0 -53 3t-58.5 11.5t-63 24t-66.5 40.5l52 137q38 -41 87 -62.5t93 -21.5q28 0 56 7.5t46 23.5
q16 14 26 36.5t10 47.5q0 23 -9.5 43t-25.5 34q-25 22 -56 27t-52 5q-31 0 -65 -7t-74 -28l119 361h338z" />
    <glyph glyph-name="six" unicode="6" horiz-adv-x="600" 
d="M534 646l-183 -201q54 9 103.5 -6.5t83.5 -50.5q33 -35 43.5 -74.5t10.5 -72.5q0 -64 -20.5 -110t-51.5 -76q-46 -45 -97 -57.5t-105 -12.5q-42 0 -90.5 8.5t-93.5 42.5q-39 30 -59.5 72t-20.5 98q0 41 9.5 74t26.5 64q20 34 42.5 60t46.5 52l206 226zM314 111q24 0 47 8
t39 24q17 17 25.5 41t8.5 47q0 19 -7.5 38t-21.5 32q-16 16 -39.5 22.5t-42.5 6.5q-26 0 -47.5 -9.5t-35.5 -23.5t-23 -34.5t-9 -45.5q0 -29 10 -47.5t19 -27.5q14 -14 33.5 -22.5t43.5 -8.5z" />
    <glyph glyph-name="seven" unicode="7" horiz-adv-x="600" 
d="M410 537h-286l16 130h530l-471 -682l-147 35z" />
    <glyph glyph-name="eight" unicode="8" horiz-adv-x="600" 
d="M460 346q41 -12 71 -40q44 -43 44 -110q0 -48 -16.5 -85t-41.5 -62q-22 -22 -46.5 -34.5t-50 -19t-50.5 -8.5t-49 -2q-48 0 -94.5 9t-88.5 42q-41 33 -54.5 71.5t-13.5 68.5q0 40 14 73.5t36 54.5q17 17 43 30t53 19q-18 10 -31.5 23t-23.5 27q-25 37 -25 86
q0 35 12.5 70t38.5 61q19 20 41.5 32.5t45.5 19t45.5 8.5t43.5 2q45 0 88 -10.5t78 -44.5q28 -26 38 -56.5t10 -68.5q0 -26 -7 -53.5t-30 -53.5q-16 -17 -37.5 -29.5t-42.5 -19.5zM352 410q23 0 38.5 7.5t24.5 16.5q11 11 17.5 28t6.5 34q0 14 -6 28.5t-17 24.5
q-21 19 -57 19q-37 0 -60 -23q-11 -11 -18 -27.5t-7 -35.5q0 -17 5.5 -28t12.5 -19q8 -9 22.5 -17t37.5 -8zM319 107q19 0 39 6t34 20q10 9 18.5 25.5t8.5 41.5q0 26 -9.5 43t-20.5 25q-5 4 -20.5 12t-42.5 8q-29 0 -47 -9.5t-29 -20.5q-7 -7 -15.5 -23.5t-8.5 -42.5
q0 -21 7.5 -36.5t18.5 -25.5q13 -12 31 -17.5t36 -5.5z" />
    <glyph glyph-name="nine" unicode="9" horiz-adv-x="600" 
d="M321 223q-51 -5 -97.5 10t-80.5 48q-35 33 -46.5 72t-11.5 80q0 67 22 111t50 70q22 21 46.5 34t51 20.5t53.5 10.5t53 3q22 0 47.5 -2.5t51 -9t50 -19t45.5 -31.5q10 -10 21.5 -24t20.5 -33t15 -43t6 -54q0 -39 -11 -76t-29 -68q-13 -23 -35.5 -50.5t-60.5 -70.5
l-192 -215l-149 35zM357 556q-29 0 -50 -9t-34 -23q-15 -16 -22.5 -39.5t-7.5 -43.5q0 -18 7 -37.5t21 -33.5t36 -22t44 -8q23 0 45 8t36 22q16 16 25 39t9 45q0 21 -8 41t-23 34q-11 10 -29.5 18.5t-48.5 8.5z" />
    <glyph glyph-name="colon" unicode=":" horiz-adv-x="278" 
d="M48 76q0 38 26.5 64.5t64.5 26.5t64.5 -26.5t26.5 -64.5t-26.5 -64.5t-64.5 -26.5t-64.5 26.5t-26.5 64.5zM85 370q0 38 26.5 64.5t64.5 26.5t64.5 -26.5t26.5 -64.5t-26.5 -64.5t-64.5 -26.5t-64.5 26.5t-26.5 64.5z" />
    <glyph glyph-name="semicolon" unicode=";" horiz-adv-x="354" 
d="M133 154l136 -7l-185 -279l-96 4zM130 370q0 38 26.5 64.5t64.5 26.5t64.5 -26.5t26.5 -64.5t-26.5 -64.5t-64.5 -26.5t-64.5 26.5t-26.5 64.5z" />
    <glyph glyph-name="less" unicode="&#x3c;" 
d="M492 607v-124l-301 -149l301 -149v-124l-434 219v108z" />
    <glyph glyph-name="equal" unicode="=" 
d="M73 481h434v-110h-434v110zM73 309h434v-110h-434v110z" />
    <glyph glyph-name="greater" unicode="&#x3e;" 
d="M522 280l-434 -219v124l301 149l-301 149v124l434 -219v-108z" />
    <glyph glyph-name="question" unicode="?" horiz-adv-x="525" 
d="M193 214l23 184q13 -3 23 -4t23 -1q23 0 50.5 5t48.5 22q11 9 21.5 27t10.5 44q0 22 -7.5 33.5t-11.5 15.5q-7 7 -18.5 12.5t-29.5 5.5q-15 0 -29 -4t-24 -13q-11 -11 -18 -27t-8 -32h-150q5 40 23 78.5t45 64.5q39 38 83.5 47.5t82.5 9.5q42 0 85 -11.5t78 -47.5
q32 -33 41.5 -69.5t9.5 -65.5q0 -48 -15.5 -84t-39.5 -59q-26 -24 -65 -37t-75 -13l-11 -81h-146zM158 75q0 38 26.5 64.5t64.5 26.5t64.5 -26.5t26.5 -64.5t-26.5 -64.5t-64.5 -26.5t-64.5 26.5t-26.5 64.5z" />
    <glyph glyph-name="at" unicode="@" horiz-adv-x="734" 
d="M536 487h84l-65 -203q-2 -8 -5 -19.5t-3 -19.5q0 -9 2.5 -14t5.5 -8q4 -4 10 -5.5t11 -1.5q10 0 20.5 5t18.5 12q16 13 27 33.5t18.5 43.5t11 46t3.5 41q0 49 -18 86t-46 61q-32 27 -75 40.5t-87 13.5q-66 0 -119 -24t-89 -62q-42 -44 -65 -103t-23 -120q0 -62 20 -103.5
t43 -64.5q21 -21 46 -33.5t50 -19t49.5 -8.5t45.5 -2q35 0 78 6.5t100 26.5l10 -76q-20 -8 -71 -20t-132 -12q-25 0 -55 2.5t-61 11t-62 24.5t-59 43q-16 15 -31.5 36t-27.5 48t-19 60t-7 74q0 85 29 158.5t80 124.5q20 20 46.5 39.5t60.5 34.5t76 24.5t93 9.5q43 0 78 -7.5
t63 -19.5t49.5 -28t37.5 -33q31 -34 49.5 -81t18.5 -103q0 -12 -2 -37t-9 -54.5t-21.5 -60.5t-39.5 -56t-52 -35t-59 -10q-41 0 -63 19q-16 13 -21 37q-10 -14 -23 -26.5t-27 -20.5q-21 -11 -43.5 -14t-31.5 -3q-24 0 -49 7t-45 27q-11 12 -23.5 35.5t-12.5 63.5q0 43 18 91
t54 83q24 23 55 36.5t69 13.5q10 0 23 -2t26.5 -7.5t26 -15.5t22.5 -27zM386 225q17 0 30.5 6t25.5 17q23 20 34 47.5t11 53.5q0 9 -2.5 21t-12.5 23q-6 6 -16 11.5t-27 5.5q-34 0 -60 -25q-21 -20 -32 -46t-11 -51q0 -18 5.5 -29.5t12.5 -18.5q17 -15 42 -15z" />
    <glyph glyph-name="A" unicode="A" horiz-adv-x="677" 
d="M483 126h-252l-63 -126h-166l352 667h142l179 -667h-158zM455 244l-54 235l-112 -235h166z" />
    <glyph glyph-name="B" unicode="B" horiz-adv-x="594" 
d="M152 667h213q34 0 74.5 -7.5t72.5 -38.5q18 -17 30.5 -46t12.5 -68q0 -62 -31 -104q-17 -23 -35 -34.5t-35 -16.5q26 -6 44.5 -17t31.5 -23q23 -23 33 -48.5t10 -57.5q0 -54 -17 -88.5t-37 -54.5t-44 -32.5t-50 -19t-53.5 -9t-53.5 -2.5h-248zM273 396h31q20 0 44 4
t41 21q11 11 17 27t6 33q0 20 -7 32t-14 18q-14 11 -32.5 13.5t-35.5 2.5h-32zM239 120h56q11 0 24.5 1t27.5 3.5t26.5 7.5t21.5 13q7 6 15.5 21t8.5 43q0 11 -3.5 25t-14.5 25q-8 8 -20 12.5t-24 7t-22.5 3t-15.5 0.5h-60z" />
    <glyph glyph-name="C" unicode="C" horiz-adv-x="605" 
d="M567 21q-8 -4 -22.5 -10t-34.5 -12t-46.5 -10t-58.5 -4q-47 0 -84.5 9t-66.5 22.5t-50 29t-34 28.5q-16 16 -32 38t-29 50.5t-21 63.5t-8 79q0 88 29.5 157t76.5 116q42 42 108.5 73t158.5 31q39 0 70 -5.5t54.5 -13t39.5 -16t25 -13.5l-19 -163q-10 10 -25 22t-35.5 22
t-47 16.5t-59.5 6.5q-48 0 -87 -14t-71 -49q-31 -33 -45.5 -75t-14.5 -82q0 -42 14.5 -78t37.5 -59t59 -37.5t82 -14.5q50 0 89 17.5t67 40.5z" />
    <glyph glyph-name="D" unicode="D" horiz-adv-x="685" 
d="M347 667q26 0 58.5 -2.5t67 -11.5t68 -26t61.5 -45q33 -33 56.5 -88t23.5 -134q0 -57 -11.5 -101.5t-28 -77.5t-34 -55t-30.5 -34q-58 -55 -135 -73.5t-168 -18.5h-205l82 667h195zM240 130h47q17 0 38 1t43.5 6.5t45.5 15.5t43 28q29 26 48 70.5t19 104.5q0 45 -13 79
t-35 55q-24 23 -62 35t-77 12h-47z" />
    <glyph glyph-name="E" unicode="E" horiz-adv-x="502" 
d="M504 537h-218l-16 -129h210l-16 -130h-210l-18 -148h222l-16 -130h-372l82 667h368z" />
    <glyph glyph-name="F" unicode="F" horiz-adv-x="483" 
d="M507 537h-216l-16 -129h200l-16 -130h-200l-35 -278h-154l83 667h370z" />
    <glyph glyph-name="G" unicode="G" horiz-adv-x="767" 
d="M447 364h312q-2 -63 -13.5 -110.5t-27.5 -82t-33 -57t-29 -35.5q-29 -30 -59 -48t-61.5 -28.5t-63 -14t-62.5 -3.5q-32 0 -64 4.5t-63.5 15t-61 28.5t-56.5 46q-26 27 -42.5 56.5t-26 59.5t-13 59t-3.5 56q0 94 29.5 160t70.5 109q31 33 64.5 53t68 31.5t70 15t70.5 3.5
q45 0 94 -10t94 -39q33 -22 61 -54.5t47 -65.5l-142 -75q-9 20 -25 41t-37 35q-26 18 -53 23t-49 5q-41 0 -75 -12t-65 -44q-33 -35 -49 -80.5t-16 -89.5q0 -38 14 -77.5t41 -65.5q32 -32 69 -40t68 -8q23 0 52 6t54 24q18 13 33.5 35t23.5 51h-161z" />
    <glyph glyph-name="H" unicode="H" horiz-adv-x="720" 
d="M275 417h266l31 250h154l-82 -667h-154l35 287h-266l-35 -287h-154l82 667h154z" />
    <glyph glyph-name="I" unicode="I" horiz-adv-x="306" 
d="M309 667l-82 -667h-154l82 667h154z" />
    <glyph glyph-name="J" unicode="J" horiz-adv-x="415" 
d="M421 667l-56 -453q-2 -18 -5.5 -41t-10.5 -47.5t-19 -48.5t-33 -43q-18 -17 -37.5 -26.5t-39.5 -14.5t-38.5 -6.5t-33.5 -1.5q-26 0 -52.5 4t-53.5 20q-41 24 -67 68l105 96q4 -11 10 -21t14 -17q6 -5 16 -9.5t24 -4.5q23 0 39 14q13 11 19 30.5t9 46.5l56 455h154z" />
    <glyph glyph-name="K" unicode="K" horiz-adv-x="670" 
d="M272 388l244 279h184l-291 -323l247 -344h-194l-201 302l-37 -302h-154l82 667h154z" />
    <glyph glyph-name="L" unicode="L" horiz-adv-x="448" 
d="M306 667l-66 -537h208l-16 -130h-362l82 667h154z" />
    <glyph glyph-name="M" unicode="M" horiz-adv-x="886" 
d="M42 0l190 667h127l114 -399l216 399h131l24 -667h-154l-4 398l-213 -398h-58l-117 398l-102 -398h-154z" />
    <glyph glyph-name="N" unicode="N" horiz-adv-x="796" 
d="M70 0l83 667h134l307 -434l54 434h154l-82 -667h-134l-309 436l-53 -436h-154z" />
    <glyph glyph-name="O" unicode="O" horiz-adv-x="810" 
d="M464 682q48 0 86.5 -7.5t69.5 -20t53.5 -28t39.5 -31.5q43 -42 68.5 -102.5t25.5 -134.5q0 -36 -6.5 -72.5t-19 -71.5t-32 -67t-45.5 -59q-32 -32 -66.5 -52.5t-70.5 -31.5t-71 -15t-68 -4q-31 0 -63.5 3.5t-65 14t-64 29t-61.5 48.5q-17 18 -34 41t-30.5 52t-21.5 64
t-8 76q0 88 31 155.5t79 112.5q32 30 66.5 50t70 31t70.5 15.5t67 4.5zM458 540q-98 0 -159 -64q-29 -31 -45 -71t-16 -82q0 -46 15.5 -81.5t38.5 -58.5q34 -35 72.5 -45.5t73.5 -10.5q17 0 35.5 2t37.5 8t38.5 17t37.5 30q27 28 44.5 70t17.5 94q0 32 -10 70t-43 70t-70 42
t-68 10z" />
    <glyph glyph-name="P" unicode="P" horiz-adv-x="572" 
d="M377 667q18 0 39.5 -1t44.5 -6.5t46 -17t43 -31.5q23 -23 38.5 -57.5t15.5 -85.5q0 -56 -17.5 -101.5t-47.5 -73.5q-11 -11 -28 -21.5t-41 -18.5t-55.5 -13.5t-73.5 -5.5h-88l-29 -234h-154l82 667h225zM268 360h55q25 0 51 4.5t46 24.5q17 17 21.5 36.5t4.5 32.5
q0 14 -4 29.5t-18 28.5q-18 17 -44 21t-43 4h-46z" />
    <glyph glyph-name="Q" unicode="Q" horiz-adv-x="813" 
d="M593 21q-43 -20 -83 -27.5t-85 -7.5q-72 0 -135.5 20.5t-117.5 74.5q-43 43 -67.5 100t-24.5 131q0 86 29.5 154.5t76.5 114.5q31 30 65.5 50t70.5 31t71.5 15.5t68.5 4.5q30 0 64 -4t68 -14.5t67 -29t62 -47.5q49 -49 68 -107t19 -120q0 -49 -9.5 -89t-23.5 -72
q-17 -38 -38 -64t-48 -46l86 -107l-138 -21zM599 201q33 35 43 75t10 68q0 38 -14.5 77.5t-43.5 67.5q-19 18 -53 34.5t-87 16.5q-32 0 -57 -6.5t-44.5 -16t-33.5 -20.5t-23 -21q-26 -29 -42 -69t-16 -87q0 -80 50 -134q34 -36 71.5 -47.5t76.5 -11.5q20 0 35 2.5t32 11.5
l-108 126l139 18z" />
    <glyph glyph-name="R" unicode="R" horiz-adv-x="607" 
d="M361 667q24 0 47.5 -2t46 -8t43.5 -18t40 -32q17 -18 32.5 -51t15.5 -85q0 -48 -15 -84.5t-40 -61.5q-22 -21 -50 -35t-56 -19l172 -271h-180l-161 263l-32 -263h-154l82 667h209zM268 364h38q19 0 44.5 4t45.5 20t27 36.5t7 41.5q0 16 -6 34t-26 31q-15 10 -36.5 13
t-47.5 3h-23z" />
    <glyph glyph-name="S" unicode="S" horiz-adv-x="550" 
d="M477 504q-32 29 -60.5 38.5t-51.5 9.5q-14 0 -32 -3t-31 -14q-11 -8 -17 -21t-6 -27q0 -15 6 -26t17 -19q11 -9 25.5 -16.5t39.5 -18.5l39 -18q24 -11 46 -25.5t42 -38.5q18 -23 26 -47.5t8 -56.5q0 -53 -19 -97.5t-48 -73.5q-41 -40 -90.5 -52.5t-100.5 -12.5
q-37 0 -68 6t-65 24q-25 14 -48 32.5t-41 38.5l86 110q11 -14 26 -28.5t30 -24.5q16 -10 36 -16t42 -6q17 0 38.5 5t35.5 16q28 22 28 62q0 18 -6.5 29t-12.5 17q-4 4 -15.5 11.5t-37.5 18.5l-39 16q-4 1 -15 6t-24.5 12.5t-28 18t-26.5 22.5q-24 25 -34 53t-10 60
q0 52 18 89.5t42 61.5q41 40 89 51.5t91 11.5t91.5 -12.5t101.5 -53.5z" />
    <glyph glyph-name="T" unicode="T" horiz-adv-x="460" 
d="M370 537l-66 -537h-154l66 537h-145l16 130h444l-16 -130h-145z" />
    <glyph glyph-name="U" unicode="U" horiz-adv-x="710" 
d="M305 667l-44 -364q-2 -16 -3.5 -26.5t-1.5 -31.5q0 -20 5 -43.5t24 -42.5q14 -13 35.5 -21.5t52.5 -8.5q38 0 61.5 10t36.5 23q12 12 20 28t13 33.5t7.5 34.5t4.5 31l46 378h154l-48 -388q-4 -30 -8.5 -60t-12.5 -58.5t-22 -54.5t-36 -49q-25 -26 -54.5 -40.5
t-59.5 -21.5t-57 -8.5t-48 -1.5q-25 0 -52.5 2t-55 9.5t-54 21t-49.5 36.5q-32 31 -45.5 69t-13.5 85q0 11 1 25t2 28.5t2.5 28t2.5 23.5l43 354h154z" />
    <glyph glyph-name="V" unicode="V" horiz-adv-x="678" 
d="M243 667l117 -427l221 427h172l-364 -667h-106l-200 667h160z" />
    <glyph glyph-name="W" unicode="W" horiz-adv-x="1002" 
d="M239 667l88 -442l197 442h106l87 -442l196 442h164l-308 -667h-132l-89 405l-189 -405h-132l-144 667h156z" />
    <glyph glyph-name="X" unicode="X" horiz-adv-x="686" 
d="M296 354l-169 313h181l87 -190l133 190h189l-245 -313l201 -354h-181l-119 231l-177 -231h-189z" />
    <glyph glyph-name="Y" unicode="Y" horiz-adv-x="632" 
d="M274 311l-195 356h176l109 -207l159 207h188l-283 -356l-38 -311h-154z" />
    <glyph glyph-name="Z" unicode="Z" horiz-adv-x="616" 
d="M292 130h282l-16 -130h-539l382 537h-264l16 130h520z" />
    <glyph glyph-name="bracketleft" unicode="[" horiz-adv-x="357" 
d="M302 631l-87 -717h92l-12 -98h-214l112 913h214l-13 -98h-92z" />
    <glyph glyph-name="backslash" unicode="\" horiz-adv-x="579" 
d="M471 -204l-406 933l113 20l406 -933z" />
    <glyph glyph-name="bracketright" unicode="]" horiz-adv-x="357" 
d="M132 729h214l-112 -913h-214l12 98h92l87 717h-92z" />
    <glyph glyph-name="asciicircum" unicode="^" horiz-adv-x="496" 
d="M174 333h-132l161 334h165l161 -334h-132l-112 237z" />
    <glyph glyph-name="underscore" unicode="_" 
d="M0 -66h500v-118h-500v118z" />
    <glyph glyph-name="grave" unicode="`" 
d="M168 650l103 65l103 -152l-71 -48z" />
    <glyph glyph-name="a" unicode="a" horiz-adv-x="598" 
d="M448 446h144l-55 -446h-144l11 51q-12 -14 -28.5 -28t-34.5 -22q-23 -11 -46.5 -13.5t-36.5 -2.5q-42 0 -75.5 12t-62.5 43q-25 26 -42.5 66t-17.5 98q0 62 20 110.5t52 81.5q35 35 76 50t88 15q20 0 42.5 -3t44.5 -14q13 -6 29.5 -18.5t31.5 -33.5zM327 337
q-52 0 -85 -33q-15 -15 -24.5 -38t-9.5 -51t9 -46.5t20 -29.5q16 -17 35 -23.5t41 -6.5q31 0 51 9.5t31 20.5q20 19 29 45t9 51q0 24 -8.5 44t-22.5 33q-10 9 -28 17t-47 8z" />
    <glyph glyph-name="b" unicode="b" horiz-adv-x="602" 
d="M253 396q5 7 19 21t36 25q21 11 42.5 15t44.5 4q41 0 74 -11t61 -37q20 -18 32.5 -39t19.5 -42.5t9.5 -42.5t2.5 -39q0 -62 -19 -114t-54 -88q-36 -37 -76.5 -50t-88.5 -13q-21 0 -46 4t-48 17t-36.5 28.5t-17.5 20.5l-4 -55h-144l91 729h144zM344 337q-30 0 -50.5 -9.5
t-32.5 -21.5q-16 -16 -26.5 -39.5t-10.5 -52.5q0 -32 10.5 -50.5t18.5 -26.5q13 -12 32 -20t41 -8q20 0 42.5 8t39.5 25q18 17 28 43t10 50q0 46 -31 75q-11 11 -28.5 19t-42.5 8z" />
    <glyph glyph-name="c" unicode="c" horiz-adv-x="431" 
d="M428 301q-5 4 -13.5 10.5t-21 12.5t-29 10.5t-36.5 4.5q-38 0 -58.5 -13t-28.5 -21q-17 -18 -25 -42t-8 -47q0 -27 9 -46.5t23 -32.5q31 -30 78 -30q29 0 52 11t39 25l-16 -132q-35 -17 -64.5 -21.5t-53.5 -4.5q-45 0 -82.5 12.5t-72.5 49.5q-27 29 -43.5 69t-16.5 92
q0 54 18 100.5t52 81.5q29 29 74 50t111 21q34 0 66 -6.5t64 -22.5z" />
    <glyph glyph-name="d" unicode="d" horiz-adv-x="602" 
d="M482 729h144l-90 -729h-143l8 51q-14 -20 -29.5 -31.5t-29.5 -18.5q-23 -11 -47.5 -13.5t-38.5 -2.5q-41 0 -74 12t-61 39q-27 27 -44 67.5t-17 94.5q0 55 19 108t58 92q35 35 76.5 49t83.5 14q12 0 29.5 -2t37 -9.5t39.5 -21t38 -36.5zM326 337q-32 0 -51.5 -11
t-30.5 -22q-17 -17 -26.5 -40t-9.5 -51q0 -29 10 -47.5t21 -29.5t29 -19t45 -8q29 0 49.5 10t33.5 24q17 17 26 43t9 49q0 26 -9.5 44t-19.5 28q-11 11 -29.5 20.5t-46.5 9.5z" />
    <glyph glyph-name="e" unicode="e" horiz-adv-x="542" 
d="M399 283q-2 16 -9.5 32t-19.5 26t-28.5 14t-30.5 4q-26 0 -42.5 -9t-25.5 -18q-8 -9 -15 -21.5t-10 -27.5h181zM204 195q-1 -17 4 -35.5t14 -31.5q14 -20 33 -25.5t36 -5.5q13 0 28 2t29 11q10 7 18 18t13 22l145 -12q-14 -34 -35.5 -63.5t-45.5 -47.5
q-19 -14 -39.5 -22.5t-40.5 -13t-39 -5.5t-34 -1q-21 0 -43 2t-44.5 8t-44.5 18t-42 32q-32 32 -44 71.5t-12 84.5q0 37 7 67.5t18 55t24.5 43.5t27.5 32q41 38 88 50t89 12q57 0 99 -16t68 -41q22 -22 34.5 -50t18 -56.5t5.5 -55.5t-2 -47h-333z" />
    <glyph glyph-name="f" unicode="f" horiz-adv-x="326" 
d="M246 330l-40 -330h-144l40 330h-52l16 116h52l10 97q1 15 4 33.5t9 38t16.5 39.5t27.5 37q18 18 48 33.5t78 15.5q17 0 40.5 -3.5t54.5 -14.5l-16 -124q-12 9 -25.5 13.5t-25.5 4.5q-30 0 -45 -17q-2 -2 -11 -16.5t-13 -49.5l-10 -87h114l-14 -116h-114z" />
    <glyph glyph-name="g" unicode="g" horiz-adv-x="595" 
d="M445 446h144l-56 -448q-5 -39 -18.5 -83t-48.5 -79q-22 -22 -48 -35t-52 -19.5t-51 -8.5t-44 -2q-45 0 -90.5 10.5t-82.5 45.5q-23 23 -40 54.5t-22 67.5h154q3 -12 10 -24t17 -20q12 -10 28.5 -14t34.5 -4q33 0 52 11.5t27 21.5q14 16 21 39.5t9 43.5l6 48
q-15 -21 -32.5 -33.5t-36 -19t-36 -8.5t-32.5 -2q-34 0 -68.5 8.5t-69.5 44.5q-23 24 -41.5 63t-18.5 99q0 59 19 108.5t54 84.5q64 65 160 65q12 0 29 -1.5t36.5 -8.5t40.5 -21t41 -38zM320 336q-30 0 -49 -9t-30 -20q-15 -15 -24 -40t-9 -50q0 -21 7.5 -42.5t22.5 -35.5
q14 -13 33.5 -20t38.5 -7q20 0 42 7t37 22q17 16 27 43t10 52q0 21 -8 41t-21 32q-11 11 -29 19t-48 8z" />
    <glyph glyph-name="h" unicode="h" horiz-adv-x="571" 
d="M294 729l-42 -332q15 16 29.5 26t25.5 16q24 13 45 16t46 3q26 0 56.5 -6.5t56.5 -31.5q13 -13 20.5 -27t11.5 -28.5t5 -27.5t1 -23q0 -11 -1 -30t-6 -55l-27 -229h-144l24 193q5 35 5.5 51t0.5 21q0 13 -3.5 27.5t-14.5 26.5q-12 12 -26.5 15.5t-24.5 3.5
q-20 0 -36.5 -5t-30.5 -19q-20 -20 -26.5 -48t-8.5 -46l-26 -220h-144l90 729h144z" />
    <glyph glyph-name="i" unicode="i" horiz-adv-x="276" 
d="M264 446l-55 -446h-144l55 446h144zM127 636q0 35 24.5 59.5t59.5 24.5t59.5 -24.5t24.5 -59.5t-24.5 -59.5t-59.5 -24.5t-59.5 24.5t-24.5 59.5z" />
    <glyph glyph-name="j" unicode="j" horiz-adv-x="276" 
d="M264 446l-85 -675h-144l85 675h144zM127 636q0 35 24.5 59.5t59.5 24.5t59.5 -24.5t24.5 -59.5t-24.5 -59.5t-59.5 -24.5t-59.5 24.5t-24.5 59.5z" />
    <glyph glyph-name="k" unicode="k" horiz-adv-x="566" 
d="M295 729l-55 -447l164 164h192l-219 -205l202 -241h-185l-164 196l-26 -196h-144l91 729h144z" />
    <glyph glyph-name="l" unicode="l" horiz-adv-x="264" 
d="M294 729l-90 -729h-144l90 729h144z" />
    <glyph glyph-name="m" unicode="m" horiz-adv-x="843" 
d="M111 446h144l-8 -52q12 17 26 28t27 18q8 4 27.5 10.5t48.5 6.5q26 0 46.5 -6t34.5 -16q7 -5 21.5 -19t24.5 -41q5 7 19.5 25t39.5 33q23 14 47.5 19t47.5 5q24 0 57 -7t62 -34q20 -20 29.5 -42t12 -44.5t0.5 -45.5t-5 -44l-29 -240h-144l26 215q3 27 4 38t1 17
q0 11 -3.5 25.5t-14.5 25.5q-7 7 -18 11.5t-25 4.5q-17 0 -31 -6t-24 -16q-11 -11 -21.5 -34t-15.5 -66l-26 -215h-144l27 220q2 14 3 25.5t1 23.5q0 11 -2.5 25.5t-13.5 25.5q-8 8 -21 12.5t-25 4.5q-13 0 -27.5 -5t-27.5 -18q-20 -21 -26.5 -49t-9.5 -52l-26 -213h-144z
" />
    <glyph glyph-name="n" unicode="n" horiz-adv-x="567" 
d="M255 446l-7 -49q25 26 55 42q24 13 44.5 16t43.5 3q28 0 59 -6.5t57 -31.5q13 -13 20.5 -27t11.5 -28.5t5 -27.5t1 -23q0 -11 -1 -30t-6 -55l-27 -229h-144l24 193q5 35 5.5 51t0.5 21q0 13 -3.5 27.5t-14.5 26.5q-12 12 -27 15.5t-26 3.5q-19 0 -35 -5t-30 -19
q-10 -10 -16 -22.5t-10 -25.5t-6 -25t-3 -21l-26 -220h-144l55 446h144z" />
    <glyph glyph-name="o" unicode="o" horiz-adv-x="592" 
d="M337 461q54 0 104 -18t83 -51q26 -26 43 -64t17 -87t-18.5 -98t-53.5 -85q-24 -24 -49.5 -38.5t-52 -22t-53 -10t-50.5 -2.5q-21 0 -45 2t-48 9t-48 20.5t-45 35.5q-26 27 -43.5 67t-17.5 90q0 49 18 95t54 81q37 36 90 56t115 20zM315 107q27 0 48.5 9t35.5 23
q19 18 28 43.5t9 51.5t-8.5 45.5t-21.5 31.5q-14 14 -36 21t-42 7t-41.5 -7.5t-38.5 -23.5q-20 -18 -30 -43.5t-10 -51.5q0 -23 8 -42.5t21 -33.5q11 -11 30 -20.5t48 -9.5z" />
    <glyph glyph-name="p" unicode="p" horiz-adv-x="598" 
d="M174 -229h-144l83 675h144l-8 -52q14 17 28.5 28t27.5 18q22 11 44 16t48 5q52 0 84.5 -16t50.5 -33q27 -27 43 -71t16 -96q0 -64 -21 -115.5t-54 -84.5t-70 -46.5t-81 -13.5q-24 0 -49 3.5t-48 15.5q-14 8 -29 20t-29 31zM341 337q-50 0 -84 -34q-20 -20 -28 -42t-8 -48
q0 -16 5 -36t22 -37q13 -14 32.5 -22.5t42.5 -8.5q22 0 43 8t37 23q18 17 29 44t11 52q0 21 -8.5 42t-22.5 33q-14 13 -33 19.5t-38 6.5z" />
    <glyph glyph-name="q" unicode="q" horiz-adv-x="598" 
d="M446 446h144l-83 -675h-144l34 276q-24 -28 -57 -45q-19 -9 -40.5 -13t-43.5 -4q-52 0 -85 17.5t-53 37.5q-10 10 -20 24.5t-18.5 34.5t-14 46t-5.5 58q0 65 21 114.5t53 81.5q36 37 77.5 49.5t87.5 12.5q23 0 42 -3.5t39 -14.5q20 -10 34.5 -23t25.5 -28zM328 337
q-22 0 -43.5 -7.5t-40.5 -26.5q-15 -15 -25.5 -37.5t-10.5 -51.5q0 -23 7.5 -43t19.5 -33q27 -29 73 -29q25 0 45.5 8.5t34.5 21.5q20 17 30 43t10 55q0 23 -8 42t-20 31q-11 11 -28.5 19t-43.5 8z" />
    <glyph glyph-name="r" unicode="r" horiz-adv-x="384" 
d="M111 446h144l-13 -66q11 21 25.5 35.5t30.5 23.5q21 11 42 14.5t33 3.5q18 0 33 -2t26 -5l-28 -134q-11 5 -26.5 10t-36.5 5q-27 0 -45 -8.5t-29 -18.5q-19 -18 -28.5 -48t-14.5 -66l-24 -190h-144z" />
    <glyph glyph-name="s" unicode="s" horiz-adv-x="434" 
d="M367 327q-15 11 -36.5 20.5t-47.5 9.5q-11 0 -23 -2.5t-20 -9.5q-10 -8 -10 -22q0 -6 3 -12.5t11 -11.5q2 -2 9 -4.5t26 -7.5l33 -9q17 -5 37.5 -13.5t39.5 -28.5q33 -33 33 -85q0 -42 -14 -69t-28 -41q-18 -19 -39.5 -30t-42.5 -17t-40.5 -7.5t-34.5 -1.5q-29 0 -57.5 4
t-58.5 18q-19 8 -36 20t-33 26l61 97q12 -11 26.5 -21t28.5 -16q4 -2 21.5 -8t40.5 -6q27 0 44 10q18 10 18 29q0 11 -4.5 17.5t-9.5 10.5q-7 5 -16.5 7.5t-18.5 5.5l-32 10q-18 5 -38.5 14.5t-36.5 25.5q-8 9 -19 28.5t-11 51.5t12 59t30 45q17 17 37.5 26.5t41 14.5
t38.5 6t30 1q25 0 63 -7t84 -38z" />
    <glyph glyph-name="t" unicode="t" horiz-adv-x="299" 
d="M246 330l-41 -330h-144l41 330h-52l14 116h52l18 144h144l-18 -144h88l-14 -116h-88z" />
    <glyph glyph-name="u" unicode="u" horiz-adv-x="570" 
d="M567 446l-28 -241q-2 -20 -5.5 -41t-10.5 -42t-18.5 -41.5t-30.5 -38.5q-20 -19 -42.5 -30.5t-45.5 -17.5t-45.5 -7.5t-41.5 -1.5q-17 0 -39 1t-46 6.5t-47 15.5t-42 28q-23 21 -35.5 53t-12.5 67q0 14 1.5 33t3.5 30l27 227h144l-26 -222q-2 -21 -3.5 -31t-1.5 -18
q0 -18 5.5 -30t13.5 -19q10 -9 26.5 -14t32.5 -5q17 0 35.5 6t30.5 19q5 5 14.5 22.5t14.5 57.5l28 234h144z" />
    <glyph glyph-name="v" unicode="v" horiz-adv-x="546" 
d="M204 446l85 -239l147 239h160l-284 -446h-86l-172 446h150z" />
    <glyph glyph-name="w" unicode="w" horiz-adv-x="852" 
d="M305 0h-92l-159 446h152l81 -237l141 237h84l93 -237l133 237h162l-269 -446h-90l-91 254z" />
    <glyph glyph-name="x" unicode="x" horiz-adv-x="620" 
d="M426 241l184 -241h-182l-102 144l-131 -144h-192l234 241l-158 205h182l77 -115l102 115h192z" />
    <glyph glyph-name="y" unicode="y" horiz-adv-x="583" 
d="M224 57l-173 389h164l99 -244l150 244h169l-431 -675h-162z" />
    <glyph glyph-name="z" unicode="z" horiz-adv-x="499" 
d="M271 120h223l-17 -120h-477l282 326h-201l18 120h453z" />
    <glyph glyph-name="braceleft" unicode="{" horiz-adv-x="506" 
d="M284 272q29 -15 38 -36.5t9 -53.5q0 -10 -0.5 -19t-1.5 -17l-19 -160q-1 -5 -1.5 -9t-0.5 -8q0 -24 17 -33t60 -9h19l-13 -109q-17 -1 -35 -1.5t-40 -0.5q-26 0 -52.5 3.5t-49.5 21.5q-21 17 -28 37.5t-7 39.5q0 12 1 22.5t3 19.5l23 189q1 5 1 8.5v8.5q0 19 -10 37.5
t-37 18.5l13 106q33 2 46.5 22.5t17.5 50.5l23 184q3 26 11.5 57t38.5 55q14 11 31 17.5t34.5 9.5t34 4t30.5 1t34 -0.5t28 -1.5l-13 -109h-39q-35 0 -50.5 -14.5t-19.5 -44.5l-20 -161q-5 -44 -24 -79t-52 -47z" />
    <glyph glyph-name="bar" unicode="|" horiz-adv-x="504" 
d="M226 750h126v-1000h-126v1000z" />
    <glyph glyph-name="braceright" unicode="}" horiz-adv-x="506" 
d="M213 147q6 49 23.5 82t51.5 44q-32 14 -39.5 35.5t-7.5 46.5q0 18 3 44l19 160q1 4 1 8.5v9.5q0 15 -7.5 23.5t-18.5 12t-24.5 4.5t-26.5 1h-19l13 109q9 1 29.5 1.5t44.5 0.5q17 0 40.5 -2.5t45 -12.5t36.5 -30.5t15 -56.5q0 -21 -3 -42l-22 -183q-1 -5 -1 -9.5v-9.5
q0 -23 12.5 -37.5t34.5 -16.5l-13 -106q-20 -2 -32 -10t-19 -18.5t-9.5 -22.5t-3.5 -22l-24 -190q-4 -30 -11.5 -58.5t-37.5 -53.5q-27 -22 -58.5 -27t-61.5 -5q-20 0 -40.5 0.5t-32.5 1.5l13 109h19q18 0 33.5 1t27.5 6.5t19.5 17.5t10.5 34z" />
    <glyph glyph-name="asciitilde" unicode="~" 
d="M250 239q-17 6 -32 11t-32 5q-48 0 -77 -61l-71 43l5 11q20 43 33.5 63.5t22.5 29.5q36 36 90 36q25 0 42.5 -4.5t37.5 -12.5l45 -17q17 -7 33.5 -11.5t35.5 -4.5q23 0 39.5 12t31.5 40l72 -42l-4 -8q-10 -20 -24 -42t-32 -40t-41 -30t-52 -12q-25 0 -45 6t-42 14z" />
    <glyph glyph-name="uni00A0" unicode="&#xa0;" horiz-adv-x="233" 
 />
    <glyph glyph-name="exclamdown" unicode="&#xa1;" horiz-adv-x="298" 
d="M205 -230h-156l54 444h156zM109 362q0 38 26.5 64.5t64.5 26.5t64.5 -26.5t26.5 -64.5t-26.5 -64.5t-64.5 -26.5t-64.5 26.5t-26.5 64.5z" />
    <glyph glyph-name="cent" unicode="&#xa2;" horiz-adv-x="600" 
d="M516 414q-29 23 -54.5 29.5t-41.5 6.5q-24 0 -46 -7t-41 -26q-16 -16 -25.5 -37.5t-9.5 -46.5q0 -24 8 -43t21 -32t34 -21.5t47 -8.5t49 9t41 25l-17 -133q-39 -19 -82 -23l-11 -93h-90l13 100q-46 9 -74 30.5t-42 38.5q-19 24 -32 58t-13 82q0 59 19.5 106t48.5 76
q24 24 61.5 43t85.5 23l10 90h90l-11 -94q20 -2 39.5 -8t38.5 -14z" />
    <glyph glyph-name="sterling" unicode="&#xa3;" horiz-adv-x="600" 
d="M79 248l11 92h75q-9 28 -15 60.5t-6 60.5q0 44 15 85t46 72q10 10 25 21t37 20.5t50.5 16t65.5 6.5q61 0 102 -18.5t66 -44.5q24 -25 40.5 -64.5t16.5 -95.5v-13.5t-1 -13.5h-145q1 5 1 10v11q0 19 -5 40.5t-20 37.5q-8 8 -22 15t-37 7q-24 0 -38 -8t-20 -13
q-17 -15 -24.5 -38.5t-7.5 -45.5q0 -3 0.5 -9.5t3 -18.5t6.5 -31.5t12 -48.5h166l-12 -92h-146q1 -5 1 -9v-9q0 -23 -7 -45t-19 -40q18 -5 30.5 -9t28.5 -11q15 -6 30 -11.5t32 -5.5q12 0 21 3t17 12q13 15 18 33l104 -10q-5 -35 -19 -67t-34 -53q-26 -28 -53.5 -34.5
t-54.5 -6.5q-25 0 -46.5 4t-56.5 18l-41 16q-5 2 -25.5 8.5t-39.5 6.5q-26 0 -40 -13t-19 -30l-107 9q7 23 18.5 49.5t24.5 43.5q22 29 47 41t45 17q7 11 12 27t5 38v13.5t-2 14.5h-110z" />
    <glyph glyph-name="currency" unicode="&#xa4;" horiz-adv-x="667" 
d="M61 135l103 103q-12 15 -28 48.5t-16 89.5q0 28 8.5 64t36.5 74l-104 104l68 68l104 -103q25 20 58.5 32t81.5 12q26 0 63.5 -7t75.5 -37l103 103l68 -68l-102 -103q15 -19 24 -38.5t13.5 -37.5t6 -34t1.5 -29q0 -29 -7 -65.5t-37 -72.5l103 -103l-68 -68l-103 103
q-24 -20 -57 -32.5t-81 -12.5q-60 0 -93.5 15t-50.5 29l-103 -102zM373 237q25 0 50.5 9t46.5 29q22 21 31 46.5t9 54.5q0 38 -12.5 62t-26.5 38q-17 17 -42 28t-56 11q-34 0 -58.5 -11.5t-39.5 -27.5q-16 -16 -27.5 -40.5t-11.5 -59.5t12 -59.5t26 -38.5q20 -20 47.5 -30.5
t51.5 -10.5z" />
    <glyph glyph-name="yen" unicode="&#xa5;" horiz-adv-x="600" 
d="M101 347l12 97h82l-107 223h168l91 -212l140 212h182l-165 -223h86l-12 -97h-146l-28 -35l-3 -28h169l-12 -97h-169l-23 -187h-146l23 187h-162l12 97h162l3 28l-17 35h-140z" />
    <glyph glyph-name="brokenbar" unicode="&#xa6;" horiz-adv-x="504" 
d="M226 750h126v-385h-126v385zM226 136h126v-386h-126v386z" />
    <glyph glyph-name="section" unicode="&#xa7;" horiz-adv-x="574" 
d="M210 9q0 -17 5.5 -35t16.5 -29q8 -8 20 -13.5t32 -5.5q23 0 36 6.5t18 11.5t12 16t7 31q0 26 -19 44q-13 12 -30 20.5t-40 19.5l-43 21q-19 9 -39 21t-37 29q-28 28 -36 58t-8 59q0 28 6.5 54.5t27.5 53.5q17 21 38.5 37t44.5 26q-21 13 -33 28.5t-18 31t-8 29.5t-2 25
q0 41 13 74t36 56q17 16 36.5 26.5t39 15.5t38 7t33.5 2q33 0 58 -5t43.5 -13t31.5 -17t21 -18q25 -26 37.5 -61.5t13.5 -69.5h-130q0 14 -4 30.5t-15 27.5q-8 8 -20.5 13.5t-31.5 5.5q-20 0 -32.5 -5.5t-19.5 -12.5q-4 -4 -11 -15t-7 -31q0 -17 8 -28.5t22 -22.5
q11 -8 25.5 -16t37.5 -19l38 -18q35 -17 54.5 -32.5t29.5 -28.5q11 -13 23 -40t12 -72q0 -29 -8 -58t-26 -52q-12 -16 -31 -29.5t-43 -21.5q33 -29 42.5 -61t9.5 -56q0 -46 -15.5 -79.5t-36.5 -54.5t-56.5 -37t-91.5 -16q-61 0 -97 18t-53 36q-26 27 -39.5 66t-15.5 73h130z
M321 197q22 0 37 7t23 16q14 14 18 30t4 28q0 26 -7.5 40t-15.5 21q-11 9 -27 13t-30 4q-17 0 -32 -4.5t-27 -17.5q-8 -8 -15.5 -23.5t-7.5 -41.5q0 -20 6.5 -32t14.5 -20q22 -20 59 -20z" />
    <glyph glyph-name="dieresis" unicode="&#xa8;" 
d="M136 599q0 32 23.5 55.5t55.5 23.5t55.5 -23.5t23.5 -55.5t-23.5 -55.5t-55.5 -23.5t-55.5 23.5t-23.5 55.5zM354 599q0 32 23.5 55.5t55.5 23.5t55.5 -23.5t23.5 -55.5t-23.5 -55.5t-55.5 -23.5t-55.5 23.5t-23.5 55.5z" />
    <glyph glyph-name="copyright" unicode="&#xa9;" horiz-adv-x="762" 
d="M547 396q-17 20 -43.5 35t-58.5 15q-20 0 -42 -7.5t-38 -22.5q-17 -16 -24.5 -39t-7.5 -45q0 -24 7.5 -44t20.5 -34q15 -16 37 -25t48 -9q19 0 34.5 5t28.5 12.5t22.5 16t15.5 15.5v-120q-31 -14 -58 -19.5t-53 -5.5q-58 0 -96 18t-61 41q-25 26 -41.5 64t-16.5 84
q0 47 16.5 85t42.5 64q25 26 65 44t95 18q24 0 52 -5.5t55 -18.5v-122zM421 620q-24 0 -50 -5.5t-51 -15.5t-48 -24.5t-42 -32.5q-37 -36 -61.5 -91.5t-24.5 -116.5q0 -62 24.5 -118t61.5 -91q19 -18 42 -32.5t48 -24.5t51 -15.5t50 -5.5t50 5.5t51 15.5t48 24.5t42 32.5
q37 35 61.5 91t24.5 118q0 61 -24.5 116.5t-61.5 91.5q-19 18 -42 32.5t-48 24.5t-51 15.5t-50 5.5zM768 333q0 -72 -27 -136t-76 -113q-45 -44 -106.5 -71.5t-137.5 -27.5t-137.5 27.5t-106.5 71.5q-49 49 -76 113t-27 136q0 73 27 137t76 113q45 44 106.5 71.5t137.5 27.5
t137.5 -27.5t106.5 -71.5q49 -49 76 -113t27 -137z" />
    <glyph glyph-name="ordfeminine" unicode="&#xaa;" horiz-adv-x="349" 
d="M391 659l-32 -264h-84l5 32q-23 -27 -47 -34t-40 -7q-20 0 -41.5 6t-40.5 24q-23 22 -29.5 48.5t-6.5 48.5q0 25 7.5 56t34.5 59q22 22 47 30.5t54 8.5q17 0 41.5 -6.5t44.5 -32.5l3 31h84zM233 593q-20 0 -32 -6t-20 -14q-19 -21 -19 -51q0 -15 4.5 -26t11.5 -18
q16 -18 48 -18q18 0 30.5 5.5t20.5 13.5t14 20.5t6 32.5q0 17 -5.5 28t-12.5 17q-9 8 -21.5 12t-24.5 4zM354 357l-9 -66h-286l8 66h287z" />
    <glyph glyph-name="guillemotleft" unicode="&#xab;" horiz-adv-x="534" 
d="M284 55l-88 -47l-128 216l181 215l72 -65l-135 -160zM492 55l-88 -47l-128 216l181 215l72 -65l-135 -160z" />
    <glyph glyph-name="logicalnot" unicode="&#xac;" 
d="M362 0v149h-310v118h436v-267h-126z" />
    <glyph glyph-name="uni00AD" unicode="&#xad;" horiz-adv-x="356" 
d="M89 316h256l-16 -126h-256z" />
    <glyph glyph-name="registered" unicode="&#xae;" horiz-adv-x="762" 
d="M410 529q13 0 28.5 -1t31.5 -5t31.5 -12t28.5 -21q31 -31 31 -82q0 -24 -8 -43t-21 -33q-5 -5 -18 -15t-36 -15l107 -152h-133l-76 128v-128h-108v379h142zM376 361h15q12 0 23 1t22 8q19 12 19 37q0 7 -2.5 16t-11.5 16q-11 8 -26 9t-25 1h-14v-88zM421 620
q-24 0 -50 -5.5t-51 -15.5t-48 -24.5t-42 -32.5q-37 -36 -61.5 -91.5t-24.5 -116.5q0 -62 24.5 -118t61.5 -91q19 -18 42 -32.5t48 -24.5t51 -15.5t50 -5.5t50 5.5t51 15.5t48 24.5t42 32.5q37 35 61.5 91t24.5 118q0 61 -24.5 116.5t-61.5 91.5q-19 18 -42 32.5t-48 24.5
t-51 15.5t-50 5.5zM768 333q0 -72 -27 -136t-76 -113q-45 -44 -106.5 -71.5t-137.5 -27.5t-137.5 27.5t-106.5 71.5q-49 49 -76 113t-27 136q0 73 27 137t76 113q45 44 106.5 71.5t137.5 27.5t137.5 -27.5t106.5 -71.5q49 -49 76 -113t27 -137z" />
    <glyph glyph-name="macron" unicode="&#xaf;" 
d="M138 633h380l-11 -90h-380z" />
    <glyph glyph-name="degree" unicode="&#xb0;" horiz-adv-x="502" 
d="M235 515q0 -30 22 -52t54 -22t54 22t22 52t-22 52t-54 22t-54 -22t-22 -52zM157 515q0 32 12 59.5t32.5 48t48.5 32.5t61 12t61 -12t48.5 -32.5t32.5 -48t12 -59.5t-12 -59.5t-32.5 -48t-48.5 -32.5t-61 -12t-61 12t-48.5 32.5t-32.5 48t-12 59.5z" />
    <glyph glyph-name="plusminus" unicode="&#xb1;" 
d="M63 472h154v155h126v-155h154v-116h-154v-155h-126v155h-154v116zM63 167h434v-116h-434v116z" />
    <glyph glyph-name="uni00B2" unicode="&#xb2;" horiz-adv-x="395" 
d="M181 394q37 37 60 59.5t37 45.5q8 13 13 25.5t5 29.5q0 8 -2.5 17.5t-12.5 17.5q-13 10 -33 10q-19 0 -32 -13q-8 -8 -13.5 -21.5t-7.5 -25.5h-94q5 27 17 55t32 47q22 22 47 30t54 8q19 0 48.5 -4.5t55.5 -26.5q20 -17 31 -40.5t11 -49.5q0 -16 -5 -36.5t-20 -44.5
q-16 -26 -35 -43.5t-39 -34.5l-53 -46h131l-10 -78h-304z" />
    <glyph glyph-name="uni00B3" unicode="&#xb3;" horiz-adv-x="395" 
d="M171 396q3 -24 17 -38q9 -9 20 -12.5t22 -3.5q27 0 43 14q8 7 12 18t4 22q0 14 -5.5 22.5t-12.5 13.5q-11 8 -24 9.5t-27 1.5h-6l8 70h10q9 0 23 1.5t25 10.5q16 13 16 36q0 9 -3.5 18t-10.5 14q-5 4 -14 7t-17 3t-18 -3.5t-17 -10.5q-6 -6 -9.5 -16t-5.5 -18h-90
q4 22 14.5 45.5t27.5 40.5q25 25 53 31.5t51 6.5q22 0 51 -6t53 -30q18 -18 24 -38.5t6 -41.5q0 -15 -3 -27t-12 -25q-9 -14 -19.5 -20.5t-21.5 -10.5q20 -9 33 -23q12 -14 16 -28.5t4 -28.5q0 -28 -10 -54t-30 -45q-28 -27 -60 -33t-56 -6q-12 0 -26.5 1.5t-29.5 5.5
t-29.5 11.5t-27.5 20.5q-17 17 -28.5 41.5t-13.5 53.5h94z" />
    <glyph glyph-name="acute" unicode="&#xb4;" 
d="M491 650l-169 -135l-59 48l142 152z" />
    <glyph glyph-name="uni00B5" unicode="&#xb5;" horiz-adv-x="570" 
d="M30 -230l83 676h144l-24 -195q-3 -27 -4.5 -43t-1.5 -27q0 -16 3 -34t17 -32q20 -21 53 -21q19 0 33.5 6t23.5 14q20 19 27 50t12 67l27 215h144l-55 -446h-141l7 53q-8 -20 -19 -31l-13 -13q-10 -8 -24 -13.5t-34 -5.5q-15 0 -29 4t-26 17q-9 9 -16 23t-11 28l-35 -292
h-141z" />
    <glyph glyph-name="uni00B5" unicode="&#x3bc;" horiz-adv-x="570" 
d="M30 -230l83 676h144l-24 -195q-3 -27 -4.5 -43t-1.5 -27q0 -16 3 -34t17 -32q20 -21 53 -21q19 0 33.5 6t23.5 14q20 19 27 50t12 67l27 215h144l-55 -446h-141l7 53q-8 -20 -19 -31l-13 -13q-10 -8 -24 -13.5t-34 -5.5q-15 0 -29 4t-26 17q-9 9 -16 23t-11 28l-35 -292
h-141z" />
    <glyph glyph-name="paragraph" unicode="&#xb6;" horiz-adv-x="659" 
d="M205 -94l50 415h-7q-42 0 -75 13.5t-53 33.5q-23 24 -30 52t-7 49q0 43 13.5 79.5t36.5 59.5q19 20 43 31.5t50 17.5t53.5 8t54.5 2h335l-12 -97h-72l-81 -664h-108l81 664h-83l-81 -664h-108z" />
    <glyph glyph-name="periodcentered" unicode="&#xb7;" horiz-adv-x="256" 
d="M53 334q0 46 31 77t77 31t77 -31t31 -77t-31 -77t-77 -31t-77 31t-31 77z" />
    <glyph glyph-name="cedilla" unicode="&#xb8;" 
d="M345 -97l-126 -139l-74 40l106 150z" />
    <glyph glyph-name="uni00B9" unicode="&#xb9;" horiz-adv-x="395" 
d="M233 589h-66l10 78h158l-48 -392h-92z" />
    <glyph glyph-name="ordmasculine" unicode="&#xba;" horiz-adv-x="352" 
d="M240 667q11 0 26 -1.5t31.5 -6t33 -13.5t30.5 -24q13 -14 24 -36t11 -57q0 -37 -13 -61.5t-27 -38.5q-29 -29 -63.5 -36t-63.5 -7q-25 0 -56.5 6t-57.5 27q-13 11 -28.5 35t-15.5 66q0 38 14 64t31 41q16 14 45.5 28t78.5 14zM236 593q-20 0 -32.5 -6.5t-18.5 -13.5
q-10 -11 -15 -25t-5 -28q0 -28 18 -44q10 -10 21.5 -13t22.5 -3q22 0 34.5 6t20.5 13q8 8 14 20.5t6 29.5q0 31 -19 48q-8 7 -19.5 11.5t-27.5 4.5zM360 357l-8 -66h-300l8 66h300z" />
    <glyph glyph-name="guillemotright" unicode="&#xbb;" horiz-adv-x="534" 
d="M99 394l86 45l129 -215l-182 -216l-74 67l138 159zM307 394l86 45l129 -215l-182 -216l-74 67l138 159z" />
    <glyph glyph-name="onequarter" unicode="&#xbc;" horiz-adv-x="860" 
d="M225 589h-67l10 78h159l-49 -400h-92zM646 678l65 -23l-472 -669l-65 24zM752 150h46l-9 -74h-46l-9 -76h-88l9 76h-192l6 50l208 274h106zM664 150l19 148l-113 -148h94z" />
    <glyph glyph-name="onehalf" unicode="&#xbd;" horiz-adv-x="860" 
d="M201 589h-66l10 78h158l-48 -392h-92zM622 678l65 -23l-472 -669l-65 24zM596 119l60 60t37 45q8 12 13 25.5t5 30.5q0 8 -2.5 17t-12.5 17q-7 5 -16 7.5t-17 2.5q-23 0 -36 -18q-6 -8 -10.5 -19.5t-6.5 -22.5h-94q5 27 17 55t32 47q18 18 43 28t58 10q29 0 59 -9t52 -29
q13 -11 24 -31t11 -52q0 -40 -25 -81q-16 -26 -35 -43.5t-39 -34.5l-53 -46h131l-10 -78h-304z" />
    <glyph glyph-name="threequarters" unicode="&#xbe;" horiz-adv-x="860" 
d="M172 399q0 -25 15 -40q5 -5 14 -9.5t26 -4.5q8 0 21.5 2.5t24.5 13.5q9 8 13 18.5t4 21.5q0 22 -18 35q-3 2 -13.5 6t-32.5 4h-11l8 70h10q10 0 23.5 1.5t24.5 11.5q16 14 16 36q0 11 -4.5 18t-9.5 12q-13 11 -33 11q-13 0 -21 -4.5t-13 -9.5q-5 -6 -8.5 -16t-5.5 -18
h-90q4 22 14.5 45.5t27.5 40.5q23 23 49.5 30.5t50.5 7.5q4 0 15 -0.5t25 -3t30 -8.5t30 -16q13 -10 25.5 -28.5t12.5 -48.5t-15 -54q-9 -14 -19 -21.5t-22 -12.5q20 -9 33 -23q12 -14 16 -28.5t4 -28.5q0 -25 -9.5 -51.5t-32.5 -49.5q-27 -26 -56.5 -34.5t-58.5 -8.5
q-42 0 -72.5 12t-47.5 30q-16 17 -25 41t-9 51h94zM696 678l65 -23l-472 -669l-65 24zM714 150l19 148l-113 -148h94zM802 150h46l-9 -74h-46l-9 -76h-88l9 76h-192l6 50l208 274h106z" />
    <glyph glyph-name="questiondown" unicode="&#xbf;" horiz-adv-x="525" 
d="M385 224l-22 -183q-13 2 -26.5 2.5t-24.5 0.5q-65 0 -97 -30q-17 -15 -21.5 -32.5t-4.5 -31.5q0 -12 3.5 -24.5t14.5 -24.5q11 -11 24 -15t28 -4q11 0 24.5 3.5t24.5 14.5t16.5 26.5t6.5 30.5h150q-2 -18 -6.5 -38t-12.5 -39.5t-19 -37t-24 -30.5q-23 -23 -61 -38.5
t-98 -15.5q-41 0 -85 11t-80 46q-53 51 -53 134q0 28 5.5 50.5t13.5 40t18 30.5t18 21q23 23 56.5 39t75.5 19l10 75h146zM238 362q0 38 26.5 64.5t64.5 26.5t64.5 -26.5t26.5 -64.5t-26.5 -64.5t-64.5 -26.5t-64.5 26.5t-26.5 64.5z" />
    <glyph glyph-name="Agrave" unicode="&#xc0;" horiz-adv-x="677" 
d="M483 126h-252l-63 -126h-166l352 667h142l179 -667h-158zM455 244l-54 235l-112 -235h166zM295 853l105 72l114 -148l-71 -53z" />
    <glyph glyph-name="Aacute" unicode="&#xc1;" horiz-adv-x="677" 
d="M483 126h-252l-63 -126h-166l352 667h142l179 -667h-158zM455 244l-54 235l-112 -235h166zM594 853l-180 -129l-59 53l153 148z" />
    <glyph glyph-name="Acircumflex" unicode="&#xc2;" horiz-adv-x="677" 
d="M483 126h-252l-63 -126h-166l352 667h142l179 -667h-158zM455 244l-54 235l-112 -235h166zM254 797l205 140l172 -140l-66 -71l-114 93l-133 -93z" />
    <glyph glyph-name="Atilde" unicode="&#xc3;" horiz-adv-x="677" 
d="M483 126h-252l-63 -126h-166l352 667h142l179 -667h-158zM455 244l-54 235l-112 -235h166zM622 817q-9 -15 -22 -31t-25 -27q-17 -15 -35.5 -23t-41.5 -8q-18 0 -32.5 4.5t-29.5 10.5l-33 13q-20 8 -31.5 11.5t-20.5 3.5q-14 0 -27 -8.5t-24 -30.5l-65 50q7 12 18 28
t22 27q16 16 36 25t46 9q16 0 32 -4t31 -10l34 -14q32 -14 51 -14q18 0 29.5 10t22.5 28z" />
    <glyph glyph-name="Adieresis" unicode="&#xc4;" horiz-adv-x="677" 
d="M483 126h-252l-63 -126h-166l352 667h142l179 -667h-158zM455 244l-54 235l-112 -235h166zM252 811q0 32 23.5 55.5t55.5 23.5t55.5 -23.5t23.5 -55.5t-23.5 -55.5t-55.5 -23.5t-55.5 23.5t-23.5 55.5zM470 811q0 32 23.5 55.5t55.5 23.5t55.5 -23.5t23.5 -55.5
t-23.5 -55.5t-55.5 -23.5t-55.5 23.5t-23.5 55.5z" />
    <glyph glyph-name="Aring" unicode="&#xc5;" horiz-adv-x="677" 
d="M483 126h-252l-63 -126h-166l352 667h142l179 -667h-158zM455 244l-54 235l-112 -235h166zM553 827q0 -39 -27 -66q-17 -16 -40 -24t-49 -8t-49 8t-40 24q-27 27 -27 66t27 66q17 16 40 24t49 8t49 -8t40 -24q27 -27 27 -66zM437 866q-22 0 -34 -12t-12 -27t12 -27
t34 -12t34 12t12 27t-12 27t-34 12z" />
    <glyph glyph-name="AE" unicode="&#xc6;" horiz-adv-x="920" 
d="M491 129h-255l-66 -129h-164l355 667h379l32 -130h-232l35 -129h230l34 -130h-231l41 -148h232l33 -130h-388zM463 247l-55 219l-113 -219h168z" />
    <glyph glyph-name="Ccedilla" unicode="&#xc7;" horiz-adv-x="605" 
d="M567 21q-8 -4 -22.5 -10t-34.5 -12t-46.5 -10t-58.5 -4q-47 0 -84.5 9t-66.5 22.5t-50 29t-34 28.5q-16 16 -32 38t-29 50.5t-21 63.5t-8 79q0 88 29.5 157t76.5 116q42 42 108.5 73t158.5 31q39 0 70 -5.5t54.5 -13t39.5 -16t25 -13.5l-19 -163q-10 10 -25 22t-35.5 22
t-47 16.5t-59.5 6.5q-48 0 -87 -14t-71 -49q-31 -33 -45.5 -75t-14.5 -82q0 -42 14.5 -78t37.5 -59t59 -37.5t82 -14.5q50 0 89 17.5t67 40.5zM476 -96l-120 -140l-80 40l100 150z" />
    <glyph glyph-name="Egrave" unicode="&#xc8;" horiz-adv-x="502" 
d="M504 537h-218l-16 -129h210l-16 -130h-210l-18 -148h222l-16 -130h-372l82 667h368zM207 853l105 72l114 -148l-71 -53z" />
    <glyph glyph-name="Eacute" unicode="&#xc9;" horiz-adv-x="502" 
d="M504 537h-218l-16 -129h210l-16 -130h-210l-18 -148h222l-16 -130h-372l82 667h368zM506 853l-180 -129l-59 53l153 148z" />
    <glyph glyph-name="Ecircumflex" unicode="&#xca;" horiz-adv-x="502" 
d="M504 537h-218l-16 -129h210l-16 -130h-210l-18 -148h222l-16 -130h-372l82 667h368zM152 797l205 140l172 -140l-66 -71l-114 93l-133 -93z" />
    <glyph glyph-name="Edieresis" unicode="&#xcb;" horiz-adv-x="502" 
d="M504 537h-218l-16 -129h210l-16 -130h-210l-18 -148h222l-16 -130h-372l82 667h368zM159 811q0 32 23.5 55.5t55.5 23.5t55.5 -23.5t23.5 -55.5t-23.5 -55.5t-55.5 -23.5t-55.5 23.5t-23.5 55.5zM377 811q0 32 23.5 55.5t55.5 23.5t55.5 -23.5t23.5 -55.5t-23.5 -55.5
t-55.5 -23.5t-55.5 23.5t-23.5 55.5z" />
    <glyph glyph-name="Igrave" unicode="&#xcc;" horiz-adv-x="306" 
d="M309 667l-82 -667h-154l82 667h154zM110 853l105 72l114 -148l-71 -53z" />
    <glyph glyph-name="Iacute" unicode="&#xcd;" horiz-adv-x="306" 
d="M309 667l-82 -667h-154l82 667h154zM409 853l-180 -129l-59 53l153 148z" />
    <glyph glyph-name="Icircumflex" unicode="&#xce;" horiz-adv-x="306" 
d="M309 667l-82 -667h-154l82 667h154zM58 797l205 140l172 -140l-66 -71l-114 93l-133 -93z" />
    <glyph glyph-name="Idieresis" unicode="&#xcf;" horiz-adv-x="306" 
d="M309 667l-82 -667h-154l82 667h154zM60 811q0 32 23.5 55.5t55.5 23.5t55.5 -23.5t23.5 -55.5t-23.5 -55.5t-55.5 -23.5t-55.5 23.5t-23.5 55.5zM278 811q0 32 23.5 55.5t55.5 23.5t55.5 -23.5t23.5 -55.5t-23.5 -55.5t-55.5 -23.5t-55.5 23.5t-23.5 55.5z" />
    <glyph glyph-name="Eth" unicode="&#xd0;" horiz-adv-x="712" 
d="M179 667h195q26 0 58.5 -2.5t67 -11.5t68 -26t61.5 -45q33 -33 56.5 -88t23.5 -134q0 -57 -11.5 -101.5t-28 -77.5t-34 -55t-30.5 -34q-58 -55 -135 -73.5t-168 -18.5h-205l37 303h-90l14 110h90zM302 413h120l-14 -110h-120l-21 -173h47q17 0 38 1t43.5 6.5t45.5 15.5
t43 28q29 26 48 70.5t19 104.5q0 45 -13 79t-35 55q-24 23 -62 35t-77 12h-47z" />
    <glyph glyph-name="Ntilde" unicode="&#xd1;" horiz-adv-x="796" 
d="M70 0l83 667h134l307 -434l54 434h154l-82 -667h-134l-309 436l-53 -436h-154zM707 817q-9 -15 -22 -31t-25 -27q-17 -15 -35.5 -23t-41.5 -8q-18 0 -32.5 4.5t-29.5 10.5l-33 13q-20 8 -31.5 11.5t-20.5 3.5q-14 0 -27 -8.5t-24 -30.5l-65 50q7 12 18 28t22 27
q16 16 36 25t46 9q16 0 32 -4t31 -10l34 -14q32 -14 51 -14q18 0 29.5 10t22.5 28z" />
    <glyph glyph-name="Ograve" unicode="&#xd2;" horiz-adv-x="810" 
d="M464 682q48 0 86.5 -7.5t69.5 -20t53.5 -28t39.5 -31.5q43 -42 68.5 -102.5t25.5 -134.5q0 -36 -6.5 -72.5t-19 -71.5t-32 -67t-45.5 -59q-32 -32 -66.5 -52.5t-70.5 -31.5t-71 -15t-68 -4q-31 0 -63.5 3.5t-65 14t-64 29t-61.5 48.5q-17 18 -34 41t-30.5 52t-21.5 64
t-8 76q0 88 31 155.5t79 112.5q32 30 66.5 50t70 31t70.5 15.5t67 4.5zM458 540q-98 0 -159 -64q-29 -31 -45 -71t-16 -82q0 -46 15.5 -81.5t38.5 -58.5q34 -35 72.5 -45.5t73.5 -10.5q17 0 35.5 2t37.5 8t38.5 17t37.5 30q27 28 44.5 70t17.5 94q0 32 -10 70t-43 70t-70 42
t-68 10zM331 853l105 72l114 -148l-71 -53z" />
    <glyph glyph-name="Oacute" unicode="&#xd3;" horiz-adv-x="810" 
d="M464 682q48 0 86.5 -7.5t69.5 -20t53.5 -28t39.5 -31.5q43 -42 68.5 -102.5t25.5 -134.5q0 -36 -6.5 -72.5t-19 -71.5t-32 -67t-45.5 -59q-32 -32 -66.5 -52.5t-70.5 -31.5t-71 -15t-68 -4q-31 0 -63.5 3.5t-65 14t-64 29t-61.5 48.5q-17 18 -34 41t-30.5 52t-21.5 64
t-8 76q0 88 31 155.5t79 112.5q32 30 66.5 50t70 31t70.5 15.5t67 4.5zM458 540q-98 0 -159 -64q-29 -31 -45 -71t-16 -82q0 -46 15.5 -81.5t38.5 -58.5q34 -35 72.5 -45.5t73.5 -10.5q17 0 35.5 2t37.5 8t38.5 17t37.5 30q27 28 44.5 70t17.5 94q0 32 -10 70t-43 70t-70 42
t-68 10zM660 853l-180 -129l-59 53l153 148z" />
    <glyph glyph-name="Ocircumflex" unicode="&#xd4;" horiz-adv-x="810" 
d="M464 682q48 0 86.5 -7.5t69.5 -20t53.5 -28t39.5 -31.5q43 -42 68.5 -102.5t25.5 -134.5q0 -36 -6.5 -72.5t-19 -71.5t-32 -67t-45.5 -59q-32 -32 -66.5 -52.5t-70.5 -31.5t-71 -15t-68 -4q-31 0 -63.5 3.5t-65 14t-64 29t-61.5 48.5q-17 18 -34 41t-30.5 52t-21.5 64
t-8 76q0 88 31 155.5t79 112.5q32 30 66.5 50t70 31t70.5 15.5t67 4.5zM458 540q-98 0 -159 -64q-29 -31 -45 -71t-16 -82q0 -46 15.5 -81.5t38.5 -58.5q34 -35 72.5 -45.5t73.5 -10.5q17 0 35.5 2t37.5 8t38.5 17t37.5 30q27 28 44.5 70t17.5 94q0 32 -10 70t-43 70t-70 42
t-68 10zM289 797l205 140l172 -140l-66 -71l-114 93l-133 -93z" />
    <glyph glyph-name="Otilde" unicode="&#xd5;" horiz-adv-x="810" 
d="M464 682q48 0 86.5 -7.5t69.5 -20t53.5 -28t39.5 -31.5q43 -42 68.5 -102.5t25.5 -134.5q0 -36 -6.5 -72.5t-19 -71.5t-32 -67t-45.5 -59q-32 -32 -66.5 -52.5t-70.5 -31.5t-71 -15t-68 -4q-31 0 -63.5 3.5t-65 14t-64 29t-61.5 48.5q-17 18 -34 41t-30.5 52t-21.5 64
t-8 76q0 88 31 155.5t79 112.5q32 30 66.5 50t70 31t70.5 15.5t67 4.5zM458 540q-98 0 -159 -64q-29 -31 -45 -71t-16 -82q0 -46 15.5 -81.5t38.5 -58.5q34 -35 72.5 -45.5t73.5 -10.5q17 0 35.5 2t37.5 8t38.5 17t37.5 30q27 28 44.5 70t17.5 94q0 32 -10 70t-43 70t-70 42
t-68 10zM672 817q-9 -15 -22 -31t-25 -27q-17 -15 -35.5 -23t-41.5 -8q-18 0 -32.5 4.5t-29.5 10.5l-33 13q-20 8 -31.5 11.5t-20.5 3.5q-14 0 -27 -8.5t-24 -30.5l-65 50q7 12 18 28t22 27q16 16 36 25t46 9q16 0 32 -4t31 -10l34 -14q32 -14 51 -14q18 0 29.5 10t22.5 28z
" />
    <glyph glyph-name="Odieresis" unicode="&#xd6;" horiz-adv-x="810" 
d="M464 682q48 0 86.5 -7.5t69.5 -20t53.5 -28t39.5 -31.5q43 -42 68.5 -102.5t25.5 -134.5q0 -36 -6.5 -72.5t-19 -71.5t-32 -67t-45.5 -59q-32 -32 -66.5 -52.5t-70.5 -31.5t-71 -15t-68 -4q-31 0 -63.5 3.5t-65 14t-64 29t-61.5 48.5q-17 18 -34 41t-30.5 52t-21.5 64
t-8 76q0 88 31 155.5t79 112.5q32 30 66.5 50t70 31t70.5 15.5t67 4.5zM458 540q-98 0 -159 -64q-29 -31 -45 -71t-16 -82q0 -46 15.5 -81.5t38.5 -58.5q34 -35 72.5 -45.5t73.5 -10.5q17 0 35.5 2t37.5 8t38.5 17t37.5 30q27 28 44.5 70t17.5 94q0 32 -10 70t-43 70t-70 42
t-68 10zM297 811q0 32 23.5 55.5t55.5 23.5t55.5 -23.5t23.5 -55.5t-23.5 -55.5t-55.5 -23.5t-55.5 23.5t-23.5 55.5zM515 811q0 32 23.5 55.5t55.5 23.5t55.5 -23.5t23.5 -55.5t-23.5 -55.5t-55.5 -23.5t-55.5 23.5t-23.5 55.5z" />
    <glyph glyph-name="multiply" unicode="&#xd7;" 
d="M205 336l-118 119l87 87l118 -119l118 119l84 -84l-118 -118l118 -119l-87 -87l-118 119l-119 -118l-83 83z" />
    <glyph glyph-name="Oslash" unicode="&#xd8;" horiz-adv-x="842" 
d="M150 134q-23 38 -37.5 83t-14.5 101q0 84 31 150.5t79 112.5q32 30 66.5 50t70 31t70.5 15.5t67 4.5q60 0 112 -13.5t105 -47.5l104 93l79 -84l-105 -93q28 -51 38 -97t10 -81q0 -34 -6 -70.5t-19 -72t-32 -68.5t-46 -60q-32 -32 -66.5 -52.5t-70.5 -31.5t-71.5 -15
t-68.5 -4q-66 0 -117 14.5t-101 49.5l-108 -96l-78 84zM579 515q-26 15 -51 20t-52 5q-98 0 -159 -64q-29 -31 -45 -71t-16 -82q0 -23 4 -43t12 -38zM346 155q28 -16 54.5 -22t55.5 -6q43 0 80 12t69 45t47 77t15 87q0 15 -2.5 35.5t-10.5 43.5z" />
    <glyph glyph-name="Ugrave" unicode="&#xd9;" horiz-adv-x="710" 
d="M305 667l-44 -364q-2 -16 -3.5 -26.5t-1.5 -31.5q0 -20 5 -43.5t24 -42.5q14 -13 35.5 -21.5t52.5 -8.5q38 0 61.5 10t36.5 23q12 12 20 28t13 33.5t7.5 34.5t4.5 31l46 378h154l-48 -388q-4 -30 -8.5 -60t-12.5 -58.5t-22 -54.5t-36 -49q-25 -26 -54.5 -40.5
t-59.5 -21.5t-57 -8.5t-48 -1.5q-25 0 -52.5 2t-55 9.5t-54 21t-49.5 36.5q-32 31 -45.5 69t-13.5 85q0 11 1 25t2 28.5t2.5 28t2.5 23.5l43 354h154zM296 853l105 72l114 -148l-71 -53z" />
    <glyph glyph-name="Uacute" unicode="&#xda;" horiz-adv-x="710" 
d="M305 667l-44 -364q-2 -16 -3.5 -26.5t-1.5 -31.5q0 -20 5 -43.5t24 -42.5q14 -13 35.5 -21.5t52.5 -8.5q38 0 61.5 10t36.5 23q12 12 20 28t13 33.5t7.5 34.5t4.5 31l46 378h154l-48 -388q-4 -30 -8.5 -60t-12.5 -58.5t-22 -54.5t-36 -49q-25 -26 -54.5 -40.5
t-59.5 -21.5t-57 -8.5t-48 -1.5q-25 0 -52.5 2t-55 9.5t-54 21t-49.5 36.5q-32 31 -45.5 69t-13.5 85q0 11 1 25t2 28.5t2.5 28t2.5 23.5l43 354h154zM610 853l-180 -129l-59 53l153 148z" />
    <glyph glyph-name="Ucircumflex" unicode="&#xdb;" horiz-adv-x="710" 
d="M305 667l-44 -364q-2 -16 -3.5 -26.5t-1.5 -31.5q0 -20 5 -43.5t24 -42.5q14 -13 35.5 -21.5t52.5 -8.5q38 0 61.5 10t36.5 23q12 12 20 28t13 33.5t7.5 34.5t4.5 31l46 378h154l-48 -388q-4 -30 -8.5 -60t-12.5 -58.5t-22 -54.5t-36 -49q-25 -26 -54.5 -40.5
t-59.5 -21.5t-57 -8.5t-48 -1.5q-25 0 -52.5 2t-55 9.5t-54 21t-49.5 36.5q-32 31 -45.5 69t-13.5 85q0 11 1 25t2 28.5t2.5 28t2.5 23.5l43 354h154zM249 797l205 140l172 -140l-66 -71l-114 93l-133 -93z" />
    <glyph glyph-name="Udieresis" unicode="&#xdc;" horiz-adv-x="710" 
d="M305 667l-44 -364q-2 -16 -3.5 -26.5t-1.5 -31.5q0 -20 5 -43.5t24 -42.5q14 -13 35.5 -21.5t52.5 -8.5q38 0 61.5 10t36.5 23q12 12 20 28t13 33.5t7.5 34.5t4.5 31l46 378h154l-48 -388q-4 -30 -8.5 -60t-12.5 -58.5t-22 -54.5t-36 -49q-25 -26 -54.5 -40.5
t-59.5 -21.5t-57 -8.5t-48 -1.5q-25 0 -52.5 2t-55 9.5t-54 21t-49.5 36.5q-32 31 -45.5 69t-13.5 85q0 11 1 25t2 28.5t2.5 28t2.5 23.5l43 354h154zM257 811q0 32 23.5 55.5t55.5 23.5t55.5 -23.5t23.5 -55.5t-23.5 -55.5t-55.5 -23.5t-55.5 23.5t-23.5 55.5zM475 811
q0 32 23.5 55.5t55.5 23.5t55.5 -23.5t23.5 -55.5t-23.5 -55.5t-55.5 -23.5t-55.5 23.5t-23.5 55.5z" />
    <glyph glyph-name="Yacute" unicode="&#xdd;" horiz-adv-x="632" 
d="M274 311l-195 356h176l109 -207l159 207h188l-283 -356l-38 -311h-154zM571 853l-180 -129l-59 53l153 148z" />
    <glyph glyph-name="Thorn" unicode="&#xde;" horiz-adv-x="572" 
d="M306 667l-11 -92h63q26 0 52 -1t50 -6.5t47 -17t43 -31.5q23 -23 38.5 -57.5t15.5 -85.5q0 -56 -17.5 -101.5t-47.5 -73.5q-22 -20 -49 -32t-55 -18t-55.5 -7.5t-49.5 -1.5h-89l-17 -142h-154l82 667h154zM257 268h57q26 0 55.5 4t51.5 25q17 17 21.5 36.5t4.5 32.5
q0 14 -4 29.5t-18 28.5q-18 17 -44 21t-48 4h-53z" />
    <glyph glyph-name="germandbls" unicode="&#xdf;" horiz-adv-x="585" 
d="M60 0l62 502q3 21 7.5 44t12.5 46t20 45t29 40q38 40 82.5 51.5t83.5 11.5q18 0 39 -2t42.5 -8.5t42.5 -18.5t40 -31q24 -25 37 -58t13 -72q0 -30 -8.5 -58t-25.5 -48q-13 -16 -32 -28.5t-44 -19.5q19 -6 36 -16t31 -23q33 -32 43 -67t10 -67q0 -56 -17 -99t-46 -71
q-45 -43 -109.5 -55t-139.5 -12h-6l16 124h5q28 0 59.5 6t54.5 29q15 16 23 38.5t8 42.5q0 31 -10 54t-27 35t-43 16.5t-45 4.5l16 122h5q18 0 37 3t36 16q13 10 22.5 25.5t9.5 40.5q0 20 -6.5 33.5t-14.5 20.5q-8 8 -21 13.5t-34 5.5q-34 0 -54 -20q-18 -17 -24 -40.5
t-9 -46.5l-63 -509h-144z" />
    <glyph glyph-name="agrave" unicode="&#xe0;" horiz-adv-x="598" 
d="M448 446h144l-55 -446h-144l11 51q-12 -14 -28.5 -28t-34.5 -22q-23 -11 -46.5 -13.5t-36.5 -2.5q-42 0 -75.5 12t-62.5 43q-25 26 -42.5 66t-17.5 98q0 62 20 110.5t52 81.5q35 35 76 50t88 15q20 0 42.5 -3t44.5 -14q13 -6 29.5 -18.5t31.5 -33.5zM327 337
q-52 0 -85 -33q-15 -15 -24.5 -38t-9.5 -51t9 -46.5t20 -29.5q16 -17 35 -23.5t41 -6.5q31 0 51 9.5t31 20.5q20 19 29 45t9 51q0 24 -8.5 44t-22.5 33q-10 9 -28 17t-47 8zM218 650l103 65l103 -152l-71 -48z" />
    <glyph glyph-name="aacute" unicode="&#xe1;" horiz-adv-x="598" 
d="M448 446h144l-55 -446h-144l11 51q-12 -14 -28.5 -28t-34.5 -22q-23 -11 -46.5 -13.5t-36.5 -2.5q-42 0 -75.5 12t-62.5 43q-25 26 -42.5 66t-17.5 98q0 62 20 110.5t52 81.5q35 35 76 50t88 15q20 0 42.5 -3t44.5 -14q13 -6 29.5 -18.5t31.5 -33.5zM327 337
q-52 0 -85 -33q-15 -15 -24.5 -38t-9.5 -51t9 -46.5t20 -29.5q16 -17 35 -23.5t41 -6.5q31 0 51 9.5t31 20.5q20 19 29 45t9 51q0 24 -8.5 44t-22.5 33q-10 9 -28 17t-47 8zM491 650l-169 -135l-59 48l142 152z" />
    <glyph glyph-name="acircumflex" unicode="&#xe2;" horiz-adv-x="598" 
d="M448 446h144l-55 -446h-144l11 51q-12 -14 -28.5 -28t-34.5 -22q-23 -11 -46.5 -13.5t-36.5 -2.5q-42 0 -75.5 12t-62.5 43q-25 26 -42.5 66t-17.5 98q0 62 20 110.5t52 81.5q35 35 76 50t88 15q20 0 42.5 -3t44.5 -14q13 -6 29.5 -18.5t31.5 -33.5zM327 337
q-52 0 -85 -33q-15 -15 -24.5 -38t-9.5 -51t9 -46.5t20 -29.5q16 -17 35 -23.5t41 -6.5q31 0 51 9.5t31 20.5q20 19 29 45t9 51q0 24 -8.5 44t-22.5 33q-10 9 -28 17t-47 8zM220 515l-62 69l200 142l167 -142l-68 -69l-106 95z" />
    <glyph glyph-name="atilde" unicode="&#xe3;" horiz-adv-x="598" 
d="M448 446h144l-55 -446h-144l11 51q-12 -14 -28.5 -28t-34.5 -22q-23 -11 -46.5 -13.5t-36.5 -2.5q-42 0 -75.5 12t-62.5 43q-25 26 -42.5 66t-17.5 98q0 62 20 110.5t52 81.5q35 35 76 50t88 15q20 0 42.5 -3t44.5 -14q13 -6 29.5 -18.5t31.5 -33.5zM327 337
q-52 0 -85 -33q-15 -15 -24.5 -38t-9.5 -51t9 -46.5t20 -29.5q16 -17 35 -23.5t41 -6.5q31 0 51 9.5t31 20.5q20 19 29 45t9 51q0 24 -8.5 44t-22.5 33q-10 9 -28 17t-47 8zM531 613q-2 -5 -13.5 -23.5t-30.5 -36.5q-17 -16 -35.5 -25t-41.5 -9q-17 0 -33 4.5t-30 10.5
l-32 13q-11 5 -23.5 9.5t-26.5 4.5t-27.5 -8.5t-24.5 -29.5l-59 44q6 14 17 32t24 31q31 31 77 31q20 0 35.5 -4.5t32.5 -11.5l32 -13q21 -8 32.5 -10.5t19.5 -2.5q20 0 30.5 14.5t14.5 23.5z" />
    <glyph glyph-name="adieresis" unicode="&#xe4;" horiz-adv-x="598" 
d="M448 446h144l-55 -446h-144l11 51q-12 -14 -28.5 -28t-34.5 -22q-23 -11 -46.5 -13.5t-36.5 -2.5q-42 0 -75.5 12t-62.5 43q-25 26 -42.5 66t-17.5 98q0 62 20 110.5t52 81.5q35 35 76 50t88 15q20 0 42.5 -3t44.5 -14q13 -6 29.5 -18.5t31.5 -33.5zM327 337
q-52 0 -85 -33q-15 -15 -24.5 -38t-9.5 -51t9 -46.5t20 -29.5q16 -17 35 -23.5t41 -6.5q31 0 51 9.5t31 20.5q20 19 29 45t9 51q0 24 -8.5 44t-22.5 33q-10 9 -28 17t-47 8zM156 599q0 32 23.5 55.5t55.5 23.5t55.5 -23.5t23.5 -55.5t-23.5 -55.5t-55.5 -23.5t-55.5 23.5
t-23.5 55.5zM374 599q0 32 23.5 55.5t55.5 23.5t55.5 -23.5t23.5 -55.5t-23.5 -55.5t-55.5 -23.5t-55.5 23.5t-23.5 55.5z" />
    <glyph glyph-name="aring" unicode="&#xe5;" horiz-adv-x="598" 
d="M448 446h144l-55 -446h-144l11 51q-12 -14 -28.5 -28t-34.5 -22q-23 -11 -46.5 -13.5t-36.5 -2.5q-42 0 -75.5 12t-62.5 43q-25 26 -42.5 66t-17.5 98q0 62 20 110.5t52 81.5q35 35 76 50t88 15q20 0 42.5 -3t44.5 -14q13 -6 29.5 -18.5t31.5 -33.5zM327 337
q-52 0 -85 -33q-15 -15 -24.5 -38t-9.5 -51t9 -46.5t20 -29.5q16 -17 35 -23.5t41 -6.5q31 0 51 9.5t31 20.5q20 19 29 45t9 51q0 24 -8.5 44t-22.5 33q-10 9 -28 17t-47 8zM330 650q-8 0 -16.5 -2t-14.5 -7q-5 -5 -9 -12t-4 -15t4 -15t9 -12q6 -5 14.5 -7t16.5 -2t16.5 2
t14.5 7q5 5 9 12t4 15t-4 15t-9 12q-6 5 -14.5 7t-16.5 2zM444 614q0 -23 -8 -38.5t-19 -26.5q-13 -12 -34.5 -21.5t-52.5 -9.5t-52.5 9.5t-34.5 21.5q-11 11 -19 26.5t-8 38.5t8 38.5t19 26.5q13 12 34.5 21.5t52.5 9.5t52.5 -9.5t34.5 -21.5q11 -11 19 -26.5t8 -38.5z" />
    <glyph glyph-name="ae" unicode="&#xe6;" horiz-adv-x="840" 
d="M817 132q-14 -38 -37.5 -67t-49.5 -46q-18 -12 -38 -18.5t-38 -10t-33.5 -4.5t-25.5 -1q-30 0 -60.5 5t-52.5 15q-14 7 -32 19.5t-34 35.5q-17 -23 -37 -37t-38 -22q-14 -5 -38.5 -10.5t-67.5 -5.5q-14 0 -32 1t-36.5 5t-37 11t-33.5 19q-21 17 -34 43.5t-13 59.5
q0 45 19 75.5t44 47.5q16 11 34 17.5t36 9.5t35.5 4t31.5 1q41 0 67.5 -6.5t48.5 -20.5q5 32 -3.5 51.5t-22.5 30.5t-34.5 16t-43.5 5q-14 0 -42.5 -3.5t-72.5 -18.5l13 110q24 7 56 12.5t71 5.5q37 0 64 -6t46 -16.5t31.5 -24.5t20.5 -30q9 10 23 23.5t35 25.5t49.5 20
t66.5 8q36 0 77 -10.5t76 -45.5q23 -23 41 -61.5t18 -98.5q0 -14 -1 -25t-3 -22h-330q0 -19 6 -42.5t20 -38.5q9 -11 26.5 -19t45.5 -8q32 0 53 14.5t32 36.5zM268 192q-19 0 -37.5 -6t-29.5 -18q-8 -8 -11 -17t-3 -17q0 -19 15 -32q8 -8 22.5 -13.5t37.5 -5.5
q17 0 35.5 4.5t32.5 15.5q18 16 18 39q0 10 -4 17t-10 13q-13 11 -32 15.5t-34 4.5zM706 284q-3 14 -11 29.5t-19 26.5q-10 9 -25.5 15t-35.5 6q-23 0 -39.5 -7t-26.5 -16q-23 -20 -34 -54h191z" />
    <glyph glyph-name="ccedilla" unicode="&#xe7;" horiz-adv-x="431" 
d="M428 301q-5 4 -13.5 10.5t-21 12.5t-29 10.5t-36.5 4.5q-38 0 -58.5 -13t-28.5 -21q-17 -18 -25 -42t-8 -47q0 -27 9 -46.5t23 -32.5q31 -30 78 -30q29 0 52 11t39 25l-16 -132q-35 -17 -64.5 -21.5t-53.5 -4.5q-45 0 -82.5 12.5t-72.5 49.5q-27 29 -43.5 69t-16.5 92
q0 54 18 100.5t52 81.5q29 29 74 50t111 21q34 0 66 -6.5t64 -22.5zM350 -97l-126 -139l-74 40l106 150z" />
    <glyph glyph-name="egrave" unicode="&#xe8;" horiz-adv-x="542" 
d="M399 283q-2 16 -9.5 32t-19.5 26t-28.5 14t-30.5 4q-26 0 -42.5 -9t-25.5 -18q-8 -9 -15 -21.5t-10 -27.5h181zM204 195q-1 -17 4 -35.5t14 -31.5q14 -20 33 -25.5t36 -5.5q13 0 28 2t29 11q10 7 18 18t13 22l145 -12q-14 -34 -35.5 -63.5t-45.5 -47.5
q-19 -14 -39.5 -22.5t-40.5 -13t-39 -5.5t-34 -1q-21 0 -43 2t-44.5 8t-44.5 18t-42 32q-32 32 -44 71.5t-12 84.5q0 37 7 67.5t18 55t24.5 43.5t27.5 32q41 38 88 50t89 12q57 0 99 -16t68 -41q22 -22 34.5 -50t18 -56.5t5.5 -55.5t-2 -47h-333zM216 650l103 65l103 -152
l-71 -48z" />
    <glyph glyph-name="eacute" unicode="&#xe9;" horiz-adv-x="542" 
d="M399 283q-2 16 -9.5 32t-19.5 26t-28.5 14t-30.5 4q-26 0 -42.5 -9t-25.5 -18q-8 -9 -15 -21.5t-10 -27.5h181zM204 195q-1 -17 4 -35.5t14 -31.5q14 -20 33 -25.5t36 -5.5q13 0 28 2t29 11q10 7 18 18t13 22l145 -12q-14 -34 -35.5 -63.5t-45.5 -47.5
q-19 -14 -39.5 -22.5t-40.5 -13t-39 -5.5t-34 -1q-21 0 -43 2t-44.5 8t-44.5 18t-42 32q-32 32 -44 71.5t-12 84.5q0 37 7 67.5t18 55t24.5 43.5t27.5 32q41 38 88 50t89 12q57 0 99 -16t68 -41q22 -22 34.5 -50t18 -56.5t5.5 -55.5t-2 -47h-333zM509 650l-169 -135l-59 48
l142 152z" />
    <glyph glyph-name="ecircumflex" unicode="&#xea;" horiz-adv-x="542" 
d="M399 283q-2 16 -9.5 32t-19.5 26t-28.5 14t-30.5 4q-26 0 -42.5 -9t-25.5 -18q-8 -9 -15 -21.5t-10 -27.5h181zM204 195q-1 -17 4 -35.5t14 -31.5q14 -20 33 -25.5t36 -5.5q13 0 28 2t29 11q10 7 18 18t13 22l145 -12q-14 -34 -35.5 -63.5t-45.5 -47.5
q-19 -14 -39.5 -22.5t-40.5 -13t-39 -5.5t-34 -1q-21 0 -43 2t-44.5 8t-44.5 18t-42 32q-32 32 -44 71.5t-12 84.5q0 37 7 67.5t18 55t24.5 43.5t27.5 32q41 38 88 50t89 12q57 0 99 -16t68 -41q22 -22 34.5 -50t18 -56.5t5.5 -55.5t-2 -47h-333zM210 515l-62 69l200 142
l167 -142l-68 -69l-106 95z" />
    <glyph glyph-name="edieresis" unicode="&#xeb;" horiz-adv-x="542" 
d="M399 283q-2 16 -9.5 32t-19.5 26t-28.5 14t-30.5 4q-26 0 -42.5 -9t-25.5 -18q-8 -9 -15 -21.5t-10 -27.5h181zM204 195q-1 -17 4 -35.5t14 -31.5q14 -20 33 -25.5t36 -5.5q13 0 28 2t29 11q10 7 18 18t13 22l145 -12q-14 -34 -35.5 -63.5t-45.5 -47.5
q-19 -14 -39.5 -22.5t-40.5 -13t-39 -5.5t-34 -1q-21 0 -43 2t-44.5 8t-44.5 18t-42 32q-32 32 -44 71.5t-12 84.5q0 37 7 67.5t18 55t24.5 43.5t27.5 32q41 38 88 50t89 12q57 0 99 -16t68 -41q22 -22 34.5 -50t18 -56.5t5.5 -55.5t-2 -47h-333zM147 599q0 32 23.5 55.5
t55.5 23.5t55.5 -23.5t23.5 -55.5t-23.5 -55.5t-55.5 -23.5t-55.5 23.5t-23.5 55.5zM365 599q0 32 23.5 55.5t55.5 23.5t55.5 -23.5t23.5 -55.5t-23.5 -55.5t-55.5 -23.5t-55.5 23.5t-23.5 55.5z" />
    <glyph glyph-name="igrave" unicode="&#xec;" horiz-adv-x="276" 
d="M264 446l-55 -446h-144l55 446h144zM85 650l104 65l83 -152l-71 -48z" />
    <glyph glyph-name="iacute" unicode="&#xed;" horiz-adv-x="276" 
d="M264 446l-55 -446h-144l55 446h144zM348 650l-149 -135l-59 48l122 152z" />
    <glyph glyph-name="icircumflex" unicode="&#xee;" horiz-adv-x="276" 
d="M265 446l-55 -446h-144l55 446h144zM110 515l-59 69l176 142l142 -142l-72 -69l-82 87z" />
    <glyph glyph-name="idieresis" unicode="&#xef;" horiz-adv-x="276" 
d="M265 446l-55 -446h-144l55 446h144zM48 599q0 32 21 55.5t50 23.5q12 0 24.5 -5t23 -15t17 -25t6.5 -34q0 -20 -6.5 -34.5t-17 -24.5t-23 -15t-24.5 -5q-29 0 -50 23.5t-21 55.5zM236 599q0 19 6.5 34t17 25t23 15t24.5 5q29 0 50 -23.5t21 -55.5t-21 -55.5t-50 -23.5
q-12 0 -24.5 5t-23 15t-17 24.5t-6.5 34.5z" />
    <glyph glyph-name="eth" unicode="&#xf0;" horiz-adv-x="580" 
d="M192 692q81 -5 132.5 -19.5t84.5 -29.5l154 56l29 -76l-110 -39q22 -20 39.5 -44.5t31.5 -57.5q15 -37 20 -73t5 -74t-3.5 -76t-13 -73.5t-26 -68t-43.5 -59.5q-23 -23 -47.5 -37.5t-49 -22.5t-49.5 -10.5t-49 -2.5q-45 0 -90.5 12.5t-84.5 50.5q-8 8 -19 21t-20.5 32
t-16 44t-6.5 57q0 51 18 96.5t50 77.5q37 37 81 52t92 15q59 0 92 -16t51 -34q-5 46 -27.5 82t-58.5 58l-195 -79l-27 75l137 51q-67 18 -132 16zM319 327q-27 0 -45.5 -8.5t-30.5 -20.5q-15 -15 -25 -39t-10 -53q0 -23 7.5 -42t19.5 -31q10 -10 27 -18t41 -8q27 0 45 8.5
t29 18.5q20 18 29 44t9 51q0 26 -8 44.5t-20 29.5q-11 11 -28 17.5t-40 6.5z" />
    <glyph glyph-name="ntilde" unicode="&#xf1;" horiz-adv-x="567" 
d="M255 446l-7 -49q25 26 55 42q24 13 44.5 16t43.5 3q28 0 59 -6.5t57 -31.5q13 -13 20.5 -27t11.5 -28.5t5 -27.5t1 -23q0 -11 -1 -30t-6 -55l-27 -229h-144l24 193q5 35 5.5 51t0.5 21q0 13 -3.5 27.5t-14.5 26.5q-12 12 -27 15.5t-26 3.5q-19 0 -35 -5t-30 -19
q-10 -10 -16 -22.5t-10 -25.5t-6 -25t-3 -21l-26 -220h-144l55 446h144zM561 613q-2 -5 -13.5 -23.5t-30.5 -36.5q-17 -16 -35.5 -25t-41.5 -9q-17 0 -33 4.5t-30 10.5l-32 13q-11 5 -23.5 9.5t-26.5 4.5t-27.5 -8.5t-24.5 -29.5l-59 44q6 14 17 32t24 31q31 31 77 31
q20 0 35.5 -4.5t32.5 -11.5l32 -13q21 -8 32.5 -10.5t19.5 -2.5q20 0 30.5 14.5t14.5 23.5z" />
    <glyph glyph-name="ograve" unicode="&#xf2;" horiz-adv-x="592" 
d="M337 461q54 0 104 -18t83 -51q26 -26 43 -64t17 -87t-18.5 -98t-53.5 -85q-24 -24 -49.5 -38.5t-52 -22t-53 -10t-50.5 -2.5q-21 0 -45 2t-48 9t-48 20.5t-45 35.5q-26 27 -43.5 67t-17.5 90q0 49 18 95t54 81q37 36 90 56t115 20zM315 107q27 0 48.5 9t35.5 23
q19 18 28 43.5t9 51.5t-8.5 45.5t-21.5 31.5q-14 14 -36 21t-42 7t-41.5 -7.5t-38.5 -23.5q-20 -18 -30 -43.5t-10 -51.5q0 -23 8 -42.5t21 -33.5q11 -11 30 -20.5t48 -9.5zM208 650l103 65l103 -152l-71 -48z" />
    <glyph glyph-name="oacute" unicode="&#xf3;" horiz-adv-x="592" 
d="M337 461q54 0 104 -18t83 -51q26 -26 43 -64t17 -87t-18.5 -98t-53.5 -85q-24 -24 -49.5 -38.5t-52 -22t-53 -10t-50.5 -2.5q-21 0 -45 2t-48 9t-48 20.5t-45 35.5q-26 27 -43.5 67t-17.5 90q0 49 18 95t54 81q37 36 90 56t115 20zM315 107q27 0 48.5 9t35.5 23
q19 18 28 43.5t9 51.5t-8.5 45.5t-21.5 31.5q-14 14 -36 21t-42 7t-41.5 -7.5t-38.5 -23.5q-20 -18 -30 -43.5t-10 -51.5q0 -23 8 -42.5t21 -33.5q11 -11 30 -20.5t48 -9.5zM501 650l-169 -135l-59 48l142 152z" />
    <glyph glyph-name="ocircumflex" unicode="&#xf4;" horiz-adv-x="592" 
d="M337 461q54 0 104 -18t83 -51q26 -26 43 -64t17 -87t-18.5 -98t-53.5 -85q-24 -24 -49.5 -38.5t-52 -22t-53 -10t-50.5 -2.5q-21 0 -45 2t-48 9t-48 20.5t-45 35.5q-26 27 -43.5 67t-17.5 90q0 49 18 95t54 81q37 36 90 56t115 20zM315 107q27 0 48.5 9t35.5 23
q19 18 28 43.5t9 51.5t-8.5 45.5t-21.5 31.5q-14 14 -36 21t-42 7t-41.5 -7.5t-38.5 -23.5q-20 -18 -30 -43.5t-10 -51.5q0 -23 8 -42.5t21 -33.5q11 -11 30 -20.5t48 -9.5zM230 515l-62 69l200 142l167 -142l-68 -69l-106 95z" />
    <glyph glyph-name="otilde" unicode="&#xf5;" horiz-adv-x="592" 
d="M337 461q54 0 104 -18t83 -51q26 -26 43 -64t17 -87t-18.5 -98t-53.5 -85q-24 -24 -49.5 -38.5t-52 -22t-53 -10t-50.5 -2.5q-21 0 -45 2t-48 9t-48 20.5t-45 35.5q-26 27 -43.5 67t-17.5 90q0 49 18 95t54 81q37 36 90 56t115 20zM315 107q27 0 48.5 9t35.5 23
q19 18 28 43.5t9 51.5t-8.5 45.5t-21.5 31.5q-14 14 -36 21t-42 7t-41.5 -7.5t-38.5 -23.5q-20 -18 -30 -43.5t-10 -51.5q0 -23 8 -42.5t21 -33.5q11 -11 30 -20.5t48 -9.5zM541 613q-2 -5 -13.5 -23.5t-30.5 -36.5q-17 -16 -35.5 -25t-41.5 -9q-17 0 -33 4.5t-30 10.5
l-32 13q-11 5 -23.5 9.5t-26.5 4.5t-27.5 -8.5t-24.5 -29.5l-59 44q6 14 17 32t24 31q31 31 77 31q20 0 35.5 -4.5t32.5 -11.5l32 -13q21 -8 32.5 -10.5t19.5 -2.5q20 0 30.5 14.5t14.5 23.5z" />
    <glyph glyph-name="odieresis" unicode="&#xf6;" horiz-adv-x="592" 
d="M337 461q54 0 104 -18t83 -51q26 -26 43 -64t17 -87t-18.5 -98t-53.5 -85q-24 -24 -49.5 -38.5t-52 -22t-53 -10t-50.5 -2.5q-21 0 -45 2t-48 9t-48 20.5t-45 35.5q-26 27 -43.5 67t-17.5 90q0 49 18 95t54 81q37 36 90 56t115 20zM315 107q27 0 48.5 9t35.5 23
q19 18 28 43.5t9 51.5t-8.5 45.5t-21.5 31.5q-14 14 -36 21t-42 7t-41.5 -7.5t-38.5 -23.5q-20 -18 -30 -43.5t-10 -51.5q0 -23 8 -42.5t21 -33.5q11 -11 30 -20.5t48 -9.5zM166 599q0 32 23.5 55.5t55.5 23.5t55.5 -23.5t23.5 -55.5t-23.5 -55.5t-55.5 -23.5t-55.5 23.5
t-23.5 55.5zM384 599q0 32 23.5 55.5t55.5 23.5t55.5 -23.5t23.5 -55.5t-23.5 -55.5t-55.5 -23.5t-55.5 23.5t-23.5 55.5z" />
    <glyph glyph-name="divide" unicode="&#xf7;" 
d="M73 398h434v-116h-434v116zM217 510q0 30 21.5 51.5t51.5 21.5t51.5 -21.5t21.5 -51.5t-21.5 -51.5t-51.5 -21.5t-51.5 21.5t-21.5 51.5zM217 168q0 30 21.5 51.5t51.5 21.5t51.5 -21.5t21.5 -51.5t-21.5 -51.5t-51.5 -21.5t-51.5 21.5t-21.5 51.5z" />
    <glyph glyph-name="oslash" unicode="&#xf8;" horiz-adv-x="612" 
d="M111 78q-14 20 -27 52.5t-13 78.5q0 50 18 95.5t54 80.5q34 33 84.5 54.5t120.5 21.5q43 0 79 -9t72 -32l88 78l49 -57l-81 -73q19 -27 29.5 -58t10.5 -69q0 -61 -20 -106t-52 -77q-24 -24 -50 -38.5t-51.5 -22t-50.5 -10t-49 -2.5q-46 0 -81 7.5t-73 30.5l-84 -75
l-54 58zM272 121q24 -14 53 -14q35 0 56.5 12.5t32.5 23.5q14 16 23.5 38t9.5 48q0 22 -7 42zM395 324q-12 8 -25 11.5t-30 3.5q-26 0 -46 -8.5t-35 -22.5q-17 -16 -28.5 -40t-11.5 -52q0 -21 7 -41z" />
    <glyph glyph-name="ugrave" unicode="&#xf9;" horiz-adv-x="570" 
d="M567 446l-28 -241q-2 -20 -5.5 -41t-10.5 -42t-18.5 -41.5t-30.5 -38.5q-20 -19 -42.5 -30.5t-45.5 -17.5t-45.5 -7.5t-41.5 -1.5q-17 0 -39 1t-46 6.5t-47 15.5t-42 28q-23 21 -35.5 53t-12.5 67q0 14 1.5 33t3.5 30l27 227h144l-26 -222q-2 -21 -3.5 -31t-1.5 -18
q0 -18 5.5 -30t13.5 -19q10 -9 26.5 -14t32.5 -5q17 0 35.5 6t30.5 19q5 5 14.5 22.5t14.5 57.5l28 234h144zM197 650l103 65l103 -152l-71 -48z" />
    <glyph glyph-name="uacute" unicode="&#xfa;" horiz-adv-x="570" 
d="M567 446l-28 -241q-2 -20 -5.5 -41t-10.5 -42t-18.5 -41.5t-30.5 -38.5q-20 -19 -42.5 -30.5t-45.5 -17.5t-45.5 -7.5t-41.5 -1.5q-17 0 -39 1t-46 6.5t-47 15.5t-42 28q-23 21 -35.5 53t-12.5 67q0 14 1.5 33t3.5 30l27 227h144l-26 -222q-2 -21 -3.5 -31t-1.5 -18
q0 -18 5.5 -30t13.5 -19q10 -9 26.5 -14t32.5 -5q17 0 35.5 6t30.5 19q5 5 14.5 22.5t14.5 57.5l28 234h144zM511 650l-169 -135l-59 48l142 152z" />
    <glyph glyph-name="ucircumflex" unicode="&#xfb;" horiz-adv-x="570" 
d="M567 446l-28 -241q-2 -20 -5.5 -41t-10.5 -42t-18.5 -41.5t-30.5 -38.5q-20 -19 -42.5 -30.5t-45.5 -17.5t-45.5 -7.5t-41.5 -1.5q-17 0 -39 1t-46 6.5t-47 15.5t-42 28q-23 21 -35.5 53t-12.5 67q0 14 1.5 33t3.5 30l27 227h144l-26 -222q-2 -21 -3.5 -31t-1.5 -18
q0 -18 5.5 -30t13.5 -19q10 -9 26.5 -14t32.5 -5q17 0 35.5 6t30.5 19q5 5 14.5 22.5t14.5 57.5l28 234h144zM210 515l-62 69l200 142l167 -142l-68 -69l-106 95z" />
    <glyph glyph-name="udieresis" unicode="&#xfc;" horiz-adv-x="570" 
d="M567 446l-28 -241q-2 -20 -5.5 -41t-10.5 -42t-18.5 -41.5t-30.5 -38.5q-20 -19 -42.5 -30.5t-45.5 -17.5t-45.5 -7.5t-41.5 -1.5q-17 0 -39 1t-46 6.5t-47 15.5t-42 28q-23 21 -35.5 53t-12.5 67q0 14 1.5 33t3.5 30l27 227h144l-26 -222q-2 -21 -3.5 -31t-1.5 -18
q0 -18 5.5 -30t13.5 -19q10 -9 26.5 -14t32.5 -5q17 0 35.5 6t30.5 19q5 5 14.5 22.5t14.5 57.5l28 234h144zM161 599q0 32 23.5 55.5t55.5 23.5t55.5 -23.5t23.5 -55.5t-23.5 -55.5t-55.5 -23.5t-55.5 23.5t-23.5 55.5zM379 599q0 32 23.5 55.5t55.5 23.5t55.5 -23.5
t23.5 -55.5t-23.5 -55.5t-55.5 -23.5t-55.5 23.5t-23.5 55.5z" />
    <glyph glyph-name="yacute" unicode="&#xfd;" horiz-adv-x="583" 
d="M224 57l-173 389h164l99 -244l150 244h169l-431 -675h-162zM517 650l-169 -135l-59 48l142 152z" />
    <glyph glyph-name="thorn" unicode="&#xfe;" horiz-adv-x="598" 
d="M174 -229h-144l118 958h144l-43 -335q14 17 28.5 28t27.5 18q22 11 44 16t48 5q52 0 84.5 -16t50.5 -33q27 -27 43 -71t16 -96q0 -64 -21 -115.5t-54 -84.5t-70 -46.5t-81 -13.5q-24 0 -49 3.5t-48 15.5q-14 8 -29 20t-29 31zM341 337q-50 0 -84 -34q-20 -20 -28 -42
t-8 -48q0 -16 5 -36t22 -37q13 -14 32.5 -22.5t42.5 -8.5q22 0 43 8t37 23q18 17 29 44t11 52q0 21 -8.5 42t-22.5 33q-14 13 -33 19.5t-38 6.5z" />
    <glyph glyph-name="ydieresis" unicode="&#xff;" horiz-adv-x="583" 
d="M224 57l-173 389h164l99 -244l150 244h169l-431 -675h-162zM161 599q0 32 23.5 55.5t55.5 23.5t55.5 -23.5t23.5 -55.5t-23.5 -55.5t-55.5 -23.5t-55.5 23.5t-23.5 55.5zM379 599q0 32 23.5 55.5t55.5 23.5t55.5 -23.5t23.5 -55.5t-23.5 -55.5t-55.5 -23.5t-55.5 23.5
t-23.5 55.5z" />
    <glyph glyph-name="Amacron" unicode="&#x100;" horiz-adv-x="677" 
d="M483 126h-252l-63 -126h-166l352 667h142l179 -667h-158zM455 244l-54 235l-112 -235h166zM240 845h388l-12 -92h-388z" />
    <glyph glyph-name="amacron" unicode="&#x101;" horiz-adv-x="598" 
d="M448 446h144l-55 -446h-144l11 51q-12 -14 -28.5 -28t-34.5 -22q-23 -11 -46.5 -13.5t-36.5 -2.5q-42 0 -75.5 12t-62.5 43q-25 26 -42.5 66t-17.5 98q0 62 20 110.5t52 81.5q35 35 76 50t88 15q20 0 42.5 -3t44.5 -14q13 -6 29.5 -18.5t31.5 -33.5zM327 337
q-52 0 -85 -33q-15 -15 -24.5 -38t-9.5 -51t9 -46.5t20 -29.5q16 -17 35 -23.5t41 -6.5q31 0 51 9.5t31 20.5q20 19 29 45t9 51q0 24 -8.5 44t-22.5 33q-10 9 -28 17t-47 8zM178 633h380l-11 -90h-380z" />
    <glyph glyph-name="Abreve" unicode="&#x102;" horiz-adv-x="677" 
d="M483 126h-252l-63 -126h-166l352 667h142l179 -667h-158zM455 244l-54 235l-112 -235h166zM609 874q-5 -29 -19 -58t-32 -47q-20 -20 -51 -32t-76 -12q-11 0 -26 1t-32 5.5t-34 13t-31 22.5q-20 20 -31 48.5t-12 58.5h96q1 -11 5 -22.5t11 -19.5q12 -14 29 -17.5t28 -3.5
q13 0 27.5 3.5t27.5 14.5q8 8 15 20t9 25h96z" />
    <glyph glyph-name="abreve" unicode="&#x103;" horiz-adv-x="598" 
d="M448 446h144l-55 -446h-144l11 51q-12 -14 -28.5 -28t-34.5 -22q-23 -11 -46.5 -13.5t-36.5 -2.5q-42 0 -75.5 12t-62.5 43q-25 26 -42.5 66t-17.5 98q0 62 20 110.5t52 81.5q35 35 76 50t88 15q20 0 42.5 -3t44.5 -14q13 -6 29.5 -18.5t31.5 -33.5zM327 337
q-52 0 -85 -33q-15 -15 -24.5 -38t-9.5 -51t9 -46.5t20 -29.5q16 -17 35 -23.5t41 -6.5q31 0 51 9.5t31 20.5q20 19 29 45t9 51q0 24 -8.5 44t-22.5 33q-10 9 -28 17t-47 8zM521 664q-4 -30 -17 -58t-32 -46q-27 -26 -60.5 -34.5t-65.5 -8.5q-30 0 -64 7.5t-60 34.5
q-17 18 -28 45.5t-11 59.5h94q0 -11 4 -22.5t11 -19.5t20 -13.5t35 -5.5q19 0 32.5 4.5t21.5 11.5q20 15 26 45h94z" />
    <glyph glyph-name="Aogonek" unicode="&#x104;" horiz-adv-x="677" 
d="M496 667l179 -667h-86q-8 -8 -18.5 -20t-16.5 -20q-5 -7 -12 -18.5t-7 -23.5q0 -6 2 -12.5t7 -10.5q7 -6 16 -7.5t11 -1.5q14 0 27.5 5t22.5 10l-27 -77q-31 -17 -66 -17q-13 0 -30 3.5t-31 16.5q-7 6 -15 19t-8 36q0 20 7 36t18 31q2 2 14 17t34 34l-35 131h-249
l-65 -131h-166l352 667h142zM453 251l-52 228l-109 -228h161z" />
    <glyph glyph-name="aogonek" unicode="&#x105;" horiz-adv-x="598" 
d="M448 446h144l-55 -446h-40q-8 -8 -16.5 -18t-13.5 -17q-14 -18 -17 -28.5t-3 -15.5t2 -11t8 -11q7 -6 14 -7.5t12 -1.5q8 0 20.5 2.5t31.5 12.5l-27 -77q-20 -11 -37 -14t-31 -3q-15 0 -30.5 3.5t-28.5 14.5q-10 8 -16.5 21t-6.5 30q0 23 9 40.5t20 31.5q5 6 16 19t28 29
h-38l11 51q-18 -21 -35.5 -32t-26.5 -16q-23 -11 -43.5 -14.5t-41.5 -3.5q-39 0 -73 11.5t-64 43.5q-25 26 -42.5 66t-17.5 98q0 62 20 110.5t52 81.5q35 35 76 50t88 15q20 0 42.5 -3t44.5 -14q13 -6 29.5 -18.5t31.5 -33.5zM327 337q-52 0 -85 -33q-15 -15 -24.5 -38
t-9.5 -51t9 -46.5t20 -29.5q16 -17 35 -23.5t41 -6.5q31 0 51 9.5t31 20.5q20 19 29 45t9 51q0 24 -8.5 44t-22.5 33q-10 9 -28 17t-47 8z" />
    <glyph glyph-name="Cacute" unicode="&#x106;" horiz-adv-x="605" 
d="M567 21q-8 -4 -22.5 -10t-34.5 -12t-46.5 -10t-58.5 -4q-47 0 -84.5 9t-66.5 22.5t-50 29t-34 28.5q-16 16 -32 38t-29 50.5t-21 63.5t-8 79q0 88 29.5 157t76.5 116q42 42 108.5 73t158.5 31q39 0 70 -5.5t54.5 -13t39.5 -16t25 -13.5l-19 -163q-10 10 -25 22t-35.5 22
t-47 16.5t-59.5 6.5q-48 0 -87 -14t-71 -49q-31 -33 -45.5 -75t-14.5 -82q0 -42 14.5 -78t37.5 -59t59 -37.5t82 -14.5q50 0 89 17.5t67 40.5zM635 853l-180 -129l-59 53l153 148z" />
    <glyph glyph-name="cacute" unicode="&#x107;" horiz-adv-x="431" 
d="M428 301q-5 4 -13.5 10.5t-21 12.5t-29 10.5t-36.5 4.5q-38 0 -58.5 -13t-28.5 -21q-17 -18 -25 -42t-8 -47q0 -27 9 -46.5t23 -32.5q31 -30 78 -30q29 0 52 11t39 25l-16 -132q-35 -17 -64.5 -21.5t-53.5 -4.5q-45 0 -82.5 12.5t-72.5 49.5q-27 29 -43.5 69t-16.5 92
q0 54 18 100.5t52 81.5q29 29 74 50t111 21q34 0 66 -6.5t64 -22.5zM481 650l-169 -135l-59 48l142 152z" />
    <glyph glyph-name="Ccircumflex" unicode="&#x108;" horiz-adv-x="605" 
d="M567 21q-8 -4 -22.5 -10t-34.5 -12t-46.5 -10t-58.5 -4q-47 0 -84.5 9t-66.5 22.5t-50 29t-34 28.5q-16 16 -32 38t-29 50.5t-21 63.5t-8 79q0 88 29.5 157t76.5 116q42 42 108.5 73t158.5 31q39 0 70 -5.5t54.5 -13t39.5 -16t25 -13.5l-19 -163q-10 10 -25 22t-35.5 22
t-47 16.5t-59.5 6.5q-48 0 -87 -14t-71 -49q-31 -33 -45.5 -75t-14.5 -82q0 -42 14.5 -78t37.5 -59t59 -37.5t82 -14.5q50 0 89 17.5t67 40.5zM259 797l205 140l172 -140l-66 -71l-114 93l-133 -93z" />
    <glyph glyph-name="ccircumflex" unicode="&#x109;" horiz-adv-x="431" 
d="M428 301q-5 4 -13.5 10.5t-21 12.5t-29 10.5t-36.5 4.5q-38 0 -58.5 -13t-28.5 -21q-17 -18 -25 -42t-8 -47q0 -27 9 -46.5t23 -32.5q31 -30 78 -30q29 0 52 11t39 25l-16 -132q-35 -17 -64.5 -21.5t-53.5 -4.5q-45 0 -82.5 12.5t-72.5 49.5q-27 29 -43.5 69t-16.5 92
q0 54 18 100.5t52 81.5q29 29 74 50t111 21q34 0 66 -6.5t64 -22.5zM190 515l-62 69l200 142l167 -142l-68 -69l-106 95z" />
    <glyph glyph-name="Cdotaccent" unicode="&#x10a;" horiz-adv-x="605" 
d="M567 21q-8 -4 -22.5 -10t-34.5 -12t-46.5 -10t-58.5 -4q-47 0 -84.5 9t-66.5 22.5t-50 29t-34 28.5q-16 16 -32 38t-29 50.5t-21 63.5t-8 79q0 88 29.5 157t76.5 116q42 42 108.5 73t158.5 31q39 0 70 -5.5t54.5 -13t39.5 -16t25 -13.5l-19 -163q-10 10 -25 22t-35.5 22
t-47 16.5t-59.5 6.5q-48 0 -87 -14t-71 -49q-31 -33 -45.5 -75t-14.5 -82q0 -42 14.5 -78t37.5 -59t59 -37.5t82 -14.5q50 0 89 17.5t67 40.5zM392 815q0 36 24.5 60.5t60.5 24.5t60.5 -24.5t24.5 -60.5t-24.5 -60.5t-60.5 -24.5t-60.5 24.5t-24.5 60.5z" />
    <glyph glyph-name="cdotaccent" unicode="&#x10b;" horiz-adv-x="431" 
d="M428 301q-5 4 -13.5 10.5t-21 12.5t-29 10.5t-36.5 4.5q-38 0 -58.5 -13t-28.5 -21q-17 -18 -25 -42t-8 -47q0 -27 9 -46.5t23 -32.5q31 -30 78 -30q29 0 52 11t39 25l-16 -132q-35 -17 -64.5 -21.5t-53.5 -4.5q-45 0 -82.5 12.5t-72.5 49.5q-27 29 -43.5 69t-16.5 92
q0 54 18 100.5t52 81.5q29 29 74 50t111 21q34 0 66 -6.5t64 -22.5zM265 603q0 35 24 59t59 24t59 -24t24 -59t-24 -59t-59 -24t-59 24t-24 59z" />
    <glyph glyph-name="Ccaron" unicode="&#x10c;" horiz-adv-x="605" 
d="M567 21q-8 -4 -22.5 -10t-34.5 -12t-46.5 -10t-58.5 -4q-47 0 -84.5 9t-66.5 22.5t-50 29t-34 28.5q-16 16 -32 38t-29 50.5t-21 63.5t-8 79q0 88 29.5 157t76.5 116q42 42 108.5 73t158.5 31q39 0 70 -5.5t54.5 -13t39.5 -16t25 -13.5l-19 -163q-10 10 -25 22t-35.5 22
t-47 16.5t-59.5 6.5q-48 0 -87 -14t-71 -49q-31 -33 -45.5 -75t-14.5 -82q0 -42 14.5 -78t37.5 -59t59 -37.5t82 -14.5q50 0 89 17.5t67 40.5zM588 937l66 -70l-206 -141l-171 141l64 70l115 -93z" />
    <glyph glyph-name="ccaron" unicode="&#x10d;" horiz-adv-x="431" 
d="M428 301q-5 4 -13.5 10.5t-21 12.5t-29 10.5t-36.5 4.5q-38 0 -58.5 -13t-28.5 -21q-17 -18 -25 -42t-8 -47q0 -27 9 -46.5t23 -32.5q31 -30 78 -30q29 0 52 11t39 25l-16 -132q-35 -17 -64.5 -21.5t-53.5 -4.5q-45 0 -82.5 12.5t-72.5 49.5q-27 29 -43.5 69t-16.5 92
q0 54 18 100.5t52 81.5q29 29 74 50t111 21q34 0 66 -6.5t64 -22.5zM437 726l67 -68l-202 -143l-165 143l63 68l107 -95z" />
    <glyph glyph-name="Dcaron" unicode="&#x10e;" horiz-adv-x="685" 
d="M347 667q26 0 58.5 -2.5t67 -11.5t68 -26t61.5 -45q33 -33 56.5 -88t23.5 -134q0 -57 -11.5 -101.5t-28 -77.5t-34 -55t-30.5 -34q-58 -55 -135 -73.5t-168 -18.5h-205l82 667h195zM240 130h47q17 0 38 1t43.5 6.5t45.5 15.5t43 28q29 26 48 70.5t19 104.5q0 45 -13 79
t-35 55q-24 23 -62 35t-77 12h-47zM502 937l66 -70l-206 -141l-171 141l64 70l115 -93z" />
    <glyph glyph-name="dcaron" unicode="&#x10f;" horiz-adv-x="749" 
d="M482 729h144l-90 -729h-143l8 51q-14 -20 -29.5 -31.5t-29.5 -18.5q-23 -11 -47.5 -13.5t-38.5 -2.5q-41 0 -74 12t-61 39q-27 27 -44 67.5t-17 94.5q0 55 19 108t58 92q35 35 76.5 49t83.5 14q12 0 29.5 -2t37 -9.5t39.5 -21t38 -36.5zM326 337q-32 0 -51.5 -11
t-30.5 -22q-17 -17 -26.5 -40t-9.5 -51q0 -29 10 -47.5t21 -29.5t29 -19t45 -8q29 0 49.5 10t33.5 24q17 17 26 43t9 49q0 26 -9.5 44t-19.5 28q-11 11 -29.5 20.5t-46.5 9.5zM715 700l130 -30l-124 -198l-88 20z" />
    <glyph glyph-name="Dcroat" unicode="&#x110;" horiz-adv-x="712" 
d="M179 667h195q26 0 58.5 -2.5t67 -11.5t68 -26t61.5 -45q33 -33 56.5 -88t23.5 -134q0 -57 -11.5 -101.5t-28 -77.5t-34 -55t-30.5 -34q-58 -55 -135 -73.5t-168 -18.5h-205l37 303h-90l14 110h90zM302 413h120l-14 -110h-120l-21 -173h47q17 0 38 1t43.5 6.5t45.5 15.5
t43 28q29 26 48 70.5t19 104.5q0 45 -13 79t-35 55q-24 23 -62 35t-77 12h-47z" />
    <glyph glyph-name="dcroat" unicode="&#x111;" horiz-adv-x="608" 
d="M459 542h-192l11 94h192l12 93h144l-12 -93h80l-11 -94h-80l-67 -542h-143l8 51q-14 -20 -29.5 -31.5t-29.5 -18.5q-23 -11 -47.5 -13.5t-38.5 -2.5q-41 0 -74 12t-61 39q-27 27 -44 67.5t-17 94.5q0 55 19 108t58 92q35 35 76.5 49t83.5 14q12 0 29.5 -2t37 -9.5
t39.5 -21t38 -36.5zM326 337q-32 0 -51.5 -11t-30.5 -22q-17 -17 -26.5 -40t-9.5 -51q0 -29 10 -47.5t21 -29.5t29 -19t45 -8q29 0 49.5 10t33.5 24q17 17 26 43t9 49q0 26 -9.5 44t-19.5 28q-11 11 -29.5 20.5t-46.5 9.5z" />
    <glyph glyph-name="Emacron" unicode="&#x112;" horiz-adv-x="502" 
d="M504 537h-218l-16 -129h210l-16 -130h-210l-18 -148h222l-16 -130h-372l82 667h368zM157 845h388l-12 -92h-388z" />
    <glyph glyph-name="emacron" unicode="&#x113;" horiz-adv-x="542" 
d="M399 283q-2 16 -9.5 32t-19.5 26t-28.5 14t-30.5 4q-26 0 -42.5 -9t-25.5 -18q-8 -9 -15 -21.5t-10 -27.5h181zM204 195q-1 -17 4 -35.5t14 -31.5q14 -20 33 -25.5t36 -5.5q13 0 28 2t29 11q10 7 18 18t13 22l145 -12q-14 -34 -35.5 -63.5t-45.5 -47.5
q-19 -14 -39.5 -22.5t-40.5 -13t-39 -5.5t-34 -1q-21 0 -43 2t-44.5 8t-44.5 18t-42 32q-32 32 -44 71.5t-12 84.5q0 37 7 67.5t18 55t24.5 43.5t27.5 32q41 38 88 50t89 12q57 0 99 -16t68 -41q22 -22 34.5 -50t18 -56.5t5.5 -55.5t-2 -47h-333zM153 633h380l-11 -90h-380z
" />
    <glyph glyph-name="Edotaccent" unicode="&#x116;" horiz-adv-x="502" 
d="M504 537h-218l-16 -129h210l-16 -130h-210l-18 -148h222l-16 -130h-372l82 667h368zM259 815q0 36 24.5 60.5t60.5 24.5t60.5 -24.5t24.5 -60.5t-24.5 -60.5t-60.5 -24.5t-60.5 24.5t-24.5 60.5z" />
    <glyph glyph-name="edotaccent" unicode="&#x117;" horiz-adv-x="542" 
d="M399 283q-2 16 -9.5 32t-19.5 26t-28.5 14t-30.5 4q-26 0 -42.5 -9t-25.5 -18q-8 -9 -15 -21.5t-10 -27.5h181zM204 195q-1 -17 4 -35.5t14 -31.5q14 -20 33 -25.5t36 -5.5q13 0 28 2t29 11q10 7 18 18t13 22l145 -12q-14 -34 -35.5 -63.5t-45.5 -47.5
q-19 -14 -39.5 -22.5t-40.5 -13t-39 -5.5t-34 -1q-21 0 -43 2t-44.5 8t-44.5 18t-42 32q-32 32 -44 71.5t-12 84.5q0 37 7 67.5t18 55t24.5 43.5t27.5 32q41 38 88 50t89 12q57 0 99 -16t68 -41q22 -22 34.5 -50t18 -56.5t5.5 -55.5t-2 -47h-333zM257 603q0 35 24 59t59 24
t59 -24t24 -59t-24 -59t-59 -24t-59 24t-24 59z" />
    <glyph glyph-name="Eogonek" unicode="&#x118;" horiz-adv-x="502" 
d="M504 537h-218l-16 -129h210l-16 -130h-210l-18 -148h222l-16 -130h-40q-8 -8 -18.5 -20t-16.5 -20q-5 -7 -12 -18.5t-7 -23.5q0 -6 2 -12.5t7 -10.5q7 -6 16 -7.5t11 -1.5q14 0 27.5 5t22.5 10l-27 -77q-31 -17 -66 -17q-13 0 -30 3.5t-31 16.5q-7 6 -15 19t-8 36
q0 20 7 36t18 31q2 2 14 17t34 34h-260l82 667h368z" />
    <glyph glyph-name="eogonek" unicode="&#x119;" horiz-adv-x="542" 
d="M204 195q0 -17 4.5 -35.5t13.5 -31.5q14 -20 33 -25.5t36 -5.5q13 0 28 2t29 11q10 7 18 18t13 22l145 -12q-9 -49 -46 -86q-18 -18 -37 -30t-35 -20q-23 -13 -38 -21.5t-26 -19.5q-12 -12 -15.5 -22t-3.5 -18q0 -14 10 -22q9 -9 26 -9q8 0 23 2.5t29 12.5l-27 -77
q-20 -11 -37 -14t-31 -3q-15 0 -30.5 3.5t-28.5 14.5q-10 9 -16.5 21.5t-6.5 29.5q0 33 18 59q8 11 19 23.5t21 21.5q-35 0 -63 5.5t-50 14.5t-37.5 20t-25.5 21q-35 35 -45.5 76t-10.5 75q0 68 21.5 119.5t55.5 83.5q37 35 81.5 48.5t94.5 13.5q58 0 100 -16t68 -41
q18 -17 29 -38t17.5 -43.5t9 -44.5t2.5 -42q0 -11 -0.5 -21.5t-1.5 -19.5h-333zM399 283q-2 16 -9.5 32t-19.5 26t-28.5 14t-30.5 4q-26 0 -42.5 -9t-25.5 -18q-8 -9 -15 -21.5t-10 -27.5h181z" />
    <glyph glyph-name="Ecaron" unicode="&#x11a;" horiz-adv-x="502" 
d="M504 537h-218l-16 -129h210l-16 -130h-210l-18 -148h222l-16 -130h-372l82 667h368zM471 937l66 -70l-206 -141l-171 141l64 70l115 -93z" />
    <glyph glyph-name="ecaron" unicode="&#x11b;" horiz-adv-x="542" 
d="M399 283q-2 16 -9.5 32t-19.5 26t-28.5 14t-30.5 4q-26 0 -42.5 -9t-25.5 -18q-8 -9 -15 -21.5t-10 -27.5h181zM204 195q-1 -17 4 -35.5t14 -31.5q14 -20 33 -25.5t36 -5.5q13 0 28 2t29 11q10 7 18 18t13 22l145 -12q-14 -34 -35.5 -63.5t-45.5 -47.5
q-19 -14 -39.5 -22.5t-40.5 -13t-39 -5.5t-34 -1q-21 0 -43 2t-44.5 8t-44.5 18t-42 32q-32 32 -44 71.5t-12 84.5q0 37 7 67.5t18 55t24.5 43.5t27.5 32q41 38 88 50t89 12q57 0 99 -16t68 -41q22 -22 34.5 -50t18 -56.5t5.5 -55.5t-2 -47h-333zM457 726l67 -68l-202 -143
l-165 143l63 68l107 -95z" />
    <glyph glyph-name="Gcircumflex" unicode="&#x11c;" horiz-adv-x="767" 
d="M447 364h312q-2 -63 -13.5 -110.5t-27.5 -82t-33 -57t-29 -35.5q-29 -30 -59 -48t-61.5 -28.5t-63 -14t-62.5 -3.5q-32 0 -64 4.5t-63.5 15t-61 28.5t-56.5 46q-26 27 -42.5 56.5t-26 59.5t-13 59t-3.5 56q0 94 29.5 160t70.5 109q31 33 64.5 53t68 31.5t70 15t70.5 3.5
q45 0 94 -10t94 -39q33 -22 61 -54.5t47 -65.5l-142 -75q-9 20 -25 41t-37 35q-26 18 -53 23t-49 5q-41 0 -75 -12t-65 -44q-33 -35 -49 -80.5t-16 -89.5q0 -38 14 -77.5t41 -65.5q32 -32 69 -40t68 -8q23 0 52 6t54 24q18 13 33.5 35t23.5 51h-161zM249 797l205 140
l172 -140l-66 -71l-114 93l-133 -93z" />
    <glyph glyph-name="gcircumflex" unicode="&#x11d;" horiz-adv-x="595" 
d="M445 446h144l-56 -448q-5 -39 -18.5 -83t-48.5 -79q-22 -22 -48 -35t-52 -19.5t-51 -8.5t-44 -2q-45 0 -90.5 10.5t-82.5 45.5q-23 23 -40 54.5t-22 67.5h154q3 -12 10 -24t17 -20q12 -10 28.5 -14t34.5 -4q33 0 52 11.5t27 21.5q14 16 21 39.5t9 43.5l6 48
q-15 -21 -32.5 -33.5t-36 -19t-36 -8.5t-32.5 -2q-34 0 -68.5 8.5t-69.5 44.5q-23 24 -41.5 63t-18.5 99q0 59 19 108.5t54 84.5q64 65 160 65q12 0 29 -1.5t36.5 -8.5t40.5 -21t41 -38zM320 336q-30 0 -49 -9t-30 -20q-15 -15 -24 -40t-9 -50q0 -21 7.5 -42.5t22.5 -35.5
q14 -13 33.5 -20t38.5 -7q20 0 42 7t37 22q17 16 27 43t10 52q0 21 -8 41t-21 32q-11 11 -29 19t-48 8zM230 515l-62 69l200 142l167 -142l-68 -69l-106 95z" />
    <glyph glyph-name="Gbreve" unicode="&#x11e;" horiz-adv-x="767" 
d="M447 364h312q-2 -63 -13.5 -110.5t-27.5 -82t-33 -57t-29 -35.5q-29 -30 -59 -48t-61.5 -28.5t-63 -14t-62.5 -3.5q-32 0 -64 4.5t-63.5 15t-61 28.5t-56.5 46q-26 27 -42.5 56.5t-26 59.5t-13 59t-3.5 56q0 94 29.5 160t70.5 109q31 33 64.5 53t68 31.5t70 15t70.5 3.5
q45 0 94 -10t94 -39q33 -22 61 -54.5t47 -65.5l-142 -75q-9 20 -25 41t-37 35q-26 18 -53 23t-49 5q-41 0 -75 -12t-65 -44q-33 -35 -49 -80.5t-16 -89.5q0 -38 14 -77.5t41 -65.5q32 -32 69 -40t68 -8q23 0 52 6t54 24q18 13 33.5 35t23.5 51h-161zM639 874q-5 -29 -19 -58
t-32 -47q-20 -20 -51 -32t-76 -12q-11 0 -26 1t-32 5.5t-34 13t-31 22.5q-20 20 -31 48.5t-12 58.5h96q1 -11 5 -22.5t11 -19.5q12 -14 29 -17.5t28 -3.5q13 0 27.5 3.5t27.5 14.5q8 8 15 20t9 25h96z" />
    <glyph glyph-name="gbreve" unicode="&#x11f;" horiz-adv-x="595" 
d="M445 446h144l-56 -448q-5 -39 -18.5 -83t-48.5 -79q-22 -22 -48 -35t-52 -19.5t-51 -8.5t-44 -2q-45 0 -90.5 10.5t-82.5 45.5q-23 23 -40 54.5t-22 67.5h154q3 -12 10 -24t17 -20q12 -10 28.5 -14t34.5 -4q33 0 52 11.5t27 21.5q14 16 21 39.5t9 43.5l6 48
q-15 -21 -32.5 -33.5t-36 -19t-36 -8.5t-32.5 -2q-34 0 -68.5 8.5t-69.5 44.5q-23 24 -41.5 63t-18.5 99q0 59 19 108.5t54 84.5q64 65 160 65q12 0 29 -1.5t36.5 -8.5t40.5 -21t41 -38zM320 336q-30 0 -49 -9t-30 -20q-15 -15 -24 -40t-9 -50q0 -21 7.5 -42.5t22.5 -35.5
q14 -13 33.5 -20t38.5 -7q20 0 42 7t37 22q17 16 27 43t10 52q0 21 -8 41t-21 32q-11 11 -29 19t-48 8zM521 664q-4 -30 -17 -58t-32 -46q-27 -26 -60.5 -34.5t-65.5 -8.5q-30 0 -64 7.5t-60 34.5q-17 18 -28 45.5t-11 59.5h94q0 -11 4 -22.5t11 -19.5t20 -13.5t35 -5.5
q19 0 32.5 4.5t21.5 11.5q20 15 26 45h94z" />
    <glyph glyph-name="Gdotaccent" unicode="&#x120;" horiz-adv-x="767" 
d="M447 364h312q-2 -63 -13.5 -110.5t-27.5 -82t-33 -57t-29 -35.5q-29 -30 -59 -48t-61.5 -28.5t-63 -14t-62.5 -3.5q-32 0 -64 4.5t-63.5 15t-61 28.5t-56.5 46q-26 27 -42.5 56.5t-26 59.5t-13 59t-3.5 56q0 94 29.5 160t70.5 109q31 33 64.5 53t68 31.5t70 15t70.5 3.5
q45 0 94 -10t94 -39q33 -22 61 -54.5t47 -65.5l-142 -75q-9 20 -25 41t-37 35q-26 18 -53 23t-49 5q-41 0 -75 -12t-65 -44q-33 -35 -49 -80.5t-16 -89.5q0 -38 14 -77.5t41 -65.5q32 -32 69 -40t68 -8q23 0 52 6t54 24q18 13 33.5 35t23.5 51h-161zM386 815q0 36 24.5 60.5
t60.5 24.5t60.5 -24.5t24.5 -60.5t-24.5 -60.5t-60.5 -24.5t-60.5 24.5t-24.5 60.5z" />
    <glyph glyph-name="gdotaccent" unicode="&#x121;" horiz-adv-x="595" 
d="M445 446h144l-56 -448q-5 -39 -18.5 -83t-48.5 -79q-22 -22 -48 -35t-52 -19.5t-51 -8.5t-44 -2q-45 0 -90.5 10.5t-82.5 45.5q-23 23 -40 54.5t-22 67.5h154q3 -12 10 -24t17 -20q12 -10 28.5 -14t34.5 -4q33 0 52 11.5t27 21.5q14 16 21 39.5t9 43.5l6 48
q-15 -21 -32.5 -33.5t-36 -19t-36 -8.5t-32.5 -2q-34 0 -68.5 8.5t-69.5 44.5q-23 24 -41.5 63t-18.5 99q0 59 19 108.5t54 84.5q64 65 160 65q12 0 29 -1.5t36.5 -8.5t40.5 -21t41 -38zM320 336q-30 0 -49 -9t-30 -20q-15 -15 -24 -40t-9 -50q0 -21 7.5 -42.5t22.5 -35.5
q14 -13 33.5 -20t38.5 -7q20 0 42 7t37 22q17 16 27 43t10 52q0 21 -8 41t-21 32q-11 11 -29 19t-48 8zM246 603q0 35 24 59t59 24t59 -24t24 -59t-24 -59t-59 -24t-59 24t-24 59z" />
    <glyph glyph-name="Gcommaaccent" unicode="&#x122;" horiz-adv-x="767" 
d="M447 364h312q-2 -63 -13.5 -110.5t-27.5 -82t-33 -57t-29 -35.5q-29 -30 -59 -48t-61.5 -28.5t-63 -14t-62.5 -3.5q-32 0 -64 4.5t-63.5 15t-61 28.5t-56.5 46q-26 27 -42.5 56.5t-26 59.5t-13 59t-3.5 56q0 94 29.5 160t70.5 109q31 33 64.5 53t68 31.5t70 15t70.5 3.5
q45 0 94 -10t94 -39q33 -22 61 -54.5t47 -65.5l-142 -75q-9 20 -25 41t-37 35q-26 18 -53 23t-49 5q-41 0 -75 -12t-65 -44q-33 -35 -49 -80.5t-16 -89.5q0 -38 14 -77.5t41 -65.5q32 -32 69 -40t68 -8q23 0 52 6t54 24q18 13 33.5 35t23.5 51h-161zM361 -50l134 -16
l-108 -194l-92 12z" />
    <glyph glyph-name="gcommaaccent" unicode="&#x123;" horiz-adv-x="595" 
d="M445 446h144l-56 -448q-5 -39 -18.5 -83t-48.5 -79q-22 -22 -48 -35t-52 -19.5t-51 -8.5t-44 -2q-45 0 -90.5 10.5t-82.5 45.5q-23 23 -40 54.5t-22 67.5h154q3 -12 10 -24t17 -20q12 -10 28.5 -14t34.5 -4q33 0 52 11.5t27 21.5q14 16 21 39.5t9 43.5l6 48
q-15 -21 -32.5 -33.5t-36 -19t-36 -8.5t-32.5 -2q-34 0 -68.5 8.5t-69.5 44.5q-23 24 -41.5 63t-18.5 99q0 59 19 108.5t54 84.5q64 65 160 65q12 0 29 -1.5t36.5 -8.5t40.5 -21t41 -38zM320 336q-30 0 -49 -9t-30 -20q-15 -15 -24 -40t-9 -50q0 -21 7.5 -42.5t22.5 -35.5
q14 -13 33.5 -20t38.5 -7q20 0 42 7t37 22q17 16 27 43t10 52q0 21 -8 41t-21 32q-11 11 -29 19t-48 8zM354 498l-134 16l108 184l92 -12z" />
    <glyph glyph-name="Hcircumflex" unicode="&#x124;" horiz-adv-x="720" 
d="M275 417h266l31 250h154l-82 -667h-154l35 287h-266l-35 -287h-154l82 667h154zM249 797l205 140l172 -140l-66 -71l-114 93l-133 -93z" />
    <glyph glyph-name="hcircumflex" unicode="&#x125;" horiz-adv-x="571" 
d="M294 729l-42 -332q15 16 29.5 26t25.5 16q24 13 45 16t46 3q26 0 56.5 -6.5t56.5 -31.5q13 -13 20.5 -27t11.5 -28.5t5 -27.5t1 -23q0 -11 -1 -30t-6 -55l-27 -229h-144l24 193q5 35 5.5 51t0.5 21q0 13 -3.5 27.5t-14.5 26.5q-12 12 -26.5 15.5t-24.5 3.5
q-20 0 -36.5 -5t-30.5 -19q-20 -20 -26.5 -48t-8.5 -46l-26 -220h-144l90 729h144zM103 738l-62 69l200 142l167 -142l-68 -69l-106 95z" />
    <glyph glyph-name="Hbar" unicode="&#x126;" horiz-adv-x="720" 
d="M299 614h266l7 53h154l-7 -53h60l-13 -106h-60l-62 -508h-154l36 287h-266l-36 -287h-154l62 508h-60l13 106h60l7 53h154zM286 508l-11 -92h266l11 92h-266z" />
    <glyph glyph-name="hbar" unicode="&#x127;" horiz-adv-x="581" 
d="M137 542h-80l11 94h80l12 93h144l-12 -93h192l-11 -94h-192l-19 -145q15 16 29.5 26t25.5 16q24 13 45 16t46 3q26 0 56.5 -6.5t56.5 -31.5q13 -13 20.5 -27t11.5 -28.5t5 -27.5t1 -23q0 -11 -1 -30t-6 -55l-27 -229h-144l24 193q5 35 5.5 51t0.5 21q0 13 -3.5 27.5
t-14.5 26.5q-12 12 -27 15.5t-26 3.5q-19 0 -35 -5t-30 -19q-10 -10 -16 -22.5t-10 -25.5t-6 -25t-3 -21l-26 -220h-144z" />
    <glyph glyph-name="Imacron" unicode="&#x12a;" horiz-adv-x="306" 
d="M309 667l-82 -667h-154l82 667h154zM59 845h388l-12 -92h-388z" />
    <glyph glyph-name="imacron" unicode="&#x12b;" horiz-adv-x="276" 
d="M264 446l-55 -446h-144l55 446h144zM77 633h276l-11 -90h-276z" />
    <glyph glyph-name="Iogonek" unicode="&#x12e;" horiz-adv-x="306" 
d="M309 667l-82 -667q-8 -8 -18.5 -20t-16.5 -20q-5 -7 -12 -18.5t-7 -23.5q0 -6 2 -12.5t7 -10.5q7 -6 16 -7.5t11 -1.5q14 0 27.5 5t22.5 10l-27 -77q-31 -17 -66 -17q-13 0 -30 3.5t-31 16.5q-7 6 -15 19t-8 36q0 20 7 36t18 31q2 2 14 17t34 34h-82l82 667h154z" />
    <glyph glyph-name="iogonek" unicode="&#x12f;" horiz-adv-x="276" 
d="M264 446l-55 -446q-8 -8 -16.5 -18t-13.5 -17q-14 -18 -17 -28.5t-3 -15.5t2 -11t8 -11q7 -6 14 -7.5t12 -1.5q8 0 20.5 2.5t31.5 12.5l-27 -77q-20 -11 -37 -14t-31 -3q-15 0 -30.5 3.5t-28.5 14.5q-10 8 -16.5 21t-6.5 30q0 23 9 40.5t20 31.5q5 6 16 19t28 29h-78
l55 446h144zM127 636q0 35 24.5 59.5t59.5 24.5t59.5 -24.5t24.5 -59.5t-24.5 -59.5t-59.5 -24.5t-59.5 24.5t-24.5 59.5z" />
    <glyph glyph-name="Idotaccent" unicode="&#x130;" horiz-adv-x="306" 
d="M309 667l-82 -667h-154l82 667h154zM155 815q0 36 24.5 60.5t60.5 24.5t60.5 -24.5t24.5 -60.5t-24.5 -60.5t-60.5 -24.5t-60.5 24.5t-24.5 60.5z" />
    <glyph glyph-name="dotlessi" unicode="&#x131;" horiz-adv-x="276" 
d="M264 446l-55 -446h-144l55 446h144z" />
    <glyph glyph-name="Jcircumflex" unicode="&#x134;" horiz-adv-x="415" 
d="M421 667l-56 -453q-2 -18 -5.5 -41t-10.5 -47.5t-19 -48.5t-33 -43q-18 -17 -37.5 -26.5t-39.5 -14.5t-38.5 -6.5t-33.5 -1.5q-26 0 -52.5 4t-53.5 20q-41 24 -67 68l105 96q4 -11 10 -21t14 -17q6 -5 16 -9.5t24 -4.5q23 0 39 14q13 11 19 30.5t9 46.5l56 455h154z
M164 797l205 140l172 -140l-66 -71l-114 93l-133 -93z" />
    <glyph glyph-name="jcircumflex" unicode="&#x135;" horiz-adv-x="276" 
d="M264 446l-85 -675h-144l85 675h144zM110 515l-59 69l176 142l142 -142l-72 -69l-82 87z" />
    <glyph glyph-name="Kcommaaccent" unicode="&#x136;" horiz-adv-x="670" 
d="M272 388l244 279h184l-291 -323l247 -344h-194l-201 302l-37 -302h-154l82 667h154zM301 -50l134 -16l-108 -194l-92 12z" />
    <glyph glyph-name="kcommaaccent" unicode="&#x137;" horiz-adv-x="566" 
d="M295 729l-55 -447l164 164h192l-219 -205l202 -241h-185l-164 196l-26 -196h-144l91 729h144zM241 -50l134 -16l-108 -184l-92 12z" />
    <glyph glyph-name="Lacute" unicode="&#x139;" horiz-adv-x="448" 
d="M306 667l-66 -537h208l-16 -130h-362l82 667h154zM425 853l-180 -129l-59 53l153 148z" />
    <glyph glyph-name="lacute" unicode="&#x13a;" horiz-adv-x="264" 
d="M294 729l-90 -729h-144l90 729h144zM373 890l-169 -135l-59 48l142 152z" />
    <glyph glyph-name="Lcommaaccent" unicode="&#x13b;" horiz-adv-x="448" 
d="M306 667l-66 -537h208l-16 -130h-362l82 667h154zM216 -50l134 -16l-108 -194l-92 12z" />
    <glyph glyph-name="lcommaaccent" unicode="&#x13c;" horiz-adv-x="264" 
d="M294 729l-90 -729h-144l90 729h144zM76 -50l134 -16l-108 -184l-92 12z" />
    <glyph glyph-name="Lcaron" unicode="&#x13d;" horiz-adv-x="448" 
d="M306 667l-66 -537h208l-16 -130h-362l82 667h154zM434 680l130 -30l-146 -198l-88 20z" />
    <glyph glyph-name="lcaron" unicode="&#x13e;" horiz-adv-x="409" 
d="M294 729l-90 -729h-144l90 729h144zM375 700l130 -30l-124 -198l-88 20z" />
    <glyph glyph-name="Ldot" unicode="&#x13f;" horiz-adv-x="448" 
d="M306 667l-66 -537h208l-16 -130h-362l82 667h154zM332 334q0 36 24.5 60.5t60.5 24.5t60.5 -24.5t24.5 -60.5t-24.5 -60.5t-60.5 -24.5t-60.5 24.5t-24.5 60.5z" />
    <glyph glyph-name="ldot" unicode="&#x140;" horiz-adv-x="439" 
d="M294 729l-90 -729h-144l90 729h144zM313 364q0 35 24 59t59 24t59 -24t24 -59t-24 -59t-59 -24t-59 24t-24 59z" />
    <glyph glyph-name="Lslash" unicode="&#x141;" horiz-adv-x="467" 
d="M124 258l-93 -55l15 120l92 55l36 289h154l-28 -226l110 65l-15 -120l-110 -65l-23 -191h207l-16 -130h-361z" />
    <glyph glyph-name="lslash" unicode="&#x142;" horiz-adv-x="268" 
d="M156 729h144l-27 -213l87 54l-13 -106l-87 -54l-50 -410h-144l42 343l-87 -54l13 106l87 54z" />
    <glyph glyph-name="Nacute" unicode="&#x143;" horiz-adv-x="796" 
d="M70 0l83 667h134l307 -434l54 434h154l-82 -667h-134l-309 436l-53 -436h-154zM653 853l-180 -129l-59 53l153 148z" />
    <glyph glyph-name="nacute" unicode="&#x144;" horiz-adv-x="567" 
d="M255 446l-7 -49q25 26 55 42q24 13 44.5 16t43.5 3q28 0 59 -6.5t57 -31.5q13 -13 20.5 -27t11.5 -28.5t5 -27.5t1 -23q0 -11 -1 -30t-6 -55l-27 -229h-144l24 193q5 35 5.5 51t0.5 21q0 13 -3.5 27.5t-14.5 26.5q-12 12 -27 15.5t-26 3.5q-19 0 -35 -5t-30 -19
q-10 -10 -16 -22.5t-10 -25.5t-6 -25t-3 -21l-26 -220h-144l55 446h144zM511 650l-169 -135l-59 48l142 152z" />
    <glyph glyph-name="Ncommaaccent" unicode="&#x145;" horiz-adv-x="796" 
d="M70 0l83 667h134l307 -434l54 434h154l-82 -667h-134l-309 436l-53 -436h-154zM360 -50l134 -16l-108 -194l-92 12z" />
    <glyph glyph-name="ncommaaccent" unicode="&#x146;" horiz-adv-x="567" 
d="M255 446l-7 -49q25 26 55 42q24 13 44.5 16t43.5 3q28 0 59 -6.5t57 -31.5q13 -13 20.5 -27t11.5 -28.5t5 -27.5t1 -23q0 -11 -1 -30t-6 -55l-27 -229h-144l24 193q5 35 5.5 51t0.5 21q0 13 -3.5 27.5t-14.5 26.5q-12 12 -27 15.5t-26 3.5q-19 0 -35 -5t-30 -19
q-10 -10 -16 -22.5t-10 -25.5t-6 -25t-3 -21l-26 -220h-144l55 446h144zM231 -50l134 -16l-108 -184l-92 12z" />
    <glyph glyph-name="Ncaron" unicode="&#x147;" horiz-adv-x="796" 
d="M70 0l83 667h134l307 -434l54 434h154l-82 -667h-134l-309 436l-53 -436h-154zM617 937l66 -70l-206 -141l-171 141l64 70l115 -93z" />
    <glyph glyph-name="ncaron" unicode="&#x148;" horiz-adv-x="567" 
d="M255 446l-7 -49q25 26 55 42q24 13 44.5 16t43.5 3q28 0 59 -6.5t57 -31.5q13 -13 20.5 -27t11.5 -28.5t5 -27.5t1 -23q0 -11 -1 -30t-6 -55l-27 -229h-144l24 193q5 35 5.5 51t0.5 21q0 13 -3.5 27.5t-14.5 26.5q-12 12 -27 15.5t-26 3.5q-19 0 -35 -5t-30 -19
q-10 -10 -16 -22.5t-10 -25.5t-6 -25t-3 -21l-26 -220h-144l55 446h144zM487 726l67 -68l-202 -143l-165 143l63 68l107 -95z" />
    <glyph glyph-name="Omacron" unicode="&#x14c;" horiz-adv-x="810" 
d="M464 682q48 0 86.5 -7.5t69.5 -20t53.5 -28t39.5 -31.5q43 -42 68.5 -102.5t25.5 -134.5q0 -36 -6.5 -72.5t-19 -71.5t-32 -67t-45.5 -59q-32 -32 -66.5 -52.5t-70.5 -31.5t-71 -15t-68 -4q-31 0 -63.5 3.5t-65 14t-64 29t-61.5 48.5q-17 18 -34 41t-30.5 52t-21.5 64
t-8 76q0 88 31 155.5t79 112.5q32 30 66.5 50t70 31t70.5 15.5t67 4.5zM458 540q-98 0 -159 -64q-29 -31 -45 -71t-16 -82q0 -46 15.5 -81.5t38.5 -58.5q34 -35 72.5 -45.5t73.5 -10.5q17 0 35.5 2t37.5 8t38.5 17t37.5 30q27 28 44.5 70t17.5 94q0 32 -10 70t-43 70t-70 42
t-68 10zM310 845h388l-12 -92h-388z" />
    <glyph glyph-name="omacron" unicode="&#x14d;" horiz-adv-x="592" 
d="M337 461q54 0 104 -18t83 -51q26 -26 43 -64t17 -87t-18.5 -98t-53.5 -85q-24 -24 -49.5 -38.5t-52 -22t-53 -10t-50.5 -2.5q-21 0 -45 2t-48 9t-48 20.5t-45 35.5q-26 27 -43.5 67t-17.5 90q0 49 18 95t54 81q37 36 90 56t115 20zM315 107q27 0 48.5 9t35.5 23
q19 18 28 43.5t9 51.5t-8.5 45.5t-21.5 31.5q-14 14 -36 21t-42 7t-41.5 -7.5t-38.5 -23.5q-20 -18 -30 -43.5t-10 -51.5q0 -23 8 -42.5t21 -33.5q11 -11 30 -20.5t48 -9.5zM178 633h380l-11 -90h-380z" />
    <glyph glyph-name="Obreve" unicode="&#x14e;" horiz-adv-x="810" 
d="M464 682q48 0 86.5 -7.5t69.5 -20t53.5 -28t39.5 -31.5q43 -42 68.5 -102.5t25.5 -134.5q0 -36 -6.5 -72.5t-19 -71.5t-32 -67t-45.5 -59q-32 -32 -66.5 -52.5t-70.5 -31.5t-71 -15t-68 -4q-31 0 -63.5 3.5t-65 14t-64 29t-61.5 48.5q-17 18 -34 41t-30.5 52t-21.5 64
t-8 76q0 88 31 155.5t79 112.5q32 30 66.5 50t70 31t70.5 15.5t67 4.5zM458 540q-98 0 -159 -64q-29 -31 -45 -71t-16 -82q0 -46 15.5 -81.5t38.5 -58.5q34 -35 72.5 -45.5t73.5 -10.5q17 0 35.5 2t37.5 8t38.5 17t37.5 30q27 28 44.5 70t17.5 94q0 32 -10 70t-43 70t-70 42
t-68 10zM659 874q-5 -29 -19 -58t-32 -47q-20 -20 -51 -32t-76 -12q-11 0 -26 1t-32 5.5t-34 13t-31 22.5q-20 20 -31 48.5t-12 58.5h96q1 -11 5 -22.5t11 -19.5q12 -14 29 -17.5t28 -3.5q13 0 27.5 3.5t27.5 14.5q8 8 15 20t9 25h96z" />
    <glyph glyph-name="obreve" unicode="&#x14f;" horiz-adv-x="592" 
d="M337 461q54 0 104 -18t83 -51q26 -26 43 -64t17 -87t-18.5 -98t-53.5 -85q-24 -24 -49.5 -38.5t-52 -22t-53 -10t-50.5 -2.5q-21 0 -45 2t-48 9t-48 20.5t-45 35.5q-26 27 -43.5 67t-17.5 90q0 49 18 95t54 81q37 36 90 56t115 20zM315 107q27 0 48.5 9t35.5 23
q19 18 28 43.5t9 51.5t-8.5 45.5t-21.5 31.5q-14 14 -36 21t-42 7t-41.5 -7.5t-38.5 -23.5q-20 -18 -30 -43.5t-10 -51.5q0 -23 8 -42.5t21 -33.5q11 -11 30 -20.5t48 -9.5zM531 664q-4 -30 -17 -58t-32 -46q-27 -26 -60.5 -34.5t-65.5 -8.5q-30 0 -64 7.5t-60 34.5
q-17 18 -28 45.5t-11 59.5h94q0 -11 4 -22.5t11 -19.5t20 -13.5t35 -5.5q19 0 32.5 4.5t21.5 11.5q20 15 26 45h94z" />
    <glyph glyph-name="Ohungarumlaut" unicode="&#x150;" horiz-adv-x="810" 
d="M464 682q48 0 86.5 -7.5t69.5 -20t53.5 -28t39.5 -31.5q43 -42 68.5 -102.5t25.5 -134.5q0 -36 -6.5 -72.5t-19 -71.5t-32 -67t-45.5 -59q-32 -32 -66.5 -52.5t-70.5 -31.5t-71 -15t-68 -4q-31 0 -63.5 3.5t-65 14t-64 29t-61.5 48.5q-17 18 -34 41t-30.5 52t-21.5 64
t-8 76q0 88 31 155.5t79 112.5q32 30 66.5 50t70 31t70.5 15.5t67 4.5zM458 540q-98 0 -159 -64q-29 -31 -45 -71t-16 -82q0 -46 15.5 -81.5t38.5 -58.5q34 -35 72.5 -45.5t73.5 -10.5q17 0 35.5 2t37.5 8t38.5 17t37.5 30q27 28 44.5 70t17.5 94q0 32 -10 70t-43 70t-70 42
t-68 10zM541 859l-156 -135l-49 48l128 153zM728 859l-156 -135l-50 48l128 153z" />
    <glyph glyph-name="ohungarumlaut" unicode="&#x151;" horiz-adv-x="592" 
d="M337 461q54 0 104 -18t83 -51q26 -26 43 -64t17 -87t-18.5 -98t-53.5 -85q-24 -24 -49.5 -38.5t-52 -22t-53 -10t-50.5 -2.5q-21 0 -45 2t-48 9t-48 20.5t-45 35.5q-26 27 -43.5 67t-17.5 90q0 49 18 95t54 81q37 36 90 56t115 20zM315 107q27 0 48.5 9t35.5 23
q19 18 28 43.5t9 51.5t-8.5 45.5t-21.5 31.5q-14 14 -36 21t-42 7t-41.5 -7.5t-38.5 -23.5q-20 -18 -30 -43.5t-10 -51.5q0 -23 8 -42.5t21 -33.5q11 -11 30 -20.5t48 -9.5zM401 644l-151 -135l-46 48l123 153zM582 644l-151 -135l-47 48l123 152z" />
    <glyph glyph-name="OE" unicode="&#x152;" horiz-adv-x="1032" 
d="M1034 537h-223l-16 -131h207l-16 -128h-207l-18 -148h223l-16 -130h-362l10 83q-7 -8 -28.5 -29.5t-55.5 -38.5q-32 -17 -66 -23t-70 -6q-55 0 -113 16.5t-109 64.5q-42 40 -68 101t-26 140q0 85 31.5 158t79.5 121q56 55 118 74.5t129 19.5q32 0 73 -6.5t78 -26.5
q23 -12 45 -31.5t39 -45.5l12 96h365zM430 125q29 0 52.5 6t41.5 15t31 19.5t21 19.5q29 30 45 71.5t16 89.5q0 28 -5 50.5t-13 40.5t-17.5 30.5t-17.5 21.5q-21 21 -54.5 37t-79.5 16q-28 0 -50.5 -5.5t-40.5 -14t-32 -19t-23 -20.5q-29 -30 -47.5 -75.5t-18.5 -93.5
q0 -36 12.5 -71t38.5 -62q19 -20 53 -38t88 -18z" />
    <glyph glyph-name="oe" unicode="&#x153;" horiz-adv-x="903" 
d="M880 138q-11 -34 -31.5 -65t-46.5 -50q-26 -18 -62 -28t-82 -10q-45 0 -77.5 8.5t-54.5 20.5t-35.5 26.5t-21.5 26.5q-21 -28 -45 -44t-48 -24.5t-47 -11t-41 -2.5q-49 0 -94 13.5t-80 51.5q-20 21 -37.5 57t-17.5 92q0 63 23.5 113.5t61.5 85.5q39 35 82.5 49t94.5 14
q69 0 111.5 -21t69.5 -52q24 32 63.5 52.5t103.5 20.5q18 0 40 -1.5t45.5 -7.5t46 -17t42.5 -29q19 -18 30 -37.5t17 -39.5t7.5 -38.5t1.5 -33.5q0 -17 -1 -32t-4 -30h-330q0 -20 7 -40t19 -32q24 -26 76 -26q8 0 19.5 1.5t23 7t22 15t18.5 26.5zM327 339q-25 0 -45.5 -9.5
t-35.5 -24.5q-19 -20 -29 -48t-10 -54q0 -20 6.5 -38t20.5 -32q8 -8 24 -17t44 -9q26 0 47 8t39 28q11 12 23.5 36.5t12.5 63.5q0 14 -4 32.5t-21 35.5q-14 14 -33 21t-39 7zM774 283q-3 16 -11 31t-20 25t-29.5 15t-32.5 5q-23 0 -40.5 -7t-29.5 -18q-22 -21 -32 -51h195z
" />
    <glyph glyph-name="Racute" unicode="&#x154;" horiz-adv-x="607" 
d="M361 667q24 0 47.5 -2t46 -8t43.5 -18t40 -32q17 -18 32.5 -51t15.5 -85q0 -48 -15 -84.5t-40 -61.5q-22 -21 -50 -35t-56 -19l172 -271h-180l-161 263l-32 -263h-154l82 667h209zM268 364h38q19 0 44.5 4t45.5 20t27 36.5t7 41.5q0 16 -6 34t-26 31q-15 10 -36.5 13
t-47.5 3h-23zM549 853l-180 -129l-59 53l153 148z" />
    <glyph glyph-name="racute" unicode="&#x155;" horiz-adv-x="384" 
d="M111 446h144l-13 -66q11 21 25.5 35.5t30.5 23.5q21 11 42 14.5t33 3.5q18 0 33 -2t26 -5l-28 -134q-11 5 -26.5 10t-36.5 5q-27 0 -45 -8.5t-29 -18.5q-19 -18 -28.5 -48t-14.5 -66l-24 -190h-144zM441 650l-169 -135l-59 48l142 152z" />
    <glyph glyph-name="Rcommaaccent" unicode="&#x156;" horiz-adv-x="607" 
d="M361 667q24 0 47.5 -2t46 -8t43.5 -18t40 -32q17 -18 32.5 -51t15.5 -85q0 -48 -15 -84.5t-40 -61.5q-22 -21 -50 -35t-56 -19l172 -271h-180l-161 263l-32 -263h-154l82 667h209zM268 364h38q19 0 44.5 4t45.5 20t27 36.5t7 41.5q0 16 -6 34t-26 31q-15 10 -36.5 13
t-47.5 3h-23zM266 -50l134 -16l-108 -194l-92 12z" />
    <glyph glyph-name="rcommaaccent" unicode="&#x157;" horiz-adv-x="384" 
d="M111 446h144l-13 -66q11 21 25.5 35.5t30.5 23.5q21 11 42 14.5t33 3.5q18 0 33 -2t26 -5l-28 -134q-11 5 -26.5 10t-36.5 5q-27 0 -45 -8.5t-29 -18.5q-19 -18 -28.5 -48t-14.5 -66l-24 -190h-144zM136 -50l134 -16l-108 -184l-92 12z" />
    <glyph glyph-name="Rcaron" unicode="&#x158;" horiz-adv-x="607" 
d="M361 667q24 0 47.5 -2t46 -8t43.5 -18t40 -32q17 -18 32.5 -51t15.5 -85q0 -48 -15 -84.5t-40 -61.5q-22 -21 -50 -35t-56 -19l172 -271h-180l-161 263l-32 -263h-154l82 667h209zM268 364h38q19 0 44.5 4t45.5 20t27 36.5t7 41.5q0 16 -6 34t-26 31q-15 10 -36.5 13
t-47.5 3h-23zM503 937l66 -70l-206 -141l-171 141l64 70l115 -93z" />
    <glyph glyph-name="rcaron" unicode="&#x159;" horiz-adv-x="384" 
d="M111 446h144l-13 -66q11 21 25.5 35.5t30.5 23.5q21 11 42 14.5t33 3.5q18 0 33 -2t26 -5l-28 -134q-11 5 -26.5 10t-36.5 5q-27 0 -45 -8.5t-29 -18.5q-19 -18 -28.5 -48t-14.5 -66l-24 -190h-144zM397 726l67 -68l-202 -143l-165 143l63 68l107 -95z" />
    <glyph glyph-name="Sacute" unicode="&#x15a;" horiz-adv-x="550" 
d="M477 504q-32 29 -60.5 38.5t-51.5 9.5q-14 0 -32 -3t-31 -14q-11 -8 -17 -21t-6 -27q0 -15 6 -26t17 -19q11 -9 25.5 -16.5t39.5 -18.5l39 -18q24 -11 46 -25.5t42 -38.5q18 -23 26 -47.5t8 -56.5q0 -53 -19 -97.5t-48 -73.5q-41 -40 -90.5 -52.5t-100.5 -12.5
q-37 0 -68 6t-65 24q-25 14 -48 32.5t-41 38.5l86 110q11 -14 26 -28.5t30 -24.5q16 -10 36 -16t42 -6q17 0 38.5 5t35.5 16q28 22 28 62q0 18 -6.5 29t-12.5 17q-4 4 -15.5 11.5t-37.5 18.5l-39 16q-4 1 -15 6t-24.5 12.5t-28 18t-26.5 22.5q-24 25 -34 53t-10 60
q0 52 18 89.5t42 61.5q41 40 89 51.5t91 11.5t91.5 -12.5t101.5 -53.5zM540 853l-180 -129l-59 53l153 148z" />
    <glyph glyph-name="sacute" unicode="&#x15b;" horiz-adv-x="434" 
d="M367 327q-15 11 -36.5 20.5t-47.5 9.5q-11 0 -23 -2.5t-20 -9.5q-10 -8 -10 -22q0 -6 3 -12.5t11 -11.5q2 -2 9 -4.5t26 -7.5l33 -9q17 -5 37.5 -13.5t39.5 -28.5q33 -33 33 -85q0 -42 -14 -69t-28 -41q-18 -19 -39.5 -30t-42.5 -17t-40.5 -7.5t-34.5 -1.5q-29 0 -57.5 4
t-58.5 18q-19 8 -36 20t-33 26l61 97q12 -11 26.5 -21t28.5 -16q4 -2 21.5 -8t40.5 -6q27 0 44 10q18 10 18 29q0 11 -4.5 17.5t-9.5 10.5q-7 5 -16.5 7.5t-18.5 5.5l-32 10q-18 5 -38.5 14.5t-36.5 25.5q-8 9 -19 28.5t-11 51.5t12 59t30 45q17 17 37.5 26.5t41 14.5
t38.5 6t30 1q25 0 63 -7t84 -38zM441 650l-169 -135l-59 48l142 152z" />
    <glyph glyph-name="Scircumflex" unicode="&#x15c;" horiz-adv-x="550" 
d="M477 504q-32 29 -60.5 38.5t-51.5 9.5q-14 0 -32 -3t-31 -14q-11 -8 -17 -21t-6 -27q0 -15 6 -26t17 -19q11 -9 25.5 -16.5t39.5 -18.5l39 -18q24 -11 46 -25.5t42 -38.5q18 -23 26 -47.5t8 -56.5q0 -53 -19 -97.5t-48 -73.5q-41 -40 -90.5 -52.5t-100.5 -12.5
q-37 0 -68 6t-65 24q-25 14 -48 32.5t-41 38.5l86 110q11 -14 26 -28.5t30 -24.5q16 -10 36 -16t42 -6q17 0 38.5 5t35.5 16q28 22 28 62q0 18 -6.5 29t-12.5 17q-4 4 -15.5 11.5t-37.5 18.5l-39 16q-4 1 -15 6t-24.5 12.5t-28 18t-26.5 22.5q-24 25 -34 53t-10 60
q0 52 18 89.5t42 61.5q41 40 89 51.5t91 11.5t91.5 -12.5t101.5 -53.5zM159 797l205 140l172 -140l-66 -71l-114 93l-133 -93z" />
    <glyph glyph-name="scircumflex" unicode="&#x15d;" horiz-adv-x="434" 
d="M367 327q-15 11 -36.5 20.5t-47.5 9.5q-11 0 -23 -2.5t-20 -9.5q-10 -8 -10 -22q0 -6 3 -12.5t11 -11.5q2 -2 9 -4.5t26 -7.5l33 -9q17 -5 37.5 -13.5t39.5 -28.5q33 -33 33 -85q0 -42 -14 -69t-28 -41q-18 -19 -39.5 -30t-42.5 -17t-40.5 -7.5t-34.5 -1.5q-29 0 -57.5 4
t-58.5 18q-19 8 -36 20t-33 26l61 97q12 -11 26.5 -21t28.5 -16q4 -2 21.5 -8t40.5 -6q27 0 44 10q18 10 18 29q0 11 -4.5 17.5t-9.5 10.5q-7 5 -16.5 7.5t-18.5 5.5l-32 10q-18 5 -38.5 14.5t-36.5 25.5q-8 9 -19 28.5t-11 51.5t12 59t30 45q17 17 37.5 26.5t41 14.5
t38.5 6t30 1q25 0 63 -7t84 -38zM154 515l-62 69l200 142l167 -142l-68 -69l-106 95z" />
    <glyph glyph-name="Scedilla" unicode="&#x15e;" horiz-adv-x="550" 
d="M477 504q-32 29 -60.5 38.5t-51.5 9.5q-14 0 -32 -3t-31 -14q-11 -8 -17 -21t-6 -27q0 -15 6 -26t17 -19q11 -9 25.5 -16.5t39.5 -18.5l39 -18q24 -11 46 -25.5t42 -38.5q18 -23 26 -47.5t8 -56.5q0 -53 -19 -97.5t-48 -73.5q-41 -40 -90.5 -52.5t-100.5 -12.5
q-37 0 -68 6t-65 24q-25 14 -48 32.5t-41 38.5l86 110q11 -14 26 -28.5t30 -24.5q16 -10 36 -16t42 -6q17 0 38.5 5t35.5 16q28 22 28 62q0 18 -6.5 29t-12.5 17q-4 4 -15.5 11.5t-37.5 18.5l-39 16q-4 1 -15 6t-24.5 12.5t-28 18t-26.5 22.5q-24 25 -34 53t-10 60
q0 52 18 89.5t42 61.5q41 40 89 51.5t91 11.5t91.5 -12.5t101.5 -53.5zM345 -96l-120 -140l-80 40l100 150z" />
    <glyph glyph-name="scedilla" unicode="&#x15f;" horiz-adv-x="434" 
d="M367 327q-15 11 -36.5 20.5t-47.5 9.5q-11 0 -23 -2.5t-20 -9.5q-10 -8 -10 -22q0 -6 3 -12.5t11 -11.5q2 -2 9 -4.5t26 -7.5l33 -9q17 -5 37.5 -13.5t39.5 -28.5q33 -33 33 -85q0 -42 -14 -69t-28 -41q-18 -19 -39.5 -30t-42.5 -17t-40.5 -7.5t-34.5 -1.5q-29 0 -57.5 4
t-58.5 18q-19 8 -36 20t-33 26l61 97q12 -11 26.5 -21t28.5 -16q4 -2 21.5 -8t40.5 -6q27 0 44 10q18 10 18 29q0 11 -4.5 17.5t-9.5 10.5q-7 5 -16.5 7.5t-18.5 5.5l-32 10q-18 5 -38.5 14.5t-36.5 25.5q-8 9 -19 28.5t-11 51.5t12 59t30 45q17 17 37.5 26.5t41 14.5
t38.5 6t30 1q25 0 63 -7t84 -38zM294 -97l-126 -139l-74 40l106 150z" />
    <glyph glyph-name="Scaron" unicode="&#x160;" horiz-adv-x="550" 
d="M477 504q-32 29 -60.5 38.5t-51.5 9.5q-14 0 -32 -3t-31 -14q-11 -8 -17 -21t-6 -27q0 -15 6 -26t17 -19q11 -9 25.5 -16.5t39.5 -18.5l39 -18q24 -11 46 -25.5t42 -38.5q18 -23 26 -47.5t8 -56.5q0 -53 -19 -97.5t-48 -73.5q-41 -40 -90.5 -52.5t-100.5 -12.5
q-37 0 -68 6t-65 24q-25 14 -48 32.5t-41 38.5l86 110q11 -14 26 -28.5t30 -24.5q16 -10 36 -16t42 -6q17 0 38.5 5t35.5 16q28 22 28 62q0 18 -6.5 29t-12.5 17q-4 4 -15.5 11.5t-37.5 18.5l-39 16q-4 1 -15 6t-24.5 12.5t-28 18t-26.5 22.5q-24 25 -34 53t-10 60
q0 52 18 89.5t42 61.5q41 40 89 51.5t91 11.5t91.5 -12.5t101.5 -53.5zM494 937l66 -70l-206 -141l-171 141l64 70l115 -93z" />
    <glyph glyph-name="scaron" unicode="&#x161;" horiz-adv-x="434" 
d="M367 327q-15 11 -36.5 20.5t-47.5 9.5q-11 0 -23 -2.5t-20 -9.5q-10 -8 -10 -22q0 -6 3 -12.5t11 -11.5q2 -2 9 -4.5t26 -7.5l33 -9q17 -5 37.5 -13.5t39.5 -28.5q33 -33 33 -85q0 -42 -14 -69t-28 -41q-18 -19 -39.5 -30t-42.5 -17t-40.5 -7.5t-34.5 -1.5q-29 0 -57.5 4
t-58.5 18q-19 8 -36 20t-33 26l61 97q12 -11 26.5 -21t28.5 -16q4 -2 21.5 -8t40.5 -6q27 0 44 10q18 10 18 29q0 11 -4.5 17.5t-9.5 10.5q-7 5 -16.5 7.5t-18.5 5.5l-32 10q-18 5 -38.5 14.5t-36.5 25.5q-8 9 -19 28.5t-11 51.5t12 59t30 45q17 17 37.5 26.5t41 14.5
t38.5 6t30 1q25 0 63 -7t84 -38zM401 726l67 -68l-202 -143l-165 143l63 68l107 -95z" />
    <glyph glyph-name="Tcommaaccent" unicode="&#x162;" horiz-adv-x="460" 
d="M370 537l-66 -537h-154l66 537h-145l16 130h444l-16 -130h-145zM297 -96l-120 -140l-80 40l100 150z" />
    <glyph glyph-name="tcommaaccent" unicode="&#x163;" horiz-adv-x="299" 
d="M246 330l-41 -330h-144l41 330h-52l14 116h52l18 144h144l-18 -144h88l-14 -116h-88zM200 -97l-126 -139l-74 40l106 150z" />
    <glyph glyph-name="Tcaron" unicode="&#x164;" horiz-adv-x="460" 
d="M370 537l-66 -537h-154l66 537h-145l16 130h444l-16 -130h-145zM450 937l66 -70l-206 -141l-171 141l64 70l115 -93z" />
    <glyph glyph-name="tcaron" unicode="&#x165;" horiz-adv-x="409" 
d="M246 330l-41 -330h-144l41 330h-52l14 116h52l18 144h144l-18 -144h88l-14 -116h-88zM385 700l130 -30l-124 -198l-88 20z" />
    <glyph glyph-name="Utilde" unicode="&#x168;" horiz-adv-x="710" 
d="M305 667l-44 -364q-2 -16 -3.5 -26.5t-1.5 -31.5q0 -20 5 -43.5t24 -42.5q14 -13 35.5 -21.5t52.5 -8.5q38 0 61.5 10t36.5 23q12 12 20 28t13 33.5t7.5 34.5t4.5 31l46 378h154l-48 -388q-4 -30 -8.5 -60t-12.5 -58.5t-22 -54.5t-36 -49q-25 -26 -54.5 -40.5
t-59.5 -21.5t-57 -8.5t-48 -1.5q-25 0 -52.5 2t-55 9.5t-54 21t-49.5 36.5q-32 31 -45.5 69t-13.5 85q0 11 1 25t2 28.5t2.5 28t2.5 23.5l43 354h154zM654 817q-9 -15 -22 -31t-25 -27q-17 -15 -35.5 -23t-41.5 -8q-18 0 -32.5 4.5t-29.5 10.5l-33 13q-20 8 -31.5 11.5
t-20.5 3.5q-14 0 -27 -8.5t-24 -30.5l-65 50q7 12 18 28t22 27q16 16 36 25t46 9q16 0 32 -4t31 -10l34 -14q32 -14 51 -14q18 0 29.5 10t22.5 28z" />
    <glyph glyph-name="utilde" unicode="&#x169;" horiz-adv-x="570" 
d="M567 446l-28 -241q-2 -20 -5.5 -41t-10.5 -42t-18.5 -41.5t-30.5 -38.5q-20 -19 -42.5 -30.5t-45.5 -17.5t-45.5 -7.5t-41.5 -1.5q-17 0 -39 1t-46 6.5t-47 15.5t-42 28q-23 21 -35.5 53t-12.5 67q0 14 1.5 33t3.5 30l27 227h144l-26 -222q-2 -21 -3.5 -31t-1.5 -18
q0 -18 5.5 -30t13.5 -19q10 -9 26.5 -14t32.5 -5q17 0 35.5 6t30.5 19q5 5 14.5 22.5t14.5 57.5l28 234h144zM548 613q-2 -5 -13.5 -23.5t-30.5 -36.5q-17 -16 -35.5 -25t-41.5 -9q-17 0 -33 4.5t-30 10.5l-32 13q-11 5 -23.5 9.5t-26.5 4.5t-27.5 -8.5t-24.5 -29.5l-59 44
q6 14 17 32t24 31q31 31 77 31q20 0 35.5 -4.5t32.5 -11.5l32 -13q21 -8 32.5 -10.5t19.5 -2.5q20 0 30.5 14.5t14.5 23.5z" />
    <glyph glyph-name="Umacron" unicode="&#x16a;" horiz-adv-x="710" 
d="M305 667l-44 -364q-2 -16 -3.5 -26.5t-1.5 -31.5q0 -20 5 -43.5t24 -42.5q14 -13 35.5 -21.5t52.5 -8.5q38 0 61.5 10t36.5 23q12 12 20 28t13 33.5t7.5 34.5t4.5 31l46 378h154l-48 -388q-4 -30 -8.5 -60t-12.5 -58.5t-22 -54.5t-36 -49q-25 -26 -54.5 -40.5
t-59.5 -21.5t-57 -8.5t-48 -1.5q-25 0 -52.5 2t-55 9.5t-54 21t-49.5 36.5q-32 31 -45.5 69t-13.5 85q0 11 1 25t2 28.5t2.5 28t2.5 23.5l43 354h154zM250 845h388l-12 -92h-388z" />
    <glyph glyph-name="umacron" unicode="&#x16b;" horiz-adv-x="570" 
d="M567 446l-28 -241q-2 -20 -5.5 -41t-10.5 -42t-18.5 -41.5t-30.5 -38.5q-20 -19 -42.5 -30.5t-45.5 -17.5t-45.5 -7.5t-41.5 -1.5q-17 0 -39 1t-46 6.5t-47 15.5t-42 28q-23 21 -35.5 53t-12.5 67q0 14 1.5 33t3.5 30l27 227h144l-26 -222q-2 -21 -3.5 -31t-1.5 -18
q0 -18 5.5 -30t13.5 -19q10 -9 26.5 -14t32.5 -5q17 0 35.5 6t30.5 19q5 5 14.5 22.5t14.5 57.5l28 234h144zM158 633h380l-11 -90h-380z" />
    <glyph glyph-name="Ubreve" unicode="&#x16c;" horiz-adv-x="710" 
d="M305 667l-44 -364q-2 -16 -3.5 -26.5t-1.5 -31.5q0 -20 5 -43.5t24 -42.5q14 -13 35.5 -21.5t52.5 -8.5q38 0 61.5 10t36.5 23q12 12 20 28t13 33.5t7.5 34.5t4.5 31l46 378h154l-48 -388q-4 -30 -8.5 -60t-12.5 -58.5t-22 -54.5t-36 -49q-25 -26 -54.5 -40.5
t-59.5 -21.5t-57 -8.5t-48 -1.5q-25 0 -52.5 2t-55 9.5t-54 21t-49.5 36.5q-32 31 -45.5 69t-13.5 85q0 11 1 25t2 28.5t2.5 28t2.5 23.5l43 354h154zM619 874q-5 -29 -19 -58t-32 -47q-20 -20 -51 -32t-76 -12q-11 0 -26 1t-32 5.5t-34 13t-31 22.5q-20 20 -31 48.5
t-12 58.5h96q1 -11 5 -22.5t11 -19.5q12 -14 29 -17.5t28 -3.5q13 0 27.5 3.5t27.5 14.5q8 8 15 20t9 25h96z" />
    <glyph glyph-name="ubreve" unicode="&#x16d;" horiz-adv-x="570" 
d="M567 446l-28 -241q-2 -20 -5.5 -41t-10.5 -42t-18.5 -41.5t-30.5 -38.5q-20 -19 -42.5 -30.5t-45.5 -17.5t-45.5 -7.5t-41.5 -1.5q-17 0 -39 1t-46 6.5t-47 15.5t-42 28q-23 21 -35.5 53t-12.5 67q0 14 1.5 33t3.5 30l27 227h144l-26 -222q-2 -21 -3.5 -31t-1.5 -18
q0 -18 5.5 -30t13.5 -19q10 -9 26.5 -14t32.5 -5q17 0 35.5 6t30.5 19q5 5 14.5 22.5t14.5 57.5l28 234h144zM526 664q-4 -30 -17 -58t-32 -46q-27 -26 -60.5 -34.5t-65.5 -8.5q-30 0 -64 7.5t-60 34.5q-17 18 -28 45.5t-11 59.5h94q0 -11 4 -22.5t11 -19.5t20 -13.5
t35 -5.5q19 0 32.5 4.5t21.5 11.5q20 15 26 45h94z" />
    <glyph glyph-name="Uring" unicode="&#x16e;" horiz-adv-x="710" 
d="M305 667l-44 -364q-2 -16 -3.5 -26.5t-1.5 -31.5q0 -20 5 -43.5t24 -42.5q14 -13 35.5 -21.5t52.5 -8.5q38 0 61.5 10t36.5 23q12 12 20 28t13 33.5t7.5 34.5t4.5 31l46 378h154l-48 -388q-4 -30 -8.5 -60t-12.5 -58.5t-22 -54.5t-36 -49q-25 -26 -54.5 -40.5
t-59.5 -21.5t-57 -8.5t-48 -1.5q-25 0 -52.5 2t-55 9.5t-54 21t-49.5 36.5q-32 31 -45.5 69t-13.5 85q0 11 1 25t2 28.5t2.5 28t2.5 23.5l43 354h154zM568 827q0 -39 -27 -66q-17 -16 -40 -24t-49 -8t-49 8t-40 24q-27 27 -27 66t27 66q17 16 40 24t49 8t49 -8t40 -24
q27 -27 27 -66zM452 866q-22 0 -34 -12t-12 -27t12 -27t34 -12t34 12t12 27t-12 27t-34 12z" />
    <glyph glyph-name="uring" unicode="&#x16f;" horiz-adv-x="570" 
d="M567 446l-28 -241q-2 -20 -5.5 -41t-10.5 -42t-18.5 -41.5t-30.5 -38.5q-20 -19 -42.5 -30.5t-45.5 -17.5t-45.5 -7.5t-41.5 -1.5q-17 0 -39 1t-46 6.5t-47 15.5t-42 28q-23 21 -35.5 53t-12.5 67q0 14 1.5 33t3.5 30l27 227h144l-26 -222q-2 -21 -3.5 -31t-1.5 -18
q0 -18 5.5 -30t13.5 -19q10 -9 26.5 -14t32.5 -5q17 0 35.5 6t30.5 19q5 5 14.5 22.5t14.5 57.5l28 234h144zM355 650q-8 0 -16.5 -2t-14.5 -7q-5 -5 -9 -12t-4 -15t4 -15t9 -12q6 -5 14.5 -7t16.5 -2t16.5 2t14.5 7q5 5 9 12t4 15t-4 15t-9 12q-6 5 -14.5 7t-16.5 2z
M469 614q0 -23 -8 -38.5t-19 -26.5q-13 -12 -34.5 -21.5t-52.5 -9.5t-52.5 9.5t-34.5 21.5q-11 11 -19 26.5t-8 38.5t8 38.5t19 26.5q13 12 34.5 21.5t52.5 9.5t52.5 -9.5t34.5 -21.5q11 -11 19 -26.5t8 -38.5z" />
    <glyph glyph-name="Uhungarumlaut" unicode="&#x170;" horiz-adv-x="710" 
d="M305 667l-44 -364q-2 -16 -3.5 -26.5t-1.5 -31.5q0 -20 5 -43.5t24 -42.5q14 -13 35.5 -21.5t52.5 -8.5q38 0 61.5 10t36.5 23q12 12 20 28t13 33.5t7.5 34.5t4.5 31l46 378h154l-48 -388q-4 -30 -8.5 -60t-12.5 -58.5t-22 -54.5t-36 -49q-25 -26 -54.5 -40.5
t-59.5 -21.5t-57 -8.5t-48 -1.5q-25 0 -52.5 2t-55 9.5t-54 21t-49.5 36.5q-32 31 -45.5 69t-13.5 85q0 11 1 25t2 28.5t2.5 28t2.5 23.5l43 354h154zM497 859l-156 -135l-49 48l128 153zM684 859l-156 -135l-50 48l128 153z" />
    <glyph glyph-name="uhungarumlaut" unicode="&#x171;" horiz-adv-x="570" 
d="M567 446l-28 -241q-2 -20 -5.5 -41t-10.5 -42t-18.5 -41.5t-30.5 -38.5q-20 -19 -42.5 -30.5t-45.5 -17.5t-45.5 -7.5t-41.5 -1.5q-17 0 -39 1t-46 6.5t-47 15.5t-42 28q-23 21 -35.5 53t-12.5 67q0 14 1.5 33t3.5 30l27 227h144l-26 -222q-2 -21 -3.5 -31t-1.5 -18
q0 -18 5.5 -30t13.5 -19q10 -9 26.5 -14t32.5 -5q17 0 35.5 6t30.5 19q5 5 14.5 22.5t14.5 57.5l28 234h144zM371 644l-151 -135l-46 48l123 153zM552 644l-151 -135l-47 48l123 152z" />
    <glyph glyph-name="Uogonek" unicode="&#x172;" horiz-adv-x="710" 
d="M305 667l-44 -364q-2 -16 -3.5 -26.5t-1.5 -31.5q0 -20 5 -43.5t24 -42.5q30 -30 91 -30q60 0 95 33q12 12 20 28t13 33t7.5 34.5l4.5 31.5l46 378h154l-48 -388q-4 -29 -8 -56t-10 -51.5t-16 -46.5t-26 -41q-23 -28 -51 -45.5t-52 -30.5q-23 -12 -42 -23.5t-32 -28.5
q-5 -7 -10 -17t-5 -21q0 -6 2 -12.5t7 -10.5q7 -6 16 -7.5t11 -1.5q14 0 27.5 5t22.5 10l-27 -77q-31 -17 -66 -17q-13 0 -30 3.5t-31 16.5q-7 6 -15 19t-8 36q0 17 6 32t14 28t18.5 24t20.5 20q-6 -1 -13 -1h-15q-22 0 -47.5 3t-51.5 10.5t-51.5 21t-46.5 34.5
q-36 35 -47.5 75.5t-11.5 78.5q0 11 1 25t2 28.5t2.5 28t2.5 23.5l43 354h154z" />
    <glyph glyph-name="uogonek" unicode="&#x173;" horiz-adv-x="570" 
d="M567 446l-29 -247q-3 -27 -8 -49.5t-12.5 -41.5t-19 -35t-28.5 -31t-35.5 -25.5t-35.5 -19.5t-32 -17.5t-25 -18.5q-11 -10 -15 -20.5t-4 -19.5q0 -14 10 -22q9 -9 26 -9q8 0 23 2.5t29 12.5l-27 -77q-20 -11 -37 -14t-31 -3q-15 0 -30.5 3.5t-28.5 14.5
q-10 9 -16.5 21.5t-6.5 29.5q0 33 18 59q8 11 19 23.5t21 21.5q-18 0 -40 2t-45 8t-44.5 16t-37.5 26q-23 21 -35.5 53t-12.5 67q0 14 1.5 33t3.5 30l27 227h144l-26 -222q-2 -21 -3.5 -31t-1.5 -18q0 -18 5.5 -30t13.5 -19q10 -9 26.5 -14t32.5 -5q17 0 35.5 6t30.5 19
q5 5 14.5 22.5t14.5 57.5l28 234h144z" />
    <glyph glyph-name="Ydieresis" unicode="&#x178;" horiz-adv-x="632" 
d="M274 311l-195 356h176l109 -207l159 207h188l-283 -356l-38 -311h-154zM212 811q0 32 23.5 55.5t55.5 23.5t55.5 -23.5t23.5 -55.5t-23.5 -55.5t-55.5 -23.5t-55.5 23.5t-23.5 55.5zM430 811q0 32 23.5 55.5t55.5 23.5t55.5 -23.5t23.5 -55.5t-23.5 -55.5t-55.5 -23.5
t-55.5 23.5t-23.5 55.5z" />
    <glyph glyph-name="Zacute" unicode="&#x179;" horiz-adv-x="616" 
d="M292 130h282l-16 -130h-539l382 537h-264l16 130h520zM573 853l-180 -129l-59 53l153 148z" />
    <glyph glyph-name="zacute" unicode="&#x17a;" horiz-adv-x="499" 
d="M271 120h223l-17 -120h-477l282 326h-201l18 120h453zM485 650l-169 -135l-59 48l142 152z" />
    <glyph glyph-name="Zdotaccent" unicode="&#x17b;" horiz-adv-x="616" 
d="M292 130h282l-16 -130h-539l382 537h-264l16 130h520zM310 815q0 36 24.5 60.5t60.5 24.5t60.5 -24.5t24.5 -60.5t-24.5 -60.5t-60.5 -24.5t-60.5 24.5t-24.5 60.5z" />
    <glyph glyph-name="zdotaccent" unicode="&#x17c;" horiz-adv-x="499" 
d="M271 120h223l-17 -120h-477l282 326h-201l18 120h453zM236 603q0 35 24 59t59 24t59 -24t24 -59t-24 -59t-59 -24t-59 24t-24 59z" />
    <glyph glyph-name="Zcaron" unicode="&#x17d;" horiz-adv-x="616" 
d="M292 130h282l-16 -130h-539l382 537h-264l16 130h520zM532 937l66 -70l-206 -141l-171 141l64 70l115 -93z" />
    <glyph glyph-name="zcaron" unicode="&#x17e;" horiz-adv-x="499" 
d="M271 120h223l-17 -120h-477l282 326h-201l18 120h453zM441 726l67 -68l-202 -143l-165 143l63 68l107 -95z" />
    <glyph glyph-name="uni018F" unicode="&#x18f;" horiz-adv-x="765" 
d="M600 375q-3 30 -15 61t-32 53q-19 21 -50.5 36t-79.5 15q-26 0 -50.5 -5t-47.5 -19q-14 -8 -30.5 -22.5t-30.5 -37.5l-148 51q24 42 55 74t64 52q46 29 92.5 39t97.5 10q27 0 58 -3t62.5 -12t63 -25.5t60.5 -44.5t47.5 -59t28.5 -62.5t13.5 -61.5t3.5 -57q0 -51 -9 -94
t-23.5 -78.5t-34 -63.5t-40.5 -48q-28 -27 -58 -44.5t-60.5 -27t-61.5 -13t-62 -3.5q-69 0 -127.5 18t-107.5 68q-28 28 -48.5 64t-32.5 75.5t-15.5 81.5t1.5 83h517zM237 267q5 -35 21 -64t37 -46q15 -12 42 -23t69 -11q38 0 67 9t50 25q23 18 40.5 47t24.5 63h-351z" />
    <glyph glyph-name="florin" unicode="&#x192;" horiz-adv-x="600" 
d="M269 356h-68l21 90h69l29 115q8 34 26 70t43 60q29 28 61.5 38.5t69.5 10.5q20 0 44.5 -3.5t53.5 -16.5l-32 -123q-10 7 -24 12t-31 5q-29 0 -47 -17q-12 -11 -20 -30t-14 -44l-19 -77h102l-22 -90h-102l-68 -268q-19 -74 -38 -122t-52 -82q-36 -38 -82 -53t-107 -15
q-17 0 -32.5 1t-33.5 6l32 128q9 -2 19 -3.5t22 -1.5q17 0 38 5t41 23q23 20 35 55.5t26 88.5z" />
    <glyph glyph-name="uni01CF" unicode="&#x1cf;" horiz-adv-x="306" 
d="M309 667l-82 -667h-154l82 667h154zM373 937l66 -70l-206 -141l-171 141l64 70l115 -93z" />
    <glyph glyph-name="uni01D0" unicode="&#x1d0;" horiz-adv-x="276" 
d="M265 446l-55 -446h-144l55 446h144zM314 726l64 -69l-177 -142l-141 142l67 69l83 -87z" />
    <glyph glyph-name="uni01DD" unicode="&#x1dd;" horiz-adv-x="547" 
d="M395 255q0 19 -6 40.5t-20 35.5q-3 3 -18.5 13t-46.5 10q-19 0 -32 -4.5t-23 -11.5q-17 -12 -30 -35l-137 28q20 38 44 60t41 33q27 17 61.5 27t78.5 10q55 0 98 -16.5t72 -43.5q21 -20 33 -42t18.5 -43.5t8.5 -41t2 -33.5q0 -62 -19 -110.5t-52 -81.5q-21 -21 -43.5 -34
t-45 -19.5t-44.5 -8.5t-43 -2q-42 0 -85.5 11.5t-81.5 50.5q-13 13 -26 32t-22.5 44.5t-14 58t-1.5 73.5h334zM196 166q5 -34 26 -54q15 -15 33 -19t32 -4q8 0 27 2.5t36 15.5q13 10 22 26t13 33h-189z" />
    <glyph glyph-name="Gcaron" unicode="&#x1e6;" horiz-adv-x="767" 
d="M447 364h312q-2 -63 -13.5 -110.5t-27.5 -82t-33 -57t-29 -35.5q-29 -30 -59 -48t-61.5 -28.5t-63 -14t-62.5 -3.5q-32 0 -64 4.5t-63.5 15t-61 28.5t-56.5 46q-26 27 -42.5 56.5t-26 59.5t-13 59t-3.5 56q0 94 29.5 160t70.5 109q31 33 64.5 53t68 31.5t70 15t70.5 3.5
q45 0 94 -10t94 -39q33 -22 61 -54.5t47 -65.5l-142 -75q-9 20 -25 41t-37 35q-26 18 -53 23t-49 5q-41 0 -75 -12t-65 -44q-33 -35 -49 -80.5t-16 -89.5q0 -38 14 -77.5t41 -65.5q32 -32 69 -40t68 -8q23 0 52 6t54 24q18 13 33.5 35t23.5 51h-161zM578 937l66 -70
l-206 -141l-171 141l64 70l115 -93z" />
    <glyph glyph-name="gcaron" unicode="&#x1e7;" horiz-adv-x="595" 
d="M445 446h144l-56 -448q-5 -39 -18.5 -83t-48.5 -79q-22 -22 -48 -35t-52 -19.5t-51 -8.5t-44 -2q-45 0 -90.5 10.5t-82.5 45.5q-23 23 -40 54.5t-22 67.5h154q3 -12 10 -24t17 -20q12 -10 28.5 -14t34.5 -4q33 0 52 11.5t27 21.5q14 16 21 39.5t9 43.5l6 48
q-15 -21 -32.5 -33.5t-36 -19t-36 -8.5t-32.5 -2q-34 0 -68.5 8.5t-69.5 44.5q-23 24 -41.5 63t-18.5 99q0 59 19 108.5t54 84.5q64 65 160 65q12 0 29 -1.5t36.5 -8.5t40.5 -21t41 -38zM320 336q-30 0 -49 -9t-30 -20q-15 -15 -24 -40t-9 -50q0 -21 7.5 -42.5t22.5 -35.5
q14 -13 33.5 -20t38.5 -7q20 0 42 7t37 22q17 16 27 43t10 52q0 21 -8 41t-21 32q-11 11 -29 19t-48 8zM457 726l67 -68l-202 -143l-165 143l63 68l107 -95z" />
    <glyph glyph-name="AEacute" unicode="&#x1fc;" horiz-adv-x="920" 
d="M491 129h-255l-66 -129h-164l355 667h379l32 -130h-232l35 -129h230l34 -130h-231l41 -148h232l33 -130h-388zM463 247l-55 219l-113 -219h168zM715 853l-180 -129l-59 53l153 148z" />
    <glyph glyph-name="aeacute" unicode="&#x1fd;" horiz-adv-x="840" 
d="M817 132q-14 -38 -37.5 -67t-49.5 -46q-18 -12 -38 -18.5t-38 -10t-33.5 -4.5t-25.5 -1q-30 0 -60.5 5t-52.5 15q-14 7 -32 19.5t-34 35.5q-17 -23 -37 -37t-38 -22q-14 -5 -38.5 -10.5t-67.5 -5.5q-14 0 -32 1t-36.5 5t-37 11t-33.5 19q-21 17 -34 43.5t-13 59.5
q0 45 19 75.5t44 47.5q16 11 34 17.5t36 9.5t35.5 4t31.5 1q41 0 67.5 -6.5t48.5 -20.5q5 32 -3.5 51.5t-22.5 30.5t-34.5 16t-43.5 5q-14 0 -42.5 -3.5t-72.5 -18.5l13 110q24 7 56 12.5t71 5.5q37 0 64 -6t46 -16.5t31.5 -24.5t20.5 -30q9 10 23 23.5t35 25.5t49.5 20
t66.5 8q36 0 77 -10.5t76 -45.5q23 -23 41 -61.5t18 -98.5q0 -14 -1 -25t-3 -22h-330q0 -19 6 -42.5t20 -38.5q9 -11 26.5 -19t45.5 -8q32 0 53 14.5t32 36.5zM268 192q-19 0 -37.5 -6t-29.5 -18q-8 -8 -11 -17t-3 -17q0 -19 15 -32q8 -8 22.5 -13.5t37.5 -5.5
q17 0 35.5 4.5t32.5 15.5q18 16 18 39q0 10 -4 17t-10 13q-13 11 -32 15.5t-34 4.5zM706 284q-3 14 -11 29.5t-19 26.5q-10 9 -25.5 15t-35.5 6q-23 0 -39.5 -7t-26.5 -16q-23 -20 -34 -54h191zM661 650l-169 -135l-59 48l142 152z" />
    <glyph glyph-name="Scommaaccent" unicode="&#x218;" horiz-adv-x="550" 
d="M477 504q-32 29 -60.5 38.5t-51.5 9.5q-14 0 -32 -3t-31 -14q-11 -8 -17 -21t-6 -27q0 -15 6 -26t17 -19q11 -9 25.5 -16.5t39.5 -18.5l39 -18q24 -11 46 -25.5t42 -38.5q18 -23 26 -47.5t8 -56.5q0 -53 -19 -97.5t-48 -73.5q-41 -40 -90.5 -52.5t-100.5 -12.5
q-37 0 -68 6t-65 24q-25 14 -48 32.5t-41 38.5l86 110q11 -14 26 -28.5t30 -24.5q16 -10 36 -16t42 -6q17 0 38.5 5t35.5 16q28 22 28 62q0 18 -6.5 29t-12.5 17q-4 4 -15.5 11.5t-37.5 18.5l-39 16q-4 1 -15 6t-24.5 12.5t-28 18t-26.5 22.5q-24 25 -34 53t-10 60
q0 52 18 89.5t42 61.5q41 40 89 51.5t91 11.5t91.5 -12.5t101.5 -53.5zM226 -50l134 -16l-108 -194l-92 12z" />
    <glyph glyph-name="scommaaccent" unicode="&#x219;" horiz-adv-x="434" 
d="M367 327q-15 11 -36.5 20.5t-47.5 9.5q-11 0 -23 -2.5t-20 -9.5q-10 -8 -10 -22q0 -6 3 -12.5t11 -11.5q2 -2 9 -4.5t26 -7.5l33 -9q17 -5 37.5 -13.5t39.5 -28.5q33 -33 33 -85q0 -42 -14 -69t-28 -41q-18 -19 -39.5 -30t-42.5 -17t-40.5 -7.5t-34.5 -1.5q-29 0 -57.5 4
t-58.5 18q-19 8 -36 20t-33 26l61 97q12 -11 26.5 -21t28.5 -16q4 -2 21.5 -8t40.5 -6q27 0 44 10q18 10 18 29q0 11 -4.5 17.5t-9.5 10.5q-7 5 -16.5 7.5t-18.5 5.5l-32 10q-18 5 -38.5 14.5t-36.5 25.5q-8 9 -19 28.5t-11 51.5t12 59t30 45q17 17 37.5 26.5t41 14.5
t38.5 6t30 1q25 0 63 -7t84 -38zM160 -50l134 -16l-108 -184l-92 12z" />
    <glyph glyph-name="uni021A" unicode="&#x21a;" horiz-adv-x="460" 
d="M370 537l-66 -537h-154l66 537h-145l16 130h444l-16 -130h-145zM156 -50l134 -16l-108 -194l-92 12z" />
    <glyph glyph-name="uni021B" unicode="&#x21b;" horiz-adv-x="299" 
d="M246 330l-41 -330h-144l41 330h-52l14 116h52l18 144h144l-18 -144h88l-14 -116h-88zM66 -50l134 -16l-108 -184l-92 12z" />
    <glyph glyph-name="uni0228" unicode="&#x228;" horiz-adv-x="502" 
d="M504 537h-218l-16 -129h210l-16 -130h-210l-18 -148h222l-16 -130h-372l82 667h368zM326 -96l-120 -140l-80 40l100 150z" />
    <glyph glyph-name="uni0229" unicode="&#x229;" horiz-adv-x="542" 
d="M399 283q-2 16 -9.5 32t-19.5 26t-28.5 14t-30.5 4q-26 0 -42.5 -9t-25.5 -18q-8 -9 -15 -21.5t-10 -27.5h181zM204 195q-1 -17 4 -35.5t14 -31.5q14 -20 33 -25.5t36 -5.5q13 0 28 2t29 11q10 7 18 18t13 22l145 -12q-14 -34 -35.5 -63.5t-45.5 -47.5
q-19 -14 -39.5 -22.5t-40.5 -13t-39 -5.5t-34 -1q-21 0 -43 2t-44.5 8t-44.5 18t-42 32q-32 32 -44 71.5t-12 84.5q0 37 7 67.5t18 55t24.5 43.5t27.5 32q41 38 88 50t89 12q57 0 99 -16t68 -41q22 -22 34.5 -50t18 -56.5t5.5 -55.5t-2 -47h-333zM356 -97l-126 -139l-74 40
l106 150z" />
    <glyph glyph-name="uni0237" unicode="&#x237;" horiz-adv-x="276" 
d="M264 446l-85 -675h-144l85 675h144z" />
    <glyph glyph-name="uni0259" unicode="&#x259;" horiz-adv-x="547" 
d="M395 255q0 19 -6 40.5t-20 35.5q-3 3 -18.5 13t-46.5 10q-19 0 -32 -4.5t-23 -11.5q-17 -12 -30 -35l-137 28q20 38 44 60t41 33q27 17 61.5 27t78.5 10q55 0 98 -16.5t72 -43.5q21 -20 33 -42t18.5 -43.5t8.5 -41t2 -33.5q0 -62 -19 -110.5t-52 -81.5q-21 -21 -43.5 -34
t-45 -19.5t-44.5 -8.5t-43 -2q-42 0 -85.5 11.5t-81.5 50.5q-13 13 -26 32t-22.5 44.5t-14 58t-1.5 73.5h334zM196 166q5 -34 26 -54q15 -15 33 -19t32 -4q8 0 27 2.5t36 15.5q13 10 22 26t13 33h-189z" />
    <glyph glyph-name="afii57929" unicode="&#x2bc;" 
d="M195 700l130 -30l-124 -198l-88 20z" />
    <glyph glyph-name="circumflex" unicode="&#x2c6;" 
d="M200 515l-62 69l200 142l167 -142l-68 -69l-106 95z" />
    <glyph glyph-name="caron" unicode="&#x2c7;" 
d="M447 726l67 -68l-202 -143l-165 143l63 68l107 -95z" />
    <glyph glyph-name="uni02C9" unicode="&#x2c9;" 
d="M138 633h380l-11 -90h-380z" />
    <glyph glyph-name="breve" unicode="&#x2d8;" 
d="M501 664q-4 -30 -17 -58t-32 -46q-27 -26 -60.5 -34.5t-65.5 -8.5q-30 0 -64 7.5t-60 34.5q-17 18 -28 45.5t-11 59.5h94q0 -11 4 -22.5t11 -19.5t20 -13.5t35 -5.5q19 0 32.5 4.5t21.5 11.5q20 15 26 45h94z" />
    <glyph glyph-name="dotaccent" unicode="&#x2d9;" 
d="M241 603q0 35 24 59t59 24t59 -24t24 -59t-24 -59t-59 -24t-59 24t-24 59z" />
    <glyph glyph-name="ring" unicode="&#x2da;" 
d="M325 650q-8 0 -16.5 -2t-14.5 -7q-5 -5 -9 -12t-4 -15t4 -15t9 -12q6 -5 14.5 -7t16.5 -2t16.5 2t14.5 7q5 5 9 12t4 15t-4 15t-9 12q-6 5 -14.5 7t-16.5 2zM439 614q0 -23 -8 -38.5t-19 -26.5q-13 -12 -34.5 -21.5t-52.5 -9.5t-52.5 9.5t-34.5 21.5q-11 11 -19 26.5
t-8 38.5t8 38.5t19 26.5q13 12 34.5 21.5t52.5 9.5t52.5 -9.5t34.5 -21.5q11 -11 19 -26.5t8 -38.5z" />
    <glyph glyph-name="ogonek" unicode="&#x2db;" horiz-adv-x="508" 
d="M343 -172q-20 -11 -37 -14t-31 -3q-15 0 -30.5 3.5t-28.5 14.5q-10 8 -16.5 21t-6.5 30q0 23 9 40.5t20 31.5q5 6 16 19t28 29h66q-8 -8 -16.5 -18t-13.5 -17q-14 -18 -17 -28.5t-3 -15.5t2 -11t8 -11q7 -6 14 -7.5t12 -1.5q8 0 20.5 2.5t31.5 12.5z" />
    <glyph glyph-name="tilde" unicode="&#x2dc;" 
d="M511 613q-2 -5 -13.5 -23.5t-30.5 -36.5q-17 -16 -35.5 -25t-41.5 -9q-17 0 -33 4.5t-30 10.5l-32 13q-11 5 -23.5 9.5t-26.5 4.5t-27.5 -8.5t-24.5 -29.5l-59 44q6 14 17 32t24 31q31 31 77 31q20 0 35.5 -4.5t32.5 -11.5l32 -13q21 -8 32.5 -10.5t19.5 -2.5
q20 0 30.5 14.5t14.5 23.5z" />
    <glyph glyph-name="hungarumlaut" unicode="&#x2dd;" 
d="M371 644l-151 -135l-46 48l123 153zM552 644l-151 -135l-47 48l123 152z" />
    <glyph glyph-name="acutecomb" unicode="&#x301;" horiz-adv-x="2" 
d="M-89 650l-169 -135l-59 48l142 152z" />
    <glyph glyph-name="Delta" unicode="&#x394;" horiz-adv-x="669" 
d="M34 0l247 667h136l250 -667h-633zM221 116h257l-128 368z" />
    <glyph glyph-name="Delta" unicode="&#x2206;" horiz-adv-x="669" 
d="M34 0l247 667h136l250 -667h-633zM221 116h257l-128 368z" />
    <glyph glyph-name="Omega" unicode="&#x3a9;" horiz-adv-x="688" 
d="M421 108q29 13 53.5 35t44.5 59t26.5 74.5t6.5 70.5q0 66 -18.5 106t-40.5 61q-21 20 -50 31t-59 11t-59 -11t-50 -31q-22 -21 -40.5 -61t-18.5 -106q0 -33 6.5 -70.5t26.5 -74.5t44.5 -59t53.5 -35v-108h-268v116h133q-30 17 -56 41q-24 24 -39.5 51.5t-24.5 55.5
t-12.5 54t-3.5 47q0 72 24 131t64 99q13 13 33 28.5t47 28.5t62 21.5t78 8.5t78 -8.5t62 -21.5t47 -28.5t33 -28.5q40 -40 64 -99t24 -131q0 -21 -3.5 -47t-12.5 -54t-24.5 -55.5t-39.5 -51.5q-26 -24 -56 -41h133v-116h-268v108z" />
    <glyph glyph-name="Omega" unicode="&#x2126;" horiz-adv-x="688" 
d="M421 108q29 13 53.5 35t44.5 59t26.5 74.5t6.5 70.5q0 66 -18.5 106t-40.5 61q-21 20 -50 31t-59 11t-59 -11t-50 -31q-22 -21 -40.5 -61t-18.5 -106q0 -33 6.5 -70.5t26.5 -74.5t44.5 -59t53.5 -35v-108h-268v116h133q-30 17 -56 41q-24 24 -39.5 51.5t-24.5 55.5
t-12.5 54t-3.5 47q0 72 24 131t64 99q13 13 33 28.5t47 28.5t62 21.5t78 8.5t78 -8.5t62 -21.5t47 -28.5t33 -28.5q40 -40 64 -99t24 -131q0 -21 -3.5 -47t-12.5 -54t-24.5 -55.5t-39.5 -51.5q-26 -24 -56 -41h133v-116h-268v108z" />
    <glyph glyph-name="pi" unicode="&#x3c0;" horiz-adv-x="676" 
d="M142 0v330h-76v116h604v-116h-76v-330h-144v330h-164v-330h-144z" />
    <glyph glyph-name="afii10023" unicode="&#x401;" horiz-adv-x="502" 
d="M171 799q0 32 21.5 53.5t53.5 21.5t53.5 -21.5t21.5 -53.5t-21.5 -53.5t-53.5 -21.5t-53.5 21.5t-21.5 53.5zM380 799q0 32 21.5 53.5t53.5 21.5t53.5 -21.5t21.5 -53.5t-21.5 -53.5t-53.5 -21.5t-53.5 21.5t-21.5 53.5zM504 537h-218l-16 -129h210l-16 -130h-210
l-18 -148h222l-16 -130h-372l82 667h368z" />
    <glyph glyph-name="afii10051" unicode="&#x402;" horiz-adv-x="686" 
d="M201 537h-130l16 130h504l-16 -130h-220l-18 -145q31 13 57.5 18t55.5 5q66 0 105.5 -15.5t62.5 -35.5q4 -4 14.5 -15t21 -30.5t18.5 -47.5t8 -64q0 -48 -18 -91.5t-50 -72.5q-20 -18 -43.5 -28t-46.5 -15t-44 -6t-36 -1q-21 0 -41.5 1.5t-43.5 6.5l14 121q14 -3 29 -5
t29 -2q16 0 35 3.5t34 17.5q5 5 14.5 20.5t9.5 47.5q0 14 -3.5 29.5t-17.5 29.5q-16 15 -36.5 18.5t-34.5 3.5q-32 0 -59 -6.5t-50 -16.5l-32 -262h-154z" />
    <glyph glyph-name="afii10052" unicode="&#x403;" horiz-adv-x="473" 
d="M517 537h-227l-66 -537h-154l82 667h381zM530 853l-180 -129l-59 53l153 148z" />
    <glyph glyph-name="afii10053" unicode="&#x404;" horiz-adv-x="623" 
d="M578 29q-23 -16 -62.5 -29.5t-112.5 -13.5q-66 0 -125 18t-107 65q-42 41 -66.5 97t-24.5 132q0 94 31 166.5t81 120.5q30 29 62.5 47.5t67 29.5t70 15t71.5 4q44 0 88 -8.5t102 -38.5l-20 -162q-47 44 -93 57t-83 13q-38 0 -70.5 -8.5t-62.5 -31.5q-20 -16 -40 -40.5
t-31 -62.5h274l-15 -124h-273q4 -26 15.5 -52t30.5 -46q17 -17 36.5 -27.5t39 -16t38 -7t33.5 -1.5q36 0 79 12t88 55z" />
    <glyph glyph-name="afii10054" unicode="&#x405;" horiz-adv-x="550" 
d="M477 504q-32 29 -60.5 38.5t-51.5 9.5q-14 0 -32 -3t-31 -14q-11 -8 -17 -21t-6 -27q0 -15 6 -26t17 -19q11 -9 25.5 -16.5t39.5 -18.5l39 -18q24 -11 46 -25.5t42 -38.5q18 -23 26 -47.5t8 -56.5q0 -53 -19 -97.5t-48 -73.5q-41 -40 -90.5 -52.5t-100.5 -12.5
q-37 0 -68 6t-65 24q-25 14 -48 32.5t-41 38.5l86 110q11 -14 26 -28.5t30 -24.5q16 -10 36 -16t42 -6q17 0 38.5 5t35.5 16q28 22 28 62q0 18 -6.5 29t-12.5 17q-4 4 -15.5 11.5t-37.5 18.5l-39 16q-4 1 -15 6t-24.5 12.5t-28 18t-26.5 22.5q-24 25 -34 53t-10 60
q0 52 18 89.5t42 61.5q41 40 89 51.5t91 11.5t91.5 -12.5t101.5 -53.5z" />
    <glyph glyph-name="afii10055" unicode="&#x406;" horiz-adv-x="306" 
d="M309 667l-82 -667h-154l82 667h154z" />
    <glyph glyph-name="afii10056" unicode="&#x407;" horiz-adv-x="337" 
d="M320 667l-82 -667h-154l82 667h154zM101 811q0 16 5.5 30.5t15 25t22.5 17t27 6.5t27 -6.5t22.5 -17t15 -25t5.5 -30.5t-5.5 -30.5t-15 -25t-22.5 -17t-27 -6.5t-27 6.5t-22.5 17t-15 25t-5.5 30.5zM275 811q0 16 5.5 30.5t15 25t22.5 17t27 6.5t27 -6.5t22.5 -17t15 -25
t5.5 -30.5t-5.5 -30.5t-15 -25t-22.5 -17t-27 -6.5t-27 6.5t-22.5 17t-15 25t-5.5 30.5z" />
    <glyph glyph-name="afii10057" unicode="&#x408;" horiz-adv-x="415" 
d="M421 667l-56 -453q-2 -18 -5.5 -41t-10.5 -47.5t-19 -48.5t-33 -43q-18 -17 -37.5 -26.5t-39.5 -14.5t-38.5 -6.5t-33.5 -1.5q-26 0 -52.5 4t-53.5 20q-41 24 -67 68l105 96q4 -11 10 -21t14 -17q6 -5 16 -9.5t24 -4.5q23 0 39 14q13 11 19 30.5t9 46.5l56 455h154z" />
    <glyph glyph-name="afii10058" unicode="&#x409;" horiz-adv-x="984" 
d="M533 537h-181l-33 -268q-10 -79 -29 -131.5t-51 -86.5q-20 -20 -40.5 -32t-41 -18t-41.5 -7.5t-40 -1.5q-23 0 -39 2t-35 8l17 138q8 -3 18.5 -5.5t24.5 -2.5q25 0 41 7.5t24 15.5q3 3 8.5 11t11 23.5t11.5 41t11 63.5l46 373h488l-32 -261h95q52 0 94.5 -14.5
t68.5 -40.5q16 -15 25.5 -32.5t15 -35t7 -33.5t1.5 -29q0 -62 -19.5 -101t-41.5 -59q-39 -37 -95 -49t-121 -12h-233zM636 123h64q44 0 63.5 6.5t21.5 8.5q13 8 25 25.5t12 46.5q0 25 -10 38.5t-19 19.5q-14 10 -34 12.5t-43 2.5h-60z" />
    <glyph glyph-name="afii10059" unicode="&#x40a;" horiz-adv-x="1005" 
d="M524 283h-264l-36 -283h-154l82 667h154l-31 -261h265l32 261h152l-32 -261h95q52 0 94.5 -14.5t68.5 -40.5q16 -15 25.5 -32.5t15 -35t7 -33.5t1.5 -29q0 -62 -19.5 -101t-41.5 -59q-39 -37 -95 -49t-121 -12h-233zM657 123h64q44 0 63.5 6.5t21.5 8.5q13 8 25 25.5
t12 46.5q0 25 -10 38.5t-19 19.5q-14 10 -34 12.5t-43 2.5h-60z" />
    <glyph glyph-name="afii10060" unicode="&#x40b;" horiz-adv-x="722" 
d="M201 537h-130l16 130h504l-16 -130h-220l-16 -132q26 5 55.5 7.5t58.5 2.5q24 0 49.5 -2.5t50.5 -8t47 -14.5t40 -23q32 -25 45 -58.5t13 -66.5q0 -6 -1 -14.5t-1.5 -16.5t-1.5 -14t-1 -7l-24 -190h-154l20 163q2 14 3 28.5t-2 28t-10.5 26t-23.5 21.5q-17 10 -42.5 14
t-49.5 4q-12 0 -25 -1t-25 -2.5t-22 -2.5t-15 -2l-34 -277h-154z" />
    <glyph glyph-name="afii10061" unicode="&#x40c;" horiz-adv-x="670" 
d="M272 388l244 279h184l-291 -323l247 -344h-194l-201 302l-37 -302h-154l82 667h154zM590 853l-180 -129l-59 53l153 148z" />
    <glyph glyph-name="afii10062" unicode="&#x40e;" horiz-adv-x="622" 
d="M250 667l102 -308l172 308h170l-387 -667h-166l117 196l-176 471h168zM593 840q-29 -63 -82.5 -89.5t-125.5 -26.5q-32 0 -64.5 5t-62.5 25q-22 14 -40.5 36t-29.5 50l111 46q8 -29 30 -46q15 -11 31 -14.5t30 -3.5t30.5 3t31.5 16q10 8 17.5 20.5t12.5 24.5z" />
    <glyph glyph-name="afii10145" unicode="&#x40f;" horiz-adv-x="701" 
d="M152 667h154l-66 -537h247l66 537h154l-82 -667h-208l-20 -166h-138l20 166h-209z" />
    <glyph glyph-name="afii10017" unicode="&#x410;" horiz-adv-x="677" 
d="M483 126h-252l-63 -126h-166l352 667h142l179 -667h-158zM455 244l-54 235l-112 -235h166z" />
    <glyph glyph-name="afii10018" unicode="&#x411;" horiz-adv-x="597" 
d="M151 667h412l-16 -130h-258l-16 -133h83q19 0 41.5 -1.5t46.5 -7.5t46.5 -17.5t41.5 -30.5q17 -17 31 -47t14 -78q0 -45 -15 -87t-45 -71q-10 -10 -27 -21t-42.5 -20.5t-60.5 -16t-81 -6.5h-236zM239 123h57q25 0 53.5 5t45.5 21q8 7 16 21t8 38q0 26 -9.5 39.5
t-18.5 18.5q-14 9 -38 12t-42 3h-53z" />
    <glyph glyph-name="afii10019" unicode="&#x412;" horiz-adv-x="594" 
d="M152 667h213q34 0 74.5 -7.5t72.5 -38.5q18 -17 30.5 -46t12.5 -68q0 -62 -31 -104q-17 -23 -35 -34.5t-35 -16.5q26 -6 44.5 -17t31.5 -23q23 -23 33 -48.5t10 -57.5q0 -54 -17 -88.5t-37 -54.5t-44 -32.5t-50 -19t-53.5 -9t-53.5 -2.5h-248zM273 396h31q20 0 44 4
t41 21q11 11 17 27t6 33q0 20 -7 32t-14 18q-14 11 -32.5 13.5t-35.5 2.5h-32zM239 120h56q11 0 24.5 1t27.5 3.5t26.5 7.5t21.5 13q7 6 15.5 21t8.5 43q0 11 -3.5 25t-14.5 25q-8 8 -20 12.5t-24 7t-22.5 3t-15.5 0.5h-60z" />
    <glyph glyph-name="afii10020" unicode="&#x413;" horiz-adv-x="473" 
d="M517 537h-227l-66 -537h-154l82 667h381z" />
    <glyph glyph-name="afii10021" unicode="&#x414;" horiz-adv-x="701" 
d="M698 667l-66 -539h75l-33 -278h-138l18 150h-409l-19 -150h-138l35 278q28 5 51.5 16.5t40.5 28.5q19 19 31.5 44t19.5 52t11 55t7 52l37 291h477zM331 371q-6 -49 -11.5 -84.5t-16.5 -63.5q-13 -34 -31 -57t-36 -38h244l49 411h-178z" />
    <glyph glyph-name="afii10022" unicode="&#x415;" horiz-adv-x="502" 
d="M504 537h-218l-16 -129h210l-16 -130h-210l-18 -148h222l-16 -130h-372l82 667h368z" />
    <glyph glyph-name="afii10024" unicode="&#x416;" horiz-adv-x="941" 
d="M427 299l-238 -299h-186l290 354l-190 313h172l162 -286l35 286h154l-35 -286l232 286h176l-274 -328l203 -339h-182l-165 299l-37 -299h-154z" />
    <glyph glyph-name="afii10025" unicode="&#x417;" horiz-adv-x="590" 
d="M127 607q21 16 45 29t47 22q42 16 79.5 20t57.5 4q69 0 109 -17.5t61 -38.5q26 -26 35 -56t9 -60q0 -26 -6.5 -51.5t-25.5 -49.5q-13 -17 -32 -31.5t-43 -23.5q6 -2 28.5 -12.5t42.5 -32.5q20 -23 27.5 -48.5t7.5 -50.5q0 -43 -16 -84t-48 -73q-23 -23 -47 -36t-49 -20.5
t-50.5 -9.5t-50.5 -2q-35 0 -78.5 5.5t-86.5 25.5q-26 12 -53 31.5t-50 45.5l89 112q14 -16 32.5 -32t35.5 -27q43 -25 95 -25q32 0 52.5 7t32.5 17q28 22 28 62q0 41 -37 60q-16 8 -42 11t-45 3h-42l15 124h38q22 0 45.5 4t39.5 12q23 11 30.5 27.5t7.5 32.5q0 18 -8.5 31
t-19.5 20q-8 5 -18 8t-19.5 4.5t-16.5 1.5h-10q-42 0 -75 -16q-15 -7 -31.5 -17.5t-28.5 -20.5z" />
    <glyph glyph-name="afii10026" unicode="&#x418;" horiz-adv-x="743" 
d="M306 667l-54 -432l361 432h136l-82 -667h-154l54 433l-360 -433h-137l82 667h154z" />
    <glyph glyph-name="afii10027" unicode="&#x419;" horiz-adv-x="743" 
d="M306 667l-54 -432l361 432h136l-82 -667h-154l54 433l-360 -433h-137l82 667h154zM680 840q-29 -63 -82.5 -89.5t-125.5 -26.5q-32 0 -64.5 5t-62.5 25q-22 14 -40.5 36t-29.5 50l111 46q8 -29 30 -46q15 -11 31 -14.5t30 -3.5t30.5 3t31.5 16q10 8 17.5 20.5t12.5 24.5z
" />
    <glyph glyph-name="afii10028" unicode="&#x41a;" horiz-adv-x="670" 
d="M272 388l244 279h184l-291 -323l247 -344h-194l-201 302l-37 -302h-154l82 667h154z" />
    <glyph glyph-name="afii10029" unicode="&#x41b;" horiz-adv-x="697" 
d="M703 667l-82 -667h-154l66 537h-181l-33 -268q-10 -79 -29 -131.5t-51 -86.5q-20 -20 -40.5 -32t-41 -18t-41.5 -7.5t-40 -1.5q-23 0 -39 2t-35 8l17 138q8 -3 18.5 -5.5t24.5 -2.5q25 0 41 7.5t24 15.5q3 3 8.5 11t11 23.5t11.5 41t11 63.5l46 373h488z" />
    <glyph glyph-name="afii10030" unicode="&#x41c;" horiz-adv-x="886" 
d="M42 0l190 667h127l114 -399l216 399h131l24 -667h-154l-4 398l-213 -398h-58l-117 398l-102 -398h-154z" />
    <glyph glyph-name="afii10031" unicode="&#x41d;" horiz-adv-x="720" 
d="M275 417h266l31 250h154l-82 -667h-154l35 287h-266l-35 -287h-154l82 667h154z" />
    <glyph glyph-name="afii10032" unicode="&#x41e;" horiz-adv-x="810" 
d="M464 682q48 0 86.5 -7.5t69.5 -20t53.5 -28t39.5 -31.5q43 -42 68.5 -102.5t25.5 -134.5q0 -36 -6.5 -72.5t-19 -71.5t-32 -67t-45.5 -59q-32 -32 -66.5 -52.5t-70.5 -31.5t-71 -15t-68 -4q-31 0 -63.5 3.5t-65 14t-64 29t-61.5 48.5q-17 18 -34 41t-30.5 52t-21.5 64
t-8 76q0 88 31 155.5t79 112.5q32 30 66.5 50t70 31t70.5 15.5t67 4.5zM458 540q-98 0 -159 -64q-29 -31 -45 -71t-16 -82q0 -46 15.5 -81.5t38.5 -58.5q34 -35 72.5 -45.5t73.5 -10.5q17 0 35.5 2t37.5 8t38.5 17t37.5 30q27 28 44.5 70t17.5 94q0 32 -10 70t-43 70t-70 42
t-68 10z" />
    <glyph glyph-name="afii10033" unicode="&#x41f;" horiz-adv-x="707" 
d="M152 667h561l-82 -667h-154l67 537h-253l-67 -537h-154z" />
    <glyph glyph-name="afii10034" unicode="&#x420;" horiz-adv-x="572" 
d="M377 667q18 0 39.5 -1t44.5 -6.5t46 -17t43 -31.5q23 -23 38.5 -57.5t15.5 -85.5q0 -56 -17.5 -101.5t-47.5 -73.5q-11 -11 -28 -21.5t-41 -18.5t-55.5 -13.5t-73.5 -5.5h-88l-29 -234h-154l82 667h225zM268 360h55q25 0 51 4.5t46 24.5q17 17 21.5 36.5t4.5 32.5
q0 14 -4 29.5t-18 28.5q-18 17 -44 21t-43 4h-46z" />
    <glyph glyph-name="afii10035" unicode="&#x421;" horiz-adv-x="605" 
d="M567 21q-8 -4 -22.5 -10t-34.5 -12t-46.5 -10t-58.5 -4q-47 0 -84.5 9t-66.5 22.5t-50 29t-34 28.5q-16 16 -32 38t-29 50.5t-21 63.5t-8 79q0 88 29.5 157t76.5 116q42 42 108.5 73t158.5 31q39 0 70 -5.5t54.5 -13t39.5 -16t25 -13.5l-19 -163q-10 10 -25 22t-35.5 22
t-47 16.5t-59.5 6.5q-48 0 -87 -14t-71 -49q-31 -33 -45.5 -75t-14.5 -82q0 -42 14.5 -78t37.5 -59t59 -37.5t82 -14.5q50 0 89 17.5t67 40.5z" />
    <glyph glyph-name="afii10036" unicode="&#x422;" horiz-adv-x="460" 
d="M370 537l-66 -537h-154l66 537h-145l16 130h444l-16 -130h-145z" />
    <glyph glyph-name="afii10037" unicode="&#x423;" horiz-adv-x="622" 
d="M250 667l102 -308l172 308h170l-387 -667h-166l117 196l-176 471h168z" />
    <glyph glyph-name="afii10038" unicode="&#x424;" horiz-adv-x="852" 
d="M355 93q-43 0 -76 7t-57.5 17t-41.5 21.5t-27 21.5q-31 29 -52 74.5t-21 108.5q0 65 22.5 115.5t58.5 85.5q48 45 113.5 61.5t141.5 16.5h5l11 92h154l-12 -92h4q63 0 118 -21t90 -56q20 -20 32.5 -43t19 -45.5t9 -44.5t2.5 -41q0 -49 -13.5 -102t-59.5 -98
q-45 -43 -110.5 -60.5t-150.5 -17.5h-6l-12 -93h-154zM411 498h-6q-31 0 -64.5 -6.5t-63.5 -36.5q-23 -23 -33 -53t-10 -60q0 -35 12 -57t25 -34q15 -14 40 -24t65 -10zM518 217h4q38 0 71.5 9.5t55.5 29.5q17 14 31.5 42t14.5 73q0 17 -6 45t-31 51q-11 11 -34.5 21
t-65.5 10h-5z" />
    <glyph glyph-name="afii10039" unicode="&#x425;" horiz-adv-x="686" 
d="M296 354l-169 313h181l87 -190l133 190h189l-245 -313l201 -354h-181l-119 231l-177 -231h-189z" />
    <glyph glyph-name="afii10040" unicode="&#x426;" horiz-adv-x="728" 
d="M152 667h154l-66 -537h247l66 537h154l-66 -537h90l-34 -280h-138l18 150h-507z" />
    <glyph glyph-name="afii10041" unicode="&#x427;" horiz-adv-x="646" 
d="M449 266q-19 -3 -49.5 -6.5t-68.5 -3.5t-66.5 4.5t-49.5 10.5t-34.5 13.5t-22.5 13.5q-60 43 -60 122q0 17 2.5 37l7.5 60l19 150h154l-17 -135q-2 -19 -4 -33.5t-2 -26.5q0 -14 5 -32.5t28 -32.5q17 -11 42 -14t45 -3q19 0 41.5 2.5t44.5 6.5l34 268h154l-82 -667h-154z
" />
    <glyph glyph-name="afii10042" unicode="&#x428;" horiz-adv-x="986" 
d="M152 667h154l-66 -537h189l66 537h154l-66 -537h189l66 537h154l-82 -667h-840z" />
    <glyph glyph-name="afii10043" unicode="&#x429;" horiz-adv-x="1013" 
d="M70 0l82 667h154l-66 -537h189l66 537h154l-66 -537h189l66 537h154l-66 -537h93l-34 -280h-138l18 150h-795z" />
    <glyph glyph-name="afii10044" unicode="&#x42a;" horiz-adv-x="660" 
d="M208 537h-140l16 130h293l-32 -261h97q52 0 94.5 -14.5t68.5 -40.5q16 -15 25.5 -32.5t15 -35t7 -33.5t1.5 -28q0 -63 -20 -102t-41 -59q-39 -37 -95 -49t-121 -12h-235zM310 123h66q44 0 63.5 6.5t21.5 8.5q14 8 25.5 25t11.5 44t-10.5 41.5t-18.5 19.5q-14 10 -34 12.5
t-43 2.5h-62z" />
    <glyph glyph-name="afii10045" unicode="&#x42b;" horiz-adv-x="847" 
d="M153 667h152l-32 -261h91q52 0 94.5 -14.5t68.5 -40.5q16 -15 25.5 -32.5t15 -35t7 -33.5t1.5 -29q0 -64 -20 -103t-41 -59q-41 -39 -97.5 -49t-118.5 -10h-229zM238 123h64q44 0 63.5 6.5t21.5 8.5q13 8 25 25.5t12 46.5q0 25 -10 38.5t-19 19.5q-14 10 -34 12.5
t-43 2.5h-60zM850 667l-82 -667h-154l82 667h154z" />
    <glyph glyph-name="afii10046" unicode="&#x42c;" horiz-adv-x="586" 
d="M153 667h152l-32 -261h95q52 0 94.5 -14.5t68.5 -40.5q16 -15 25.5 -32.5t15 -35t7 -33.5t1.5 -29q0 -62 -19.5 -101t-41.5 -59q-39 -37 -95 -49t-121 -12h-233zM238 123h64q44 0 63.5 6.5t21.5 8.5q13 8 25 25.5t12 46.5q0 25 -10 38.5t-19 19.5q-14 10 -34 12.5
t-43 2.5h-60z" />
    <glyph glyph-name="afii10047" unicode="&#x42d;" horiz-adv-x="623" 
d="M64 194q47 -40 97.5 -54.5t90.5 -14.5q6 0 19.5 1t31 4.5t37 11t37.5 20.5q23 17 42 46t26 67h-268l16 124h263q-5 36 -21.5 63t-36.5 44q-28 23 -60 29.5t-58 6.5q-61 0 -109 -23q-15 -8 -37.5 -22.5t-35.5 -23.5l20 165q58 27 104.5 35.5t85.5 8.5q45 0 81 -8
t64.5 -20.5t49.5 -28t36 -30.5q26 -27 42 -57.5t24.5 -61t11.5 -59t3 -52.5q0 -53 -8.5 -96.5t-23 -79t-33 -63t-39.5 -48.5q-32 -32 -64.5 -50.5t-65 -28t-65 -12t-63.5 -2.5q-42 0 -94 7.5t-119 39.5z" />
    <glyph glyph-name="afii10048" unicode="&#x42e;" horiz-adv-x="1058" 
d="M359 417q13 54 37 94.5t51 69.5q49 52 110 76.5t142 24.5q49 0 89.5 -8t73 -21t56.5 -29.5t42 -33.5q29 -28 47.5 -59t29 -61.5t14.5 -60.5t4 -56q0 -78 -24.5 -145t-78.5 -122q-29 -29 -60 -48.5t-64 -31t-69 -16.5t-75 -5q-32 0 -64 3.5t-63.5 13.5t-62.5 29t-59 49
q-12 13 -26.5 32t-27 45t-22 58.5t-12.5 71.5h-88l-35 -287h-154l82 667h154l-31 -250h84zM706 540q-57 0 -92.5 -19.5t-55.5 -38.5q-28 -28 -45.5 -68.5t-17.5 -89.5q0 -45 15.5 -81t38.5 -60q20 -20 54 -38t88 -18q52 0 87 17.5t57 39.5q32 32 47 77t15 87q0 47 -16 82
t-39 58q-19 19 -52 35.5t-84 16.5z" />
    <glyph glyph-name="afii10049" unicode="&#x42f;" horiz-adv-x="602" 
d="M526 0h-154l30 243h-16l-189 -243h-185l227 263q-26 6 -49 19t-40 32q-24 28 -31 59t-7 53q0 54 18.5 100t50.5 76q23 22 48.5 34.5t51.5 19.5t51 9t48 2h228zM395 541q-23 0 -49 -4t-46 -23q-15 -14 -22.5 -33t-7.5 -38q0 -22 8 -38t21 -25q17 -12 40.5 -15.5t40.5 -3.5
h36l24 180h-45z" />
    <glyph glyph-name="afii10065" unicode="&#x430;" horiz-adv-x="598" 
d="M448 446h144l-55 -446h-144l11 51q-12 -14 -28.5 -28t-34.5 -22q-23 -11 -46.5 -13.5t-36.5 -2.5q-42 0 -75.5 12t-62.5 43q-25 26 -42.5 66t-17.5 98q0 62 20 110.5t52 81.5q35 35 76 50t88 15q20 0 42.5 -3t44.5 -14q13 -6 29.5 -18.5t31.5 -33.5zM327 337
q-52 0 -85 -33q-15 -15 -24.5 -38t-9.5 -51t9 -46.5t20 -29.5q16 -17 35 -23.5t41 -6.5q31 0 51 9.5t31 20.5q20 19 29 45t9 51q0 24 -8.5 44t-22.5 33q-10 9 -28 17t-47 8z" />
    <glyph glyph-name="afii10066" unicode="&#x431;" horiz-adv-x="601" 
d="M630 730q-6 -38 -22.5 -67.5t-36.5 -47.5q-23 -21 -55 -34.5t-64 -22.5l-71 -20q-51 -14 -78 -29t-42 -29q-6 -5 -23 -27t-26 -60h4q29 39 70 53t81 14q57 0 102 -18t72 -47q16 -18 26.5 -37.5t16 -39.5t7.5 -38.5t2 -33.5q0 -36 -6 -64.5t-16 -52t-22.5 -41t-25.5 -30.5
q-24 -24 -50.5 -38.5t-52.5 -22t-51.5 -10t-47.5 -2.5q-26 0 -50 3t-47.5 10.5t-45 21t-42.5 35.5q-35 38 -49.5 82.5t-14.5 96.5q0 35 6 82t20 95.5t36.5 93.5t56.5 77q39 37 82.5 52.5t81.5 23.5q31 6 55.5 11t48.5 15q17 7 27.5 16.5t14.5 29.5h129zM322 109
q26 0 47.5 7.5t39.5 25.5q19 19 27.5 43t8.5 48q0 23 -8 43.5t-22 34.5q-17 17 -37 22t-37 5q-32 0 -52 -9t-31 -20q-16 -14 -26.5 -39t-10.5 -56q0 -28 8.5 -46t18.5 -29q16 -17 35 -23.5t39 -6.5z" />
    <glyph glyph-name="afii10067" unicode="&#x432;" horiz-adv-x="502" 
d="M335 446q23 0 51.5 -4t51.5 -21q26 -19 34.5 -43t8.5 -48q0 -17 -4.5 -36.5t-21.5 -36.5q-8 -8 -20 -15.5t-29 -10.5q15 -3 31 -10t27 -18q16 -16 21 -34.5t5 -35.5q0 -33 -10.5 -56t-25.5 -37t-32 -22t-34.5 -12t-34 -5t-28.5 -1h-269l55 446h224zM284 268q14 0 27 2
t22 10q12 10 12 31q0 14 -5.5 21.5t-10.5 10.5q-4 2 -13 4.5t-26 2.5h-45l-10 -82h49zM276 96q8 0 21 1.5t24 9.5t15 18t4 20q0 13 -5.5 21t-11.5 12q-9 6 -20.5 7t-23.5 1h-55l-10 -90h62z" />
    <glyph glyph-name="afii10068" unicode="&#x433;" horiz-adv-x="366" 
d="M111 446h300l-14 -118h-156l-41 -328h-144z" />
    <glyph glyph-name="afii10069" unicode="&#x434;" horiz-adv-x="573" 
d="M556 446l-42 -336h65l-28 -236h-128l15 126h-306l-16 -126h-128l29 236q23 4 42 13.5t31 22.5q13 13 21 29t13 33t7.5 34t4.5 31l22 173h398zM398 336h-120l-9 -84q-2 -22 -7 -44.5t-16 -45.5q-8 -15 -17.5 -28t-23.5 -24h165z" />
    <glyph glyph-name="afii10070" unicode="&#x435;" horiz-adv-x="542" 
d="M399 283q-2 16 -9.5 32t-19.5 26t-28.5 14t-30.5 4q-26 0 -42.5 -9t-25.5 -18q-8 -9 -15 -21.5t-10 -27.5h181zM204 195q-1 -17 4 -35.5t14 -31.5q14 -20 33 -25.5t36 -5.5q13 0 28 2t29 11q10 7 18 18t13 22l145 -12q-14 -34 -35.5 -63.5t-45.5 -47.5
q-19 -14 -39.5 -22.5t-40.5 -13t-39 -5.5t-34 -1q-21 0 -43 2t-44.5 8t-44.5 18t-42 32q-32 32 -44 71.5t-12 84.5q0 37 7 67.5t18 55t24.5 43.5t27.5 32q41 38 88 50t89 12q57 0 99 -16t68 -41q22 -22 34.5 -50t18 -56.5t5.5 -55.5t-2 -47h-333z" />
    <glyph glyph-name="afii10072" unicode="&#x436;" horiz-adv-x="762" 
d="M506 446l-22 -179l149 179h169l-188 -213l141 -233h-171l-109 193l-24 -193h-140l24 193l-157 -193h-181l211 239l-128 207h159l105 -179l22 179h140z" />
    <glyph glyph-name="afii10073" unicode="&#x437;" horiz-adv-x="463" 
d="M82 407q17 11 37.5 21t40.5 17q32 11 61.5 13.5t48.5 2.5q57 0 86.5 -11.5t38.5 -16.5q9 -6 18.5 -14.5t17.5 -20.5t13 -27.5t5 -36.5q0 -27 -9.5 -45.5t-20.5 -29.5q-18 -18 -46 -27q16 -4 28.5 -11.5t22.5 -16.5q17 -17 22 -33t5 -36q0 -76 -56 -115q-33 -23 -73.5 -29
t-75.5 -6q-36 0 -68.5 4t-64.5 17q-23 9 -46 23.5t-41 29.5l67 93q10 -8 24 -18.5t34 -19.5t37.5 -13t39.5 -4q11 0 25 1.5t25 7.5t16 15t5 18q0 5 -3.5 16t-20.5 18q-8 3 -24.5 5t-27.5 2h-48l12 98h46q25 0 36 2t16 4q14 5 19 14.5t5 17.5q0 11 -5 17t-13 11q-5 3 -15.5 6
t-30.5 3q-35 0 -65 -13q-5 -2 -19 -9t-32 -20z" />
    <glyph glyph-name="afii10074" unicode="&#x438;" horiz-adv-x="580" 
d="M255 446l-31 -253l219 253h134l-55 -446h-144l32 257l-220 -257h-134l55 446h144z" />
    <glyph glyph-name="afii10075" unicode="&#x439;" horiz-adv-x="580" 
d="M255 446l-31 -253l219 253h134l-55 -446h-144l32 257l-220 -257h-134l55 446h144zM545 626q-12 -34 -32 -54.5t-38 -31.5q-29 -17 -60 -22t-59 -5q-26 0 -56 4.5t-59 24.5q-17 11 -34 31.5t-27 52.5l101 36q4 -14 11.5 -25t16.5 -19q13 -11 25.5 -14t27.5 -3q11 0 25 2.5
t27 12.5q10 8 18 20t12 26z" />
    <glyph glyph-name="afii10076" unicode="&#x43a;" horiz-adv-x="540" 
d="M111 446h144l-22 -177l168 177h179l-213 -213l171 -233h-186l-128 198l-24 -198h-144z" />
    <glyph glyph-name="afii10077" unicode="&#x43b;" horiz-adv-x="548" 
d="M490 0h-144l41 330h-116l-17 -133q-6 -47 -18 -86t-38 -67q-29 -32 -64.5 -41t-68.5 -9q-31 0 -62 7l16 122q14 -5 31 -5q11 0 22.5 3t21.5 13q11 11 16.5 31.5t7.5 36.5l30 244h397z" />
    <glyph glyph-name="afii10078" unicode="&#x43c;" horiz-adv-x="664" 
d="M157 446h110l85 -248l147 248h118l23 -446h-138l-7 237l-140 -237h-48l-80 237l-65 -237h-138z" />
    <glyph glyph-name="afii10079" unicode="&#x43d;" horiz-adv-x="561" 
d="M110 446h144l-19 -154h160l19 154h144l-54 -446h-144l22 176h-161l-21 -176h-144z" />
    <glyph glyph-name="afii10080" unicode="&#x43e;" horiz-adv-x="592" 
d="M337 461q54 0 104 -18t83 -51q26 -26 43 -64t17 -87t-18.5 -98t-53.5 -85q-24 -24 -49.5 -38.5t-52 -22t-53 -10t-50.5 -2.5q-21 0 -45 2t-48 9t-48 20.5t-45 35.5q-26 27 -43.5 67t-17.5 90q0 49 18 95t54 81q37 36 90 56t115 20zM315 107q27 0 48.5 9t35.5 23
q19 18 28 43.5t9 51.5t-8.5 45.5t-21.5 31.5q-14 14 -36 21t-42 7t-41.5 -7.5t-38.5 -23.5q-20 -18 -30 -43.5t-10 -51.5q0 -23 8 -42.5t21 -33.5q11 -11 30 -20.5t48 -9.5z" />
    <glyph glyph-name="afii10081" unicode="&#x43f;" horiz-adv-x="555" 
d="M110 446h442l-54 -446h-144l41 330h-155l-40 -330h-144z" />
    <glyph glyph-name="afii10082" unicode="&#x440;" horiz-adv-x="598" 
d="M174 -229h-144l83 675h144l-8 -52q14 17 28.5 28t27.5 18q22 11 44 16t48 5q52 0 84.5 -16t50.5 -33q27 -27 43 -71t16 -96q0 -64 -21 -115.5t-54 -84.5t-70 -46.5t-81 -13.5q-24 0 -49 3.5t-48 15.5q-14 8 -29 20t-29 31zM341 337q-50 0 -84 -34q-20 -20 -28 -42t-8 -48
q0 -16 5 -36t22 -37q13 -14 32.5 -22.5t42.5 -8.5q22 0 43 8t37 23q18 17 29 44t11 52q0 21 -8.5 42t-22.5 33q-14 13 -33 19.5t-38 6.5z" />
    <glyph glyph-name="afii10083" unicode="&#x441;" horiz-adv-x="431" 
d="M428 301q-5 4 -13.5 10.5t-21 12.5t-29 10.5t-36.5 4.5q-38 0 -58.5 -13t-28.5 -21q-17 -18 -25 -42t-8 -47q0 -27 9 -46.5t23 -32.5q31 -30 78 -30q29 0 52 11t39 25l-16 -132q-35 -17 -64.5 -21.5t-53.5 -4.5q-45 0 -82.5 12.5t-72.5 49.5q-27 29 -43.5 69t-16.5 92
q0 54 18 100.5t52 81.5q29 29 74 50t111 21q34 0 66 -6.5t64 -22.5z" />
    <glyph glyph-name="afii10084" unicode="&#x442;" horiz-adv-x="400" 
d="M312 330l-41 -330h-144l41 330h-120l14 116h384l-14 -116h-120z" />
    <glyph glyph-name="afii10085" unicode="&#x443;" horiz-adv-x="583" 
d="M224 57l-173 389h164l99 -244l150 244h169l-431 -675h-162z" />
    <glyph glyph-name="afii10086" unicode="&#x444;" horiz-adv-x="718" 
d="M256 -229l29 222q-58 -1 -101.5 20t-68.5 47q-27 29 -41 68t-14 80q0 42 13 82t38 72q24 31 53.5 50t60.5 29t61.5 13t54.5 2l27 211h144l-27 -211q42 -2 88.5 -19t78.5 -48q20 -20 39 -56t19 -95q0 -51 -16 -96t-48 -77q-30 -31 -80 -51.5t-126 -20.5h-11l-29 -222h-144
zM333 337q-26 0 -50 -8t-42 -24q-17 -15 -28 -39t-11 -55q0 -29 10.5 -46.5t21.5 -27.5q14 -13 34 -19.5t38 -8.5zM436 109q25 0 51 8t45 25q3 3 9 10t12 18t10.5 26.5t4.5 36.5q0 29 -9.5 47t-19.5 28q-14 14 -35 21t-41 8z" />
    <glyph glyph-name="afii10087" unicode="&#x445;" horiz-adv-x="620" 
d="M426 241l184 -241h-182l-102 144l-131 -144h-192l234 241l-158 205h182l77 -115l102 115h192z" />
    <glyph glyph-name="afii10088" unicode="&#x446;" horiz-adv-x="575" 
d="M111 446h144l-41 -330h152l41 330h144l-41 -330h73l-29 -242h-128l15 126h-385z" />
    <glyph glyph-name="afii10089" unicode="&#x447;" horiz-adv-x="518" 
d="M335 156q-24 -8 -45.5 -10.5t-44.5 -2.5q-37 0 -74 9t-62 33q-21 21 -27 45t-6 44q0 11 1.5 24.5t3.5 30.5l14 117h140l-14 -107q-2 -20 -1 -36.5t16 -28.5q12 -10 27 -12.5t26 -2.5q18 0 33 2.5t27 7.5l22 177h144l-55 -446h-144z" />
    <glyph glyph-name="afii10090" unicode="&#x448;" horiz-adv-x="804" 
d="M111 446h144l-41 -330h129l41 330h144l-41 -330h129l41 330h144l-55 -446h-690z" />
    <glyph glyph-name="afii10091" unicode="&#x449;" horiz-adv-x="827" 
d="M56 0l55 446h144l-41 -330h130l41 330h144l-41 -330h130l41 330h144l-41 -330h73l-29 -242h-128l15 126h-637z" />
    <glyph glyph-name="afii10092" unicode="&#x44a;" horiz-adv-x="552" 
d="M320 446l-19 -153h84q31 0 65.5 -7t62.5 -35q23 -23 29 -49t6 -46q0 -35 -11 -65t-31 -49q-15 -14 -49.5 -28t-101.5 -14h-233l41 329h-109l14 117h252zM335 102q11 0 25 2t22 7q6 4 13 13t7 26q0 7 -2.5 15.5t-11.5 15.5q-8 6 -20.5 8t-29.5 2h-49l-11 -89h57z" />
    <glyph glyph-name="afii10093" unicode="&#x44b;" horiz-adv-x="703" 
d="M255 446l-19 -153h74q31 0 65.5 -7t62.5 -35q23 -23 29 -49t6 -46q0 -35 -11 -65t-31 -49q-15 -14 -49.5 -28t-101.5 -14h-224l55 446h144zM266 102q11 0 25 2t22 7q6 4 13 13t7 26q0 7 -2.5 15.5t-11.5 15.5q-8 6 -20.5 8t-29.5 2h-45l-11 -89h53zM700 446l-55 -446
h-144l55 446h144z" />
    <glyph glyph-name="afii10094" unicode="&#x44c;" horiz-adv-x="487" 
d="M255 446l-19 -153h84q31 0 65.5 -7t62.5 -35q23 -23 29 -49t6 -46q0 -35 -11 -65t-31 -49q-15 -14 -49.5 -28t-101.5 -14h-234l55 446h144zM270 102q11 0 25 2t22 7q6 4 13 13t7 26q0 7 -2.5 15.5t-11.5 15.5q-8 6 -20.5 8t-29.5 2h-49l-11 -89h57z" />
    <glyph glyph-name="afii10095" unicode="&#x44d;" horiz-adv-x="460" 
d="M56 147q20 -16 53 -31t77 -15q30 0 48.5 7t26.5 12q12 8 24 21.5t18 35.5h-166l13 97h162q-7 20 -18 32t-22 20q-18 12 -37 15.5t-36 3.5q-23 0 -54 -7t-70 -36l16 132q40 16 73 21.5t62 5.5q19 0 41 -2.5t45 -9t45.5 -19t42.5 -32.5q19 -19 30 -39.5t17 -41t7.5 -39.5
t1.5 -35q0 -18 -2.5 -42t-10 -50t-21.5 -52.5t-38 -49.5q-22 -22 -46 -34.5t-48.5 -19t-49 -8.5t-46.5 -2q-38 0 -75 6.5t-79 27.5z" />
    <glyph glyph-name="afii10096" unicode="&#x44e;" horiz-adv-x="789" 
d="M287 292q12 45 34.5 73t41.5 43q24 19 65.5 36t107.5 17q45 0 94 -13.5t91 -55.5q26 -26 43 -63.5t17 -90.5q0 -59 -20 -106t-52 -78q-24 -23 -49 -37t-50.5 -21t-49.5 -9t-45 -2q-40 0 -87.5 9.5t-86.5 44.5q-23 21 -42 56t-24 81h-56l-21 -176h-142l54 446h142
l-19 -154h54zM516 107q17 0 38.5 5t41.5 25q19 18 28 44t9 53q0 26 -8 45.5t-20 31.5q-9 9 -27 18.5t-47 9.5q-32 0 -52 -10t-31 -23q-17 -19 -25.5 -45.5t-8.5 -47.5q0 -24 8 -43.5t21 -33.5q29 -29 73 -29z" />
    <glyph glyph-name="afii10097" unicode="&#x44f;" horiz-adv-x="492" 
d="M160 163q-17 5 -33.5 13.5t-27.5 19.5q-20 20 -25.5 43t-5.5 43q0 33 9 59t26 46q32 37 77 48t99 11h210l-55 -446h-144l18 149h-10l-121 -149h-165zM331 344h-47q-12 0 -28 -1.5t-29 -14.5q-15 -15 -15 -39q0 -17 7.5 -25t12.5 -11q3 -2 14.5 -6t36.5 -4h36z" />
    <glyph glyph-name="afii10071" unicode="&#x451;" horiz-adv-x="542" 
d="M399 283q-2 16 -9.5 32t-19.5 26t-28.5 14t-30.5 4q-26 0 -42.5 -9t-25.5 -18q-8 -9 -15 -21.5t-10 -27.5h181zM204 195q-1 -17 4 -35.5t14 -31.5q14 -20 33 -25.5t36 -5.5q13 0 28 2t29 11q10 7 18 18t13 22l145 -12q-14 -34 -35.5 -63.5t-45.5 -47.5
q-19 -14 -39.5 -22.5t-40.5 -13t-39 -5.5t-34 -1q-21 0 -43 2t-44.5 8t-44.5 18t-42 32q-32 32 -44 71.5t-12 84.5q0 37 7 67.5t18 55t24.5 43.5t27.5 32q41 38 88 50t89 12q57 0 99 -16t68 -41q18 -17 29 -38t17.5 -43.5t9 -44.5t2.5 -42q0 -11 -0.5 -21.5t-1.5 -19.5h-333
zM352 600q0 33 22.5 55.5t55.5 22.5t55.5 -22.5t22.5 -55.5t-22.5 -55.5t-55.5 -22.5t-55.5 22.5t-22.5 55.5zM138 600q0 33 22.5 55.5t55.5 22.5t55.5 -22.5t22.5 -55.5t-22.5 -55.5t-55.5 -22.5t-55.5 22.5t-22.5 55.5z" />
    <glyph glyph-name="afii10099" unicode="&#x452;" horiz-adv-x="571" 
d="M122 502h-80l11 94h80l17 133h144l-17 -133h192l-11 -94h-192l-18 -145q11 11 24.5 22.5t29.5 19.5q23 13 45 16t46 3q26 0 56.5 -6.5t56.5 -31.5q24 -23 31.5 -50.5t7.5 -55.5q0 -7 -1 -26.5t-6 -58.5l-29 -239q-2 -15 -5.5 -33t-9.5 -36.5t-15.5 -36t-23.5 -31.5
q-15 -14 -32 -22.5t-34.5 -13t-34 -5.5t-29.5 -1q-43 0 -80 10l14 114q18 -6 36 -6q9 0 22.5 2.5t24.5 13.5q12 11 18 32.5t8 40.5l22 175q2 11 4 33.5t2 38.5q0 13 -3.5 27.5t-14.5 26.5q-12 12 -27 15.5t-26 3.5q-19 0 -35 -5t-30 -19q-17 -17 -24 -43t-10 -51l-22 -180
h-144z" />
    <glyph glyph-name="afii10100" unicode="&#x453;" horiz-adv-x="366" 
d="M111 446h300l-14 -118h-156l-41 -328h-144zM431 650l-169 -135l-59 48l142 152z" />
    <glyph glyph-name="afii10101" unicode="&#x454;" horiz-adv-x="456" 
d="M455 299q-38 32 -70.5 39t-52.5 7t-38 -4t-36 -16q-19 -12 -28.5 -26t-14.5 -25h167l-12 -98h-164q6 -21 17 -34t22 -21q17 -12 36 -16t39 -4q27 0 55.5 7t60.5 34l-15 -127q-35 -17 -71 -23.5t-63 -6.5q-66 0 -106.5 21t-61.5 43q-21 21 -40 59.5t-19 98.5q0 62 20 108
t49 75q22 22 46.5 36t50 21.5t51.5 10.5t50 3q27 0 63 -5.5t81 -27.5z" />
    <glyph glyph-name="afii10102" unicode="&#x455;" horiz-adv-x="434" 
d="M367 327q-15 11 -36.5 20.5t-47.5 9.5q-11 0 -23 -2.5t-20 -9.5q-10 -8 -10 -22q0 -6 3 -12.5t11 -11.5q2 -2 9 -4.5t26 -7.5l33 -9q17 -5 37.5 -13.5t39.5 -28.5q33 -33 33 -85q0 -42 -14 -69t-28 -41q-18 -19 -39.5 -30t-42.5 -17t-40.5 -7.5t-34.5 -1.5q-29 0 -57.5 4
t-58.5 18q-19 8 -36 20t-33 26l61 97q12 -11 26.5 -21t28.5 -16q4 -2 21.5 -8t40.5 -6q27 0 44 10q18 10 18 29q0 11 -4.5 17.5t-9.5 10.5q-7 5 -16.5 7.5t-18.5 5.5l-32 10q-18 5 -38.5 14.5t-36.5 25.5q-8 9 -19 28.5t-11 51.5t12 59t30 45q17 17 37.5 26.5t41 14.5
t38.5 6t30 1q25 0 63 -7t84 -38z" />
    <glyph glyph-name="afii10103" unicode="&#x456;" horiz-adv-x="276" 
d="M264 446l-55 -446h-144l55 446h144zM127 636q0 35 24.5 59.5t59.5 24.5t59.5 -24.5t24.5 -59.5t-24.5 -59.5t-59.5 -24.5t-59.5 24.5t-24.5 59.5z" />
    <glyph glyph-name="afii10104" unicode="&#x457;" horiz-adv-x="332" 
d="M285 446l-55 -446h-144l55 446h144zM322 720q28 0 47 -20.5t19 -54.5q0 -38 -22.5 -60.5t-51.5 -22.5q-28 0 -47 20.5t-19 54.5q0 38 22.5 60.5t51.5 22.5zM152 720q28 0 47 -20.5t19 -54.5q0 -38 -22.5 -60.5t-51.5 -22.5q-28 0 -47 20.5t-19 54.5q0 38 22.5 60.5
t51.5 22.5z" />
    <glyph glyph-name="afii10105" unicode="&#x458;" horiz-adv-x="276" 
d="M264 446l-85 -675h-144l85 675h144zM127 636q0 35 24.5 59.5t59.5 24.5t59.5 -24.5t24.5 -59.5t-24.5 -59.5t-59.5 -24.5t-59.5 24.5t-24.5 59.5z" />
    <glyph glyph-name="afii10106" unicode="&#x459;" horiz-adv-x="777" 
d="M610 293q31 0 65.5 -7t62.5 -35q23 -23 29 -49t6 -46q0 -35 -11 -65t-31 -49q-15 -14 -49.5 -28t-101.5 -14h-234l41 330h-116l-17 -133q-6 -47 -18 -86t-38 -67q-29 -32 -64.5 -41t-68.5 -9q-31 0 -62 7l16 122q14 -5 31 -5q11 0 22.5 3t21.5 13q11 11 16.5 31.5
t7.5 36.5l30 244h397l-19 -153h84zM560 102q11 0 25 2t22 7q6 4 13 13t7 26q0 7 -2.5 15.5t-11.5 15.5q-8 6 -20.5 8t-29.5 2h-49l-11 -89h57z" />
    <glyph glyph-name="afii10107" unicode="&#x45a;" horiz-adv-x="790" 
d="M623 293q31 0 65.5 -7t62.5 -35q23 -23 29 -49t6 -46q0 -35 -11 -65t-31 -49q-15 -14 -49.5 -28t-101.5 -14h-234l24 191h-160l-23 -191h-144l54 446h144l-19 -153h160l19 153h144l-19 -153h84zM573 102q11 0 25 2t22 7q6 4 13 13t7 26q0 7 -2.5 15.5t-11.5 15.5
q-8 6 -20.5 8t-29.5 2h-49l-11 -89h57z" />
    <glyph glyph-name="afii10108" unicode="&#x45b;" horiz-adv-x="571" 
d="M122 502h-80l11 94h80l17 133h144l-17 -133h192l-11 -94h-192l-18 -145q11 11 24.5 22.5t29.5 19.5q23 13 45 16t46 3q26 0 56.5 -6.5t56.5 -31.5q24 -23 31.5 -50.5t7.5 -55.5q0 -7 -1 -26.5t-6 -58.5l-23 -189h-144l19 153q5 35 5.5 51t0.5 21q0 13 -3.5 27.5
t-14.5 26.5q-12 12 -27 15.5t-26 3.5q-19 0 -35 -5t-30 -19q-17 -17 -24 -43t-10 -51l-22 -180h-144z" />
    <glyph glyph-name="afii10109" unicode="&#x45c;" horiz-adv-x="540" 
d="M111 446h144l-22 -177l168 177h179l-213 -213l171 -233h-186l-128 198l-24 -198h-144zM505 650l-169 -135l-59 48l142 152z" />
    <glyph glyph-name="afii10110" unicode="&#x45e;" horiz-adv-x="583" 
d="M224 57l-173 389h164l99 -244l150 244h169l-431 -675h-162zM539 626q-12 -34 -32 -54.5t-38 -31.5q-29 -17 -60 -22t-59 -5q-26 0 -56 4.5t-59 24.5q-17 11 -34 31.5t-27 52.5l101 36q4 -14 11.5 -25t16.5 -19q13 -11 25.5 -14t27.5 -3q11 0 25 2.5t27 12.5q10 8 18 20
t12 26z" />
    <glyph glyph-name="afii10193" unicode="&#x45f;" horiz-adv-x="552" 
d="M111 446h144l-41 -330h152l41 330h144l-55 -446h-156l-17 -136h-128l17 136h-156z" />
    <glyph glyph-name="afii10146" unicode="&#x462;" horiz-adv-x="641" 
d="M182 481h-120l15 120h120l14 113h154l-14 -113h166l-15 -120h-166l-8 -75h95q52 0 94.5 -14.5t68.5 -40.5q16 -15 25.5 -32.5t15 -35t7 -33.5t1.5 -29q0 -62 -19.5 -101t-41.5 -59q-39 -37 -95 -49t-121 -12h-235zM293 123h64q44 0 63.5 6.5t21.5 8.5q13 8 25 25.5
t12 46.5q0 25 -10 38.5t-19 19.5q-14 10 -34 12.5t-43 2.5h-61z" />
    <glyph glyph-name="afii10194" unicode="&#x463;" horiz-adv-x="533" 
d="M282 293h84q31 0 65.5 -7t62.5 -35q23 -23 29 -49t6 -46q0 -35 -11 -65t-31 -49q-15 -14 -49.5 -28t-101.5 -14h-234l43 353h-95l12 94h95l27 221h144l-27 -221h154l-12 -94h-154zM316 102q11 0 25 2t22 7q6 4 13 13t7 26q0 7 -2.5 15.5t-11.5 15.5q-8 6 -20.5 8t-29.5 2
h-49l-11 -89h57z" />
    <glyph glyph-name="afii10147" unicode="&#x472;" horiz-adv-x="810" 
d="M464 682q48 0 86.5 -7.5t69.5 -20t53.5 -28t39.5 -31.5q43 -42 68.5 -102.5t25.5 -134.5q0 -36 -6.5 -72.5t-19 -71.5t-32 -67t-45.5 -59q-32 -32 -66.5 -52.5t-70.5 -31.5t-71 -15t-68 -4q-31 0 -63.5 3.5t-65 14t-64 29t-61.5 48.5q-17 18 -34 41t-30.5 52t-21.5 64
t-8 76q0 88 31 155.5t79 112.5q32 30 66.5 50t70 31t70.5 15.5t67 4.5zM642 399q-2 18 -14 48t-46 56q-28 22 -60 29.5t-66 7.5q-35 0 -69.5 -9t-65.5 -34q-21 -17 -38.5 -41.5t-27.5 -56.5h387zM247 269q8 -37 26 -63.5t39 -42.5q22 -17 53 -26.5t70 -9.5q36 0 69 8t59 26
q24 17 44 44.5t30 63.5h-390z" />
    <glyph glyph-name="afii10195" unicode="&#x473;" horiz-adv-x="592" 
d="M337 461q54 0 104 -18t83 -51q26 -26 43 -64t17 -87t-18.5 -98t-53.5 -85q-24 -24 -49.5 -38.5t-52 -22t-53 -10t-50.5 -2.5q-21 0 -45 2t-48 9t-48 20.5t-45 35.5q-26 27 -43.5 67t-17.5 90q0 49 18 95t54 81q37 36 90 56t115 20zM431 266q-4 14 -12.5 30t-20.5 27
q-14 12 -33.5 17t-36.5 5q-21 0 -39.5 -6t-35.5 -21q-10 -9 -19 -22t-14 -30h211zM210 188q4 -20 13.5 -35.5t20.5 -25.5q29 -26 73 -26q17 0 36 5t33 16q15 11 26 28.5t16 37.5h-218z" />
    <glyph glyph-name="afii10148" unicode="&#x474;" horiz-adv-x="678" 
d="M243 667l117 -427l221 427h172l-364 -667h-106l-200 667h160z" />
    <glyph glyph-name="afii10196" unicode="&#x475;" horiz-adv-x="546" 
d="M204 446l85 -239l147 239h160l-284 -446h-86l-172 446h150z" />
    <glyph glyph-name="afii10050" unicode="&#x490;" horiz-adv-x="482" 
d="M413 667l18 150h133l-34 -279v-1h-240l-66 -537h-154l82 667h261z" />
    <glyph glyph-name="afii10098" unicode="&#x491;" horiz-adv-x="411" 
d="M111 446h212l15 126h128l-30 -244h-196l-40 -328h-144z" />
    <glyph glyph-name="uni0492" unicode="&#x492;" horiz-adv-x="501" 
d="M537 537h-220l-16 -129h162l-15 -124h-162l-35 -284h-154l35 284h-98l15 124h98l32 259h374z" />
    <glyph glyph-name="uni0493" unicode="&#x493;" horiz-adv-x="388" 
d="M95 142h-73l12 96h73l26 208h300l-15 -118h-156l-11 -90h107l-12 -96h-107l-17 -142h-144z" />
    <glyph glyph-name="uni0494" unicode="&#x494;" horiz-adv-x="621" 
d="M530 537h-240l-18 -145q31 13 57.5 18t55.5 5q66 0 105.5 -15.5t62.5 -35.5q4 -4 14.5 -15t21 -30.5t18.5 -47.5t8 -64q0 -48 -18 -91.5t-50 -72.5q-20 -18 -43.5 -28t-46.5 -15t-44 -6t-36 -1q-21 0 -41.5 1.5t-43.5 6.5l14 121q14 -3 29 -5t29 -2q16 0 35 3.5t34 17.5
q5 5 14.5 20.5t9.5 47.5q0 14 -3.5 29.5t-17.5 29.5q-17 15 -37 18.5t-33 3.5q-58 0 -110 -23l-32 -262h-154l82 667h394z" />
    <glyph glyph-name="uni0495" unicode="&#x495;" horiz-adv-x="484" 
d="M111 446h300l-15 -118h-156l-11 -90h16q15 0 35.5 -1.5t42.5 -7t44 -16.5t41 -30q20 -20 35 -53.5t15 -83.5q0 -63 -21 -104.5t-45 -67.5q-43 -46 -98 -63t-114 -19l14 112q24 2 44 11.5t34 23.5q20 20 30 47t10 52q0 24 -7.5 41.5t-19.5 28.5q-11 10 -28 15t-36 5h-5
l-16 -128h-144z" />
    <glyph glyph-name="uni0496" unicode="&#x496;" horiz-adv-x="942" 
d="M1000 667l-275 -328l127 -209h90l-34 -280h-138l18 150h-42l-165 299l-37 -299h-154l37 299l-238 -299h-186l290 354l-190 313h172l162 -286l35 286h154l-35 -286l232 286h177z" />
    <glyph glyph-name="uni0497" unicode="&#x497;" horiz-adv-x="767" 
d="M508 446l-22 -179l152 179h169l-191 -213l72 -117h73l-29 -242h-128l15 126h-33l-109 193l-24 -193h-140l24 193l-159 -193h-181l213 239l-128 207h159l105 -179l22 179h140z" />
    <glyph glyph-name="uni0498" unicode="&#x498;" horiz-adv-x="590" 
d="M127 607q21 16 45 29t47 22q42 16 79.5 20t57.5 4q69 0 109 -17.5t61 -38.5q26 -26 35 -56t9 -60q0 -26 -6.5 -51.5t-25.5 -49.5q-13 -17 -32 -31.5t-43 -23.5q6 -2 28.5 -12t42.5 -33t27.5 -49t7.5 -52q0 -42 -16 -82.5t-48 -72.5q-23 -23 -52.5 -39.5t-67.5 -23.5
l-20 -156h-138l20 154q-18 1 -41.5 6t-50.5 16.5t-56.5 31t-58.5 51.5l89 112q14 -16 32.5 -32t35.5 -27q43 -25 95 -25q32 0 52.5 7t32.5 17q28 22 28 60q0 43 -37 62q-16 8 -42 11t-45 3h-42l15 124h38q22 0 45.5 4t39.5 12q23 11 30.5 27.5t7.5 32.5q0 18 -8.5 31
t-19.5 20q-8 5 -18 8t-19.5 4.5t-16.5 1.5h-10q-42 0 -75 -16q-15 -7 -31.5 -17.5t-28.5 -20.5z" />
    <glyph glyph-name="uni0499" unicode="&#x499;" horiz-adv-x="463" 
d="M82 407q17 11 37.5 21t40.5 17q32 11 61.5 13.5t48.5 2.5q57 0 86.5 -11.5t38.5 -16.5q9 -6 18.5 -14.5t17.5 -20.5t13 -27.5t5 -36.5q0 -27 -9.5 -45.5t-20.5 -29.5q-18 -18 -46 -27q13 -3 26.5 -10t24.5 -18q15 -15 21 -33t6 -39q0 -27 -8.5 -52t-32.5 -48
q-13 -12 -37.5 -26t-62.5 -16l-17 -126h-128l17 125q-12 1 -28.5 4t-36.5 10.5t-43 21t-48 34.5l67 93q10 -8 24 -18.5t34 -19.5t37.5 -13t39.5 -4q11 0 25 1.5t25 7.5t16 15t5 18q0 5 -3.5 16t-20.5 18q-8 3 -24.5 5t-27.5 2h-48l12 98h46q25 0 36 2t16 4q14 5 19 14.5
t5 17.5q0 11 -5 17t-13 11q-5 3 -15.5 6t-30.5 3q-35 0 -65 -13q-5 -2 -19 -9t-32 -20z" />
    <glyph glyph-name="uni049A" unicode="&#x49a;" horiz-adv-x="670" 
d="M272 388l244 279h184l-291 -323l154 -214h90l-34 -280h-138l18 150h-37l-201 302l-37 -302h-154l82 667h154z" />
    <glyph glyph-name="uni049B" unicode="&#x49b;" horiz-adv-x="540" 
d="M111 446h144l-22 -177l168 177h179l-213 -213l85 -117h73l-29 -242h-128l15 126h-31l-128 198l-24 -198h-144z" />
    <glyph glyph-name="uni049C" unicode="&#x49c;" horiz-adv-x="790" 
d="M306 667l-33 -266h59l19 150h104l-20 -163l231 279h184l-279 -323l216 -344h-194l-169 302l-19 -158h-104l19 155h-59l-37 -299h-154l82 667h154z" />
    <glyph glyph-name="uni049D" unicode="&#x49d;" horiz-adv-x="632" 
d="M110 446h144l-21 -173h50l12 99h82l-13 -104l139 178h169l-187 -215l131 -231h-163l-98 193l-14 -119h-82l13 114h-49l-23 -188h-144z" />
    <glyph glyph-name="uni04A0" unicode="&#x4a0;" horiz-adv-x="712" 
d="M348 388l232 279h184l-279 -323l216 -344h-194l-170 302l-36 -302h-154l66 537h-144l16 130h298z" />
    <glyph glyph-name="uni04A1" unicode="&#x4a1;" horiz-adv-x="600" 
d="M158 328h-108l15 118h250l-22 -177l168 177h179l-213 -213l171 -233h-186l-128 198l-24 -198h-144z" />
    <glyph glyph-name="uni04A2" unicode="&#x4a2;" horiz-adv-x="747" 
d="M275 417h266l31 250h154l-66 -537h90l-34 -280h-138l18 150h-106l35 287h-266l-35 -287h-154l82 667h154z" />
    <glyph glyph-name="uni04A3" unicode="&#x4a3;" horiz-adv-x="584" 
d="M111 446h144l-19 -155h161l19 155h144l-41 -330h73l-29 -242h-128l15 126h-89l21 175h-161l-21 -175h-144z" />
    <glyph glyph-name="uni04A4" unicode="&#x4a4;" horiz-adv-x="864" 
d="M915 537h-205l-66 -537h-154l35 283h-266l-35 -283h-154l82 667h154l-31 -254h266l31 254h359z" />
    <glyph glyph-name="uni04A5" unicode="&#x4a5;" horiz-adv-x="655" 
d="M382 175h-161l-21 -175h-144l55 446h144l-19 -155h161l19 155h286l-15 -118h-142l-40 -328h-144z" />
    <glyph glyph-name="uni04AA" unicode="&#x4aa;" horiz-adv-x="605" 
d="M567 21q-41 -21 -90 -30l-20 -157h-138l20 157q-15 2 -35 7t-42 14.5t-45.5 24t-46.5 37.5q-90 90 -90 231q0 88 29 156.5t77 116.5q42 42 108.5 73t158.5 31q39 0 70 -5.5t54.5 -13t39.5 -16t25 -13.5l-19 -163q-10 10 -25 22t-35.5 22t-47 16.5t-59.5 6.5
q-48 0 -87 -14t-71 -49q-31 -33 -45.5 -75t-14.5 -82q0 -42 14.5 -78t37.5 -59t59 -37.5t82 -14.5q50 0 89 17.5t67 40.5z" />
    <glyph glyph-name="uni04AB" unicode="&#x4ab;" horiz-adv-x="431" 
d="M428 301q-5 4 -13.5 10.5t-21 12.5t-29 10.5t-36.5 4.5q-38 0 -58.5 -13t-28.5 -21q-17 -18 -25 -42t-8 -47q0 -27 9 -46.5t23 -32.5q31 -30 78 -30q29 0 52 11t39 25l-16 -132q-11 -7 -24.5 -12t-29.5 -7l-16 -128h-128l16 130q-30 7 -56.5 23.5t-50.5 48.5
q-22 30 -33 65t-11 77q0 64 21 109t49 73q26 26 70.5 48.5t114.5 22.5q34 0 66 -6.5t64 -22.5z" />
    <glyph glyph-name="uni04AE" unicode="&#x4ae;" horiz-adv-x="632" 
d="M274 311l-195 356h176l109 -207l159 207h188l-283 -356l-38 -311h-154z" />
    <glyph glyph-name="uni04AF" unicode="&#x4af;" horiz-adv-x="520" 
d="M204 446l75 -247l137 247h157l-235 -395l-34 -280h-144l34 279l-137 396h147z" />
    <glyph glyph-name="uni04B0" unicode="&#x4b0;" horiz-adv-x="632" 
d="M258 179h-179l15 120h179l1 12l-195 356h176l108 -207l160 207h188l-283 -356l-1 -12h179l-15 -120h-179l-22 -179h-154z" />
    <glyph glyph-name="uni04B1" unicode="&#x4b1;" horiz-adv-x="520" 
d="M205 446l75 -247l137 247h156l-235 -395l-3 -30h140l-13 -100h-140l-18 -150h-144l18 150h-139l13 100h139l3 29l-137 396h148z" />
    <glyph glyph-name="uni04B2" unicode="&#x4b2;" horiz-adv-x="686" 
d="M296 354l-169 313h181l87 -190l133 190h189l-245 -313l125 -224h90l-34 -280h-138l18 150h-41l-119 231l-177 -231h-189z" />
    <glyph glyph-name="uni04B3" unicode="&#x4b3;" horiz-adv-x="620" 
d="M426 241l95 -125h73l-29 -242h-128l15 126h-24l-102 144l-131 -144h-192l234 241l-158 205h182l77 -115l102 115h192z" />
    <glyph glyph-name="uni04B6" unicode="&#x4b6;" horiz-adv-x="674" 
d="M652 667l-65 -537h90l-34 -280h-138l18 150h-107l33 266q-19 -3 -49.5 -6.5t-68.5 -3.5t-66.5 4.5t-49.5 10.5t-34.5 13.5t-22.5 13.5q-60 43 -60 122q0 17 2.5 37l7.5 60l19 150h154l-17 -135q-2 -19 -4 -33.5t-2 -26.5q0 -14 5 -32.5t28 -32.5q17 -11 42 -14t45 -3
q19 0 41.5 2.5t44.5 6.5l34 268h154z" />
    <glyph glyph-name="uni04B7" unicode="&#x4b7;" horiz-adv-x="539" 
d="M515 446l-41 -330h73l-29 -242h-128l15 126h-89l19 156q-24 -8 -45.5 -10.5t-44.5 -2.5q-37 0 -74 9t-62 33q-21 21 -27 45t-6 44q0 11 1.5 24.5t3.5 30.5l14 117h140l-14 -107q-2 -20 -1 -36.5t16 -28.5q12 -10 27 -12.5t26 -2.5q18 0 33 2.5t27 7.5l22 177h144z" />
    <glyph glyph-name="uni04B8" unicode="&#x4b8;" horiz-adv-x="688" 
d="M492 272q-18 -3 -36 -5t-37 -2l-17 -133h-104l16 131q-16 0 -36 1t-41.5 5.5t-43 13t-39.5 22.5q-34 26 -45 58.5t-11 70.5q0 22 2.5 41.5t5.5 39.5l20 152h152l-19 -157q-2 -14 -4 -29.5t-1 -30t5 -27t15 -21.5q9 -8 25 -12.5t31 -3.5l20 162h104l-20 -164q37 -2 72 6
l34 277h154l-82 -667h-154z" />
    <glyph glyph-name="uni04B9" unicode="&#x4b9;" horiz-adv-x="573" 
d="M392 164q-14 -3 -27.5 -5t-27.5 -2l-10 -83h-82l11 81q-14 0 -33.5 0.5t-41 5t-42 13t-34.5 23.5q-9 10 -19 30t-10 53q0 6 1 18t4 37l14 111h136l-13 -107q-3 -22 -3 -41.5t15 -31.5q6 -5 16.5 -8.5t21.5 -1.5l13 116h82l-14 -118q26 0 55 8l22 184h144l-54 -446h-144z
" />
    <glyph glyph-name="uni04BA" unicode="&#x4ba;" horiz-adv-x="656" 
d="M275 412q31 5 62.5 7.5t57.5 2.5q21 0 44.5 -2.5t47.5 -8t46.5 -14.5t40.5 -23q22 -17 40 -46.5t18 -76.5q0 -17 -2.5 -34.5l-4.5 -31.5l-23 -185h-154l19 158q2 14 3.5 25.5t1.5 25.5q0 21 -6 37t-28 28q-20 11 -47.5 14.5t-47.5 3.5q-11 0 -23 -1t-24 -2.5t-22 -2.5
t-15 -2l-35 -284h-154l82 667h154z" />
    <glyph glyph-name="uni04BB" unicode="&#x4bb;" horiz-adv-x="571" 
d="M294 729l-42 -332q15 16 29.5 26t25.5 16q24 13 45 16t46 3q26 0 56.5 -6.5t56.5 -31.5q13 -13 20.5 -27t11.5 -28.5t5 -27.5t1 -23q0 -11 -1 -30t-6 -55l-27 -229h-144l24 193q5 35 5.5 51t0.5 21q0 13 -3.5 27.5t-14.5 26.5q-12 12 -26.5 15.5t-24.5 3.5
q-20 0 -36.5 -5t-30.5 -19q-20 -20 -26.5 -48t-8.5 -46l-26 -220h-144l90 729h144z" />
    <glyph glyph-name="uni04C0" unicode="&#x4c0;" horiz-adv-x="306" 
d="M309 667l-82 -667h-154l82 667h154z" />
    <glyph glyph-name="uni04C1" unicode="&#x4c1;" horiz-adv-x="941" 
d="M427 299l-238 -299h-186l290 354l-190 313h172l162 -286l35 286h154l-35 -286l232 286h176l-274 -328l203 -339h-182l-165 299l-37 -299h-154zM766 840q-29 -63 -82.5 -89.5t-125.5 -26.5q-32 0 -64.5 5t-62.5 25q-22 14 -40.5 36t-29.5 50l111 46q8 -29 30 -46
q15 -11 31 -14.5t30 -3.5t30.5 3t31.5 16q10 8 17.5 20.5t12.5 24.5z" />
    <glyph glyph-name="uni04C2" unicode="&#x4c2;" horiz-adv-x="762" 
d="M506 446l-22 -179l149 179h169l-188 -213l141 -233h-171l-109 193l-24 -193h-140l24 193l-157 -193h-181l211 239l-128 207h159l105 -179l22 179h140zM642 626q-12 -34 -32 -54.5t-38 -31.5q-29 -17 -60 -22t-59 -5q-26 0 -56 4.5t-59 24.5q-17 11 -34 31.5t-27 52.5
l101 36q4 -14 11.5 -25t16.5 -19q13 -11 25.5 -14t27.5 -3q11 0 25 2.5t27 12.5q10 8 18 20t12 26z" />
    <glyph glyph-name="uni04C3" unicode="&#x4c3;" horiz-adv-x="643" 
d="M272 389l256 278h186l-258 -267q37 -5 73 -21t58 -37q30 -29 39.5 -64.5t9.5 -64.5q0 -59 -18 -99t-41 -64q-20 -20 -40.5 -31.5t-41 -17t-41.5 -7t-40 -1.5q-29 0 -51.5 3t-48.5 14l32 118q10 -6 21.5 -9.5t27.5 -3.5q11 0 26.5 3.5t29.5 17.5q11 11 18 28t7 37
q0 24 -9 39.5t-23 25.5q-17 12 -41.5 17t-54.5 5q-23 0 -44.5 -2t-45.5 -7l-34 -279h-154l82 667h154z" />
    <glyph glyph-name="uni04C4" unicode="&#x4c4;" horiz-adv-x="511" 
d="M111 446h144l-22 -177l160 177h171l-214 -221q32 -8 56.5 -25t41.5 -37q24 -30 31 -62t7 -55q0 -54 -18 -97t-48 -75q-43 -46 -98 -63t-114 -19l14 112q24 2 44 11.5t34 23.5q18 17 29 44t11 53t-10.5 44t-24.5 29q-17 13 -39 16t-43 3h-7l-16 -128h-144z" />
    <glyph glyph-name="uni04C7" unicode="&#x4c7;" horiz-adv-x="720" 
d="M275 413h266l31 254h154l-89 -727q-4 -30 -13 -64t-38 -62t-63.5 -35.5t-69.5 -7.5q-48 0 -88 10l14 116q8 -4 17.5 -6t22.5 -2q9 0 21 2.5t23 12.5q11 11 15.5 27.5t6.5 29.5l40 322h-266l-35 -283h-154l82 667h154z" />
    <glyph glyph-name="uni04C8" unicode="&#x4c8;" horiz-adv-x="563" 
d="M111 446h144l-19 -155h161l19 155h144l-61 -496q-2 -15 -5.5 -33t-9.5 -36.5t-15.5 -36t-23.5 -31.5q-15 -14 -32 -22.5t-34.5 -13t-34 -5.5t-29.5 -1q-43 0 -80 10l14 114q18 -6 36 -6q9 0 22.5 2.5t24.5 13.5q7 6 11.5 16t7.5 20.5t4.5 20.5t2.5 16l24 197h-161
l-21 -175h-144z" />
    <glyph glyph-name="uni04D0" unicode="&#x4d0;" horiz-adv-x="677" 
d="M483 126h-252l-63 -126h-166l352 667h142l179 -667h-158zM455 244l-54 235l-112 -235h166zM646 840q-29 -63 -82.5 -89.5t-125.5 -26.5q-32 0 -64.5 5t-62.5 25q-22 14 -40.5 36t-29.5 50l111 46q8 -29 30 -46q15 -11 31 -14.5t30 -3.5t30.5 3t31.5 16q10 8 17.5 20.5
t12.5 24.5z" />
    <glyph glyph-name="uni04D1" unicode="&#x4d1;" horiz-adv-x="598" 
d="M448 446h144l-55 -446h-144l11 51q-12 -14 -28.5 -28t-34.5 -22q-23 -11 -46.5 -13.5t-36.5 -2.5q-42 0 -75.5 12t-62.5 43q-25 26 -42.5 66t-17.5 98q0 62 20 110.5t52 81.5q35 35 76 50t88 15q20 0 42.5 -3t44.5 -14q13 -6 29.5 -18.5t31.5 -33.5zM327 337
q-52 0 -85 -33q-15 -15 -24.5 -38t-9.5 -51t9 -46.5t20 -29.5q16 -17 35 -23.5t41 -6.5q31 0 51 9.5t31 20.5q20 19 29 45t9 51q0 24 -8.5 44t-22.5 33q-10 9 -28 17t-47 8zM569 626q-12 -34 -32 -54.5t-38 -31.5q-29 -17 -60 -22t-59 -5q-26 0 -56 4.5t-59 24.5
q-17 11 -34 31.5t-27 52.5l101 36q4 -14 11.5 -25t16.5 -19q13 -11 25.5 -14t27.5 -3q11 0 25 2.5t27 12.5q10 8 18 20t12 26z" />
    <glyph glyph-name="uni04D2" unicode="&#x4d2;" horiz-adv-x="677" 
d="M483 126h-252l-63 -126h-166l352 667h142l179 -667h-158zM455 244l-54 235l-112 -235h166zM247 811q0 32 23.5 55.5t55.5 23.5t55.5 -23.5t23.5 -55.5t-23.5 -55.5t-55.5 -23.5t-55.5 23.5t-23.5 55.5zM465 811q0 32 23.5 55.5t55.5 23.5t55.5 -23.5t23.5 -55.5
t-23.5 -55.5t-55.5 -23.5t-55.5 23.5t-23.5 55.5z" />
    <glyph glyph-name="uni04D3" unicode="&#x4d3;" horiz-adv-x="598" 
d="M448 446h144l-55 -446h-144l11 51q-12 -14 -28.5 -28t-34.5 -22q-23 -11 -46.5 -13.5t-36.5 -2.5q-42 0 -75.5 12t-62.5 43q-25 26 -42.5 66t-17.5 98q0 62 20 110.5t52 81.5q35 35 76 50t88 15q20 0 42.5 -3t44.5 -14q13 -6 29.5 -18.5t31.5 -33.5zM327 337
q-52 0 -85 -33q-15 -15 -24.5 -38t-9.5 -51t9 -46.5t20 -29.5q16 -17 35 -23.5t41 -6.5q31 0 51 9.5t31 20.5q20 19 29 45t9 51q0 24 -8.5 44t-22.5 33q-10 9 -28 17t-47 8zM166 599q0 32 23.5 55.5t55.5 23.5t55.5 -23.5t23.5 -55.5t-23.5 -55.5t-55.5 -23.5t-55.5 23.5
t-23.5 55.5zM384 599q0 32 23.5 55.5t55.5 23.5t55.5 -23.5t23.5 -55.5t-23.5 -55.5t-55.5 -23.5t-55.5 23.5t-23.5 55.5z" />
    <glyph glyph-name="uni04D4" unicode="&#x4d4;" horiz-adv-x="920" 
d="M491 129h-255l-66 -129h-164l355 667h379l32 -130h-232l35 -129h230l34 -130h-231l41 -148h232l33 -130h-388zM463 247l-55 219l-113 -219h168z" />
    <glyph glyph-name="uni04D5" unicode="&#x4d5;" horiz-adv-x="840" 
d="M817 132q-14 -38 -37.5 -67t-49.5 -46q-18 -12 -38 -18.5t-38 -10t-33.5 -4.5t-25.5 -1q-30 0 -60.5 5t-52.5 15q-14 7 -32 19.5t-34 35.5q-17 -23 -37 -37t-38 -22q-14 -5 -38.5 -10.5t-67.5 -5.5q-14 0 -32 1t-36.5 5t-37 11t-33.5 19q-21 17 -34 43.5t-13 59.5
q0 45 19 75.5t44 47.5q16 11 34 17.5t36 9.5t35.5 4t31.5 1q41 0 67.5 -6.5t48.5 -20.5q5 32 -3.5 51.5t-22.5 30.5t-34.5 16t-43.5 5q-14 0 -42.5 -3.5t-72.5 -18.5l13 110q24 7 56 12.5t71 5.5q37 0 64 -6t46 -16.5t31.5 -24.5t20.5 -30q9 10 23 23.5t35 25.5t49.5 20
t66.5 8q36 0 77 -10.5t76 -45.5q23 -23 41 -61.5t18 -98.5q0 -14 -1 -25t-3 -22h-330q0 -19 6 -42.5t20 -38.5q9 -11 26.5 -19t45.5 -8q32 0 53 14.5t32 36.5zM268 192q-19 0 -37.5 -6t-29.5 -18q-8 -8 -11 -17t-3 -17q0 -19 15 -32q8 -8 22.5 -13.5t37.5 -5.5
q17 0 35.5 4.5t32.5 15.5q18 16 18 39q0 10 -4 17t-10 13q-13 11 -32 15.5t-34 4.5zM706 284q-3 14 -11 29.5t-19 26.5q-10 9 -25.5 15t-35.5 6q-23 0 -39.5 -7t-26.5 -16q-23 -20 -34 -54h191z" />
    <glyph glyph-name="uni04D6" unicode="&#x4d6;" horiz-adv-x="502" 
d="M504 537h-218l-16 -129h210l-16 -130h-210l-18 -148h222l-16 -130h-372l82 667h368zM566 840q-29 -63 -82.5 -89.5t-125.5 -26.5q-32 0 -64.5 5t-62.5 25q-22 14 -40.5 36t-29.5 50l111 46q8 -29 30 -46q15 -11 31 -14.5t30 -3.5t30.5 3t31.5 16q10 8 17.5 20.5
t12.5 24.5z" />
    <glyph glyph-name="uni04D7" unicode="&#x4d7;" horiz-adv-x="542" 
d="M399 283q-2 16 -9.5 32t-19.5 26t-28.5 14t-30.5 4q-26 0 -42.5 -9t-25.5 -18q-8 -9 -15 -21.5t-10 -27.5h181zM204 195q-1 -17 4 -35.5t14 -31.5q14 -20 33 -25.5t36 -5.5q13 0 28 2t29 11q10 7 18 18t13 22l145 -12q-14 -34 -35.5 -63.5t-45.5 -47.5
q-19 -14 -39.5 -22.5t-40.5 -13t-39 -5.5t-34 -1q-21 0 -43 2t-44.5 8t-44.5 18t-42 32q-32 32 -44 71.5t-12 84.5q0 37 7 67.5t18 55t24.5 43.5t27.5 32q41 38 88 50t89 12q57 0 99 -16t68 -41q22 -22 34.5 -50t18 -56.5t5.5 -55.5t-2 -47h-333zM534 626q-12 -34 -32 -54.5
t-38 -31.5q-29 -17 -60 -22t-59 -5q-26 0 -56 4.5t-59 24.5q-17 11 -34 31.5t-27 52.5l101 36q4 -14 11.5 -25t16.5 -19q13 -11 25.5 -14t27.5 -3q11 0 25 2.5t27 12.5q10 8 18 20t12 26z" />
    <glyph glyph-name="uni04D8" unicode="&#x4d8;" horiz-adv-x="765" 
d="M600 375q-3 30 -15 61t-32 53q-19 21 -50.5 36t-79.5 15q-26 0 -50.5 -5t-47.5 -19q-14 -8 -30.5 -22.5t-30.5 -37.5l-148 51q24 42 55 74t64 52q46 29 92.5 39t97.5 10q27 0 58 -3t62.5 -12t63 -25.5t60.5 -44.5t47.5 -59t28.5 -62.5t13.5 -61.5t3.5 -57q0 -51 -9 -94
t-23.5 -78.5t-34 -63.5t-40.5 -48q-28 -27 -58 -44.5t-60.5 -27t-61.5 -13t-62 -3.5q-69 0 -127.5 18t-107.5 68q-28 28 -48.5 64t-32.5 75.5t-15.5 81.5t1.5 83h517zM237 267q5 -35 21 -64t37 -46q15 -12 42 -23t69 -11q38 0 67 9t50 25q23 18 40.5 47t24.5 63h-351z" />
    <glyph glyph-name="afii10846" unicode="&#x4d9;" horiz-adv-x="547" 
d="M395 255q0 19 -6 40.5t-20 35.5q-3 3 -18.5 13t-46.5 10q-19 0 -32 -4.5t-23 -11.5q-17 -12 -30 -35l-137 28q20 38 44 60t41 33q27 17 61.5 27t78.5 10q55 0 98 -16.5t72 -43.5q21 -20 33 -42t18.5 -43.5t8.5 -41t2 -33.5q0 -62 -19 -110.5t-52 -81.5q-21 -21 -43.5 -34
t-45 -19.5t-44.5 -8.5t-43 -2q-42 0 -85.5 11.5t-81.5 50.5q-13 13 -26 32t-22.5 44.5t-14 58t-1.5 73.5h334zM196 166q5 -34 26 -54q15 -15 33 -19t32 -4q8 0 27 2.5t36 15.5q13 10 22 26t13 33h-189z" />
    <glyph glyph-name="uni04DA" unicode="&#x4da;" horiz-adv-x="765" 
d="M600 375q-3 30 -15 61t-32 53q-19 21 -50.5 36t-79.5 15q-26 0 -50.5 -5t-47.5 -19q-14 -8 -30.5 -22.5t-30.5 -37.5l-148 51q24 42 55 74t64 52q46 29 92.5 39t97.5 10q27 0 58 -3t62.5 -12t63 -25.5t60.5 -44.5t47.5 -59t28.5 -62.5t13.5 -61.5t3.5 -57q0 -51 -9 -94
t-23.5 -78.5t-34 -63.5t-40.5 -48q-28 -27 -58 -44.5t-60.5 -27t-61.5 -13t-62 -3.5q-69 0 -127.5 18t-107.5 68q-28 28 -48.5 64t-32.5 75.5t-15.5 81.5t1.5 83h517zM237 267q5 -35 21 -64t37 -46q15 -12 42 -23t69 -11q38 0 67 9t50 25q23 18 40.5 47t24.5 63h-351z
M257 811q0 32 23.5 55.5t55.5 23.5t55.5 -23.5t23.5 -55.5t-23.5 -55.5t-55.5 -23.5t-55.5 23.5t-23.5 55.5zM475 811q0 32 23.5 55.5t55.5 23.5t55.5 -23.5t23.5 -55.5t-23.5 -55.5t-55.5 -23.5t-55.5 23.5t-23.5 55.5z" />
    <glyph glyph-name="uni04DB" unicode="&#x4db;" horiz-adv-x="547" 
d="M395 255q0 19 -6 40.5t-20 35.5q-3 3 -18.5 13t-46.5 10q-19 0 -32 -4.5t-23 -11.5q-17 -12 -30 -35l-137 28q20 38 44 60t41 33q27 17 61.5 27t78.5 10q55 0 98 -16.5t72 -43.5q21 -20 33 -42t18.5 -43.5t8.5 -41t2 -33.5q0 -62 -19 -110.5t-52 -81.5q-21 -21 -43.5 -34
t-45 -19.5t-44.5 -8.5t-43 -2q-42 0 -85.5 11.5t-81.5 50.5q-13 13 -26 32t-22.5 44.5t-14 58t-1.5 73.5h334zM196 166q5 -34 26 -54q15 -15 33 -19t32 -4q8 0 27 2.5t36 15.5q13 10 22 26t13 33h-189zM141 599q0 32 23.5 55.5t55.5 23.5t55.5 -23.5t23.5 -55.5t-23.5 -55.5
t-55.5 -23.5t-55.5 23.5t-23.5 55.5zM359 599q0 32 23.5 55.5t55.5 23.5t55.5 -23.5t23.5 -55.5t-23.5 -55.5t-55.5 -23.5t-55.5 23.5t-23.5 55.5z" />
    <glyph glyph-name="uni04DC" unicode="&#x4dc;" horiz-adv-x="941" 
d="M427 299l-238 -299h-186l290 354l-190 313h172l162 -286l35 286h154l-35 -286l232 286h176l-274 -328l203 -339h-182l-165 299l-37 -299h-154zM368 811q0 32 23.5 55.5t55.5 23.5t55.5 -23.5t23.5 -55.5t-23.5 -55.5t-55.5 -23.5t-55.5 23.5t-23.5 55.5zM586 811
q0 32 23.5 55.5t55.5 23.5t55.5 -23.5t23.5 -55.5t-23.5 -55.5t-55.5 -23.5t-55.5 23.5t-23.5 55.5z" />
    <glyph glyph-name="uni04DD" unicode="&#x4dd;" horiz-adv-x="762" 
d="M506 446l-22 -179l149 179h169l-188 -213l141 -233h-171l-109 193l-24 -193h-140l24 193l-157 -193h-181l211 239l-128 207h159l105 -179l22 179h140zM256 599q0 32 23.5 55.5t55.5 23.5t55.5 -23.5t23.5 -55.5t-23.5 -55.5t-55.5 -23.5t-55.5 23.5t-23.5 55.5zM474 599
q0 32 23.5 55.5t55.5 23.5t55.5 -23.5t23.5 -55.5t-23.5 -55.5t-55.5 -23.5t-55.5 23.5t-23.5 55.5z" />
    <glyph glyph-name="uni04DE" unicode="&#x4de;" horiz-adv-x="590" 
d="M127 607q21 16 45 29t47 22q42 16 79.5 20t57.5 4q69 0 109 -17.5t61 -38.5q26 -26 35 -56t9 -60q0 -26 -6.5 -51.5t-25.5 -49.5q-13 -17 -32 -31.5t-43 -23.5q6 -2 28.5 -12.5t42.5 -32.5q20 -23 27.5 -48.5t7.5 -50.5q0 -43 -16 -84t-48 -73q-23 -23 -47 -36t-49 -20.5
t-50.5 -9.5t-50.5 -2q-35 0 -78.5 5.5t-86.5 25.5q-26 12 -53 31.5t-50 45.5l89 112q14 -16 32.5 -32t35.5 -27q43 -25 95 -25q32 0 52.5 7t32.5 17q28 22 28 62q0 41 -37 60q-16 8 -42 11t-45 3h-42l15 124h38q22 0 45.5 4t39.5 12q23 11 30.5 27.5t7.5 32.5q0 18 -8.5 31
t-19.5 20q-8 5 -18 8t-19.5 4.5t-16.5 1.5h-10q-42 0 -75 -16q-15 -7 -31.5 -17.5t-28.5 -20.5zM167 811q0 32 23.5 55.5t55.5 23.5t55.5 -23.5t23.5 -55.5t-23.5 -55.5t-55.5 -23.5t-55.5 23.5t-23.5 55.5zM385 811q0 32 23.5 55.5t55.5 23.5t55.5 -23.5t23.5 -55.5
t-23.5 -55.5t-55.5 -23.5t-55.5 23.5t-23.5 55.5z" />
    <glyph glyph-name="uni04DF" unicode="&#x4df;" horiz-adv-x="463" 
d="M82 407q17 11 37.5 21t40.5 17q32 11 61.5 13.5t48.5 2.5q57 0 86.5 -11.5t38.5 -16.5q9 -6 18.5 -14.5t17.5 -20.5t13 -27.5t5 -36.5q0 -27 -9.5 -45.5t-20.5 -29.5q-18 -18 -46 -27q16 -4 28.5 -11.5t22.5 -16.5q17 -17 22 -33t5 -36q0 -76 -56 -115q-33 -23 -73.5 -29
t-75.5 -6q-36 0 -68.5 4t-64.5 17q-23 9 -46 23.5t-41 29.5l67 93q10 -8 24 -18.5t34 -19.5t37.5 -13t39.5 -4q11 0 25 1.5t25 7.5t16 15t5 18q0 5 -3.5 16t-20.5 18q-8 3 -24.5 5t-27.5 2h-48l12 98h46q25 0 36 2t16 4q14 5 19 14.5t5 17.5q0 11 -5 17t-13 11q-5 3 -15.5 6
t-30.5 3q-35 0 -65 -13q-5 -2 -19 -9t-32 -20zM81 599q0 32 23.5 55.5t55.5 23.5t55.5 -23.5t23.5 -55.5t-23.5 -55.5t-55.5 -23.5t-55.5 23.5t-23.5 55.5zM299 599q0 32 23.5 55.5t55.5 23.5t55.5 -23.5t23.5 -55.5t-23.5 -55.5t-55.5 -23.5t-55.5 23.5t-23.5 55.5z" />
    <glyph glyph-name="uni04E2" unicode="&#x4e2;" horiz-adv-x="743" 
d="M306 667l-54 -432l361 432h136l-82 -667h-154l54 433l-360 -433h-137l82 667h154zM278 845h388l-12 -92h-388z" />
    <glyph glyph-name="uni04E3" unicode="&#x4e3;" horiz-adv-x="580" 
d="M255 446l-31 -253l219 253h134l-55 -446h-144l32 257l-220 -257h-134l55 446h144zM170 633h380l-11 -90h-380z" />
    <glyph glyph-name="uni04E4" unicode="&#x4e4;" horiz-adv-x="743" 
d="M306 667l-54 -432l361 432h136l-82 -667h-154l54 433l-360 -433h-137l82 667h154zM280 811q0 32 23.5 55.5t55.5 23.5t55.5 -23.5t23.5 -55.5t-23.5 -55.5t-55.5 -23.5t-55.5 23.5t-23.5 55.5zM498 811q0 32 23.5 55.5t55.5 23.5t55.5 -23.5t23.5 -55.5t-23.5 -55.5
t-55.5 -23.5t-55.5 23.5t-23.5 55.5z" />
    <glyph glyph-name="uni04E5" unicode="&#x4e5;" horiz-adv-x="580" 
d="M255 446l-31 -253l219 253h134l-55 -446h-144l32 257l-220 -257h-134l55 446h144zM164 599q0 32 23.5 55.5t55.5 23.5t55.5 -23.5t23.5 -55.5t-23.5 -55.5t-55.5 -23.5t-55.5 23.5t-23.5 55.5zM382 599q0 32 23.5 55.5t55.5 23.5t55.5 -23.5t23.5 -55.5t-23.5 -55.5
t-55.5 -23.5t-55.5 23.5t-23.5 55.5z" />
    <glyph glyph-name="uni04E6" unicode="&#x4e6;" horiz-adv-x="810" 
d="M464 682q48 0 86.5 -7.5t69.5 -20t53.5 -28t39.5 -31.5q43 -42 68.5 -102.5t25.5 -134.5q0 -36 -6.5 -72.5t-19 -71.5t-32 -67t-45.5 -59q-32 -32 -66.5 -52.5t-70.5 -31.5t-71 -15t-68 -4q-31 0 -63.5 3.5t-65 14t-64 29t-61.5 48.5q-17 18 -34 41t-30.5 52t-21.5 64
t-8 76q0 88 31 155.5t79 112.5q32 30 66.5 50t70 31t70.5 15.5t67 4.5zM458 540q-98 0 -159 -64q-29 -31 -45 -71t-16 -82q0 -46 15.5 -81.5t38.5 -58.5q34 -35 72.5 -45.5t73.5 -10.5q17 0 35.5 2t37.5 8t38.5 17t37.5 30q27 28 44.5 70t17.5 94q0 32 -10 70t-43 70t-70 42
t-68 10zM297 811q0 32 23.5 55.5t55.5 23.5t55.5 -23.5t23.5 -55.5t-23.5 -55.5t-55.5 -23.5t-55.5 23.5t-23.5 55.5zM515 811q0 32 23.5 55.5t55.5 23.5t55.5 -23.5t23.5 -55.5t-23.5 -55.5t-55.5 -23.5t-55.5 23.5t-23.5 55.5z" />
    <glyph glyph-name="uni04E7" unicode="&#x4e7;" horiz-adv-x="592" 
d="M337 461q54 0 104 -18t83 -51q26 -26 43 -64t17 -87t-18.5 -98t-53.5 -85q-24 -24 -49.5 -38.5t-52 -22t-53 -10t-50.5 -2.5q-21 0 -45 2t-48 9t-48 20.5t-45 35.5q-26 27 -43.5 67t-17.5 90q0 49 18 95t54 81q37 36 90 56t115 20zM315 107q27 0 48.5 9t35.5 23
q19 18 28 43.5t9 51.5t-8.5 45.5t-21.5 31.5q-14 14 -36 21t-42 7t-41.5 -7.5t-38.5 -23.5q-20 -18 -30 -43.5t-10 -51.5q0 -23 8 -42.5t21 -33.5q11 -11 30 -20.5t48 -9.5zM161 599q0 32 23.5 55.5t55.5 23.5t55.5 -23.5t23.5 -55.5t-23.5 -55.5t-55.5 -23.5t-55.5 23.5
t-23.5 55.5zM379 599q0 32 23.5 55.5t55.5 23.5t55.5 -23.5t23.5 -55.5t-23.5 -55.5t-55.5 -23.5t-55.5 23.5t-23.5 55.5z" />
    <glyph glyph-name="uni04E8" unicode="&#x4e8;" horiz-adv-x="810" 
d="M464 682q48 0 86.5 -7.5t69.5 -20t53.5 -28t39.5 -31.5q43 -42 68.5 -102.5t25.5 -134.5q0 -36 -6.5 -72.5t-19 -71.5t-32 -67t-45.5 -59q-32 -32 -66.5 -52.5t-70.5 -31.5t-71 -15t-68 -4q-31 0 -63.5 3.5t-65 14t-64 29t-61.5 48.5q-17 18 -34 41t-30.5 52t-21.5 64
t-8 76q0 88 31 155.5t79 112.5q32 30 66.5 50t70 31t70.5 15.5t67 4.5zM642 399q-2 18 -14 48t-46 56q-28 22 -60 29.5t-66 7.5q-35 0 -69.5 -9t-65.5 -34q-21 -17 -38.5 -41.5t-27.5 -56.5h387zM247 269q8 -37 26 -63.5t39 -42.5q22 -17 53 -26.5t70 -9.5q36 0 69 8t59 26
q24 17 44 44.5t30 63.5h-390z" />
    <glyph glyph-name="uni04E9" unicode="&#x4e9;" horiz-adv-x="592" 
d="M337 461q54 0 104 -18t83 -51q26 -26 43 -64t17 -87t-18.5 -98t-53.5 -85q-24 -24 -49.5 -38.5t-52 -22t-53 -10t-50.5 -2.5q-21 0 -45 2t-48 9t-48 20.5t-45 35.5q-26 27 -43.5 67t-17.5 90q0 49 18 95t54 81q37 36 90 56t115 20zM431 266q-4 14 -12.5 30t-20.5 27
q-14 12 -33.5 17t-36.5 5q-21 0 -39.5 -6t-35.5 -21q-10 -9 -19 -22t-14 -30h211zM210 188q4 -20 13.5 -35.5t20.5 -25.5q29 -26 73 -26q17 0 36 5t33 16q15 11 26 28.5t16 37.5h-218z" />
    <glyph glyph-name="uni04EA" unicode="&#x4ea;" horiz-adv-x="810" 
d="M464 682q48 0 86.5 -7.5t69.5 -20t53.5 -28t39.5 -31.5q43 -42 68.5 -102.5t25.5 -134.5q0 -36 -6.5 -72.5t-19 -71.5t-32 -67t-45.5 -59q-32 -32 -66.5 -52.5t-70.5 -31.5t-71 -15t-68 -4q-31 0 -63.5 3.5t-65 14t-64 29t-61.5 48.5q-17 18 -34 41t-30.5 52t-21.5 64
t-8 76q0 88 31 155.5t79 112.5q32 30 66.5 50t70 31t70.5 15.5t67 4.5zM642 399q-2 18 -14 48t-46 56q-28 22 -60 29.5t-66 7.5q-35 0 -69.5 -9t-65.5 -34q-21 -17 -38.5 -41.5t-27.5 -56.5h387zM247 269q8 -37 26 -63.5t39 -42.5q22 -17 53 -26.5t70 -9.5q36 0 69 8t59 26
q24 17 44 44.5t30 63.5h-390zM297 811q0 32 23.5 55.5t55.5 23.5t55.5 -23.5t23.5 -55.5t-23.5 -55.5t-55.5 -23.5t-55.5 23.5t-23.5 55.5zM515 811q0 32 23.5 55.5t55.5 23.5t55.5 -23.5t23.5 -55.5t-23.5 -55.5t-55.5 -23.5t-55.5 23.5t-23.5 55.5z" />
    <glyph glyph-name="uni04EB" unicode="&#x4eb;" horiz-adv-x="592" 
d="M337 461q54 0 104 -18t83 -51q26 -26 43 -64t17 -87t-18.5 -98t-53.5 -85q-24 -24 -49.5 -38.5t-52 -22t-53 -10t-50.5 -2.5q-21 0 -45 2t-48 9t-48 20.5t-45 35.5q-26 27 -43.5 67t-17.5 90q0 49 18 95t54 81q37 36 90 56t115 20zM431 266q-4 14 -12.5 30t-20.5 27
q-14 12 -33.5 17t-36.5 5q-21 0 -39.5 -6t-35.5 -21q-10 -9 -19 -22t-14 -30h211zM210 188q4 -20 13.5 -35.5t20.5 -25.5q29 -26 73 -26q17 0 36 5t33 16q15 11 26 28.5t16 37.5h-218zM171 599q0 32 23.5 55.5t55.5 23.5t55.5 -23.5t23.5 -55.5t-23.5 -55.5t-55.5 -23.5
t-55.5 23.5t-23.5 55.5zM389 599q0 32 23.5 55.5t55.5 23.5t55.5 -23.5t23.5 -55.5t-23.5 -55.5t-55.5 -23.5t-55.5 23.5t-23.5 55.5z" />
    <glyph glyph-name="uni04EE" unicode="&#x4ee;" horiz-adv-x="622" 
d="M250 667l102 -308l172 308h170l-387 -667h-166l117 196l-176 471h168zM205 845h388l-12 -92h-388z" />
    <glyph glyph-name="uni04EF" unicode="&#x4ef;" horiz-adv-x="583" 
d="M224 57l-173 389h164l99 -244l150 244h169l-431 -675h-162zM153 633h380l-11 -90h-380z" />
    <glyph glyph-name="uni04F0" unicode="&#x4f0;" horiz-adv-x="622" 
d="M250 667l102 -308l172 308h170l-387 -667h-166l117 196l-176 471h168zM202 811q0 32 23.5 55.5t55.5 23.5t55.5 -23.5t23.5 -55.5t-23.5 -55.5t-55.5 -23.5t-55.5 23.5t-23.5 55.5zM420 811q0 32 23.5 55.5t55.5 23.5t55.5 -23.5t23.5 -55.5t-23.5 -55.5t-55.5 -23.5
t-55.5 23.5t-23.5 55.5z" />
    <glyph glyph-name="uni04F1" unicode="&#x4f1;" horiz-adv-x="583" 
d="M224 57l-173 389h164l99 -244l150 244h169l-431 -675h-162zM161 599q0 32 23.5 55.5t55.5 23.5t55.5 -23.5t23.5 -55.5t-23.5 -55.5t-55.5 -23.5t-55.5 23.5t-23.5 55.5zM379 599q0 32 23.5 55.5t55.5 23.5t55.5 -23.5t23.5 -55.5t-23.5 -55.5t-55.5 -23.5t-55.5 23.5
t-23.5 55.5z" />
    <glyph glyph-name="uni04F2" unicode="&#x4f2;" horiz-adv-x="622" 
d="M250 667l102 -308l172 308h170l-387 -667h-166l117 196l-176 471h168zM437 859l-156 -135l-49 48l128 153zM624 859l-156 -135l-50 48l128 153z" />
    <glyph glyph-name="uni04F3" unicode="&#x4f3;" horiz-adv-x="583" 
d="M224 57l-173 389h164l99 -244l150 244h169l-431 -675h-162zM381 644l-151 -135l-46 48l123 153zM562 644l-151 -135l-47 48l123 152z" />
    <glyph glyph-name="uni04F4" unicode="&#x4f4;" horiz-adv-x="646" 
d="M449 266q-19 -3 -49.5 -6.5t-68.5 -3.5t-66.5 4.5t-49.5 10.5t-34.5 13.5t-22.5 13.5q-60 43 -60 122q0 17 2.5 37l7.5 60l19 150h154l-17 -135q-2 -19 -4 -33.5t-2 -26.5q0 -14 5 -32.5t28 -32.5q17 -11 42 -14t45 -3q19 0 41.5 2.5t44.5 6.5l34 268h154l-82 -667h-154z
M212 811q0 32 23.5 55.5t55.5 23.5t55.5 -23.5t23.5 -55.5t-23.5 -55.5t-55.5 -23.5t-55.5 23.5t-23.5 55.5zM430 811q0 32 23.5 55.5t55.5 23.5t55.5 -23.5t23.5 -55.5t-23.5 -55.5t-55.5 -23.5t-55.5 23.5t-23.5 55.5z" />
    <glyph glyph-name="uni04F5" unicode="&#x4f5;" horiz-adv-x="518" 
d="M335 156q-24 -8 -45.5 -10.5t-44.5 -2.5q-37 0 -74 9t-62 33q-21 21 -27 45t-6 44q0 11 1.5 24.5t3.5 30.5l14 117h140l-14 -107q-2 -20 -1 -36.5t16 -28.5q12 -10 27 -12.5t26 -2.5q18 0 33 2.5t27 7.5l22 177h144l-55 -446h-144zM121 599q0 32 23.5 55.5t55.5 23.5
t55.5 -23.5t23.5 -55.5t-23.5 -55.5t-55.5 -23.5t-55.5 23.5t-23.5 55.5zM339 599q0 32 23.5 55.5t55.5 23.5t55.5 -23.5t23.5 -55.5t-23.5 -55.5t-55.5 -23.5t-55.5 23.5t-23.5 55.5z" />
    <glyph glyph-name="uni04F8" unicode="&#x4f8;" horiz-adv-x="847" 
d="M153 667h152l-32 -261h91q52 0 94.5 -14.5t68.5 -40.5q16 -15 25.5 -32.5t15 -35t7 -33.5t1.5 -29q0 -64 -20 -103t-41 -59q-41 -39 -97.5 -49t-118.5 -10h-229zM238 123h64q44 0 63.5 6.5t21.5 8.5q13 8 25 25.5t12 46.5q0 25 -10 38.5t-19 19.5q-14 10 -34 12.5
t-43 2.5h-60zM850 667l-82 -667h-154l82 667h154zM312 811q0 32 23.5 55.5t55.5 23.5t55.5 -23.5t23.5 -55.5t-23.5 -55.5t-55.5 -23.5t-55.5 23.5t-23.5 55.5zM530 811q0 32 23.5 55.5t55.5 23.5t55.5 -23.5t23.5 -55.5t-23.5 -55.5t-55.5 -23.5t-55.5 23.5t-23.5 55.5z
" />
    <glyph glyph-name="uni04F9" unicode="&#x4f9;" horiz-adv-x="703" 
d="M255 446l-19 -153h74q31 0 65.5 -7t62.5 -35q23 -23 29 -49t6 -46q0 -35 -11 -65t-31 -49q-15 -14 -49.5 -28t-101.5 -14h-224l55 446h144zM266 102q11 0 25 2t22 7q6 4 13 13t7 26q0 7 -2.5 15.5t-11.5 15.5q-8 6 -20.5 8t-29.5 2h-45l-11 -89h53zM700 446l-55 -446
h-144l55 446h144zM225 599q0 32 23.5 55.5t55.5 23.5t55.5 -23.5t23.5 -55.5t-23.5 -55.5t-55.5 -23.5t-55.5 23.5t-23.5 55.5zM443 599q0 32 23.5 55.5t55.5 23.5t55.5 -23.5t23.5 -55.5t-23.5 -55.5t-55.5 -23.5t-55.5 23.5t-23.5 55.5z" />
    </font>
</defs>
</svg>
