<svg xmlns="http://www.w3.org/2000/svg" width="21" height="21" viewBox="0 0 21 21" fill="none">
  <g clip-path="url(#clip0_126_94)">
    <path d="M19.8739 3.56738C19.6278 3.27201 19.3196 3.03446 18.9713 2.87159C18.6231 2.70872 18.2432 2.62453 17.8588 2.625H3.71175L3.675 2.31787C3.59979 1.67949 3.29296 1.09089 2.81268 0.663668C2.3324 0.236445 1.71205 0.000299069 1.06925 0L0.875 0C0.642936 0 0.420376 0.0921872 0.256282 0.256282C0.0921873 0.420376 0 0.642936 0 0.875C0 1.10706 0.0921873 1.32962 0.256282 1.49372C0.420376 1.65781 0.642936 1.75 0.875 1.75H1.06925C1.28357 1.75003 1.49042 1.82871 1.65058 1.97113C1.81073 2.11354 1.91305 2.30978 1.93813 2.52262L3.14213 12.7601C3.26712 13.8248 3.77867 14.8066 4.57967 15.519C5.38067 16.2315 6.41537 16.625 7.48738 16.625H16.625C16.8571 16.625 17.0796 16.5328 17.2437 16.3687C17.4078 16.2046 17.5 15.9821 17.5 15.75C17.5 15.5179 17.4078 15.2954 17.2437 15.1313C17.0796 14.9672 16.8571 14.875 16.625 14.875H7.48738C6.9458 14.8735 6.41795 14.7045 5.97619 14.3912C5.53444 14.0779 5.2004 13.6356 5.01988 13.125H15.4499C16.4756 13.1251 17.4688 12.7647 18.2558 12.1069C19.0429 11.4491 19.5738 10.5356 19.7558 9.52612L20.4426 5.71637C20.5112 5.33838 20.4958 4.94993 20.3975 4.57856C20.2992 4.20718 20.1204 3.86197 19.8739 3.56738Z" fill="white"/>
    <path d="M6.125 21C7.0915 21 7.875 20.2165 7.875 19.25C7.875 18.2835 7.0915 17.5 6.125 17.5C5.1585 17.5 4.375 18.2835 4.375 19.25C4.375 20.2165 5.1585 21 6.125 21Z" fill="white"/>
    <path d="M14.875 21C15.8415 21 16.625 20.2165 16.625 19.25C16.625 18.2835 15.8415 17.5 14.875 17.5C13.9085 17.5 13.125 18.2835 13.125 19.25C13.125 20.2165 13.9085 21 14.875 21Z" fill="white"/>
  </g>
  <defs>
    <clipPath id="clip0_126_94">
      <rect width="21" height="21" fill="white"/>
    </clipPath>
  </defs>
</svg>