<svg xmlns="http://www.w3.org/2000/svg" width="40" height="42" viewBox="0 0 40 42" fill="none">
  <path d="M18.1058 1.66728C19.1887 0.71409 20.8113 0.71409 21.8942 1.66728C22.6994 2.37611 23.8331 2.576 24.8323 2.18534C26.1759 1.66001 27.7005 2.21495 28.3921 3.48103C28.9064 4.42253 29.9033 4.9981 30.9758 4.97273C32.4181 4.93862 33.661 5.98156 33.8778 7.40782C34.0391 8.46844 34.779 9.35027 35.7955 9.69325C37.1625 10.1545 37.9737 11.5596 37.6897 12.974C37.4785 14.0258 37.8722 15.1076 38.7101 15.7775C39.8368 16.6785 40.1186 18.2763 39.3679 19.5083C38.8097 20.4244 38.8097 21.5756 39.3679 22.4917C40.1186 23.7237 39.8368 25.3216 38.7101 26.2225C37.8722 26.8924 37.4785 27.9742 37.6897 29.026C37.9737 30.4404 37.1625 31.8455 35.7955 32.3068C34.779 32.6497 34.0391 33.5316 33.8778 34.5922C33.661 36.0184 32.4181 37.0614 30.9758 37.0273C29.9033 37.0019 28.9064 37.5775 28.3921 38.519C27.7005 39.785 26.1759 40.34 24.8323 39.8147C23.8331 39.424 22.6994 39.6239 21.8942 40.3327C20.8113 41.2859 19.1887 41.2859 18.1058 40.3327C17.3006 39.6239 16.1669 39.424 15.1677 39.8147C13.8241 40.34 12.2995 39.785 11.6079 38.519C11.0936 37.5775 10.0967 37.0019 9.02418 37.0273C7.58193 37.0614 6.339 36.0184 6.12216 34.5922C5.9609 33.5316 5.22096 32.6497 4.20445 32.3068C2.83752 31.8455 2.02626 30.4404 2.31029 29.026C2.52151 27.9742 2.1278 26.8924 1.2899 26.2225C0.163153 25.3216 -0.118596 23.7237 0.632069 22.4917C1.19029 21.5756 1.19029 20.4244 0.632069 19.5083C-0.118596 18.2763 0.163152 16.6784 1.2899 15.7775C2.1278 15.1076 2.52151 14.0258 2.31029 12.974C2.02626 11.5596 2.83752 10.1545 4.20445 9.69325C5.22096 9.35027 5.9609 8.46844 6.12216 7.40782C6.339 5.98156 7.58193 4.93862 9.02418 4.97273C10.0967 4.9981 11.0936 4.42253 11.6079 3.48103C12.2995 2.21495 13.8241 1.66001 15.1677 2.18534C16.1669 2.576 17.3006 2.37611 18.1058 1.66728Z" fill="#137039"/>
</svg>