<svg xmlns="http://www.w3.org/2000/svg" width="19" height="26" viewBox="0 0 19 26" fill="none">
  <path d="M0 3.89964V22.0996C0 22.4444 0.133456 22.7751 0.370994 23.0188C0.608545 23.2627 0.930721 23.3996 1.26667 23.3996H5.06667V20.7996H2.53333V5.19963H5.06667V2.59964H1.26667C0.930721 2.59964 0.608545 2.73661 0.370994 2.98041C0.133456 3.2242 0 3.55486 0 3.89964ZM18.0399 2.63864L7.90653 0.0386414C7.71983 -0.00914656 7.52501 -0.0126566 7.33679 0.0283714C7.14856 0.0694123 6.97199 0.153899 6.82037 0.275449C6.66875 0.396986 6.54601 0.552388 6.46165 0.72985C6.37729 0.907313 6.33333 1.10217 6.33333 1.29964V24.6996C6.33289 24.8972 6.3764 25.0923 6.46063 25.27C6.54487 25.4479 6.66761 25.6035 6.81935 25.725C6.9711 25.8467 7.14793 25.9312 7.33641 25.972C7.52476 26.0129 7.71983 26.009 7.90653 25.9606L18.0399 23.3606C18.314 23.2904 18.5574 23.1282 18.7315 22.8997C18.9054 22.6712 18.9999 22.3896 19 22.0996V3.89964C18.9999 3.60966 18.9054 3.32803 18.7315 3.09954C18.5574 2.87105 18.314 2.70881 18.0399 2.63864ZM12.6667 13.244C12.6521 13.5788 12.5123 13.8948 12.2763 14.1263C12.0403 14.358 11.7264 14.4872 11.4 14.4872C11.0736 14.4872 10.7597 14.358 10.5237 14.1263C10.2877 13.8948 10.1479 13.5788 10.1333 13.244V12.7539C10.1335 12.4092 10.2671 12.0786 10.5047 11.8349C10.7425 11.5912 11.0647 11.4544 11.4006 11.4546C11.7366 11.4547 12.0587 11.5918 12.2962 11.8359C12.5335 12.0797 12.6668 12.4105 12.6667 12.7552V13.244Z" fill="#137039"/>
</svg>