<svg xmlns="http://www.w3.org/2000/svg" width="27" height="22" viewBox="0 0 27 22" fill="none">
  <path d="M6.15197 16.5859L6.15195 16.5859L6.14949 16.5884L5.31784 17.42V1.90724C5.31784 1.61358 5.20119 1.33195 4.99354 1.1243C4.78589 0.916656 4.50426 0.8 4.2106 0.8C3.91694 0.8 3.63531 0.916656 3.42766 1.1243C3.22001 1.33195 3.10336 1.61358 3.10336 1.90724V17.42L2.27171 16.5884L2.27173 16.5884L2.26923 16.5859C2.0604 16.3842 1.78071 16.2726 1.4904 16.2752C1.20008 16.2777 0.922369 16.3941 0.717078 16.5994C0.511786 16.8047 0.395338 17.0824 0.392815 17.3727C0.390293 17.6631 0.501896 17.9428 0.70359 18.1516L0.703568 18.1516L0.706026 18.1541L3.42776 20.8758L3.42778 20.8758C3.63542 21.0834 3.917 21.2 4.2106 21.2C4.5042 21.2 4.78578 21.0834 4.99342 20.8758L4.99344 20.8758L7.71518 18.1541L7.7152 18.1541L7.71761 18.1516C7.9193 17.9428 8.03091 17.6631 8.02839 17.3727C8.02586 17.0824 7.90942 16.8047 7.70412 16.5994C7.49883 16.3941 7.22112 16.2777 6.9308 16.2752C6.64049 16.2726 6.3608 16.3842 6.15197 16.5859Z" fill="#C3C3C3" stroke="#C3C3C3" stroke-width="0.4"/>
  <path d="M11.4688 14.8494H22.3557C22.6494 14.8494 22.931 14.7328 23.1386 14.5251C23.3463 14.3175 23.4629 14.0359 23.4629 13.7422C23.4629 13.4485 23.3463 13.1669 23.1386 12.9593C22.931 12.7516 22.6494 12.635 22.3557 12.635H11.4688C11.1751 12.635 10.8935 12.7516 10.6858 12.9593C10.4782 13.1669 10.3615 13.4485 10.3615 13.7422C10.3615 14.0359 10.4782 14.3175 10.6858 14.5251C10.8935 14.7328 11.1751 14.8494 11.4688 14.8494Z" fill="#C3C3C3" stroke="#C3C3C3" stroke-width="0.4"/>
  <path d="M25.0774 18.0786H11.4688C11.1751 18.0786 10.8935 18.1952 10.6858 18.4029C10.4782 18.6105 10.3615 18.8921 10.3615 19.1858C10.3615 19.4795 10.4782 19.7611 10.6858 19.9687C10.8935 20.1764 11.1751 20.2931 11.4688 20.2931H25.0774C25.3711 20.2931 25.6527 20.1764 25.8604 19.9687C26.068 19.7611 26.1847 19.4795 26.1847 19.1858C26.1847 18.8921 26.068 18.6105 25.8604 18.4029C25.6527 18.1952 25.3711 18.0786 25.0774 18.0786Z" fill="#C3C3C3" stroke="#C3C3C3" stroke-width="0.4"/>
  <path d="M11.4688 9.40609H19.634C19.9276 9.40609 20.2093 9.28943 20.4169 9.08178C20.6246 8.87414 20.7412 8.5925 20.7412 8.29885C20.7412 8.00519 20.6246 7.72355 20.4169 7.51591C20.2093 7.30826 19.9276 7.1916 19.634 7.1916H11.4688C11.1751 7.1916 10.8935 7.30826 10.6858 7.51591C10.4782 7.72355 10.3615 8.00519 10.3615 8.29885C10.3615 8.5925 10.4782 8.87414 10.6858 9.08179C10.8935 9.28943 11.1751 9.40609 11.4688 9.40609Z" fill="#C3C3C3" stroke="#C3C3C3" stroke-width="0.4"/>
  <path d="M11.4688 3.96249H16.005C16.2986 3.96249 16.5803 3.84583 16.7879 3.63818C16.9956 3.43053 17.1122 3.1489 17.1122 2.85524C17.1122 2.56158 16.9956 2.27995 16.7879 2.0723C16.5803 1.86465 16.2986 1.748 16.005 1.748H11.4688C11.1751 1.748 10.8935 1.86465 10.6858 2.0723C10.4782 2.27995 10.3615 2.56158 10.3615 2.85524C10.3615 3.1489 10.4782 3.43053 10.6858 3.63818C10.8935 3.84583 11.1751 3.96249 11.4688 3.96249Z" fill="#C3C3C3" stroke="#C3C3C3" stroke-width="0.4"/>
</svg>