<svg xmlns="http://www.w3.org/2000/svg" width="27" height="22" viewBox="0 0 27 22" fill="none">
  <path d="M6.15197 5.41406L6.15195 5.41408L6.14949 5.41163L5.31784 4.57998V20.0928C5.31784 20.3864 5.20119 20.668 4.99354 20.8757C4.78589 21.0833 4.50426 21.2 4.2106 21.2C3.91694 21.2 3.63531 21.0833 3.42766 20.8757C3.22001 20.668 3.10336 20.3864 3.10336 20.0928V4.57998L2.27171 5.41163L2.27173 5.41165L2.26923 5.41406C2.0604 5.61576 1.78071 5.72736 1.4904 5.72484C1.20008 5.72231 0.922369 5.60586 0.717078 5.40057C0.511786 5.19528 0.395338 4.91757 0.392815 4.62725C0.390293 4.33694 0.501896 4.05725 0.70359 3.84842L0.703568 3.8484L0.706026 3.84594L3.42776 1.12421L3.42778 1.12419C3.63542 0.916611 3.917 0.799999 4.2106 0.799999C4.5042 0.799999 4.78578 0.916611 4.99342 1.12419L4.99344 1.12421L7.71518 3.84594L7.7152 3.84592L7.71761 3.84842C7.9193 4.05725 8.03091 4.33694 8.02839 4.62725C8.02586 4.91757 7.90942 5.19528 7.70412 5.40057C7.49883 5.60587 7.22112 5.72231 6.9308 5.72484C6.64049 5.72736 6.3608 5.61576 6.15197 5.41406Z" fill="#C3C3C3" stroke="#C3C3C3" stroke-width="0.4"/>
  <path d="M11.4688 7.15055H22.3557C22.6494 7.15055 22.931 7.26721 23.1386 7.47485C23.3463 7.6825 23.4629 7.96414 23.4629 8.2578C23.4629 8.55145 23.3463 8.83309 23.1386 9.04074C22.931 9.24838 22.6494 9.36504 22.3557 9.36504H11.4688C11.1751 9.36504 10.8935 9.24838 10.6858 9.04074C10.4782 8.83309 10.3615 8.55145 10.3615 8.2578C10.3615 7.96414 10.4782 7.6825 10.6858 7.47485C10.8935 7.26721 11.1751 7.15055 11.4688 7.15055Z" fill="#C3C3C3" stroke="#C3C3C3" stroke-width="0.4"/>
  <path d="M25.0774 3.92144H11.4688C11.1751 3.92144 10.8935 3.80478 10.6858 3.59713C10.4782 3.38948 10.3615 3.10785 10.3615 2.81419C10.3615 2.52053 10.4782 2.2389 10.6858 2.03125C10.8935 1.8236 11.1751 1.70695 11.4688 1.70695H25.0774C25.3711 1.70695 25.6527 1.8236 25.8604 2.03125C26.068 2.2389 26.1847 2.52053 26.1847 2.81419C26.1847 3.10785 26.068 3.38948 25.8604 3.59713C25.6527 3.80478 25.3711 3.92144 25.0774 3.92144Z" fill="#C3C3C3" stroke="#C3C3C3" stroke-width="0.4"/>
  <path d="M11.4688 12.5939H19.634C19.9276 12.5939 20.2093 12.7106 20.4169 12.9182C20.6246 13.1259 20.7412 13.4075 20.7412 13.7012C20.7412 13.9948 20.6246 14.2764 20.4169 14.4841C20.2093 14.6917 19.9276 14.8084 19.634 14.8084H11.4688C11.1751 14.8084 10.8935 14.6917 10.6858 14.4841C10.4782 14.2764 10.3615 13.9948 10.3615 13.7012C10.3615 13.4075 10.4782 13.1259 10.6858 12.9182C10.8935 12.7106 11.1751 12.5939 11.4688 12.5939Z" fill="#C3C3C3" stroke="#C3C3C3" stroke-width="0.4"/>
  <path d="M11.4688 18.0375H16.005C16.2986 18.0375 16.5803 18.1542 16.7879 18.3618C16.9956 18.5695 17.1122 18.8511 17.1122 19.1448C17.1122 19.4384 16.9956 19.72 16.7879 19.9277C16.5803 20.1353 16.2986 20.252 16.005 20.252H11.4688C11.1751 20.252 10.8935 20.1353 10.6858 19.9277C10.4782 19.72 10.3615 19.4384 10.3615 19.1448C10.3615 18.8511 10.4782 18.5695 10.6858 18.3618C10.8935 18.1542 11.1751 18.0375 11.4688 18.0375Z" fill="#C3C3C3" stroke="#C3C3C3" stroke-width="0.4"/>
</svg>