<svg width="30" height="30" viewBox="0 0 30 30" fill="none" xmlns="http://www.w3.org/2000/svg">
<circle cx="15" cy="15" r="15" fill="#12AB51"/>
<path fill-rule="evenodd" clip-rule="evenodd" d="M15.2884 7.25398C15.3161 6.94923 15.5856 6.72463 15.8904 6.75231L15.8402 7.3041C15.8904 6.75231 15.8907 6.75234 15.891 6.75237L15.8917 6.75243L15.8932 6.75257L15.8967 6.75291L15.9058 6.75387C15.9128 6.75463 15.9216 6.75566 15.9322 6.75702C15.9535 6.75973 15.9818 6.76376 16.017 6.76961C16.0873 6.78133 16.1848 6.80036 16.3067 6.83083C16.5506 6.89179 16.8918 6.99841 17.3081 7.1834C18.1419 7.55396 19.2695 8.23567 20.5168 9.48338M20.5169 9.48345C21.7646 10.7311 22.4463 11.8588 22.8168 12.6925C23.0018 13.1087 23.1084 13.4497 23.1694 13.6936C23.1999 13.8155 23.2189 13.9129 23.2306 13.9832C23.2365 14.0184 23.2405 14.0467 23.2432 14.068C23.2446 14.0786 23.2456 14.0874 23.2464 14.0944L23.2473 14.1035L23.2477 14.107L23.2478 14.1085L23.2479 14.1092C23.2479 14.1095 23.2479 14.1099 22.6961 14.16L23.2479 14.1099C23.2756 14.4146 23.051 14.6841 22.7463 14.7118C22.4429 14.7394 22.1745 14.517 22.1447 14.2144L22.144 14.2085C22.1431 14.201 22.1411 14.1865 22.1376 14.1654C22.1305 14.1232 22.1174 14.0547 22.0944 13.9623C22.0482 13.7777 21.962 13.4976 21.8042 13.1425C21.4892 12.4338 20.8853 11.419 19.7333 10.2669L19.7332 10.2669C18.5816 9.11487 17.5669 8.51105 16.858 8.19603C16.5029 8.03823 16.2227 7.95204 16.038 7.90589C15.9457 7.8828 15.8771 7.8697 15.8349 7.86268C15.8138 7.85916 15.7993 7.85717 15.7917 7.8562L15.7859 7.85549C15.4833 7.82572 15.2609 7.55732 15.2884 7.25398M15.8786 10.0094C15.9625 9.71511 16.269 9.5445 16.5633 9.62833L16.4115 10.1612C16.5633 9.62833 16.5635 9.6284 16.5638 9.62848L16.5643 9.62863L16.5655 9.62896L16.568 9.62969L16.5739 9.63144C16.5782 9.63274 16.5833 9.63431 16.5891 9.63618C16.6008 9.6399 16.6155 9.64479 16.6331 9.65104C16.6684 9.66353 16.7154 9.68141 16.7732 9.70615C16.8889 9.75566 17.0478 9.83248 17.2435 9.94819C17.6351 10.1798 18.1717 10.5658 18.8031 11.1972C19.4344 11.8285 19.8205 12.365 20.0523 12.7566C20.1681 12.9522 20.245 13.111 20.2946 13.2267C20.3194 13.2845 20.3373 13.3314 20.3498 13.3667C20.3561 13.3843 20.361 13.399 20.3647 13.4107C20.3666 13.4165 20.3681 13.4216 20.3694 13.4259L20.3712 13.4317L20.3719 13.4342L20.3723 13.4354L20.3724 13.4359C20.3725 13.4362 20.3726 13.4365 19.8493 13.586L20.3726 13.4365C20.4567 13.7307 20.2863 14.0374 19.9921 14.1215C19.7001 14.2049 19.3958 14.0377 19.309 13.7475C19.3085 13.746 19.3074 13.7426 19.3055 13.7374C19.3009 13.7242 19.2915 13.6992 19.2761 13.6633C19.2453 13.5915 19.1901 13.4754 19.0987 13.321C18.9162 13.0127 18.5881 12.5493 18.0195 11.9807C17.451 11.4122 16.9877 11.0843 16.6794 10.902C16.5251 10.8108 16.409 10.7556 16.3373 10.7249C16.3014 10.7096 16.2764 10.7003 16.2633 10.6956C16.258 10.6938 16.2547 10.6926 16.2532 10.6922C15.9629 10.6057 15.7954 10.3015 15.8786 10.0094ZM19.3074 13.7421C19.3074 13.742 19.3074 13.7419 19.3074 13.7418L19.3074 13.742L19.3074 13.7421Z" fill="white"/>
<path d="M17.5013 17.4419L17.9408 17.8596L17.5013 17.4427V17.4419ZM20.2857 22.0532L19.8453 21.6354L20.2848 22.0532H20.2857ZM19.2142 22.6268L19.274 23.2288L19.2142 22.626V22.6268ZM17.5732 18.2467L17.9408 17.8588L17.0617 17.0242L16.6941 17.4128L17.5732 18.2467ZM19.152 17.6956L20.6953 18.5852L21.2997 17.534L19.7564 16.6452L19.152 17.6956ZM20.9935 20.4267L19.8461 21.6346L20.7244 22.4701L21.8718 21.2621L20.9935 20.4267ZM19.1553 22.0225C17.9958 22.1364 14.9698 22.0394 11.6861 18.5828L10.8078 19.4167C14.3864 23.1844 17.8002 23.3751 19.274 23.2288L19.1553 22.0225ZM11.6861 18.5828C8.55427 15.2853 8.02907 12.5034 7.96362 11.2833L6.75323 11.3487C6.83403 12.8436 7.46751 15.9002 10.8078 19.4167L11.6861 18.5828ZM12.7979 13.2193L13.029 12.9753L12.1507 12.1406L11.9188 12.3846L12.7979 13.2193ZM13.2116 9.93717L12.1927 8.49731L11.2029 9.19704L12.221 10.6377L13.2116 9.93798V9.93717ZM8.74334 8.18542L7.4764 9.52186L8.3555 10.3565L9.62407 9.0209L8.74496 8.18623L8.74334 8.18542ZM12.3583 12.8015C12.2129 12.6614 12.0661 12.5227 11.918 12.3854L11.9164 12.387L11.9139 12.3895C11.8998 12.4044 11.8863 12.4201 11.8735 12.4363C11.7943 12.5412 11.7317 12.6575 11.6877 12.7813C11.6085 13.0035 11.5665 13.2977 11.6198 13.6645C11.7249 14.3852 12.1976 15.354 13.4314 16.6541L14.3105 15.8186C13.1567 14.6042 12.8722 13.8568 12.8189 13.4883C12.7931 13.3106 12.8189 13.2177 12.8294 13.1878L12.8359 13.1724C12.8293 13.1831 12.8217 13.1931 12.8133 13.2023C12.8085 13.2078 12.8037 13.2132 12.7987 13.2185C12.7987 13.2185 12.7971 13.2185 12.3583 12.8015ZM13.4314 16.6541C14.662 17.9501 15.5912 18.4584 16.2998 18.5739C16.6642 18.6329 16.9591 18.5852 17.1821 18.4971C17.3057 18.4486 17.4206 18.3804 17.5223 18.2951C17.5322 18.2862 17.5419 18.2771 17.5514 18.2677L17.5627 18.2564C17.5646 18.2548 17.5665 18.2532 17.5683 18.2515L17.5708 18.2491L17.5716 18.2475C17.5716 18.2475 17.5732 18.2467 17.1336 17.8289C16.6941 17.412 16.6949 17.4112 16.6949 17.4104L16.6965 17.4096L16.6981 17.4072C16.6995 17.4058 16.7008 17.4045 16.7022 17.4031L16.7102 17.395C16.7197 17.3859 16.7297 17.3772 16.7401 17.3692C16.7482 17.3643 16.7474 17.3659 16.7369 17.37C16.7207 17.3764 16.648 17.4023 16.4945 17.3773C16.1697 17.3239 15.4683 17.0379 14.3105 15.8186L13.4314 16.6541ZM12.1927 8.49731C11.3734 7.33863 9.73557 7.14229 8.74496 8.18623L9.62164 9.0209C10.0442 8.57649 10.7892 8.61124 11.2029 9.19704L12.1927 8.49731ZM7.96362 11.2833C7.94584 10.9601 8.08724 10.6377 8.3555 10.3565L7.4764 9.52186C7.04331 9.97757 6.71364 10.6102 6.75323 11.3487L7.96362 11.2833ZM19.8453 21.6354C19.6199 21.873 19.3847 21.9998 19.1553 22.0225L19.274 23.2288C19.8776 23.1698 20.3665 22.8474 20.7244 22.4701L19.8453 21.6362V21.6354ZM13.029 12.9761C13.8111 12.1527 13.8661 10.8648 13.2116 9.93798L12.2218 10.6377C12.5628 11.1201 12.5103 11.7624 12.1507 12.1406L13.029 12.9761ZM20.6953 18.5852C21.3587 18.9674 21.4888 19.9063 20.9935 20.4275L21.8718 21.2621C22.9262 20.1519 22.6192 18.2943 21.3005 17.5348L20.6953 18.5852ZM17.9408 17.8596C18.2519 17.5316 18.7375 17.4581 19.152 17.6964L19.7564 16.646C18.8684 16.1354 17.7687 16.2824 17.0617 17.0258L17.9408 17.8596Z" fill="white"/>
</svg>
