<svg width="21" height="47" viewBox="0 0 21 47" fill="none" xmlns="http://www.w3.org/2000/svg">
<g clip-path="url(#clip0_301_7)">
<path d="M13.0832 46.9999C12.5832 46.9999 12.1665 46.9156 11.6665 46.8313L4.74982 45.5667C4.08316 45.4824 3.66649 44.808 3.83316 44.2179C3.91649 43.5434 4.58316 43.1219 5.16649 43.2905L12.0832 44.5551C13.6665 44.808 15.4165 44.3865 16.6665 43.2905C17.9165 42.1945 18.6665 40.5928 18.6665 38.9067V8.05105C18.6665 6.36495 17.9165 4.76316 16.6665 3.66719C15.4165 2.57123 13.6665 2.1497 12.0832 2.40262L5.08316 3.7515C4.49982 3.8358 3.91649 3.41428 3.74982 2.82414C3.66649 2.1497 4.08316 1.55957 4.74982 1.39096L11.6665 0.126385C13.9998 -0.29514 16.4165 0.3793 18.1665 1.89679C19.9998 3.41428 20.9998 5.69051 20.9998 8.05105V38.9067C20.9998 41.2672 19.9998 43.5434 18.1665 45.0609C16.7498 46.3255 14.9165 46.9999 13.0832 46.9999Z" fill="white"/>
<path d="M13.0833 43.2908C12.8333 43.2908 12.5833 43.2908 12.3333 43.2065L0 41.0145V6.02798L12.25 3.83605C13.5 3.58313 14.75 3.92035 15.75 4.7634C16.75 5.60645 17.25 6.78672 17.25 8.0513V38.9069C17.25 40.1715 16.6667 41.4361 15.75 42.1948C15 42.9535 14.0833 43.2908 13.0833 43.2908ZM2.33333 38.9912L12.6667 40.8459C13.25 40.9302 13.8333 40.7616 14.25 40.4244C14.6667 40.0872 14.9167 39.497 14.9167 38.9069V8.0513C14.9167 7.46116 14.6667 6.87103 14.25 6.53381C13.8333 6.19659 13.25 6.02798 12.6667 6.11228L2.33333 8.0513V38.9912Z" fill="white"/>
<path d="M4.91667 38.0636C4.25 38.0636 3.75 37.5578 3.75 36.8834V9.23136L12.25 7.71387C12.9167 7.62956 13.5 8.05109 13.5833 8.64122C13.6667 9.23136 13.25 9.9058 12.6667 9.9901L6.16667 11.1704V36.8834C6.08333 37.5578 5.58333 38.0636 4.91667 38.0636Z" fill="white"/>
</g>
<defs>
<clipPath id="clip0_301_7">
<rect width="21" height="47" fill="white"/>
</clipPath>
</defs>
</svg>
