<svg width="45" height="45" viewBox="0 0 45 45" fill="none" xmlns="http://www.w3.org/2000/svg">
<g clip-path="url(#clip0_126_55)">
<path d="M30 5.15625C30 9.21188 24.7125 14.2519 22.0781 16.365C21.6659 16.6955 21.1533 16.8756 20.625 16.8756C20.0967 16.8756 19.5841 16.6955 19.1719 16.365C16.5375 14.25 11.25 9.21188 11.25 5.15625C11.1909 3.85166 11.6508 2.57676 12.5293 1.61045C13.4078 0.644139 14.6332 0.0650971 15.9375 0C17.2418 0.0650971 18.4672 0.644139 19.3457 1.61045C20.2242 2.57676 20.6841 3.85166 20.625 5.15625C20.5659 3.85166 21.0258 2.57676 21.9043 1.61045C22.7828 0.644139 24.0082 0.0650971 25.3125 0C26.6168 0.0650971 27.8422 0.644139 28.7207 1.61045C29.5992 2.57676 30.0591 3.85166 30 5.15625ZM43.7587 23.1563L29.3212 38.9231C27.5635 40.8398 25.4262 42.3698 23.0453 43.416C20.6644 44.4621 18.0919 45.0016 15.4912 45H7.5C5.51088 45 3.60322 44.2098 2.1967 42.8033C0.790176 41.3968 0 39.4891 0 37.5V28.125C0 26.1359 0.790176 24.2282 2.1967 22.8217C3.60322 21.4152 5.51088 20.625 7.5 20.625H22.1006C22.7204 20.6262 23.3321 20.7659 23.8909 21.0339C24.4498 21.3019 24.9417 21.6915 25.3306 22.174C25.7195 22.6566 25.9957 23.22 26.1389 23.823C26.282 24.4261 26.2886 25.0535 26.1581 25.6594C25.9551 26.5069 25.4979 27.2722 24.8478 27.8526C24.1977 28.433 23.3857 28.8009 22.5206 28.9069L14.715 30C14.223 30.0706 13.7792 30.3336 13.4811 30.7312C13.1829 31.1289 13.0549 31.6286 13.125 32.1206C13.1951 32.6129 13.4579 33.0572 13.8556 33.3558C14.2533 33.6543 14.7533 33.7826 15.2456 33.7125L23.2181 32.5875C25.0959 32.3109 26.8124 31.3708 28.0566 29.9374C29.3008 28.5041 29.9902 26.6724 30 24.7744C29.9908 24.373 29.9501 23.9731 29.8781 23.5781L36.5194 16.5713C37.3951 15.623 38.6106 15.0597 39.9002 15.0046C41.1899 14.9494 42.449 15.4068 43.4025 16.2769C44.3512 17.1463 44.9202 18.3538 44.9869 19.639C45.0535 20.9241 44.6124 22.1839 43.7587 23.1469V23.1563Z" fill="white"/>
</g>
<defs>
<clipPath id="clip0_126_55">
<rect width="45" height="45" fill="white"/>
</clipPath>
</defs>
</svg>
