<svg xmlns="http://www.w3.org/2000/svg" width="20" height="33" viewBox="0 0 20 33" fill="none">
  <path d="M17.4213 0.391181L0.464497 15.5049C0.166677 15.7704 -2.7484e-06 16.1264 -2.81158e-06 16.4972C-2.87476e-06 16.8679 0.166676 17.2239 0.464496 17.4894L17.4213 32.6088C17.56 32.7326 17.7259 32.831 17.9091 32.8982C18.0923 32.9654 18.2892 33 18.488 33C18.6869 33 18.8838 32.9654 19.067 32.8982C19.2502 32.831 19.4161 32.7326 19.5548 32.6088C19.8402 32.3549 20 32.0141 20 31.6592C20 31.3043 19.8402 30.9635 19.5548 30.7097L3.60913 16.4972L19.5548 2.28751C19.8392 2.03376 19.9984 1.69355 19.9984 1.33934C19.9984 0.985139 19.8392 0.644931 19.5548 0.391182C19.4161 0.267385 19.2502 0.168989 19.067 0.101803C18.8838 0.0346177 18.6869 3.26732e-06 18.488 3.23255e-06C18.2892 3.19778e-06 18.0923 0.0346175 17.9091 0.101803C17.7259 0.168989 17.56 0.267384 17.4213 0.391181Z" fill="white"/>
</svg>