<svg xmlns="http://www.w3.org/2000/svg" width="183" height="25" viewBox="0 0 183 25" fill="none">
  <path d="M79.1497 19.6341L72.1223 12.2713L79.1497 4.90852L80.9981 6.5376L76.6612 11.0814H92.6825L88.3456 6.5376L90.194 4.90852L97.2214 12.2713L90.194 19.6341L88.3456 17.989L92.6825 13.4612H76.6612L80.9981 17.989L79.1497 19.6341Z" fill="#A9E5BB"/>
  <path d="M3.49209 0V19.2771H0V0H3.49209Z" fill="#2D1E2F"/>
  <path d="M5.77484 19.2771V4.81928H9.03162V7.27598H9.20104C9.50225 6.44767 10.0011 5.80133 10.6977 5.33697C11.3942 4.86634 12.2256 4.63102 13.192 4.63102C14.1709 4.63102 14.9961 4.86948 15.6675 5.34639C16.3452 5.81702 16.8222 6.46022 17.0983 7.27598H17.2489C17.5689 6.47277 18.1085 5.83271 18.8678 5.3558C19.6334 4.87262 20.5401 4.63102 21.5881 4.63102C22.9184 4.63102 24.004 5.05146 24.8449 5.89232C25.6857 6.73318 26.1062 7.95997 26.1062 9.57267V19.2771H22.6894V10.0998C22.6894 9.20243 22.4509 8.54669 21.974 8.13253C21.4971 7.7121 20.9135 7.50188 20.2233 7.50188C19.4012 7.50188 18.758 7.75916 18.2937 8.27372C17.8356 8.782 17.6065 9.44403 17.6065 10.2598V19.2771H14.265V9.95858C14.265 9.21185 14.0391 8.61571 13.5873 8.17018C13.1418 7.72465 12.5582 7.50188 11.8366 7.50188C11.3471 7.50188 10.9016 7.62738 10.5 7.87839C10.0984 8.12312 9.77835 8.47139 9.5399 8.92319C9.30144 9.36872 9.18222 9.88956 9.18222 10.4857V19.2771H5.77484Z" fill="#2D1E2F"/>
  <path d="M32.9282 19.5689C32.012 19.5689 31.1868 19.4057 30.4526 19.0794C29.7247 18.7469 29.1474 18.2574 28.7207 17.6111C28.3003 16.9647 28.0901 16.1678 28.0901 15.2203C28.0901 14.4045 28.2407 13.7299 28.5419 13.1965C28.8431 12.6632 29.2541 12.2364 29.7749 11.9164C30.2958 11.5964 30.8825 11.3548 31.5351 11.1916C32.194 11.0222 32.8748 10.8998 33.5776 10.8245C34.4248 10.7367 35.1119 10.6583 35.639 10.5892C36.1661 10.5139 36.5489 10.401 36.7874 10.2504C37.0321 10.0935 37.1544 9.85191 37.1544 9.5256V9.46913C37.1544 8.76004 36.9442 8.21097 36.5238 7.82191C36.1034 7.43286 35.4978 7.23833 34.7072 7.23833C33.8726 7.23833 33.2105 7.42031 32.7211 7.78426C32.2379 8.14822 31.9116 8.57806 31.7422 9.0738L28.5607 8.62199C28.8117 7.74347 29.2259 7.00929 29.8032 6.41943C30.3805 5.82329 31.0864 5.37776 31.921 5.08283C32.7556 4.78163 33.678 4.63102 34.6883 4.63102C35.3849 4.63102 36.0783 4.7126 36.7685 4.87575C37.4588 5.03891 38.0894 5.30873 38.6605 5.68524C39.2315 6.05547 39.6896 6.56062 40.0347 7.20068C40.3861 7.84074 40.5618 8.64081 40.5618 9.6009V19.2771H37.2862V17.291H37.1733C36.9662 17.6926 36.6744 18.0692 36.2979 18.4206C35.9277 18.7657 35.4602 19.0449 34.8954 19.2583C34.3369 19.4654 33.6812 19.5689 32.9282 19.5689ZM33.813 17.0651C34.4969 17.0651 35.0899 16.9302 35.5919 16.6604C36.094 16.3843 36.4799 16.0203 36.7497 15.5685C37.0258 15.1167 37.1639 14.6241 37.1639 14.0907V12.387C37.0572 12.4749 36.8752 12.5565 36.6179 12.6318C36.3669 12.7071 36.0845 12.773 35.7708 12.8294C35.457 12.8859 35.1464 12.9361 34.8389 12.98C34.5315 13.024 34.2648 13.0616 34.0389 13.093C33.5306 13.162 33.0756 13.275 32.674 13.4319C32.2724 13.5887 31.9555 13.8084 31.7234 14.0907C31.4912 14.3668 31.3751 14.7245 31.3751 15.1638C31.3751 15.7913 31.6041 16.2651 32.0622 16.5851C32.5203 16.9051 33.1039 17.0651 33.813 17.0651Z" fill="#2D1E2F"/>
  <path d="M49.4805 25C48.2569 25 47.2058 24.8337 46.3273 24.5011C45.4487 24.1748 44.7428 23.7356 44.2094 23.1834C43.676 22.6311 43.3058 22.0193 43.0987 21.3479L46.1672 20.6043C46.3053 20.8867 46.5061 21.1659 46.7697 21.442C47.0332 21.7244 47.3878 21.9566 47.8333 22.1386C48.2851 22.3268 48.853 22.4209 49.537 22.4209C50.5033 22.4209 51.3034 22.1856 51.9372 21.715C52.571 21.2506 52.8879 20.4851 52.8879 19.4183V16.6792H52.7185C52.5428 17.0306 52.2855 17.3914 51.9466 17.7617C51.614 18.1319 51.1716 18.4425 50.6194 18.6935C50.0735 18.9445 49.3864 19.07 48.5581 19.07C47.4474 19.07 46.4402 18.8096 45.5366 18.2888C44.6393 17.7617 43.9239 16.9773 43.3905 15.9356C42.8634 14.8877 42.5999 13.5762 42.5999 12.0011C42.5999 10.4135 42.8634 9.0738 43.3905 7.98193C43.9239 6.88379 44.6424 6.05233 45.546 5.48757C46.4496 4.91654 47.4568 4.63102 48.5675 4.63102C49.4146 4.63102 50.1112 4.77535 50.6571 5.06401C51.2093 5.34639 51.6486 5.68838 51.9749 6.08998C52.3012 6.48532 52.549 6.85869 52.7185 7.21009H52.9067V4.81928H56.267V19.5124C56.267 20.7486 55.9721 21.7715 55.3822 22.5809C54.7924 23.3904 53.986 23.996 52.9632 24.3976C51.9403 24.7992 50.7794 25 49.4805 25ZM49.5087 16.3968C50.2304 16.3968 50.8453 16.2211 51.3536 15.8697C51.8619 15.5183 52.2478 15.0132 52.5114 14.3543C52.7749 13.6954 52.9067 12.9047 52.9067 11.9823C52.9067 11.0724 52.7749 10.2755 52.5114 9.59149C52.2541 8.90751 51.8713 8.37726 51.363 8.00075C50.861 7.61797 50.2429 7.42658 49.5087 7.42658C48.7495 7.42658 48.1157 7.62425 47.6074 8.01958C47.0991 8.41491 46.7163 8.95771 46.459 9.64797C46.2018 10.332 46.0731 11.1101 46.0731 11.9823C46.0731 12.8671 46.2018 13.6421 46.459 14.3072C46.7226 14.9661 47.1085 15.4807 47.6168 15.8509C48.1314 16.2149 48.762 16.3968 49.5087 16.3968Z" fill="#2D1E2F"/>
  <path d="M65.3645 19.5595C63.915 19.5595 62.6631 19.2583 61.6089 18.6559C60.561 18.0472 59.7546 17.1875 59.1898 16.0768C58.6251 14.9598 58.3427 13.6452 58.3427 12.1329C58.3427 10.6457 58.6251 9.34049 59.1898 8.21724C59.7609 7.08773 60.5578 6.20921 61.5807 5.5817C62.6035 4.94792 63.8052 4.63102 65.1857 4.63102C66.0768 4.63102 66.9176 4.77535 67.7083 5.06401C68.5052 5.34639 69.208 5.78564 69.8167 6.38178C70.4317 6.97791 70.9149 7.7372 71.2663 8.65964C71.6177 9.5758 71.7934 10.6677 71.7934 11.9352V12.98H59.9428V10.6834H68.5272C68.5209 10.0307 68.3797 9.4503 68.1036 8.94202C67.8275 8.42746 67.4416 8.02272 66.9459 7.72779C66.4564 7.43286 65.8854 7.28539 65.2328 7.28539C64.5362 7.28539 63.9244 7.45482 63.3973 7.79367C62.8702 8.12626 62.4592 8.56551 62.1642 9.11144C61.8756 9.6511 61.7281 10.2441 61.7218 10.8904V12.8953C61.7218 13.7362 61.8756 14.4578 62.1831 15.0602C62.4905 15.6564 62.9204 16.1145 63.4726 16.4345C64.0248 16.7482 64.6711 16.9051 65.4116 16.9051C65.9073 16.9051 66.356 16.8361 66.7576 16.698C67.1592 16.5537 67.5075 16.3435 67.8024 16.0674C68.0973 15.7913 68.3201 15.4493 68.4707 15.0414L71.6522 15.3991C71.4514 16.24 71.0686 16.9741 70.5038 17.6017C69.9454 18.2229 69.23 18.7061 68.3578 19.0512C67.4855 19.3901 66.4878 19.5595 65.3645 19.5595Z" fill="#2D1E2F"/>
  <path d="M97.4341 19.2771V0H100.926V8.8573H101.161L108.682 0H112.946L105.491 8.65023L113.012 19.2771H108.814L103.063 11.0128L100.926 13.5354V19.2771H97.4341Z" fill="#2D1E2F"/>
  <path d="M119.766 19.5595C118.316 19.5595 117.064 19.2583 116.01 18.6559C114.962 18.0472 114.156 17.1875 113.591 16.0768C113.026 14.9598 112.744 13.6452 112.744 12.1329C112.744 10.6457 113.026 9.34049 113.591 8.21724C114.162 7.08773 114.959 6.20921 115.982 5.5817C117.005 4.94792 118.206 4.63102 119.587 4.63102C120.478 4.63102 121.319 4.77535 122.11 5.06401C122.906 5.34639 123.609 5.78564 124.218 6.38178C124.833 6.97791 125.316 7.7372 125.668 8.65964C126.019 9.5758 126.195 10.6677 126.195 11.9352V12.98H114.344V10.6834H122.928C122.922 10.0307 122.781 9.4503 122.505 8.94202C122.229 8.42746 121.843 8.02272 121.347 7.72779C120.858 7.43286 120.287 7.28539 119.634 7.28539C118.937 7.28539 118.326 7.45482 117.799 7.79367C117.271 8.12626 116.86 8.56551 116.565 9.11144C116.277 9.6511 116.129 10.2441 116.123 10.8904V12.8953C116.123 13.7362 116.277 14.4578 116.584 15.0602C116.892 15.6564 117.322 16.1145 117.874 16.4345C118.426 16.7482 119.072 16.9051 119.813 16.9051C120.309 16.9051 120.757 16.8361 121.159 16.698C121.56 16.5537 121.909 16.3435 122.204 16.0674C122.499 15.7913 122.721 15.4493 122.872 15.0414L126.053 15.3991C125.853 16.24 125.47 16.9741 124.905 17.6017C124.347 18.2229 123.631 18.7061 122.759 19.0512C121.887 19.3901 120.889 19.5595 119.766 19.5595Z" fill="#2D1E2F"/>
  <path d="M134.683 19.5595C133.233 19.5595 131.981 19.2583 130.927 18.6559C129.879 18.0472 129.073 17.1875 128.508 16.0768C127.943 14.9598 127.661 13.6452 127.661 12.1329C127.661 10.6457 127.943 9.34049 128.508 8.21724C129.079 7.08773 129.876 6.20921 130.899 5.5817C131.922 4.94792 133.123 4.63102 134.504 4.63102C135.395 4.63102 136.236 4.77535 137.026 5.06401C137.823 5.34639 138.526 5.78564 139.135 6.38178C139.75 6.97791 140.233 7.7372 140.584 8.65964C140.936 9.5758 141.112 10.6677 141.112 11.9352V12.98H129.261V10.6834H137.845C137.839 10.0307 137.698 9.4503 137.422 8.94202C137.146 8.42746 136.76 8.02272 136.264 7.72779C135.775 7.43286 135.203 7.28539 134.551 7.28539C133.854 7.28539 133.243 7.45482 132.715 7.79367C132.188 8.12626 131.777 8.56551 131.482 9.11144C131.194 9.6511 131.046 10.2441 131.04 10.8904V12.8953C131.04 13.7362 131.194 14.4578 131.501 15.0602C131.809 15.6564 132.239 16.1145 132.791 16.4345C133.343 16.7482 133.989 16.9051 134.73 16.9051C135.225 16.9051 135.674 16.8361 136.076 16.698C136.477 16.5537 136.826 16.3435 137.121 16.0674C137.415 15.7913 137.638 15.4493 137.789 15.0414L140.97 15.3991C140.77 16.24 140.387 16.9741 139.822 17.6017C139.263 18.2229 138.548 18.7061 137.676 19.0512C136.804 19.3901 135.806 19.5595 134.683 19.5595Z" fill="#2D1E2F"/>
  <path d="M143.199 24.6988V4.81928H146.55V7.21009H146.748C146.923 6.85869 147.171 6.48532 147.491 6.08998C147.811 5.68838 148.244 5.34639 148.79 5.06401C149.336 4.77535 150.033 4.63102 150.88 4.63102C151.997 4.63102 153.004 4.91654 153.901 5.48757C154.805 6.05233 155.52 6.89006 156.047 8.00075C156.581 9.10517 156.847 10.4606 156.847 12.067C156.847 13.6546 156.587 15.0038 156.066 16.1145C155.545 17.2251 154.836 18.0723 153.939 18.6559C153.041 19.2395 152.025 19.5312 150.889 19.5312C150.061 19.5312 149.374 19.3932 148.828 19.1171C148.282 18.841 147.843 18.5084 147.51 18.1194C147.184 17.724 146.93 17.3507 146.748 16.9992H146.606V24.6988H143.199ZM146.54 12.0482C146.54 12.9832 146.672 13.8021 146.936 14.5049C147.206 15.2077 147.592 15.7568 148.094 16.1521C148.602 16.5412 149.217 16.7357 149.938 16.7357C150.691 16.7357 151.322 16.5349 151.83 16.1333C152.339 15.7254 152.721 15.1701 152.979 14.4672C153.242 13.7582 153.374 12.9518 153.374 12.0482C153.374 11.1509 153.245 10.3539 152.988 9.65738C152.731 8.96084 152.348 8.41491 151.84 8.01958C151.331 7.62425 150.698 7.42658 149.938 7.42658C149.21 7.42658 148.592 7.61797 148.084 8.00075C147.576 8.38353 147.19 8.92006 146.926 9.61032C146.669 10.3006 146.54 11.1132 146.54 12.0482Z" fill="#2D1E2F"/>
  <path d="M165.371 19.5595C163.921 19.5595 162.669 19.2583 161.615 18.6559C160.567 18.0472 159.761 17.1875 159.196 16.0768C158.631 14.9598 158.349 13.6452 158.349 12.1329C158.349 10.6457 158.631 9.34049 159.196 8.21724C159.767 7.08773 160.564 6.20921 161.587 5.5817C162.61 4.94792 163.811 4.63102 165.192 4.63102C166.083 4.63102 166.924 4.77535 167.714 5.06401C168.511 5.34639 169.214 5.78564 169.823 6.38178C170.438 6.97791 170.921 7.7372 171.272 8.65964C171.624 9.5758 171.799 10.6677 171.799 11.9352V12.98H159.949V10.6834H168.533C168.527 10.0307 168.386 9.4503 168.11 8.94202C167.834 8.42746 167.448 8.02272 166.952 7.72779C166.463 7.43286 165.891 7.28539 165.239 7.28539C164.542 7.28539 163.931 7.45482 163.403 7.79367C162.876 8.12626 162.465 8.56551 162.17 9.11144C161.882 9.6511 161.734 10.2441 161.728 10.8904V12.8953C161.728 13.7362 161.882 14.4578 162.189 15.0602C162.497 15.6564 162.926 16.1145 163.479 16.4345C164.031 16.7482 164.677 16.9051 165.418 16.9051C165.913 16.9051 166.362 16.8361 166.764 16.698C167.165 16.5537 167.514 16.3435 167.809 16.0674C168.103 15.7913 168.326 15.4493 168.477 15.0414L171.658 15.3991C171.457 16.24 171.075 16.9741 170.51 17.6017C169.951 18.2229 169.236 18.7061 168.364 19.0512C167.492 19.3901 166.494 19.5595 165.371 19.5595Z" fill="#2D1E2F"/>
  <path d="M173.887 19.2771V4.81928H177.191V7.22892H177.341C177.605 6.39433 178.057 5.75113 178.697 5.29932C179.343 4.84124 180.08 4.6122 180.909 4.6122C181.097 4.6122 181.307 4.62161 181.539 4.64044C181.778 4.65299 181.976 4.67495 182.132 4.70633V7.84074C181.988 7.79054 181.759 7.74661 181.445 7.70896C181.138 7.66503 180.84 7.64307 180.551 7.64307C179.93 7.64307 179.371 7.77799 178.876 8.04782C178.386 8.31137 178 8.67846 177.718 9.1491C177.435 9.61973 177.294 10.1625 177.294 10.7775V19.2771H173.887Z" fill="#2D1E2F"/>
</svg>