<svg width="21" height="47" viewBox="0 0 21 47" fill="none" xmlns="http://www.w3.org/2000/svg">
<g clip-path="url(#clip0_144_896)">
<path d="M13.0832 46.9999C12.5832 46.9999 12.1665 46.9156 11.6665 46.8313L4.74982 45.5667C4.08316 45.4824 3.66649 44.808 3.83316 44.2179C3.91649 43.5434 4.58316 43.1219 5.16649 43.2905L12.0832 44.5551C13.6665 44.808 15.4165 44.3865 16.6665 43.2905C17.9165 42.1945 18.6665 40.5928 18.6665 38.9067V8.05105C18.6665 6.36495 17.9165 4.76316 16.6665 3.66719C15.4165 2.57123 13.6665 2.1497 12.0832 2.40262L5.08316 3.7515C4.49982 3.8358 3.91649 3.41428 3.74982 2.82414C3.66649 2.1497 4.08316 1.55957 4.74982 1.39096L11.6665 0.126385C13.9998 -0.29514 16.4165 0.3793 18.1665 1.89679C19.9998 3.41428 20.9998 5.69051 20.9998 8.05105V38.9067C20.9998 41.2672 19.9998 43.5434 18.1665 45.0609C16.7498 46.3255 14.9165 46.9999 13.0832 46.9999Z" fill="#333333"/>
<path d="M13.0833 43.2905C12.8333 43.2905 12.5833 43.2905 12.3333 43.2062L0 41.0143V6.02773L12.25 3.83581C13.5 3.58289 14.75 3.92011 15.75 4.76316C16.75 5.60621 17.25 6.78648 17.25 8.05105V38.9067C17.25 40.1712 16.6667 41.4358 15.75 42.1945C15 42.9533 14.0833 43.2905 13.0833 43.2905ZM2.33333 38.991L12.6667 40.8457C13.25 40.93 13.8333 40.7614 14.25 40.4241C14.6667 40.0869 14.9167 39.4968 14.9167 38.9067V8.05105C14.9167 7.46092 14.6667 6.87078 14.25 6.53356C13.8333 6.19634 13.25 6.02773 12.6667 6.11204L2.33333 8.05105V38.991Z" fill="#12AB51"/>
<path d="M4.91667 38.0636C4.25 38.0636 3.75 37.5578 3.75 36.8834V9.23136L12.25 7.71387C12.9167 7.62956 13.5 8.05109 13.5833 8.64122C13.6667 9.23136 13.25 9.9058 12.6667 9.9901L6.16667 11.1704V36.8834C6.08333 37.5578 5.58333 38.0636 4.91667 38.0636Z" fill="#333333"/>
</g>
<defs>
<clipPath id="clip0_144_896">
<rect width="21" height="47" fill="white"/>
</clipPath>
</defs>
</svg>
