<svg width="22" height="22" viewBox="0 0 22 22" fill="none" xmlns="http://www.w3.org/2000/svg">
<path d="M4.42444 9.52111C6.18444 12.98 9.02 15.8033 12.4789 17.5756L15.1678 14.8867C15.4978 14.5567 15.9867 14.4467 16.4144 14.5933C17.7833 15.0456 19.2622 15.29 20.7778 15.29C21.45 15.29 22 15.84 22 16.5122V20.7778C22 21.45 21.45 22 20.7778 22C9.30111 22 0 12.6989 0 1.22222C0 0.55 0.55 0 1.22222 0H5.5C6.17222 0 6.72222 0.55 6.72222 1.22222C6.72222 2.75 6.96667 4.21667 7.41889 5.58556C7.55333 6.01333 7.45555 6.49 7.11333 6.83222L4.42444 9.52111Z" fill="white"/>
</svg>
