<svg xmlns="http://www.w3.org/2000/svg" width="18" height="18" viewBox="0 0 18 18" fill="none">
<circle cx="9" cy="9" r="9" fill="#D9D9D9"/>
<path d="M8.10298 11.3281V11.1989C8.1063 10.599 8.16264 10.1217 8.27202 9.76705C8.38471 9.41241 8.5438 9.12737 8.74929 8.91193C8.95478 8.69318 9.20502 8.49266 9.5 8.31037C9.70218 8.18442 9.88281 8.04688 10.0419 7.89773C10.2043 7.74527 10.3319 7.57623 10.4247 7.39062C10.5175 7.2017 10.5639 6.99124 10.5639 6.75923C10.5639 6.4974 10.5026 6.27036 10.38 6.07812C10.2573 5.88589 10.0916 5.73674 9.88281 5.63068C9.67732 5.52462 9.44697 5.47159 9.19176 5.47159C8.95644 5.47159 8.73272 5.52296 8.5206 5.62571C8.31179 5.72514 8.13778 5.8776 7.99858 6.0831C7.86269 6.28527 7.78646 6.54214 7.76989 6.85369H6C6.01657 6.22396 6.16903 5.69697 6.45739 5.27273C6.74905 4.84848 7.13352 4.5303 7.6108 4.31818C8.09138 4.10606 8.62169 4 9.2017 4C9.83475 4 10.3916 4.11103 10.8722 4.3331C11.3561 4.55516 11.7322 4.87169 12.0007 5.28267C12.2725 5.69034 12.4084 6.17424 12.4084 6.73438C12.4084 7.11222 12.3471 7.45028 12.2244 7.74858C12.1051 8.04688 11.9344 8.31203 11.7124 8.54403C11.4903 8.77604 11.2268 8.98319 10.9219 9.16548C10.6534 9.3312 10.433 9.50355 10.2607 9.68253C10.0916 9.86151 9.96567 10.072 9.88281 10.3139C9.80327 10.5526 9.76184 10.8475 9.75852 11.1989V11.3281H8.10298ZM8.96804 14.4304C8.66974 14.4304 8.41288 14.3243 8.19744 14.1122C7.98201 13.9001 7.87429 13.6416 7.87429 13.3366C7.87429 13.0384 7.98201 12.7831 8.19744 12.571C8.41288 12.3589 8.66974 12.2528 8.96804 12.2528C9.26302 12.2528 9.51823 12.3589 9.73366 12.571C9.95241 12.7831 10.0618 13.0384 10.0618 13.3366C10.0618 13.5388 10.0104 13.7228 9.90767 13.8885C9.80824 14.0542 9.67566 14.1868 9.50994 14.2862C9.34754 14.3823 9.1669 14.4304 8.96804 14.4304Z" fill="white"/>
</svg>