<svg xmlns="http://www.w3.org/2000/svg" width="20" height="33" viewBox="0 0 20 33" fill="none">
  <path d="M2.57871 32.6088L19.5355 17.4951C19.8333 17.2296 20 16.8736 20 16.5028C20 16.1321 19.8333 15.7761 19.5355 15.5106L2.5787 0.39118C2.43997 0.267381 2.27411 0.168985 2.09089 0.101801C1.90767 0.0346161 1.71082 1.59889e-06 1.51195 1.61628e-06C1.31309 1.63366e-06 1.11623 0.0346162 0.933015 0.101801C0.749799 0.168985 0.58393 0.267381 0.445199 0.39118C0.159787 0.645059 8.74522e-07 0.985872 9.07116e-07 1.34076C9.39709e-07 1.69566 0.159787 2.03647 0.445199 2.29035L16.3909 16.5028L0.445202 30.7125C0.160768 30.9662 0.00160011 31.3065 0.00160014 31.6607C0.00160018 32.0149 0.160768 32.3551 0.445202 32.6088C0.583933 32.7326 0.749802 32.831 0.933018 32.8982C1.11624 32.9654 1.31309 33 1.51196 33C1.71082 33 1.90767 32.9654 2.09089 32.8982C2.27411 32.831 2.43998 32.7326 2.57871 32.6088Z" fill="white"/>
</svg>