<svg xmlns="http://www.w3.org/2000/svg" width="21" height="20" viewBox="0 0 21 20" fill="none">
  <path d="M9.36251 1.75029C8.64659 0.228038 6.83218 -0.425587 5.30997 0.290341C4.66815 0.592216 4.15185 1.10852 3.85001 1.75029H1.3125C0.587631 1.75029 0 2.33792 0 3.06279C0 3.78766 0.587631 4.37529 1.3125 4.37529H3.84563C4.56155 5.89755 6.37596 6.55117 7.89817 5.83524C8.53995 5.53341 9.05625 5.01706 9.35812 4.37529H19.6875C20.4124 4.37529 21 3.78766 21 3.06279C21 2.33792 20.4124 1.75029 19.6875 1.75029H9.36251Z" fill="#C3C3C3"/>
  <path d="M14.3981 6.89087C13.2183 6.89296 12.1451 7.57415 11.641 8.64088H1.3125C0.587631 8.64088 0 9.22851 0 9.95338C0 10.6783 0.587631 11.2659 1.3125 11.2659H11.6375C12.3534 12.7881 14.1678 13.4418 15.69 12.7258C16.3318 12.424 16.8481 11.9077 17.15 11.2659H19.6875C20.4124 11.2659 21 10.6783 21 9.95338C21 9.22851 20.4124 8.64088 19.6875 8.64088H17.1544C16.6504 7.57444 15.5777 6.89333 14.3981 6.89087Z" fill="#C3C3C3"/>
  <path d="M6.60188 13.7815C5.42235 13.7839 4.34958 14.4651 3.84563 15.5315H1.3125C0.587631 15.5315 0 16.1191 0 16.844C0 17.5689 0.587631 18.1565 1.3125 18.1565H3.84563C4.56155 19.6788 6.37596 20.3324 7.89817 19.6165C8.53995 19.3146 9.05625 18.7983 9.35812 18.1565H19.6875C20.4124 18.1565 21 17.5689 21 16.844C21 16.1191 20.4124 15.5315 19.6875 15.5315H9.36251C8.85786 14.4637 7.78296 13.7823 6.60188 13.7815Z" fill="#C3C3C3"/>
</svg>