<svg xmlns="http://www.w3.org/2000/svg" width="24" height="24" viewBox="0 0 24 24" fill="none">
  <g clip-path="url(#clip0_152_261)">
    <path fill-rule="evenodd" clip-rule="evenodd" d="M4.6875 0H19.3125C20.555 0.00239105 21.7459 0.497019 22.6244 1.37558C23.503 2.25414 23.9976 3.44503 24 4.6875V19.3125C23.9976 20.555 23.503 21.7459 22.6244 22.6244C21.7459 23.503 20.555 23.9976 19.3125 24H4.6875C3.44503 23.9976 2.25414 23.503 1.37558 22.6244C0.497019 21.7459 0.00239105 20.555 0 19.3125L0 4.6875C0.00239105 3.44503 0.497019 2.25414 1.37558 1.37558C2.25414 0.497019 3.44503 0.00239105 4.6875 0ZM6.72656 16.0303V13.5523C6.72417 13.3207 6.63052 13.0995 6.46595 12.9366C6.30139 12.7738 6.0792 12.6824 5.84766 12.6824C5.61612 12.6824 5.39393 12.7738 5.22936 12.9366C5.06479 13.0995 4.97114 13.3207 4.96875 13.5523V18.1523C4.96877 18.3854 5.06138 18.6089 5.2262 18.7738C5.39102 18.9386 5.61456 19.0312 5.84766 19.0312H10.4476C10.5638 19.0324 10.6791 19.0106 10.7868 18.967C10.8945 18.9233 10.9924 18.8588 11.075 18.7771C11.1576 18.6953 11.2232 18.598 11.2679 18.4908C11.3126 18.3836 11.3357 18.2685 11.3357 18.1523C11.3357 18.0362 11.3126 17.9211 11.2679 17.8139C11.2232 17.7067 11.1576 17.6094 11.075 17.5276C10.9924 17.4459 10.8945 17.3813 10.7868 17.3377C10.6791 17.2941 10.5638 17.2722 10.4476 17.2734H7.96973L17.2734 7.96969V10.4476C17.2722 10.5638 17.2941 10.679 17.3377 10.7867C17.3813 10.8944 17.4459 10.9924 17.5276 11.075C17.6094 11.1575 17.7067 11.2231 17.8139 11.2678C17.9211 11.3126 18.0362 11.3356 18.1523 11.3356C18.2685 11.3356 18.3836 11.3126 18.4908 11.2678C18.598 11.2231 18.6953 11.1575 18.7771 11.075C18.8588 10.9924 18.9233 10.8944 18.967 10.7867C19.0106 10.679 19.0324 10.5638 19.0312 10.4476V5.84756C19.0312 5.61449 18.9386 5.39097 18.7738 5.22617C18.6089 5.06137 18.3854 4.96877 18.1523 4.96875H13.5524C13.3193 4.96875 13.0957 5.06135 12.9309 5.22618C12.7661 5.391 12.6735 5.61456 12.6735 5.84766C12.6735 6.08076 12.7661 6.30431 12.9309 6.46914C13.0957 6.63396 13.3193 6.72656 13.5524 6.72656H16.0306L6.72656 16.0303Z" fill="#137039"/>
  </g>
  <defs>
    <clipPath id="clip0_152_261">
      <rect width="24" height="24" fill="white"/>
    </clipPath>
  </defs>
</svg>