<svg width="12" height="22" viewBox="0 0 12 22" fill="none" xmlns="http://www.w3.org/2000/svg">
<path d="M10.4528 0.260785L0.2787 10.3366C0.100008 10.5136 0 10.751 0 10.9981C0 11.2452 0.100008 11.4826 0.2787 11.6596L10.4528 21.7392C10.536 21.8217 10.6355 21.8873 10.7455 21.9321C10.8554 21.9769 10.9735 22 11.0928 22C11.2121 22 11.3303 21.9769 11.4402 21.9321C11.5501 21.8873 11.6496 21.8217 11.7329 21.7392C11.9041 21.57 12 21.3428 12 21.1062C12 20.8696 11.9041 20.6424 11.7329 20.4731L2.16548 10.9981L11.7329 1.525C11.9035 1.35584 11.999 1.12903 11.999 0.892894C11.999 0.656757 11.9035 0.429952 11.7329 0.260785C11.6496 0.178254 11.5501 0.112657 11.4402 0.0678667C11.3303 0.0230762 11.2121 0 11.0928 0C10.9735 0 10.8554 0.0230762 10.7455 0.0678667C10.6355 0.112657 10.536 0.178254 10.4528 0.260785Z" fill="white"/>
</svg>
