<svg xmlns="http://www.w3.org/2000/svg" width="24" height="25" viewBox="0 0 24 25" fill="none">
<path d="M14 3.5V7.5C14 7.76522 14.1054 8.01957 14.2929 8.20711C14.4804 8.39464 14.7348 8.5 15 8.5H19" stroke="black" stroke-width="2" stroke-linecap="round" stroke-linejoin="round"/>
<path d="M12 11.5V17.5M17 21.5H7C6.46957 21.5 5.96086 21.2893 5.58579 20.9142C5.21071 20.5391 5 20.0304 5 19.5V5.5C5 4.96957 5.21071 4.46086 5.58579 4.08579C5.96086 3.71071 6.46957 3.5 7 3.5H14L19 8.5V19.5C19 20.0304 18.7893 20.5391 18.4142 20.9142C18.0391 21.2893 17.5304 21.5 17 21.5Z" stroke="black" stroke-width="2" stroke-linecap="round" stroke-linejoin="round"/>
<path d="M9.5 14L12 11.5L14.5 14" stroke="black" stroke-width="2" stroke-linecap="round" stroke-linejoin="round"/>
</svg>