<svg xmlns="http://www.w3.org/2000/svg" width="80" height="66" viewBox="0 0 80 66" fill="none">
<path fill-rule="evenodd" clip-rule="evenodd" d="M43.7272 7.97701C41.5447 7.58184 39.2944 7.57578 37.1091 7.95931C34.9238 8.34283 32.8604 9.10583 31.0352 10.1919C27.347 12.3864 24.8963 15.731 24.0681 19.4054C23.6989 21.0435 22.2385 22.2076 20.5527 22.2076C16.9625 22.2076 13.5497 23.5677 11.0577 25.9416C8.57118 28.3102 7.20573 31.4879 7.20573 34.7658C7.20573 38.0436 8.57118 41.2213 11.0577 43.59C13.5497 45.9638 16.9625 47.3239 20.5527 47.3239C22.5425 47.3239 24.1556 48.9303 24.1556 50.912C24.1556 52.8936 22.5425 54.5 20.5527 54.5C15.1522 54.5 9.9424 52.4579 6.07698 48.7757C2.20611 45.0884 0 40.0524 0 34.7658C0 29.4792 2.20611 24.4432 6.07698 20.7558C9.28514 17.6998 13.4194 15.7734 17.8201 15.2067C19.5425 10.5914 22.9123 6.6658 27.3394 4.03159C29.9377 2.48552 32.8331 1.4231 35.8585 0.89213C38.8839 0.361171 41.9941 0.369476 45.0162 0.91668C48.0383 1.46389 50.927 2.54195 53.5157 4.10231C56.1048 5.66295 58.351 7.68068 60.1104 10.0561C61.8707 12.4327 63.1068 15.1183 63.7283 17.963C64.0348 19.3658 64.1878 20.7893 64.1874 22.2126C68.3423 22.3146 72.3053 24.0028 75.2514 26.9368C78.2919 29.9647 80 34.0716 80 38.3538C80 42.6361 78.2919 46.7429 75.2514 49.7709C72.2108 52.7989 68.087 54.5 63.7871 54.5H60.1842C58.1944 54.5 56.5814 52.8936 56.5814 50.912C56.5814 48.9303 58.1944 47.3239 60.1842 47.3239H63.7871C66.176 47.3239 68.467 46.3789 70.1561 44.6966C71.8453 43.0144 72.7943 40.7328 72.7943 38.3538C72.7943 35.9748 71.8453 33.6932 70.1561 32.011C68.467 30.3288 66.176 29.3837 63.7871 29.3837H60.1842C59.0901 29.3837 58.0552 28.8885 57.3714 28.0378C56.6877 27.1871 56.4292 26.0731 56.6688 25.0098C57.0797 23.187 57.0859 21.3132 56.6873 19.4886C56.2885 17.663 55.488 15.9042 54.3116 14.3159C53.1343 12.7264 51.6014 11.3366 49.7845 10.2415C47.9672 9.14606 45.9095 8.37217 43.7272 7.97701Z" fill="#A9E5BB"/>
<path fill-rule="evenodd" clip-rule="evenodd" d="M35.9367 27.5384C37.3524 26.1539 39.6476 26.1539 41.0633 27.5384L51.9383 38.1748C53.3539 39.5594 53.3539 41.8042 51.9383 43.1888C50.5226 44.5734 48.2274 44.5734 46.8117 43.1888L42.125 38.6049V61.9545C42.125 63.9126 40.502 65.5 38.5 65.5C36.498 65.5 34.875 63.9126 34.875 61.9545V38.6049L30.1883 43.1888C28.7726 44.5734 26.4774 44.5734 25.0617 43.1888C23.6461 41.8042 23.6461 39.5594 25.0617 38.1748L35.9367 27.5384Z" fill="#A9E5BB"/>
</svg>